#N struct 1248-color float x float y float farbe;
#N struct 1248-color-display float x float y float farbe;
#N struct 1251-color float x float y float farbe;
#N struct 1251-color-display float x float y float farbe;
#N struct 1245-matrixctrl float x float y float size float color float
state;
#N canvas 424 164 687 381 10;
#N canvas 227 417 377 370 template 0;
#X obj 9 9 struct \$0-matrixctrl float x float y float size float color
float state;
#X obj 28 312 filledpolygon color 0 1 0 0 0 size size size size 0 0
0;
#X obj 9 52 route click change;
#X obj 91 152 bang;
#X obj 91 192 set \$0-matrixctrl size;
#X obj 28 122 t p p p;
#X obj 9 342 outlet;
#X obj 28 282 set \$0-matrixctrl color state;
#X obj 28 222 get \$0-matrixctrl state;
#X obj 48 92 outlet;
#X obj 9 72 t b p b;
#X obj 91 172 value _\$0_size;
#X obj 28 242 expr if($f1==0 \, _\$0_color1 \, _\$0_color0) \; if($f1==0
\, 1 \, 0);
#X connect 0 0 2 0;
#X connect 2 0 10 0;
#X connect 2 1 3 0;
#X connect 3 0 11 0;
#X connect 5 0 8 0;
#X connect 5 1 7 2;
#X connect 5 2 4 1;
#X connect 8 0 12 0;
#X connect 10 0 6 0;
#X connect 10 1 5 0;
#X connect 10 2 9 0;
#X connect 11 0 4 0;
#X connect 12 0 7 0;
#X connect 12 1 7 1;
#X restore 48 -184 pd template;
#N canvas 548 224 696 687 generate 0;
#X obj 64 553 symbol \$0-matrixctrl;
#X obj 18 653 s pd-\$0-gui;
#X obj 311 512 pack f f;
#X obj 168 452 f+ 0 1;
#X obj 18 392 until;
#X obj 18 452 f+ 0 1;
#X obj 168 492 i;
#X obj 18 593 pack f f s f;
#X obj 18 422 t b b;
#X msg 311 532 clear \, donecanvasdialog 1 -3 2 0 0 \$1 \$2 \$1 \$2
20 20 \, dirty 0;
#X obj 311 381 pack f f;
#X obj 311 421 s \$0-matrixctrl;
#X msg 311 401 donecanvasdialog 1 -3 2 0 -1 1 1 \$1 \$2 100 50 \, dirty
0;
#X msg 18 613 scalar \$3 \$1 \$2 \$4 899 0;
#X obj 121 42 value _\$0_size;
#X obj 135 112 value _\$0_column;
#X obj 108 142 value _\$0_row;
#X obj 18 12 loadbang;
#X obj 18 372 expr _\$0_row * _\$0_column;
#X obj 168 472 expr $f1 / _\$0_column;
#X obj 18 472 expr $f1 % _\$0_column;
#X obj 33 232 s \$0-INIT;
#X obj 18 32 t b b b b b;
#X obj 345 142 inlet;
#X obj 384 182 unpack f f;
#X obj 375 82 inlet;
#X obj 375 102 t b f;
#X obj 121 22 expr if( \$3 == 0 \, 13 \, \$3 );
#X obj 356 361 expr _\$0_size * _\$0_row + 2;
#X obj 311 341 expr _\$0_size * _\$0_column + 2;
#X obj 311 321 t b b;
#X obj 356 472 expr _\$0_size * _\$0_row;
#X obj 311 492 expr _\$0_size * _\$0_column;
#X obj 311 452 t b b;
#X obj 168 512 expr $f1 * _\$0_size;
#X obj 18 512 expr $f1 * _\$0_size;
#X obj 87 573 value _\$0_size;
#X obj 18 271 t b;
#X obj 18 292 t b b b b b;
#X obj 345 162 t b b a;
#X obj 135 92 \$1;
#X obj 108 122 \$2;
#X text 231 204 (column and row are switched in the variable order
\, because the patch was made so from the beginning);
#X obj 18 352 t b b b;
#X obj 108 72 t b b;
#X obj 49 132 t b b;
#X obj 76 172 value _\$0_color1;
#X obj 49 202 value _\$0_color0;
#X obj 49 182 899;
#X obj 458 22 inlet;
#X obj 542 92 unpack f f;
#X obj 458 42 route bang;
#N canvas 1392 258 311 289 reset-color 0;
#X obj 23 81 until;
#X obj 63 171 pointer \$0-matrixctrl;
#X obj 63 121 symbol pd-\$0-gui;
#X msg 23 101 next;
#X msg 63 141 traverse \$1;
#X obj 23 41 t b b;
#X obj 23 61 expr _\$0_row * _\$0_column;
#X obj 23 21 inlet;
#X obj 63 221 get \$0-matrixctrl state;
#X obj 63 261 set \$0-matrixctrl color;
#X obj 63 191 t p p;
#X obj 63 241 expr if($f1==1 \, _\$0_color1 \, _\$0_color0);
#X connect 0 0 3 0;
#X connect 1 0 10 0;
#X connect 2 0 4 0;
#X connect 3 0 1 0;
#X connect 4 0 1 0;
#X connect 5 0 6 0;
#X connect 5 1 2 0;
#X connect 6 0 0 0;
#X connect 7 0 5 0;
#X connect 8 0 11 0;
#X connect 10 0 8 0;
#X connect 10 1 9 1;
#X connect 11 0 9 0;
#X restore 515 122 pd reset-color;
#X obj 515 72 t b a;
#X obj 76 152 800;
#X obj 458 152 s pd-\$0-color-selector;
#X msg 458 132 vis 1;
#N canvas 439 459 518 243 \$0-color-selector 0;
#N canvas 298 464 528 328 color-sel-gui 0;
#X obj 12 59 ds-color-sel;
#X obj 12 154 ds-color-sel;
#X text 12 41 "Off" color;
#X text 12 136 "On" color;
#X text 12 13 Click the desired color for the fields \, and click the
button when you're finished.;
#X obj 425 25 bng 15 250 50 0 \$0-send-colors \$0-send-colors-i empty
17 7 0 10 -228856 -1 -1;
#X text 442 23 Send colors;
#X obj 12 258 pack s f f;
#X msg 12 238 symbol color;
#X obj 12 298 s \$0-color-reset;
#X msg 12 278 \$2 \$3;
#X connect 0 0 7 1;
#X connect 1 0 7 2;
#X connect 5 0 8 0;
#X connect 7 0 10 0;
#X connect 8 0 7 0;
#X connect 10 0 9 0;
#X coords 0 -1 1 1 506 217 2 10 10;
#X restore 5 14 pd color-sel-gui;
#X restore 458 172 pd \$0-color-selector;
#X obj 535 42 r \$0-color-reset;
#X connect 0 0 7 2;
#X connect 2 0 9 0;
#X connect 3 0 19 0;
#X connect 4 0 8 0;
#X connect 5 0 20 0;
#X connect 6 0 34 0;
#X connect 7 0 13 0;
#X connect 8 0 5 0;
#X connect 8 1 3 0;
#X connect 9 0 1 0;
#X connect 10 0 12 0;
#X connect 12 0 11 0;
#X connect 13 0 1 0;
#X connect 17 0 22 0;
#X connect 18 0 4 0;
#X connect 19 0 6 0;
#X connect 20 0 35 0;
#X connect 22 0 37 0;
#X connect 22 1 21 0;
#X connect 22 2 45 0;
#X connect 22 3 44 0;
#X connect 22 4 27 0;
#X connect 23 0 39 0;
#X connect 24 0 16 0;
#X connect 24 1 15 0;
#X connect 25 0 26 0;
#X connect 26 0 37 0;
#X connect 26 1 14 0;
#X connect 27 0 14 0;
#X connect 28 0 10 1;
#X connect 29 0 10 0;
#X connect 30 0 29 0;
#X connect 30 1 28 0;
#X connect 31 0 2 1;
#X connect 32 0 2 0;
#X connect 33 0 32 0;
#X connect 33 1 31 0;
#X connect 34 0 7 1;
#X connect 35 0 7 0;
#X connect 36 0 7 3;
#X connect 37 0 38 0;
#X connect 38 0 43 0;
#X connect 38 1 0 0;
#X connect 38 2 36 0;
#X connect 38 3 33 0;
#X connect 38 4 30 0;
#X connect 39 0 37 0;
#X connect 39 1 21 0;
#X connect 39 2 24 0;
#X connect 40 0 15 0;
#X connect 41 0 16 0;
#X connect 43 0 18 0;
#X connect 43 1 5 1;
#X connect 43 2 3 1;
#X connect 44 0 41 0;
#X connect 44 1 40 0;
#X connect 45 0 48 0;
#X connect 45 1 54 0;
#X connect 48 0 47 0;
#X connect 49 0 51 0;
#X connect 50 0 47 0;
#X connect 50 1 46 0;
#X connect 51 0 56 0;
#X connect 51 1 53 0;
#X connect 53 0 52 0;
#X connect 53 1 50 0;
#X connect 54 0 46 0;
#X connect 56 0 55 0;
#X connect 58 0 53 0;
#X restore 48 -214 pd generate;
#N canvas 290 512 450 300 \$0-gui 0;
#X scalar 1245-matrixctrl 0 0 13 899 0 \;;
#X scalar 1245-matrixctrl 13 0 13 899 0 \;;
#X scalar 1245-matrixctrl 26 0 13 899 0 \;;
#X scalar 1245-matrixctrl 39 0 13 899 0 \;;
#X scalar 1245-matrixctrl 52 0 13 899 0 \;;
#X scalar 1245-matrixctrl 65 0 13 899 0 \;;
#X scalar 1245-matrixctrl 78 0 13 899 0 \;;
#X scalar 1245-matrixctrl 91 0 13 899 0 \;;
#X scalar 1245-matrixctrl 104 0 13 899 0 \;;
#X scalar 1245-matrixctrl 117 0 13 899 0 \;;
#X scalar 1245-matrixctrl 130 0 13 899 0 \;;
#X scalar 1245-matrixctrl 143 0 13 899 0 \;;
#X scalar 1245-matrixctrl 156 0 13 899 0 \;;
#X scalar 1245-matrixctrl 169 0 13 899 0 \;;
#X scalar 1245-matrixctrl 182 0 13 899 0 \;;
#X scalar 1245-matrixctrl 195 0 13 899 0 \;;
#X scalar 1245-matrixctrl 208 0 13 899 0 \;;
#X scalar 1245-matrixctrl 221 0 13 899 0 \;;
#X scalar 1245-matrixctrl 234 0 13 899 0 \;;
#X scalar 1245-matrixctrl 247 0 13 899 0 \;;
#X scalar 1245-matrixctrl 260 0 13 899 0 \;;
#X scalar 1245-matrixctrl 273 0 13 899 0 \;;
#X scalar 1245-matrixctrl 286 0 13 899 0 \;;
#X scalar 1245-matrixctrl 299 0 13 899 0 \;;
#X scalar 1245-matrixctrl 312 0 13 899 0 \;;
#X scalar 1245-matrixctrl 325 0 13 899 0 \;;
#X scalar 1245-matrixctrl 338 0 13 899 0 \;;
#X scalar 1245-matrixctrl 351 0 13 899 0 \;;
#X scalar 1245-matrixctrl 364 0 13 899 0 \;;
#X scalar 1245-matrixctrl 377 0 13 899 0 \;;
#X scalar 1245-matrixctrl 390 0 13 899 0 \;;
#X scalar 1245-matrixctrl 403 0 13 899 0 \;;
#X scalar 1245-matrixctrl 0 13 13 899 0 \;;
#X scalar 1245-matrixctrl 13 13 13 899 0 \;;
#X scalar 1245-matrixctrl 26 13 13 899 0 \;;
#X scalar 1245-matrixctrl 39 13 13 899 0 \;;
#X scalar 1245-matrixctrl 52 13 13 899 0 \;;
#X scalar 1245-matrixctrl 65 13 13 899 0 \;;
#X scalar 1245-matrixctrl 78 13 13 899 0 \;;
#X scalar 1245-matrixctrl 91 13 13 899 0 \;;
#X scalar 1245-matrixctrl 104 13 13 899 0 \;;
#X scalar 1245-matrixctrl 117 13 13 899 0 \;;
#X scalar 1245-matrixctrl 130 13 13 899 0 \;;
#X scalar 1245-matrixctrl 143 13 13 899 0 \;;
#X scalar 1245-matrixctrl 156 13 13 899 0 \;;
#X scalar 1245-matrixctrl 169 13 13 899 0 \;;
#X scalar 1245-matrixctrl 182 13 13 899 0 \;;
#X scalar 1245-matrixctrl 195 13 13 899 0 \;;
#X scalar 1245-matrixctrl 208 13 13 899 0 \;;
#X scalar 1245-matrixctrl 221 13 13 899 0 \;;
#X scalar 1245-matrixctrl 234 13 13 899 0 \;;
#X scalar 1245-matrixctrl 247 13 13 899 0 \;;
#X scalar 1245-matrixctrl 260 13 13 899 0 \;;
#X scalar 1245-matrixctrl 273 13 13 899 0 \;;
#X scalar 1245-matrixctrl 286 13 13 899 0 \;;
#X scalar 1245-matrixctrl 299 13 13 899 0 \;;
#X scalar 1245-matrixctrl 312 13 13 899 0 \;;
#X scalar 1245-matrixctrl 325 13 13 899 0 \;;
#X scalar 1245-matrixctrl 338 13 13 899 0 \;;
#X scalar 1245-matrixctrl 351 13 13 899 0 \;;
#X scalar 1245-matrixctrl 364 13 13 899 0 \;;
#X scalar 1245-matrixctrl 377 13 13 899 0 \;;
#X scalar 1245-matrixctrl 390 13 13 899 0 \;;
#X scalar 1245-matrixctrl 403 13 13 899 0 \;;
#X scalar 1245-matrixctrl 0 26 13 899 0 \;;
#X scalar 1245-matrixctrl 13 26 13 899 0 \;;
#X scalar 1245-matrixctrl 26 26 13 899 0 \;;
#X scalar 1245-matrixctrl 39 26 13 899 0 \;;
#X scalar 1245-matrixctrl 52 26 13 899 0 \;;
#X scalar 1245-matrixctrl 65 26 13 899 0 \;;
#X scalar 1245-matrixctrl 78 26 13 899 0 \;;
#X scalar 1245-matrixctrl 91 26 13 899 0 \;;
#X scalar 1245-matrixctrl 104 26 13 899 0 \;;
#X scalar 1245-matrixctrl 117 26 13 899 0 \;;
#X scalar 1245-matrixctrl 130 26 13 899 0 \;;
#X scalar 1245-matrixctrl 143 26 13 899 0 \;;
#X scalar 1245-matrixctrl 156 26 13 899 0 \;;
#X scalar 1245-matrixctrl 169 26 13 899 0 \;;
#X scalar 1245-matrixctrl 182 26 13 899 0 \;;
#X scalar 1245-matrixctrl 195 26 13 899 0 \;;
#X scalar 1245-matrixctrl 208 26 13 899 0 \;;
#X scalar 1245-matrixctrl 221 26 13 899 0 \;;
#X scalar 1245-matrixctrl 234 26 13 899 0 \;;
#X scalar 1245-matrixctrl 247 26 13 899 0 \;;
#X scalar 1245-matrixctrl 260 26 13 899 0 \;;
#X scalar 1245-matrixctrl 273 26 13 899 0 \;;
#X scalar 1245-matrixctrl 286 26 13 899 0 \;;
#X scalar 1245-matrixctrl 299 26 13 899 0 \;;
#X scalar 1245-matrixctrl 312 26 13 899 0 \;;
#X scalar 1245-matrixctrl 325 26 13 899 0 \;;
#X scalar 1245-matrixctrl 338 26 13 899 0 \;;
#X scalar 1245-matrixctrl 351 26 13 899 0 \;;
#X scalar 1245-matrixctrl 364 26 13 899 0 \;;
#X scalar 1245-matrixctrl 377 26 13 899 0 \;;
#X scalar 1245-matrixctrl 390 26 13 899 0 \;;
#X scalar 1245-matrixctrl 403 26 13 899 0 \;;
#X scalar 1245-matrixctrl 0 39 13 899 0 \;;
#X scalar 1245-matrixctrl 13 39 13 899 0 \;;
#X scalar 1245-matrixctrl 26 39 13 899 0 \;;
#X scalar 1245-matrixctrl 39 39 13 899 0 \;;
#X scalar 1245-matrixctrl 52 39 13 899 0 \;;
#X scalar 1245-matrixctrl 65 39 13 899 0 \;;
#X scalar 1245-matrixctrl 78 39 13 899 0 \;;
#X scalar 1245-matrixctrl 91 39 13 899 0 \;;
#X scalar 1245-matrixctrl 104 39 13 899 0 \;;
#X scalar 1245-matrixctrl 117 39 13 899 0 \;;
#X scalar 1245-matrixctrl 130 39 13 899 0 \;;
#X scalar 1245-matrixctrl 143 39 13 899 0 \;;
#X scalar 1245-matrixctrl 156 39 13 899 0 \;;
#X scalar 1245-matrixctrl 169 39 13 899 0 \;;
#X scalar 1245-matrixctrl 182 39 13 899 0 \;;
#X scalar 1245-matrixctrl 195 39 13 899 0 \;;
#X scalar 1245-matrixctrl 208 39 13 899 0 \;;
#X scalar 1245-matrixctrl 221 39 13 899 0 \;;
#X scalar 1245-matrixctrl 234 39 13 899 0 \;;
#X scalar 1245-matrixctrl 247 39 13 899 0 \;;
#X scalar 1245-matrixctrl 260 39 13 899 0 \;;
#X scalar 1245-matrixctrl 273 39 13 899 0 \;;
#X scalar 1245-matrixctrl 286 39 13 899 0 \;;
#X scalar 1245-matrixctrl 299 39 13 899 0 \;;
#X scalar 1245-matrixctrl 312 39 13 899 0 \;;
#X scalar 1245-matrixctrl 325 39 13 899 0 \;;
#X scalar 1245-matrixctrl 338 39 13 899 0 \;;
#X scalar 1245-matrixctrl 351 39 13 899 0 \;;
#X scalar 1245-matrixctrl 364 39 13 899 0 \;;
#X scalar 1245-matrixctrl 377 39 13 899 0 \;;
#X scalar 1245-matrixctrl 390 39 13 899 0 \;;
#X scalar 1245-matrixctrl 403 39 13 899 0 \;;
#X scalar 1245-matrixctrl 0 52 13 899 0 \;;
#X scalar 1245-matrixctrl 13 52 13 899 0 \;;
#X scalar 1245-matrixctrl 26 52 13 899 0 \;;
#X scalar 1245-matrixctrl 39 52 13 899 0 \;;
#X scalar 1245-matrixctrl 52 52 13 899 0 \;;
#X scalar 1245-matrixctrl 65 52 13 899 0 \;;
#X scalar 1245-matrixctrl 78 52 13 899 0 \;;
#X scalar 1245-matrixctrl 91 52 13 899 0 \;;
#X scalar 1245-matrixctrl 104 52 13 899 0 \;;
#X scalar 1245-matrixctrl 117 52 13 899 0 \;;
#X scalar 1245-matrixctrl 130 52 13 899 0 \;;
#X scalar 1245-matrixctrl 143 52 13 899 0 \;;
#X scalar 1245-matrixctrl 156 52 13 899 0 \;;
#X scalar 1245-matrixctrl 169 52 13 899 0 \;;
#X scalar 1245-matrixctrl 182 52 13 899 0 \;;
#X scalar 1245-matrixctrl 195 52 13 899 0 \;;
#X scalar 1245-matrixctrl 208 52 13 899 0 \;;
#X scalar 1245-matrixctrl 221 52 13 899 0 \;;
#X scalar 1245-matrixctrl 234 52 13 899 0 \;;
#X scalar 1245-matrixctrl 247 52 13 899 0 \;;
#X scalar 1245-matrixctrl 260 52 13 899 0 \;;
#X scalar 1245-matrixctrl 273 52 13 899 0 \;;
#X scalar 1245-matrixctrl 286 52 13 899 0 \;;
#X scalar 1245-matrixctrl 299 52 13 899 0 \;;
#X scalar 1245-matrixctrl 312 52 13 899 0 \;;
#X scalar 1245-matrixctrl 325 52 13 899 0 \;;
#X scalar 1245-matrixctrl 338 52 13 899 0 \;;
#X scalar 1245-matrixctrl 351 52 13 899 0 \;;
#X scalar 1245-matrixctrl 364 52 13 899 0 \;;
#X scalar 1245-matrixctrl 377 52 13 899 0 \;;
#X scalar 1245-matrixctrl 390 52 13 899 0 \;;
#X scalar 1245-matrixctrl 403 52 13 899 0 \;;
#X scalar 1245-matrixctrl 0 65 13 899 0 \;;
#X scalar 1245-matrixctrl 13 65 13 899 0 \;;
#X scalar 1245-matrixctrl 26 65 13 899 0 \;;
#X scalar 1245-matrixctrl 39 65 13 899 0 \;;
#X scalar 1245-matrixctrl 52 65 13 899 0 \;;
#X scalar 1245-matrixctrl 65 65 13 899 0 \;;
#X scalar 1245-matrixctrl 78 65 13 899 0 \;;
#X scalar 1245-matrixctrl 91 65 13 899 0 \;;
#X scalar 1245-matrixctrl 104 65 13 899 0 \;;
#X scalar 1245-matrixctrl 117 65 13 899 0 \;;
#X scalar 1245-matrixctrl 130 65 13 899 0 \;;
#X scalar 1245-matrixctrl 143 65 13 899 0 \;;
#X scalar 1245-matrixctrl 156 65 13 899 0 \;;
#X scalar 1245-matrixctrl 169 65 13 899 0 \;;
#X scalar 1245-matrixctrl 182 65 13 899 0 \;;
#X scalar 1245-matrixctrl 195 65 13 899 0 \;;
#X scalar 1245-matrixctrl 208 65 13 899 0 \;;
#X scalar 1245-matrixctrl 221 65 13 899 0 \;;
#X scalar 1245-matrixctrl 234 65 13 899 0 \;;
#X scalar 1245-matrixctrl 247 65 13 899 0 \;;
#X scalar 1245-matrixctrl 260 65 13 899 0 \;;
#X scalar 1245-matrixctrl 273 65 13 899 0 \;;
#X scalar 1245-matrixctrl 286 65 13 899 0 \;;
#X scalar 1245-matrixctrl 299 65 13 899 0 \;;
#X scalar 1245-matrixctrl 312 65 13 899 0 \;;
#X scalar 1245-matrixctrl 325 65 13 899 0 \;;
#X scalar 1245-matrixctrl 338 65 13 899 0 \;;
#X scalar 1245-matrixctrl 351 65 13 899 0 \;;
#X scalar 1245-matrixctrl 364 65 13 899 0 \;;
#X scalar 1245-matrixctrl 377 65 13 899 0 \;;
#X scalar 1245-matrixctrl 390 65 13 899 0 \;;
#X scalar 1245-matrixctrl 403 65 13 899 0 \;;
#X scalar 1245-matrixctrl 0 78 13 899 0 \;;
#X scalar 1245-matrixctrl 13 78 13 899 0 \;;
#X scalar 1245-matrixctrl 26 78 13 899 0 \;;
#X scalar 1245-matrixctrl 39 78 13 899 0 \;;
#X scalar 1245-matrixctrl 52 78 13 899 0 \;;
#X scalar 1245-matrixctrl 65 78 13 899 0 \;;
#X scalar 1245-matrixctrl 78 78 13 899 0 \;;
#X scalar 1245-matrixctrl 91 78 13 899 0 \;;
#X scalar 1245-matrixctrl 104 78 13 899 0 \;;
#X scalar 1245-matrixctrl 117 78 13 899 0 \;;
#X scalar 1245-matrixctrl 130 78 13 899 0 \;;
#X scalar 1245-matrixctrl 143 78 13 899 0 \;;
#X scalar 1245-matrixctrl 156 78 13 899 0 \;;
#X scalar 1245-matrixctrl 169 78 13 899 0 \;;
#X scalar 1245-matrixctrl 182 78 13 899 0 \;;
#X scalar 1245-matrixctrl 195 78 13 899 0 \;;
#X scalar 1245-matrixctrl 208 78 13 899 0 \;;
#X scalar 1245-matrixctrl 221 78 13 899 0 \;;
#X scalar 1245-matrixctrl 234 78 13 899 0 \;;
#X scalar 1245-matrixctrl 247 78 13 899 0 \;;
#X scalar 1245-matrixctrl 260 78 13 899 0 \;;
#X scalar 1245-matrixctrl 273 78 13 899 0 \;;
#X scalar 1245-matrixctrl 286 78 13 899 0 \;;
#X scalar 1245-matrixctrl 299 78 13 899 0 \;;
#X scalar 1245-matrixctrl 312 78 13 899 0 \;;
#X scalar 1245-matrixctrl 325 78 13 899 0 \;;
#X scalar 1245-matrixctrl 338 78 13 899 0 \;;
#X scalar 1245-matrixctrl 351 78 13 899 0 \;;
#X scalar 1245-matrixctrl 364 78 13 899 0 \;;
#X scalar 1245-matrixctrl 377 78 13 899 0 \;;
#X scalar 1245-matrixctrl 390 78 13 899 0 \;;
#X scalar 1245-matrixctrl 403 78 13 899 0 \;;
#X scalar 1245-matrixctrl 0 91 13 899 0 \;;
#X scalar 1245-matrixctrl 13 91 13 899 0 \;;
#X scalar 1245-matrixctrl 26 91 13 899 0 \;;
#X scalar 1245-matrixctrl 39 91 13 899 0 \;;
#X scalar 1245-matrixctrl 52 91 13 899 0 \;;
#X scalar 1245-matrixctrl 65 91 13 899 0 \;;
#X scalar 1245-matrixctrl 78 91 13 899 0 \;;
#X scalar 1245-matrixctrl 91 91 13 899 0 \;;
#X scalar 1245-matrixctrl 104 91 13 899 0 \;;
#X scalar 1245-matrixctrl 117 91 13 899 0 \;;
#X scalar 1245-matrixctrl 130 91 13 899 0 \;;
#X scalar 1245-matrixctrl 143 91 13 899 0 \;;
#X scalar 1245-matrixctrl 156 91 13 899 0 \;;
#X scalar 1245-matrixctrl 169 91 13 899 0 \;;
#X scalar 1245-matrixctrl 182 91 13 899 0 \;;
#X scalar 1245-matrixctrl 195 91 13 899 0 \;;
#X scalar 1245-matrixctrl 208 91 13 899 0 \;;
#X scalar 1245-matrixctrl 221 91 13 899 0 \;;
#X scalar 1245-matrixctrl 234 91 13 899 0 \;;
#X scalar 1245-matrixctrl 247 91 13 899 0 \;;
#X scalar 1245-matrixctrl 260 91 13 899 0 \;;
#X scalar 1245-matrixctrl 273 91 13 899 0 \;;
#X scalar 1245-matrixctrl 286 91 13 899 0 \;;
#X scalar 1245-matrixctrl 299 91 13 899 0 \;;
#X scalar 1245-matrixctrl 312 91 13 899 0 \;;
#X scalar 1245-matrixctrl 325 91 13 899 0 \;;
#X scalar 1245-matrixctrl 338 91 13 899 0 \;;
#X scalar 1245-matrixctrl 351 91 13 899 0 \;;
#X scalar 1245-matrixctrl 364 91 13 899 0 \;;
#X scalar 1245-matrixctrl 377 91 13 899 0 \;;
#X scalar 1245-matrixctrl 390 91 13 899 0 \;;
#X scalar 1245-matrixctrl 403 91 13 899 0 \;;
#X scalar 1245-matrixctrl 0 104 13 899 0 \;;
#X scalar 1245-matrixctrl 13 104 13 899 0 \;;
#X scalar 1245-matrixctrl 26 104 13 899 0 \;;
#X scalar 1245-matrixctrl 39 104 13 899 0 \;;
#X scalar 1245-matrixctrl 52 104 13 899 0 \;;
#X scalar 1245-matrixctrl 65 104 13 899 0 \;;
#X scalar 1245-matrixctrl 78 104 13 899 0 \;;
#X scalar 1245-matrixctrl 91 104 13 899 0 \;;
#X scalar 1245-matrixctrl 104 104 13 899 0 \;;
#X scalar 1245-matrixctrl 117 104 13 899 0 \;;
#X scalar 1245-matrixctrl 130 104 13 899 0 \;;
#X scalar 1245-matrixctrl 143 104 13 899 0 \;;
#X scalar 1245-matrixctrl 156 104 13 899 0 \;;
#X scalar 1245-matrixctrl 169 104 13 899 0 \;;
#X scalar 1245-matrixctrl 182 104 13 899 0 \;;
#X scalar 1245-matrixctrl 195 104 13 899 0 \;;
#X scalar 1245-matrixctrl 208 104 13 899 0 \;;
#X scalar 1245-matrixctrl 221 104 13 899 0 \;;
#X scalar 1245-matrixctrl 234 104 13 899 0 \;;
#X scalar 1245-matrixctrl 247 104 13 899 0 \;;
#X scalar 1245-matrixctrl 260 104 13 899 0 \;;
#X scalar 1245-matrixctrl 273 104 13 899 0 \;;
#X scalar 1245-matrixctrl 286 104 13 899 0 \;;
#X scalar 1245-matrixctrl 299 104 13 899 0 \;;
#X scalar 1245-matrixctrl 312 104 13 899 0 \;;
#X scalar 1245-matrixctrl 325 104 13 899 0 \;;
#X scalar 1245-matrixctrl 338 104 13 899 0 \;;
#X scalar 1245-matrixctrl 351 104 13 899 0 \;;
#X scalar 1245-matrixctrl 364 104 13 899 0 \;;
#X scalar 1245-matrixctrl 377 104 13 899 0 \;;
#X scalar 1245-matrixctrl 390 104 13 899 0 \;;
#X scalar 1245-matrixctrl 403 104 13 899 0 \;;
#X scalar 1245-matrixctrl 0 117 13 899 0 \;;
#X scalar 1245-matrixctrl 13 117 13 899 0 \;;
#X scalar 1245-matrixctrl 26 117 13 899 0 \;;
#X scalar 1245-matrixctrl 39 117 13 899 0 \;;
#X scalar 1245-matrixctrl 52 117 13 899 0 \;;
#X scalar 1245-matrixctrl 65 117 13 899 0 \;;
#X scalar 1245-matrixctrl 78 117 13 899 0 \;;
#X scalar 1245-matrixctrl 91 117 13 899 0 \;;
#X scalar 1245-matrixctrl 104 117 13 899 0 \;;
#X scalar 1245-matrixctrl 117 117 13 899 0 \;;
#X scalar 1245-matrixctrl 130 117 13 899 0 \;;
#X scalar 1245-matrixctrl 143 117 13 899 0 \;;
#X scalar 1245-matrixctrl 156 117 13 899 0 \;;
#X scalar 1245-matrixctrl 169 117 13 899 0 \;;
#X scalar 1245-matrixctrl 182 117 13 899 0 \;;
#X scalar 1245-matrixctrl 195 117 13 899 0 \;;
#X scalar 1245-matrixctrl 208 117 13 899 0 \;;
#X scalar 1245-matrixctrl 221 117 13 899 0 \;;
#X scalar 1245-matrixctrl 234 117 13 899 0 \;;
#X scalar 1245-matrixctrl 247 117 13 899 0 \;;
#X scalar 1245-matrixctrl 260 117 13 899 0 \;;
#X scalar 1245-matrixctrl 273 117 13 899 0 \;;
#X scalar 1245-matrixctrl 286 117 13 899 0 \;;
#X scalar 1245-matrixctrl 299 117 13 899 0 \;;
#X scalar 1245-matrixctrl 312 117 13 899 0 \;;
#X scalar 1245-matrixctrl 325 117 13 899 0 \;;
#X scalar 1245-matrixctrl 338 117 13 899 0 \;;
#X scalar 1245-matrixctrl 351 117 13 899 0 \;;
#X scalar 1245-matrixctrl 364 117 13 899 0 \;;
#X scalar 1245-matrixctrl 377 117 13 899 0 \;;
#X scalar 1245-matrixctrl 390 117 13 899 0 \;;
#X scalar 1245-matrixctrl 403 117 13 899 0 \;;
#X scalar 1245-matrixctrl 0 130 13 899 0 \;;
#X scalar 1245-matrixctrl 13 130 13 899 0 \;;
#X scalar 1245-matrixctrl 26 130 13 899 0 \;;
#X scalar 1245-matrixctrl 39 130 13 899 0 \;;
#X scalar 1245-matrixctrl 52 130 13 899 0 \;;
#X scalar 1245-matrixctrl 65 130 13 899 0 \;;
#X scalar 1245-matrixctrl 78 130 13 899 0 \;;
#X scalar 1245-matrixctrl 91 130 13 899 0 \;;
#X scalar 1245-matrixctrl 104 130 13 899 0 \;;
#X scalar 1245-matrixctrl 117 130 13 899 0 \;;
#X scalar 1245-matrixctrl 130 130 13 899 0 \;;
#X scalar 1245-matrixctrl 143 130 13 899 0 \;;
#X scalar 1245-matrixctrl 156 130 13 899 0 \;;
#X scalar 1245-matrixctrl 169 130 13 899 0 \;;
#X scalar 1245-matrixctrl 182 130 13 899 0 \;;
#X scalar 1245-matrixctrl 195 130 13 899 0 \;;
#X scalar 1245-matrixctrl 208 130 13 899 0 \;;
#X scalar 1245-matrixctrl 221 130 13 899 0 \;;
#X scalar 1245-matrixctrl 234 130 13 899 0 \;;
#X scalar 1245-matrixctrl 247 130 13 899 0 \;;
#X scalar 1245-matrixctrl 260 130 13 899 0 \;;
#X scalar 1245-matrixctrl 273 130 13 899 0 \;;
#X scalar 1245-matrixctrl 286 130 13 899 0 \;;
#X scalar 1245-matrixctrl 299 130 13 899 0 \;;
#X scalar 1245-matrixctrl 312 130 13 899 0 \;;
#X scalar 1245-matrixctrl 325 130 13 899 0 \;;
#X scalar 1245-matrixctrl 338 130 13 899 0 \;;
#X scalar 1245-matrixctrl 351 130 13 899 0 \;;
#X scalar 1245-matrixctrl 364 130 13 899 0 \;;
#X scalar 1245-matrixctrl 377 130 13 899 0 \;;
#X scalar 1245-matrixctrl 390 130 13 899 0 \;;
#X scalar 1245-matrixctrl 403 130 13 899 0 \;;
#X scalar 1245-matrixctrl 0 143 13 899 0 \;;
#X scalar 1245-matrixctrl 13 143 13 899 0 \;;
#X scalar 1245-matrixctrl 26 143 13 899 0 \;;
#X scalar 1245-matrixctrl 39 143 13 899 0 \;;
#X scalar 1245-matrixctrl 52 143 13 899 0 \;;
#X scalar 1245-matrixctrl 65 143 13 899 0 \;;
#X scalar 1245-matrixctrl 78 143 13 899 0 \;;
#X scalar 1245-matrixctrl 91 143 13 899 0 \;;
#X scalar 1245-matrixctrl 104 143 13 899 0 \;;
#X scalar 1245-matrixctrl 117 143 13 899 0 \;;
#X scalar 1245-matrixctrl 130 143 13 899 0 \;;
#X scalar 1245-matrixctrl 143 143 13 899 0 \;;
#X scalar 1245-matrixctrl 156 143 13 899 0 \;;
#X scalar 1245-matrixctrl 169 143 13 899 0 \;;
#X scalar 1245-matrixctrl 182 143 13 899 0 \;;
#X scalar 1245-matrixctrl 195 143 13 899 0 \;;
#X scalar 1245-matrixctrl 208 143 13 899 0 \;;
#X scalar 1245-matrixctrl 221 143 13 899 0 \;;
#X scalar 1245-matrixctrl 234 143 13 899 0 \;;
#X scalar 1245-matrixctrl 247 143 13 899 0 \;;
#X scalar 1245-matrixctrl 260 143 13 899 0 \;;
#X scalar 1245-matrixctrl 273 143 13 899 0 \;;
#X scalar 1245-matrixctrl 286 143 13 899 0 \;;
#X scalar 1245-matrixctrl 299 143 13 899 0 \;;
#X scalar 1245-matrixctrl 312 143 13 899 0 \;;
#X scalar 1245-matrixctrl 325 143 13 899 0 \;;
#X scalar 1245-matrixctrl 338 143 13 899 0 \;;
#X scalar 1245-matrixctrl 351 143 13 899 0 \;;
#X scalar 1245-matrixctrl 364 143 13 899 0 \;;
#X scalar 1245-matrixctrl 377 143 13 899 0 \;;
#X scalar 1245-matrixctrl 390 143 13 899 0 \;;
#X scalar 1245-matrixctrl 403 143 13 899 0 \;;
#X scalar 1245-matrixctrl 0 156 13 899 0 \;;
#X scalar 1245-matrixctrl 13 156 13 899 0 \;;
#X scalar 1245-matrixctrl 26 156 13 899 0 \;;
#X scalar 1245-matrixctrl 39 156 13 899 0 \;;
#X scalar 1245-matrixctrl 52 156 13 899 0 \;;
#X scalar 1245-matrixctrl 65 156 13 899 0 \;;
#X scalar 1245-matrixctrl 78 156 13 899 0 \;;
#X scalar 1245-matrixctrl 91 156 13 899 0 \;;
#X scalar 1245-matrixctrl 104 156 13 899 0 \;;
#X scalar 1245-matrixctrl 117 156 13 899 0 \;;
#X scalar 1245-matrixctrl 130 156 13 899 0 \;;
#X scalar 1245-matrixctrl 143 156 13 899 0 \;;
#X scalar 1245-matrixctrl 156 156 13 899 0 \;;
#X scalar 1245-matrixctrl 169 156 13 899 0 \;;
#X scalar 1245-matrixctrl 182 156 13 899 0 \;;
#X scalar 1245-matrixctrl 195 156 13 899 0 \;;
#X scalar 1245-matrixctrl 208 156 13 899 0 \;;
#X scalar 1245-matrixctrl 221 156 13 899 0 \;;
#X scalar 1245-matrixctrl 234 156 13 899 0 \;;
#X scalar 1245-matrixctrl 247 156 13 899 0 \;;
#X scalar 1245-matrixctrl 260 156 13 899 0 \;;
#X scalar 1245-matrixctrl 273 156 13 899 0 \;;
#X scalar 1245-matrixctrl 286 156 13 899 0 \;;
#X scalar 1245-matrixctrl 299 156 13 899 0 \;;
#X scalar 1245-matrixctrl 312 156 13 899 0 \;;
#X scalar 1245-matrixctrl 325 156 13 899 0 \;;
#X scalar 1245-matrixctrl 338 156 13 899 0 \;;
#X scalar 1245-matrixctrl 351 156 13 899 0 \;;
#X scalar 1245-matrixctrl 364 156 13 899 0 \;;
#X scalar 1245-matrixctrl 377 156 13 899 0 \;;
#X scalar 1245-matrixctrl 390 156 13 899 0 \;;
#X scalar 1245-matrixctrl 403 156 13 899 0 \;;
#X scalar 1245-matrixctrl 0 169 13 899 0 \;;
#X scalar 1245-matrixctrl 13 169 13 899 0 \;;
#X scalar 1245-matrixctrl 26 169 13 899 0 \;;
#X scalar 1245-matrixctrl 39 169 13 899 0 \;;
#X scalar 1245-matrixctrl 52 169 13 899 0 \;;
#X scalar 1245-matrixctrl 65 169 13 899 0 \;;
#X scalar 1245-matrixctrl 78 169 13 899 0 \;;
#X scalar 1245-matrixctrl 91 169 13 899 0 \;;
#X scalar 1245-matrixctrl 104 169 13 899 0 \;;
#X scalar 1245-matrixctrl 117 169 13 899 0 \;;
#X scalar 1245-matrixctrl 130 169 13 899 0 \;;
#X scalar 1245-matrixctrl 143 169 13 899 0 \;;
#X scalar 1245-matrixctrl 156 169 13 899 0 \;;
#X scalar 1245-matrixctrl 169 169 13 899 0 \;;
#X scalar 1245-matrixctrl 182 169 13 899 0 \;;
#X scalar 1245-matrixctrl 195 169 13 899 0 \;;
#X scalar 1245-matrixctrl 208 169 13 899 0 \;;
#X scalar 1245-matrixctrl 221 169 13 899 0 \;;
#X scalar 1245-matrixctrl 234 169 13 899 0 \;;
#X scalar 1245-matrixctrl 247 169 13 899 0 \;;
#X scalar 1245-matrixctrl 260 169 13 899 0 \;;
#X scalar 1245-matrixctrl 273 169 13 899 0 \;;
#X scalar 1245-matrixctrl 286 169 13 899 0 \;;
#X scalar 1245-matrixctrl 299 169 13 899 0 \;;
#X scalar 1245-matrixctrl 312 169 13 899 0 \;;
#X scalar 1245-matrixctrl 325 169 13 899 0 \;;
#X scalar 1245-matrixctrl 338 169 13 899 0 \;;
#X scalar 1245-matrixctrl 351 169 13 899 0 \;;
#X scalar 1245-matrixctrl 364 169 13 899 0 \;;
#X scalar 1245-matrixctrl 377 169 13 899 0 \;;
#X scalar 1245-matrixctrl 390 169 13 899 0 \;;
#X scalar 1245-matrixctrl 403 169 13 899 0 \;;
#X scalar 1245-matrixctrl 0 182 13 899 0 \;;
#X scalar 1245-matrixctrl 13 182 13 899 0 \;;
#X scalar 1245-matrixctrl 26 182 13 899 0 \;;
#X scalar 1245-matrixctrl 39 182 13 899 0 \;;
#X scalar 1245-matrixctrl 52 182 13 899 0 \;;
#X scalar 1245-matrixctrl 65 182 13 899 0 \;;
#X scalar 1245-matrixctrl 78 182 13 899 0 \;;
#X scalar 1245-matrixctrl 91 182 13 899 0 \;;
#X scalar 1245-matrixctrl 104 182 13 899 0 \;;
#X scalar 1245-matrixctrl 117 182 13 899 0 \;;
#X scalar 1245-matrixctrl 130 182 13 899 0 \;;
#X scalar 1245-matrixctrl 143 182 13 899 0 \;;
#X scalar 1245-matrixctrl 156 182 13 899 0 \;;
#X scalar 1245-matrixctrl 169 182 13 899 0 \;;
#X scalar 1245-matrixctrl 182 182 13 899 0 \;;
#X scalar 1245-matrixctrl 195 182 13 899 0 \;;
#X scalar 1245-matrixctrl 208 182 13 899 0 \;;
#X scalar 1245-matrixctrl 221 182 13 899 0 \;;
#X scalar 1245-matrixctrl 234 182 13 899 0 \;;
#X scalar 1245-matrixctrl 247 182 13 899 0 \;;
#X scalar 1245-matrixctrl 260 182 13 899 0 \;;
#X scalar 1245-matrixctrl 273 182 13 899 0 \;;
#X scalar 1245-matrixctrl 286 182 13 899 0 \;;
#X scalar 1245-matrixctrl 299 182 13 899 0 \;;
#X scalar 1245-matrixctrl 312 182 13 899 0 \;;
#X scalar 1245-matrixctrl 325 182 13 899 0 \;;
#X scalar 1245-matrixctrl 338 182 13 899 0 \;;
#X scalar 1245-matrixctrl 351 182 13 899 0 \;;
#X scalar 1245-matrixctrl 364 182 13 899 0 \;;
#X scalar 1245-matrixctrl 377 182 13 899 0 \;;
#X scalar 1245-matrixctrl 390 182 13 899 0 \;;
#X scalar 1245-matrixctrl 403 182 13 899 0 \;;
#X scalar 1245-matrixctrl 0 195 13 899 0 \;;
#X scalar 1245-matrixctrl 13 195 13 899 0 \;;
#X scalar 1245-matrixctrl 26 195 13 899 0 \;;
#X scalar 1245-matrixctrl 39 195 13 899 0 \;;
#X scalar 1245-matrixctrl 52 195 13 899 0 \;;
#X scalar 1245-matrixctrl 65 195 13 899 0 \;;
#X scalar 1245-matrixctrl 78 195 13 899 0 \;;
#X scalar 1245-matrixctrl 91 195 13 899 0 \;;
#X scalar 1245-matrixctrl 104 195 13 899 0 \;;
#X scalar 1245-matrixctrl 117 195 13 899 0 \;;
#X scalar 1245-matrixctrl 130 195 13 899 0 \;;
#X scalar 1245-matrixctrl 143 195 13 899 0 \;;
#X scalar 1245-matrixctrl 156 195 13 899 0 \;;
#X scalar 1245-matrixctrl 169 195 13 899 0 \;;
#X scalar 1245-matrixctrl 182 195 13 899 0 \;;
#X scalar 1245-matrixctrl 195 195 13 899 0 \;;
#X scalar 1245-matrixctrl 208 195 13 899 0 \;;
#X scalar 1245-matrixctrl 221 195 13 899 0 \;;
#X scalar 1245-matrixctrl 234 195 13 899 0 \;;
#X scalar 1245-matrixctrl 247 195 13 899 0 \;;
#X scalar 1245-matrixctrl 260 195 13 899 0 \;;
#X scalar 1245-matrixctrl 273 195 13 899 0 \;;
#X scalar 1245-matrixctrl 286 195 13 899 0 \;;
#X scalar 1245-matrixctrl 299 195 13 899 0 \;;
#X scalar 1245-matrixctrl 312 195 13 899 0 \;;
#X scalar 1245-matrixctrl 325 195 13 899 0 \;;
#X scalar 1245-matrixctrl 338 195 13 899 0 \;;
#X scalar 1245-matrixctrl 351 195 13 899 0 \;;
#X scalar 1245-matrixctrl 364 195 13 899 0 \;;
#X scalar 1245-matrixctrl 377 195 13 899 0 \;;
#X scalar 1245-matrixctrl 390 195 13 899 0 \;;
#X scalar 1245-matrixctrl 403 195 13 899 0 \;;
#X coords 0 0 416 208 416 208 2 20 20;
#X restore 101 51 pd \$0-gui;
#X obj 48 -94 outlet;
#X obj 48 -54 namecanvas \$0-matrixctrl;
#X obj 48 -274 inlet;
#N canvas 789 175 369 465 gui-output 0;
#X obj 25 19 inlet;
#X obj 85 429 outlet;
#X obj 25 99 until;
#X obj 85 149 pointer \$0-matrixctrl;
#X obj 85 99 symbol pd-\$0-gui;
#X msg 85 119 traverse \$1;
#X msg 25 119 next;
#X obj 25 39 t b b;
#X obj 85 169 get \$0-matrixctrl state;
#X obj 25 79 t f f;
#X obj 85 189 list-abs/last-x;
#X obj 85 209 list-abs/list-rev;
#X obj 85 379 list trim;
#X text 65 18 reads fields and gives output;
#X obj 85 399 iemmatrix/mtx_transpose;
#X obj 154 319 pack;
#X obj 175 299 value _\$0_column;
#X obj 154 279 value _\$0_row;
#X msg 154 339 list matrix \$1 \$2;
#X obj 85 359 list prepend;
#X obj 154 239 r \$0-INIT;
#X obj 154 259 t b b;
#X obj 25 59 expr _\$0_row * _\$0_column;
#X connect 0 0 7 0;
#X connect 2 0 6 0;
#X connect 3 0 8 0;
#X connect 4 0 5 0;
#X connect 5 0 3 0;
#X connect 6 0 3 0;
#X connect 7 0 22 0;
#X connect 7 1 4 0;
#X connect 8 0 10 0;
#X connect 9 0 2 0;
#X connect 9 1 10 1;
#X connect 10 0 11 0;
#X connect 11 0 19 0;
#X connect 12 0 14 0;
#X connect 14 0 1 0;
#X connect 15 0 18 0;
#X connect 16 0 15 1;
#X connect 17 0 15 0;
#X connect 18 0 19 1;
#X connect 19 0 12 0;
#X connect 20 0 21 0;
#X connect 21 0 17 0;
#X connect 21 1 16 0;
#X connect 22 0 9 0;
#X restore 48 -124 pd gui-output;
#N canvas 0 0 426 446 license 0;
#X text 8 47 All rights reserved.;
#X text 8 227 The names of its contributors may not be used to endorse
or promote products derived from this software without specific prior
written permission.;
#X text 8 87 Redistribution and use in source and binary forms \, with
or without modification \, are permitted provided that the following
conditions are met:;
#X text 8 127 Redistributions of source code must retain the above
copyright notice \, this list of conditions and the following disclaimer.
;
#X text 8 297 THIS SOFTWARE IS PROVIDED BY THE COPYRIGHT HOLDERS AND
CONTRIBUTORS "AS IS" AND ANY EXPRESS OR IMPLIED WARRANTIES \, INCLUDING
\, BUT NOT LIMITED TO \, THE IMPLIED WARRANTIES OF MERCHANTABILITY
AND FITNESS FOR A PARTICULAR PURPOSE ARE DISCLAIMED. IN NO EVENT SHALL
THE COPYRIGHT OWNER OR CONTRIBUTORS BE LIABLE FOR ANY DIRECT \, INDIRECT
\, INCIDENTAL \, SPECIAL \, EXEMPLARY \, OR CONSEQUENTIAL DAMAGES (INCLUDING
\, BUT NOT LIMITED TO \, PROCUREMENT OF SUBSTITUTE GOODS OR SERVICES
;
#X text 8 167 Redistributions in binary form must reproduce the above
copyright notice \, this list of conditions and the following disclaimer
in the documentation and/or other materials provided with the distribution.
;
#X text 8 27 jmmmpais@googlemail.com;
#X text 8 7 Copyright 2006 \, João Pais;
#X restore 48 -8 pd license;
#X text 45 -28 (C) 2013 João Pais - jmmmpais@googlemail.com;
#N canvas 625 110 539 507 change 0;
#X obj 217 11 inlet;
#X obj 244 241 outlet;
#X obj 327 291 until;
#X obj 313 391 pointer \$0-matrixctrl;
#X obj 313 341 symbol pd-\$0-gui;
#X msg 327 311 next;
#X obj 293 241 unpack f f f;
#X obj 293 221 list-abs/list-rot -1;
#X msg 313 361 traverse \$1;
#X obj 293 464 set \$0-matrixctrl state color;
#X obj 274 201 t b a b;
#X obj 23 271 until;
#X obj 63 361 pointer \$0-matrixctrl;
#X obj 63 311 symbol pd-\$0-gui;
#X msg 23 291 next;
#X msg 63 331 traverse \$1;
#X obj 63 441 set \$0-matrixctrl state color;
#X obj 23 231 t b b;
#X obj 63 381 t b p;
#X obj 217 91 route mode;
#X obj 274 121 list prepend;
#X msg 237 61 mode AND;
#X obj 274 161 route AND OR;
#X obj 274 141 list trim;
#X obj 237 41 loadbang;
#X obj 23 131 inlet;
#X obj 23 151 spigot 0;
#X obj 308 181 t a b;
#X obj 68 101 sel AND OR;
#X obj 68 121 0;
#X obj 96 121 1;
#X obj 327 271 expr $f1 + $f2 * _\$0_column + 1;
#X obj 23 251 expr _\$0_row * _\$0_column;
#X obj 293 421 expr $f1 \; if($f1==1 \, _\$0_color1 \, _\$0_color0)
;
#X obj 63 401 expr 0 \; _\$0_color0;
#X obj 68 81 zexy/list2symbol;
#X obj 33 181 inlet;
#X obj 33 201 t b b;
#X connect 0 0 19 0;
#X connect 2 0 5 0;
#X connect 3 0 9 2;
#X connect 4 0 8 0;
#X connect 5 0 3 0;
#X connect 6 0 33 0;
#X connect 6 1 31 0;
#X connect 6 2 31 1;
#X connect 7 0 6 0;
#X connect 8 0 3 0;
#X connect 10 0 1 0;
#X connect 10 1 7 0;
#X connect 10 2 4 0;
#X connect 11 0 14 0;
#X connect 12 0 18 0;
#X connect 13 0 15 0;
#X connect 14 0 12 0;
#X connect 15 0 12 0;
#X connect 17 0 32 0;
#X connect 17 1 13 0;
#X connect 18 0 34 0;
#X connect 18 1 16 2;
#X connect 19 0 20 1;
#X connect 19 0 35 0;
#X connect 19 1 20 0;
#X connect 20 0 23 0;
#X connect 21 0 19 0;
#X connect 22 0 10 0;
#X connect 22 1 27 0;
#X connect 23 0 22 0;
#X connect 24 0 21 0;
#X connect 25 0 26 0;
#X connect 26 0 17 0;
#X connect 27 0 10 0;
#X connect 27 1 17 0;
#X connect 28 0 29 0;
#X connect 28 1 30 0;
#X connect 29 0 26 1;
#X connect 30 0 26 1;
#X connect 31 0 2 0;
#X connect 32 0 11 0;
#X connect 33 0 9 0;
#X connect 33 1 9 1;
#X connect 34 0 16 0;
#X connect 34 1 16 1;
#X connect 35 0 28 0;
#X connect 36 0 37 0;
#X connect 37 0 1 0;
#X connect 37 1 17 0;
#X restore 222 -154 pd change;
#X text 44 -324 [matrixctrl] - GUI for [iemmatrix/mtx_mul~];
#X text 332 -229 Inlets;
#X text 332 -49 Outlets;
#X text 332 -28 - output for [iemmatrix/mtx_mul~];
#X text 332 -259 - cell size (default is 13);
#X text 332 -209 - x y z - list with horizontal & vertical positions
\, and state (0/1);
#X text 332 -159 - "mode AND" / "mode OR" - matrix behaviour (default
is AND);
#X text 332 -119 - cellsize x - change cell size;
#X text 332 -139 - size x y - change matrix size;
#X text 331 -279 - number of inputs/rows;
#X text 332 -299 - number of outputs/columns;
#X text 332 -99 - color [x y] - change colors;
#X text 332 -319 Arguments - ALWAYS USE THE FIRST TWO ARGUMENTS;
#N canvas 802 380 290 346 read-matrix 0;
#X obj 14 14 inlet;
#X obj 83 244 pointer \$0-matrixctrl;
#X obj 83 194 symbol pd-\$0-gui;
#X msg 83 214 traverse \$1;
#X obj 57 124 zexy/drip;
#X msg 104 164 next;
#X text 54 13 imports matrix settings;
#X obj 57 144 t f b;
#X obj 57 317 set \$0-matrixctrl state color;
#X obj 57 274 expr $f1 \; if($f1==1 \, _\$0_color1 \, _\$0_color0)
;
#X obj 14 54 iemmatrix/mtx_transpose;
#X obj 33 94 list split 3;
#X obj 14 34 prepend matrix;
#X obj 14 184 outlet;
#X obj 14 74 t b a b;
#X connect 0 0 12 0;
#X connect 1 0 8 2;
#X connect 2 0 3 0;
#X connect 3 0 1 0;
#X connect 4 0 7 0;
#X connect 5 0 1 0;
#X connect 7 0 9 0;
#X connect 7 1 5 0;
#X connect 9 0 8 0;
#X connect 9 1 8 1;
#X connect 10 0 14 0;
#X connect 11 1 4 0;
#X connect 12 0 10 0;
#X connect 14 0 13 0;
#X connect 14 1 11 0;
#X connect 14 2 2 0;
#X restore 183 -214 pd read-matrix;
#X text 448 -9 falta: \; - mode OR para colunas ou linhas \; - mode
fade (AND com pegel \, outro objecto);
#X text 332 -79 - matrix ... - read matrix definitions;
#X obj 48 -254 route size cellsize color matrix reset;
#X text 332 -179 - reset - resets matrix;
#X connect 0 0 6 0;
#X connect 0 1 9 0;
#X connect 5 0 26 0;
#X connect 6 0 3 0;
#X connect 9 0 6 0;
#X connect 23 0 6 0;
#X connect 26 0 1 0;
#X connect 26 1 1 1;
#X connect 26 2 1 2;
#X connect 26 3 23 0;
#X connect 26 4 9 1;
#X connect 26 5 9 2;
#X coords 0 -1 1 1 418 210 2 100 50;
