#N canvas 815 156 1084 914 10;
#X obj 196 106 bng 15 250 50 0 empty empty empty 17 7 0 10 -262144
-1 -1;
#X obj 196 162 metro;
#X obj 196 128 t b b;
#X obj 196 187 bng 15 250 50 0 empty empty empty 17 7 0 10 -262144
-1 -1;
#X text 300 142 constant tone length period;
#X text 216 185 tone length update;
#X obj 16 -38 bng 15 250 50 0 empty empty empty 17 7 0 10 -262144 -1
-1;
#X text -22 -37 start;
#X obj 161 -36 r stop;
#X obj 111 -36 r start;
#X obj 111 -13 bng 15 250 50 0 empty empty empty 17 7 0 10 -262144
-1 -1;
#X obj 161 -13 bng 15 250 50 0 empty empty empty 17 7 0 10 -262144
-1 -1;
#X obj 111 58 s amplitude;
#X msg 161 7 0;
#X floatatom 111 34 5 0 0 0 - - -;
#X obj 39 -23 s start;
#X obj 144 145 r stop;
#X text 129 -15 on;
#X obj 18 66 bng 15 250 50 0 empty empty empty 17 7 0 10 -262144 -1
-1;
#X text -14 64 stop;
#X msg 43 81 stop;
#X obj 43 106 s stop;
#X obj 196 78 r start;
#X floatatom 383 -5 9 0 0 0 - - -;
#X obj 383 -106 r start;
#X obj 513 -32 loadbang;
#X obj 326 -58 r stop;
#X text 305 -7 current time;
#X obj 383 -83 t b b;
#X obj 383 29 moses;
#X obj 410 82 s end;
#X obj 42 49 r end;
#X text 182 -14 mute;
#X obj 411 647 +~;
#X obj 376 664 +~;
#X obj 350 749 writesf~ 2;
#X msg 195 688 open studie1.wav;
#X msg 170 718 start;
#X msg 231 736 stop;
#X obj 232 714 r stop;
#X obj 520 191 r stop;
#X obj 520 347 r stop;
#X obj 1000 346 r amplitude;
#X obj 1003 190 r amplitude;
#X obj 520 502 r stop;
#X obj 1003 501 r amplitude;
#X obj 7 1 del 60000;
#X obj 33 25 loadbang;
#X obj 383 -36 ../utls/stopWatch;
#X obj 583 207 ../utls/randomPitchAndLengthOscillator;
#X text 542 -6 track length seconds;
#X msg 482 -66 100;
#X obj 504 221 r start;
#X msg 502 244 1;
#X msg 265 145 500;
#X obj 511 44 bng 15 250 50 0 empty empty empty 17 7 0 10 -262144 -1
-1;
#X obj 333 47 bng 15 250 50 0 empty empty empty 17 7 0 10 -262144 -1
-1;
#X msg 513 -9 3;
#X obj 583 363 ../utls/randomPitchAndLengthOscillator;
#X obj 583 518 ../utls/randomPitchAndLengthOscillator;
#X obj -53 -77 route bang start stop;
#X obj 507 744 outlet~;
#X obj 59 -104 route multimelody;
#X obj 158 -76 s \$0-ctrl-out;
#X obj 615 728 outlet;
#X obj 613 694 r \$0-ctrl-out;
#X msg 111 7 0.2;
#X text 404 55 !!! automatic ending disabled;
#X obj 421 698 throw~ \$0-out;
#X obj -47 184 inlet~;
#X obj -48 222 throw~ \$0-out;
#X obj 11 -119 inlet;
#X obj 516 710 catch~ \$0-out;
#X connect 0 0 2 0;
#X connect 1 0 3 0;
#X connect 2 0 1 0;
#X connect 2 1 54 0;
#X connect 3 0 49 0;
#X connect 3 0 58 0;
#X connect 3 0 59 0;
#X connect 6 0 15 0;
#X connect 6 0 46 0;
#X connect 8 0 11 0;
#X connect 9 0 10 0;
#X connect 10 0 66 0;
#X connect 11 0 13 0;
#X connect 13 0 14 0;
#X connect 14 0 12 0;
#X connect 16 0 1 0;
#X connect 18 0 20 0;
#X connect 20 0 21 0;
#X connect 22 0 0 0;
#X connect 23 0 29 0;
#X connect 24 0 28 0;
#X connect 25 0 57 0;
#X connect 26 0 48 0;
#X connect 28 0 48 0;
#X connect 28 1 51 0;
#X connect 29 0 56 0;
#X connect 29 1 55 0;
#X connect 31 0 18 0;
#X connect 33 0 34 1;
#X connect 34 0 35 0;
#X connect 34 0 35 1;
#X connect 34 0 68 0;
#X connect 36 0 35 0;
#X connect 37 0 35 0;
#X connect 38 0 35 0;
#X connect 39 0 38 0;
#X connect 40 0 49 0;
#X connect 41 0 58 0;
#X connect 42 0 58 5;
#X connect 43 0 49 5;
#X connect 44 0 59 0;
#X connect 45 0 59 5;
#X connect 46 0 18 0;
#X connect 47 0 18 0;
#X connect 48 0 23 0;
#X connect 49 0 34 0;
#X connect 51 0 48 1;
#X connect 52 0 53 0;
#X connect 53 0 49 0;
#X connect 53 0 58 0;
#X connect 53 0 59 0;
#X connect 54 0 1 1;
#X connect 57 0 29 1;
#X connect 58 0 33 0;
#X connect 59 0 33 1;
#X connect 60 0 6 0;
#X connect 60 1 6 0;
#X connect 60 2 18 0;
#X connect 62 0 60 0;
#X connect 62 1 63 0;
#X connect 65 0 64 0;
#X connect 66 0 14 0;
#X connect 69 0 70 0;
#X connect 71 0 62 0;
#X connect 72 0 61 0;
