#N canvas 402 276 450 300 10;
#X obj 141 43 tgl 15 0 empty empty empty 17 7 0 10 -262144 -1 -1 0
1;
#X obj 141 69 metro 1000;
#X obj 141 97 random 12;
#X floatatom 141 124 5 0 0 0 - - -;
#X obj 141 151 + 48;
#X floatatom 141 178 5 0 0 0 - - -;
#X obj 141 205 makenote 100 1000;
#X obj 141 232 noteout 0;
#X connect 0 0 1 0;
#X connect 1 0 2 0;
#X connect 2 0 3 0;
#X connect 3 0 4 0;
#X connect 4 0 5 0;
#X connect 5 0 6 0;
#X connect 6 0 7 0;
#X connect 6 1 7 1;
