#N canvas 797 166 1084 914 10;
#X obj 196 106 bng 15 250 50 0 empty empty empty 17 7 0 10 -262144
-1 -1;
#X obj 196 162 metro;
#X obj 196 128 t b b;
#X msg 265 145 5000;
#X obj 196 187 bng 15 250 50 0 empty empty empty 17 7 0 10 -262144
-1 -1;
#X text 300 142 constant tone length period;
#X text 216 185 tone length update;
#X obj 16 -38 bng 15 250 50 0 empty empty empty 17 7 0 10 -262144 -1
-1;
#X text -22 -37 start;
#X obj 161 -36 r stop;
#X obj 111 -36 r start;
#X obj 111 -13 bng 15 250 50 0 empty empty empty 17 7 0 10 -262144
-1 -1;
#X obj 161 -13 bng 15 250 50 0 empty empty empty 17 7 0 10 -262144
-1 -1;
#X obj 111 58 s amplitude;
#X msg 161 7 0;
#X floatatom 111 34 5 0 0 0 - - -;
#X obj 39 -23 s start;
#X obj 144 145 r stop;
#X text 129 -15 on;
#X obj 18 66 bng 15 250 50 0 empty empty empty 17 7 0 10 -262144 -1
-1;
#X text -14 64 stop;
#X msg 43 81 stop;
#X obj 43 106 s stop;
#X obj 196 78 r start;
#X obj 318 37 stopWatch;
#X floatatom 318 64 5 0 0 0 - - -;
#X obj 318 -37 r start;
#X obj 398 37 loadbang;
#X text 427 63 track length;
#X obj 261 11 r stop;
#X text 240 62 current time;
#X obj 318 -14 t b b;
#X obj 318 98 moses;
#X msg 111 7 0.3;
#X msg 398 62 5;
#X obj 345 123 s end;
#X obj 42 49 r end;
#X text 182 -14 mute;
#X obj 411 647 +~;
#X obj 376 664 +~;
#X obj 350 749 writesf~ 2;
#X msg 195 688 open studie1.wav;
#X msg 170 718 start;
#X msg 231 736 stop;
#X obj 232 714 r stop;
#X obj 520 191 r stop;
#X obj 583 363 randomPitchAndLengthOscillator;
#X obj 520 347 r stop;
#X obj 1000 346 r amplitude;
#X obj 1003 190 r amplitude;
#X obj 520 502 r stop;
#X obj 1003 501 r amplitude;
#X obj 583 207 randomPitchAndLengthOscillator;
#X obj 583 518 randomPitchAndLengthOscillator;
#X obj 7 1 del 60000;
#X obj 33 25 loadbang;
#X connect 0 0 2 0;
#X connect 1 0 4 0;
#X connect 2 0 1 0;
#X connect 2 1 3 0;
#X connect 3 0 1 1;
#X connect 4 0 46 0;
#X connect 4 0 52 0;
#X connect 4 0 53 0;
#X connect 7 0 16 0;
#X connect 7 0 54 0;
#X connect 9 0 12 0;
#X connect 10 0 11 0;
#X connect 11 0 33 0;
#X connect 12 0 14 0;
#X connect 14 0 15 0;
#X connect 15 0 13 0;
#X connect 17 0 1 0;
#X connect 19 0 21 0;
#X connect 21 0 22 0;
#X connect 23 0 0 0;
#X connect 24 0 25 0;
#X connect 25 0 32 0;
#X connect 26 0 31 0;
#X connect 27 0 34 0;
#X connect 29 0 24 0;
#X connect 31 0 24 0;
#X connect 31 1 24 1;
#X connect 32 1 35 0;
#X connect 33 0 15 0;
#X connect 34 0 32 1;
#X connect 36 0 19 0;
#X connect 38 0 39 1;
#X connect 39 0 40 0;
#X connect 39 0 40 1;
#X connect 41 0 40 0;
#X connect 42 0 40 0;
#X connect 43 0 40 0;
#X connect 44 0 43 0;
#X connect 45 0 52 0;
#X connect 46 0 38 0;
#X connect 47 0 46 0;
#X connect 48 0 46 5;
#X connect 49 0 52 5;
#X connect 50 0 53 0;
#X connect 51 0 53 5;
#X connect 52 0 39 0;
#X connect 53 0 38 1;
#X connect 54 0 19 0;
#X connect 55 0 19 0;
