#N canvas 1126 328 792 552 10;
#N canvas 390 135 739 834 guts 1;
#X obj 38 139 metronomeBPM;
#X obj 52 -3 r \$0-bpm;
#X obj 38 167 s \$0-tick;
#X obj 283 40 r \$0-tick;
#X obj 283 129 f;
#X obj 283 157 + 1;
#X obj 283 251 s \$0-beat;
#X obj 283 195 %;
#X obj 303 224 + 1;
#X obj 326 150 r \$0-bpb;
#X obj 326 178 + 1;
#X obj 182 195 spigot;
#X obj 245 222 == 0;
#X floatatom 344 217 5 0 0 0 - - -;
#X obj 147 212 bng 15 250 50 0 empty empty empty 17 7 0 10 -262144
-1 -1;
#X floatatom 245 150 5 0 0 0 - - -;
#X obj 182 146 t b f f;
#X obj 392 292 f;
#X obj 392 321 + 1;
#X floatatom 394 366 5 0 0 0 - - -;
#X obj 332 356 s \$0-bar;
#X obj 352 81 t b b b b;
#X obj 240 178 != -1;
#X obj 127 293 s \$0-first;
#X obj 127 253 sel 1;
#X msg 403 113 -1;
#X obj 222 307 bng 15 250 50 0 empty empty empty 17 7 0 10 -262144
-1 -1;
#X obj 267 308 bng 15 250 50 0 empty empty empty 17 7 0 10 -262144
-1 -1;
#X obj 352 40 r \$0-start;
#X obj -60 5 r \$0-stop;
#X msg -43 64 stop;
#X msg 359 112 -1;
#X obj 57 380 r \$0-stop;
#X obj 127 380 r \$0-start;
#X msg 57 413 0;
#X msg 127 413 1;
#X obj 57 448 value \$0-status;
#X obj 48 45 t b b f;
#X obj 38 107 spigot;
#X floatatom 119 113 5 0 0 0 - - -;
#X obj 122 32 bng 15 250 50 0 empty empty empty 17 7 0 10 -262144 -1
-1;
#X obj 105 83 value \$0-status;
#X obj 447 32 r \$0-bpb;
#X connect 0 0 2 0;
#X connect 1 0 37 0;
#X connect 3 0 4 0;
#X connect 4 0 5 0;
#X connect 4 0 15 0;
#X connect 4 0 16 0;
#X connect 5 0 4 1;
#X connect 5 0 7 0;
#X connect 7 0 12 0;
#X connect 7 0 13 0;
#X connect 7 0 8 0;
#X connect 8 0 6 0;
#X connect 9 0 10 0;
#X connect 10 0 7 1;
#X connect 11 0 14 0;
#X connect 12 0 24 0;
#X connect 16 0 11 0;
#X connect 16 2 22 0;
#X connect 17 0 18 0;
#X connect 18 0 19 0;
#X connect 18 0 17 1;
#X connect 18 0 20 0;
#X connect 21 0 0 0;
#X connect 21 1 31 0;
#X connect 21 2 17 0;
#X connect 21 3 25 0;
#X connect 22 0 11 1;
#X connect 24 0 23 0;
#X connect 24 0 17 0;
#X connect 24 0 26 0;
#X connect 24 1 27 0;
#X connect 25 0 17 1;
#X connect 28 0 21 0;
#X connect 29 0 30 0;
#X connect 30 0 0 0;
#X connect 31 0 4 1;
#X connect 32 0 34 0;
#X connect 33 0 35 0;
#X connect 34 0 36 0;
#X connect 35 0 36 0;
#X connect 37 0 38 0;
#X connect 37 1 41 0;
#X connect 37 2 0 1;
#X connect 38 0 0 0;
#X connect 40 0 41 0;
#X connect 41 0 38 1;
#X connect 41 0 39 0;
#X restore 519 142 pd guts;
#X obj 176 124 nbx 4 20 1 600 0 0 \$0-bpm \$0-in_bpm BPM 20 -7 0 12
-1 -258113 -1 120 256;
#X obj 287 124 bng 20 250 50 0 empty \$0-first empty 3 -7 0 12 -1 -258113
-1;
#X obj 339 124 nbx 2 20 0 11 0 0 empty \$0-beat Beat 0 -8 0 12 -1 -258113
-1 4 256;
#X obj 115 164 hradio 20 1 0 11 \$0-bpb empty Beats_per_Bar 4 -7 0
12 -90177 -1 -1 9;
#X obj 145 124 bng 20 250 50 0 \$0-stop empty Stop -2 -7 0 12 -1 -258113
-1;
#X obj 156 292 r \$0-tick;
#X obj 156 320 outlet;
#X obj 315 292 r \$0-beat;
#X obj 315 319 outlet;
#X obj 404 294 r \$0-bar;
#X obj 404 322 outlet;
#X obj 366 30 s \$0-in_bpm;
#X msg 343 -69 120;
#X obj 366 -29 inlet;
#X obj 115 -77 inlet;
#X obj 232 294 r \$0-first;
#X obj 232 321 outlet;
#X obj 476 -27 inlet;
#X obj 352 -103 loadbang;
#X obj 242 124 nbx 2 20 0 11 0 0 empty empty Beats 0 -8 0 12 -1 -258113
-1 10 256;
#X obj 228 205 + 1;
#X msg 410 -77 4;
#X obj 10 148 - 1;
#X obj -21 110 r \$0-in_bpb;
#X obj 476 30 s \$0-in_bpb;
#X obj 308 124 bng 20 250 50 0 empty \$0-tick Tick -4 -7 0 12 -1 -260097
-1;
#X obj 115 124 bng 20 250 50 0 \$0-start empty Play -4 -7 0 12 -1 -258113
-1;
#X msg 115 31 1;
#X msg 182 32 0;
#X msg 289 -69 stop;
#X obj 115 -27 route float bang stop;
#X obj 115 3 sel 1 0;
#X obj 254 222 s \$0-bpb;
#X obj 353 164 tgl 20 0 \$0-mute empty Mute 0 -7 0 12 -1 -258113 -1
0 1;
#N canvas 672 257 534 632 audio 0;
#X obj 191 130 *~;
#X obj 228 45 t b b b;
#X obj 278 143 bng 15 250 50 0 empty empty empty 17 7 0 10 -262144
-1 -1;
#X obj 318 146 bng 15 250 50 0 empty empty empty 17 7 0 10 -262144
-1 -1;
#X floatatom 370 43 5 0 0 0 - - -;
#X floatatom 287 257 5 0 0 0 - - -;
#X obj 281 218 line 0 100;
#X msg 317 106 0 50;
#X msg 252 104 0.2 10;
#X obj 57 513 dac~;
#X obj 12 334 +~;
#X obj 133 366 r \$0-mute;
#X obj 49 420 spigot~;
#X obj 130 401 == 1;
#X obj 238 19 r \$0-first;
#X obj 192 98 osc~;
#X obj 212 73 880;
#X obj -73 137 *~;
#X obj -36 52 t b b b;
#X obj 14 150 bng 15 250 50 0 empty empty empty 17 7 0 10 -262144 -1
-1;
#X obj 54 153 bng 15 250 50 0 empty empty empty 17 7 0 10 -262144 -1
-1;
#X floatatom 106 50 5 0 0 0 - - -;
#X floatatom 23 264 5 0 0 0 - - -;
#X obj 17 225 line 0 100;
#X obj -72 105 osc~;
#X obj -52 81 440;
#X obj -26 26 r \$0-tick;
#X obj 48 87 delay 50;
#X obj 312 80 delay 50;
#X msg -12 110 0.5 100;
#X msg 53 113 0 100;
#X connect 0 0 10 1;
#X connect 1 0 16 0;
#X connect 1 1 8 0;
#X connect 1 2 28 0;
#X connect 4 0 28 1;
#X connect 6 0 5 0;
#X connect 6 0 0 1;
#X connect 7 0 3 0;
#X connect 7 0 6 0;
#X connect 8 0 2 0;
#X connect 8 0 6 0;
#X connect 10 0 12 0;
#X connect 11 0 13 0;
#X connect 12 0 9 0;
#X connect 12 0 9 1;
#X connect 13 0 12 1;
#X connect 14 0 1 0;
#X connect 15 0 0 0;
#X connect 16 0 15 0;
#X connect 17 0 10 0;
#X connect 18 0 25 0;
#X connect 18 1 29 0;
#X connect 18 2 27 0;
#X connect 21 0 27 1;
#X connect 23 0 22 0;
#X connect 23 0 17 1;
#X connect 24 0 17 0;
#X connect 25 0 24 0;
#X connect 26 0 18 0;
#X connect 27 0 30 0;
#X connect 28 0 7 0;
#X connect 29 0 19 0;
#X connect 29 0 23 0;
#X connect 30 0 20 0;
#X connect 30 0 23 0;
#X restore 527 178 pd audio;
#X connect 4 0 21 0;
#X connect 6 0 7 0;
#X connect 8 0 9 0;
#X connect 10 0 11 0;
#X connect 13 0 12 0;
#X connect 14 0 12 0;
#X connect 15 0 31 0;
#X connect 16 0 17 0;
#X connect 18 0 25 0;
#X connect 19 0 22 0;
#X connect 19 0 13 0;
#X connect 19 0 30 0;
#X connect 21 0 20 0;
#X connect 21 0 33 0;
#X connect 22 0 25 0;
#X connect 23 0 4 0;
#X connect 24 0 23 0;
#X connect 28 0 27 0;
#X connect 29 0 5 0;
#X connect 30 0 31 0;
#X connect 31 0 32 0;
#X connect 31 1 28 0;
#X connect 31 2 29 0;
#X connect 32 0 28 0;
#X connect 32 1 29 0;
#X coords 0 -1 1 1 290 95 2 100 100;
