#N canvas 272 463 528 411 10;
#X floatatom -61 367 5 0 0 0 - - -;
#X obj 115 134 tgl 15 0 empty empty empty 17 7 0 10 -262144 -1 -1 1
1;
#X floatatom 54 286 5 0 0 0 - - -;
#X obj 140 134 bng 15 250 50 0 empty empty empty 17 7 0 10 -262144
-1 -1;
#X obj -18 328 -;
#X obj -18 292 t b f;
#X obj 56 134 nbx 5 14 1 1e+37 0 0 empty empty empty 0 -8 0 10 -262144
-1 -1 80 256;
#X obj 259 33 inlet;
#X obj 96 29 inlet;
#X obj 151 29 inlet;
#X obj 165 136 nbx 5 14 -1e+37 1e+37 0 0 empty empty empty 0 -8 0 10
-262144 -1 -1 54 256;
#X obj 225 134 bng 15 250 50 0 empty empty empty 17 7 0 10 -262144
-1 -1;
#X obj 148 354 sel 1;
#X msg 118 87 0;
#X obj -5 29 loadbang;
#X msg 54 89 60;
#X obj 142 321 <= 0;
#X obj -40 249 spigot;
#X obj 105 261 > 0;
#X floatatom 112 293 5 0 0 0 - - -;
#X obj 88 298 bng 15 250 50 0 empty empty empty 17 7 0 10 -262144 -1
-1;
#X floatatom 90 349 5 0 0 0 - - -;
#X obj 122 376 bng 15 250 50 0 empty empty empty 17 7 0 10 -262144
-1 -1;
#X msg 51 213 1;
#X obj 69 174 t b b;
#X obj -20 203 stopWatch;
#X obj 272 289 outlet;
#X connect 1 0 25 0;
#X connect 3 0 24 0;
#X connect 4 0 0 0;
#X connect 4 0 10 0;
#X connect 4 0 16 0;
#X connect 4 0 18 0;
#X connect 5 0 4 0;
#X connect 5 1 4 1;
#X connect 6 0 4 0;
#X connect 7 0 6 0;
#X connect 8 0 1 0;
#X connect 9 0 3 0;
#X connect 11 0 26 0;
#X connect 12 0 11 0;
#X connect 12 0 13 0;
#X connect 13 0 1 0;
#X connect 14 0 13 0;
#X connect 14 0 15 0;
#X connect 15 0 6 0;
#X connect 16 0 12 0;
#X connect 16 0 21 0;
#X connect 16 0 22 0;
#X connect 17 0 5 0;
#X connect 18 0 17 1;
#X connect 18 0 19 0;
#X connect 18 0 20 0;
#X connect 23 0 17 1;
#X connect 24 0 25 1;
#X connect 24 1 23 0;
#X connect 25 0 2 0;
#X connect 25 0 17 0;
#X coords 0 -1 1 1 200 40 2 50 120;
