#N canvas 879 251 792 552 10;
#N canvas 386 131 739 834 guts 0;
#X obj 38 139 metronomeBPM;
#X obj 52 -3 r \$0-bpm;
#X obj 38 167 s \$0-tick;
#X obj 283 40 r \$0-tick;
#X obj 283 129 f;
#X obj 283 157 + 1;
#X obj 283 251 s \$0-beat;
#X obj 283 195 %;
#X obj 303 224 + 1;
#X obj 316 157 r \$0-bpb;
#X obj 182 195 spigot;
#X obj 245 222 == 0;
#X floatatom 344 217 5 0 0 0 - - -;
#X obj 147 212 bng 15 250 50 0 empty empty empty 17 7 0 10 -262144
-1 -1;
#X floatatom 245 150 5 0 0 0 - - -;
#X obj 182 146 t b f f;
#X obj 392 292 f;
#X obj 392 321 + 1;
#X floatatom 394 366 5 0 0 0 - - -;
#X obj 332 356 s \$0-bar;
#X obj 352 81 t b b b b;
#X obj 240 178 != -1;
#X obj 127 293 s \$0-first;
#X obj 127 253 sel 1;
#X msg 403 113 -1;
#X obj 222 307 bng 15 250 50 0 empty empty empty 17 7 0 10 -262144
-1 -1;
#X obj 267 308 bng 15 250 50 0 empty empty empty 17 7 0 10 -262144
-1 -1;
#X obj 352 40 r \$0-start;
#X obj -60 5 r \$0-stop;
#X msg -43 64 stop;
#X msg 359 112 -1;
#X obj 57 380 r \$0-stop;
#X obj 127 380 r \$0-start;
#X msg 57 413 0;
#X msg 127 413 1;
#X obj 57 448 value \$0-status;
#X obj 48 45 t b b f;
#X obj 38 107 spigot;
#X floatatom 119 113 5 0 0 0 - - -;
#X obj 122 32 bng 15 250 50 0 empty empty empty 17 7 0 10 -262144 -1
-1;
#X obj 105 83 value \$0-status;
#X connect 0 0 2 0;
#X connect 1 0 36 0;
#X connect 3 0 4 0;
#X connect 4 0 5 0;
#X connect 4 0 14 0;
#X connect 4 0 15 0;
#X connect 5 0 4 1;
#X connect 5 0 7 0;
#X connect 7 0 11 0;
#X connect 7 0 12 0;
#X connect 7 0 8 0;
#X connect 8 0 6 0;
#X connect 9 0 7 1;
#X connect 10 0 13 0;
#X connect 11 0 23 0;
#X connect 15 0 10 0;
#X connect 15 2 21 0;
#X connect 16 0 17 0;
#X connect 17 0 18 0;
#X connect 17 0 16 1;
#X connect 17 0 19 0;
#X connect 20 0 0 0;
#X connect 20 1 30 0;
#X connect 20 2 16 0;
#X connect 20 3 24 0;
#X connect 21 0 10 1;
#X connect 23 0 22 0;
#X connect 23 0 16 0;
#X connect 23 0 25 0;
#X connect 23 1 26 0;
#X connect 24 0 16 1;
#X connect 27 0 20 0;
#X connect 28 0 29 0;
#X connect 29 0 0 0;
#X connect 30 0 4 1;
#X connect 31 0 33 0;
#X connect 32 0 34 0;
#X connect 33 0 35 0;
#X connect 34 0 35 0;
#X connect 36 0 37 0;
#X connect 36 1 40 0;
#X connect 36 2 0 1;
#X connect 37 0 0 0;
#X connect 39 0 40 0;
#X connect 40 0 37 1;
#X connect 40 0 38 0;
#X restore 519 142 pd guts;
#X obj 113 124 nbx 4 20 1 600 0 0 \$0-bpm \$0-in_bpm BPM 20 -7 0 12
-1 -258113 -1 120 256;
#X obj 224 124 bng 20 250 50 0 empty \$0-first empty 3 -7 0 12 -1 -258113
-1;
#X obj 276 124 nbx 2 20 0 16 0 0 empty \$0-beat Beat 0 -8 0 12 -1 -258113
-1 4 256;
#X obj 154 69 bng 20 250 50 0 \$0-stop empty Stop -2 -7 0 12 -1 -258113
-1;
#X obj 156 292 r \$0-tick;
#X obj 156 320 outlet;
#X obj 315 292 r \$0-beat;
#X obj 315 319 outlet;
#X obj 366 30 s \$0-in_bpm;
#X msg 343 -69 120;
#X obj 366 -29 inlet;
#X obj 115 -77 inlet;
#X obj 232 294 r \$0-first;
#X obj 232 321 outlet;
#X obj 476 -27 inlet;
#X obj 352 -103 loadbang;
#X obj 179 124 nbx 2 20 1 16 0 0 \$0-bpb \$0-in_bpb Beats 0 -8 0 12
-1 -258113 -1 4 256;
#X msg 410 -77 4;
#X obj 476 30 s \$0-in_bpb;
#X obj 245 124 bng 20 250 50 0 empty \$0-tick Tick -4 -7 0 12 -1 -260097
-1;
#X obj 118 70 bng 20 250 50 0 \$0-start empty Play -4 -7 0 12 -1 -258113
-1;
#X msg 115 31 1;
#X msg 182 32 0;
#X msg 289 -69 stop;
#X obj 115 -27 route float bang stop;
#X obj 115 3 sel 1 0;
#X connect 5 0 6 0;
#X connect 7 0 8 0;
#X connect 10 0 9 0;
#X connect 11 0 9 0;
#X connect 12 0 25 0;
#X connect 13 0 14 0;
#X connect 15 0 19 0;
#X connect 16 0 18 0;
#X connect 16 0 10 0;
#X connect 16 0 24 0;
#X connect 18 0 19 0;
#X connect 22 0 21 0;
#X connect 23 0 4 0;
#X connect 24 0 25 0;
#X connect 25 0 26 0;
#X connect 25 1 22 0;
#X connect 25 2 23 0;
#X connect 26 0 22 0;
#X connect 26 1 23 0;
#X coords 0 -1 1 1 225 60 2 100 100;
