#N canvas 1206 389 450 300 10;
#X obj 22 -77 gui_MetronomeBPM;
#X obj 22 -150 gui_stopWatch;
#X msg 22 -102 stop;
#X obj -1 -232 bng 15 250 50 0 empty empty empty 17 7 0 10 -262144
-1 -1;
#X obj -7 -190 t b b;
#X connect 1 0 2 0;
#X connect 2 0 0 0;
#X connect 3 0 4 0;
#X connect 4 0 0 0;
#X connect 4 1 1 0;
