#N canvas 230 473 450 300 10;
#X obj 107 40 bng 15 250 50 0 empty empty empty 17 7 0 10 -262144 -1
-1;
#X obj 107 100 metronomeBPM;
#X obj 107 121 bng 15 250 50 0 empty empty empty 17 7 0 10 -262144
-1 -1;
#X obj 88 40 tgl 15 0 empty empty empty 17 7 0 10 -262144 -1 -1 0 1
;
#X floatatom 209 84 5 0 0 0 - - -;
#X msg 128 55 0;
#X msg 163 56 stop;
#X msg 176 79 120;
#X connect 0 0 1 0;
#X connect 1 0 2 0;
#X connect 3 0 1 0;
#X connect 4 0 1 1;
#X connect 5 0 1 0;
#X connect 6 0 1 0;
#X connect 7 0 1 1;
