#N canvas 135 435 615 431 10;
#X obj 97 267 outlet;
#X obj 188 29 inlet;
#X obj 278 30 inlet;
#X text 183 13 minimum;
#X text 273 14 maximum;
#X obj 97 29 inlet;
#X obj 97 144 random;
#X obj 97 223 +;
#X obj 188 127 -;
#X floatatom 188 152 5 0 0 0 - - -;
#X floatatom 54 240 5 0 0 0 - - -;
#X floatatom 46 161 5 0 0 0 - - -;
#X obj 188 102 swap;
#X floatatom 278 58 5 0 0 0 - - -;
#X obj 97 58 bng 15 250 50 0 empty empty empty 17 7 0 10 -262144 -1
-1;
#X floatatom 188 56 5 0 0 0 - - -;
#X obj 97 85 t b b b;
#X connect 1 0 15 0;
#X connect 2 0 13 0;
#X connect 5 0 14 0;
#X connect 6 0 7 0;
#X connect 6 0 11 0;
#X connect 7 0 10 0;
#X connect 7 0 0 0;
#X connect 8 0 9 0;
#X connect 8 0 6 1;
#X connect 12 0 8 0;
#X connect 12 1 8 1;
#X connect 13 0 12 1;
#X connect 14 0 16 0;
#X connect 15 0 12 0;
#X connect 15 0 7 1;
#X connect 16 0 6 0;
#X connect 16 2 12 0;
