#N canvas 526 348 540 601 10;
#X obj 19 366 osc~;
#X obj 58 474 dac~;
#X obj 10 316 randomRange;
#X floatatom -21 367 5 0 0 0 - - -;
#X obj 59 438 *~;
#X obj 95 474 outlet~;
#X obj 136 126 hsl 128 15 30 2000 1 0 empty empty empty -2 -8 0 10
-262144 -1 -1 0 1;
#X obj 227 106 bng 15 250 50 0 empty empty empty 17 7 0 10 -262144
-1 -1;
#X obj 250 106 tgl 15 0 empty empty empty 17 7 0 10 -262144 -1 -1 1
1;
#X obj 121 18 inlet;
#X floatatom 162 40 5 0 0 0 - - -;
#X obj 221 18 inlet;
#X floatatom 262 40 5 0 0 0 - - -;
#X obj 321 18 inlet;
#X floatatom 369 37 5 0 0 0 - - -;
#X obj 136 186 hsl 128 15 30 2000 1 0 empty empty empty -2 -8 0 10
-262144 -1 -1 0 1;
#X obj 83 186 nbx 4 14 -1e+37 1e+37 0 0 empty empty empty 0 -8 0 10
-262144 -1 -1 0 256;
#X obj 136 215 hsl 128 15 0 1 0 0 empty empty empty -2 -8 0 10 -262144
-1 -1 0 1;
#X obj 83 216 nbx 4 14 -1e+37 1e+37 0 0 empty empty empty 0 -8 0 10
-262144 -1 -1 0 256;
#X obj 71 18 inlet;
#X text 69 1 trigger;
#X obj 83 126 nbx 4 14 -1e+37 1e+37 0 0 empty empty empty 0 -8 0 10
-262144 -1 -1 0 256;
#X text 125 3 minPitch;
#X text 213 1 maxPitch;
#X text 312 3 amplitude;
#X obj 20 404 spigot~;
#X msg 144 361 1;
#X msg 188 366 0;
#X obj 41 289 f;
#X obj 73 289 f;
#X obj 0 256 t b b b;
#X obj 412 20 inlet;
#X floatatom 464 38 5 0 0 0 - - -;
#X text 411 2 muter;
#X obj 136 156 hsl 128 15 30 2000 1 0 empty empty empty -2 -8 0 10
-262144 -1 -1 0 1;
#X obj 83 156 nbx 4 14 -1e+37 1e+37 0 0 empty empty empty 0 -8 0 10
-262144 -1 -1 0 256;
#X obj 197 -82 loadbang;
#X msg 174 19 30;
#X msg 277 18 1000;
#X msg 372 17 0.5;
#X msg 462 11 1;
#X connect 0 0 25 0;
#X connect 2 0 0 0;
#X connect 2 0 3 0;
#X connect 3 0 35 0;
#X connect 4 0 1 0;
#X connect 4 0 5 0;
#X connect 4 0 1 1;
#X connect 6 0 21 0;
#X connect 7 0 30 0;
#X connect 8 0 25 1;
#X connect 9 0 10 0;
#X connect 10 0 6 0;
#X connect 11 0 12 0;
#X connect 12 0 15 0;
#X connect 13 0 14 0;
#X connect 14 0 17 0;
#X connect 15 0 16 0;
#X connect 16 0 29 1;
#X connect 17 0 18 0;
#X connect 18 0 4 1;
#X connect 19 0 7 0;
#X connect 21 0 28 1;
#X connect 25 1 4 0;
#X connect 26 0 25 1;
#X connect 27 0 25 1;
#X connect 28 0 2 1;
#X connect 29 0 2 2;
#X connect 30 0 2 0;
#X connect 30 1 28 0;
#X connect 30 2 29 0;
#X connect 31 0 32 0;
#X connect 32 0 8 0;
#X connect 35 0 34 0;
#X connect 36 0 37 0;
#X connect 36 0 38 0;
#X connect 36 0 39 0;
#X connect 36 0 40 0;
#X connect 37 0 10 0;
#X connect 38 0 12 0;
#X connect 39 0 14 0;
#X connect 40 0 32 0;
#X coords 0 -1 1 1 190 140 1 80 100;
