#N canvas 511 366 435 232 10;
#N canvas 1178 230 558 360 audio 0;
#X obj 29 67 inlet;
#X text 25 46 control;
#X obj 31 277 dac~ 1 2;
#X obj 29 132 gui/samplerX8;
#X obj 74 163 cmpstn/multiMelody;
#X obj 415 211 print dropped;
#X obj 30 194 gui/mixerX8 _ _ _ _ _ _ _ _ _ _ _ _ _ _ _ _ _ _ _ _ _
_ _ _;
#X obj 381 279 outlet;
#X connect 0 0 3 0;
#X connect 3 0 6 0;
#X connect 3 1 6 1;
#X connect 3 2 4 0;
#X connect 4 0 6 2;
#X connect 4 0 6 3;
#X connect 4 1 6 16;
#X connect 6 0 2 0;
#X connect 6 1 2 1;
#X connect 6 2 5 0;
#X connect 6 2 7 0;
#X restore 170 99 pd audio;
#X obj 68 108 print ctrl-in;
#X obj 60 68 print midi-in;
#X obj 102 -14 ctlin;
#X obj 77 30 pack f f f;
#X connect 3 0 4 0;
#X connect 3 1 4 1;
#X connect 3 2 4 2;
#X connect 4 0 2 0;
