#N canvas 0 87 956 954 10;
#X declare -lib ../utls;
#X msg 20 322 volume 0.6;
#N canvas 273 283 450 300 audio 0;
#N canvas 746 422 450 300 guts 0;
#X obj 41 31 loadbang;
#X msg 41 57 1;
#X msg 41 181 \; pd dsp \$1;
#X obj 41 141 r $dspStatusOut;
#X obj 41 84 s $dspStatusIn;
#X obj 143 84 mediasettings/midisettings;
#X msg 143 61 driver ALSA-MIDI;
#X obj 14 31 bng 15 250 50 0 empty empty empty 17 7 0 10 -262144 -1
-1;
#X connect 0 0 1 0;
#X connect 0 0 6 0;
#X connect 1 0 4 0;
#X connect 3 0 2 0;
#X connect 6 0 5 0;
#X connect 7 0 0 0;
#X restore 395 276 pd guts;
#X obj 85 91 cnv 15 100 60 empty empty empty 20 12 0 14 -233017 -66577
0;
#X obj 89 95 tgl 15 0 $dspStatusOut $dspStatusIn dsp 17 7 0 10 -262144
-1 -1 1 1;
#X restore 23 -90 pd audio;
#X obj 23 49 loadbang;
#X obj 22 24 bng 15 250 50 0 empty empty empty 17 7 0 10 -262144 -1
-1;
#N canvas 1368 323 450 300 controls 0;
#X floatatom 99 123 5 0 0 0 global_bpm - -;
#X obj 228 104 bng 15 250 50 0 empty empty stop 17 7 0 10 -262144 -1
-1;
#X obj 99 150 s bpm;
#X obj 99 96 r \$0-tapBPM;
#X obj 228 136 s stop;
#X connect 0 0 2 0;
#X connect 1 0 4 0;
#X connect 3 0 0 0;
#X restore 23 -70 pd controls;
#X obj 86 52 r stop;
#X obj 467 -28 hradio 15 1 0 16 empty empty empty 0 -8 0 10 -262144
-1 -1 0;
#X obj 429 -2 s program;
#X obj 182 37 r program;
#X msg 182 59 preset \$1;
#N canvas 624 231 450 300 ctrl2volumes 0;
#X obj 58 157 pack f f f f f f f f;
#X obj 85 78 route 1 2 3 4 5 6 7 8;
#X obj 58 50 t b a;
#X msg 58 177 volumes \$1 \$2 \$3 \$4 \$5 \$6 \$7 \$8;
#X obj 68 114 / 127;
#X obj 108 114 / 127;
#X obj 148 114 / 127;
#X obj 188 114 / 127;
#X obj 228 114 / 127;
#X obj 268 114 / 127;
#X obj 308 114 / 127;
#X obj 348 114 / 127;
#X obj 58 9 inlet;
#X obj 58 228 outlet;
#X connect 0 0 3 0;
#X connect 1 0 4 0;
#X connect 1 1 5 0;
#X connect 1 2 6 0;
#X connect 1 3 7 0;
#X connect 1 4 8 0;
#X connect 1 5 9 0;
#X connect 1 6 10 0;
#X connect 1 7 11 0;
#X connect 2 0 0 0;
#X connect 2 1 1 0;
#X connect 3 0 13 0;
#X connect 4 0 0 0;
#X connect 5 0 0 1;
#X connect 6 0 0 2;
#X connect 7 0 0 3;
#X connect 8 0 0 4;
#X connect 9 0 0 5;
#X connect 10 0 0 6;
#X connect 11 0 0 7;
#X connect 12 0 2 0;
#X restore 775 -36 pd ctrl2volumes;
#X obj 530 740 dac~ 1 2;
#X obj 129 -91 gui/mpkMini;
#X obj 152 2 gui/oneButtonTapMetro;
#X obj 128 118 gui/samplerX8;
#X obj 77 439 gui/mixerX8;
#X obj 428 -49 gui/mpkMini;
#X obj 746 -64 gui/mpkMini;
#X msg 85 84 volumes 0.6 0.6 0.6 0.6 0.6 0.6 0.6 0.6;
#X connect 2 0 18 0;
#X connect 2 0 0 0;
#X connect 3 0 2 0;
#X connect 5 0 14 0;
#X connect 6 0 7 0;
#X connect 8 0 9 0;
#X connect 9 0 14 0;
#X connect 10 0 15 0;
#X connect 12 1 13 0;
#X connect 12 1 14 0;
#X connect 13 0 14 0;
#X connect 14 0 15 1;
#X connect 14 1 15 2;
#X connect 15 0 11 0;
#X connect 15 1 11 1;
#X connect 16 4 6 0;
#X connect 17 3 10 0;
#X connect 18 0 14 0;
