#N canvas 511 108 922 902 10;
#X msg 20 322 volume 0.6;
#N canvas 273 283 450 300 audio 0;
#N canvas 746 422 450 300 guts 0;
#X obj 41 31 loadbang;
#X msg 41 57 1;
#X msg 41 181 \; pd dsp \$1;
#X obj 41 141 r $dspStatusOut;
#X obj 41 84 s $dspStatusIn;
#X obj 143 84 mediasettings/midisettings;
#X msg 143 61 driver ALSA-MIDI;
#X obj 14 31 bng 15 250 50 0 empty empty empty 17 7 0 10 -262144 -1
-1;
#X connect 0 0 1 0;
#X connect 0 0 6 0;
#X connect 1 0 4 0;
#X connect 3 0 2 0;
#X connect 6 0 5 0;
#X connect 7 0 0 0;
#X restore 395 276 pd guts;
#X obj 85 91 cnv 15 100 60 empty empty empty 20 12 0 14 -233017 -66577
0;
#X obj 89 95 tgl 15 0 $dspStatusOut $dspStatusIn dsp 17 7 0 10 -262144
-1 -1 1 1;
#X restore 23 -90 pd audio;
#X obj 23 49 loadbang;
#X obj 22 24 bng 15 250 50 0 empty empty empty 17 7 0 10 -262144 -1
-1;
#N canvas 1365 320 450 300 controls 0;
#X floatatom 99 123 5 0 0 0 global_bpm - -;
#X obj 228 104 bng 15 250 50 0 empty empty stop 17 7 0 10 -262144 -1
-1;
#X obj 99 150 s bpm;
#X obj 99 96 r \$0-tapBPM;
#X obj 228 136 s stop;
#X connect 0 0 2 0;
#X connect 1 0 4 0;
#X connect 3 0 0 0;
#X restore 23 -70 pd controls;
#X obj 86 52 r stop;
#X obj 467 -28 hradio 15 1 0 16 empty empty empty 0 -8 0 10 -262144
-1 -1 0;
#X obj 429 -2 s program;
#X obj 182 37 r program;
#X msg 182 59 preset \$1;
#X obj 530 740 dac~ 1 2;
#X obj 129 -91 gui/mpkMini;
#X obj 152 2 gui/oneButtonTapMetro;
#X obj 123 233 gui/samplerX8;
#X obj 428 -49 gui/mpkMini;
#X obj 746 -64 gui/mpkMini;
#X msg 85 84 volumes 0.6 0.6 0.6 0.6 0.6 0.6 0.6 0.6;
#X obj 705 340 loadbang;
#X obj 724 310 bng 15 250 50 0 empty empty empty 17 7 0 10 -262144
-1 -1;
#X obj 707 376 cmpstn/multiMelody;
#N canvas 1197 285 641 493 mixercontrol 0;
#X obj 87 101 vsl 15 128 0 1 0 0 empty empty empty 0 -9 0 10 -262144
-1 -1 8890 1;
#X msg 87 256 mixer ch1 volume \$1;
#X obj 87 444 outlet;
#X obj 107 101 vsl 15 128 0 1 0 0 empty empty empty 0 -9 0 10 -262144
-1 -1 8890 1;
#X obj 127 101 vsl 15 128 0 1 0 0 empty empty empty 0 -9 0 10 -262144
-1 -1 8890 1;
#X obj 147 101 vsl 15 128 0 1 0 0 empty empty empty 0 -9 0 10 -262144
-1 -1 8890 1;
#X obj 167 101 vsl 15 128 0 1 0 0 empty empty empty 0 -9 0 10 -262144
-1 -1 8890 1;
#X obj 187 101 vsl 15 128 0 1 0 0 empty empty empty 0 -9 0 10 -262144
-1 -1 8890 1;
#X obj 207 101 vsl 15 128 0 1 0 0 empty empty empty 0 -9 0 10 -262144
-1 -1 8890 1;
#X obj 227 101 vsl 15 128 0 1 0 0 empty empty empty 0 -9 0 10 -262144
-1 -1 8890 1;
#X obj 257 101 vsl 15 128 0 1 0 0 empty empty empty 0 -9 0 10 -262144
-1 -1 8890 1;
#X msg 257 416 mixer master volume \$1;
#X msg 107 276 mixer ch2 volume \$1;
#X msg 127 296 mixer ch3 volume \$1;
#X msg 147 316 mixer ch4 volume \$1;
#X msg 167 336 mixer ch5 volume \$1;
#X msg 187 356 mixer ch6 volume \$1;
#X msg 207 376 mixer ch7 volume \$1;
#X msg 227 396 mixer ch8 volume \$1;
#X obj 160 5 loadbang;
#X msg 158 31 0.7;
#X connect 0 0 1 0;
#X connect 1 0 2 0;
#X connect 3 0 12 0;
#X connect 4 0 13 0;
#X connect 5 0 14 0;
#X connect 6 0 15 0;
#X connect 7 0 16 0;
#X connect 8 0 17 0;
#X connect 9 0 18 0;
#X connect 10 0 11 0;
#X connect 11 0 2 0;
#X connect 12 0 2 0;
#X connect 13 0 2 0;
#X connect 14 0 2 0;
#X connect 15 0 2 0;
#X connect 16 0 2 0;
#X connect 17 0 2 0;
#X connect 18 0 2 0;
#X connect 19 0 20 0;
#X connect 20 0 0 0;
#X connect 20 0 3 0;
#X connect 20 0 4 0;
#X connect 20 0 5 0;
#X connect 20 0 6 0;
#X connect 20 0 7 0;
#X connect 20 0 8 0;
#X connect 20 0 9 0;
#X connect 20 0 10 0;
#X restore 776 433 pd mixercontrol;
#N canvas 606 213 450 300 ctrl2volume 0;
#X obj 154 105 / 127;
#X obj 58 9 inlet;
#X obj 58 228 outlet;
#X obj 153 28 unpack f f;
#X obj 78 146 pack f f;
#X msg 58 177 \$1 volume \$2;
#X connect 0 0 4 1;
#X connect 1 0 3 0;
#X connect 3 0 4 0;
#X connect 3 1 0 0;
#X connect 4 0 5 0;
#X connect 5 0 2 0;
#X restore 824 77 pd ctrl2volume;
#X obj 759 534 prepend mixer;
#X obj 600 75 prepend mixer;
#X obj 691 39 spigot;
#X obj 732 15 tgl 15 0 empty empty empty 17 7 0 10 -262144 -1 -1 0
1;
#X obj 804 501 spigot;
#X obj 854 472 tgl 15 0 empty empty empty 17 7 0 10 -262144 -1 -1 0
1;
#X obj 522 95 prepend sampler;
#X obj 691 634 print dropped;
#X msg 250 315 mixer 1 volume 0.7 \, mixer 2 volume 0.7 \, mixer 3
volume 0.7 \, mixer 4 volume 0.7 \, mixer 5 volume 0.7 \, mixer 6 volume
0.7 \, mixer 7 volume 0.7 \, mixer 8 volume 0.7 \, mixer master volume
0.7;
#X obj 312 576 gui/mixerX8 _ _ _ _ _ _ _ _ _ _ _ _ _ _ _ _ _ _ _ _
_ _ _ _;
#N canvas 740 327 233 273 midi2plays 0;
#X obj 34 156 midi/midi2play 6 49;
#X obj 34 232 outlet;
#X obj 34 16 inlet;
#X obj 34 56 midi/midi2play 1 44;
#X obj 34 76 midi/midi2play 2 45;
#X obj 34 96 midi/midi2play 3 46;
#X obj 34 116 midi/midi2play 4 47;
#X obj 34 136 midi/midi2play 5 48;
#X obj 34 176 midi/midi2play 7 50;
#X obj 34 196 midi/midi2play 8 51;
#X connect 0 0 8 0;
#X connect 2 0 3 0;
#X connect 3 0 4 0;
#X connect 4 0 5 0;
#X connect 5 0 6 0;
#X connect 6 0 7 0;
#X connect 7 0 0 0;
#X connect 8 0 9 0;
#X connect 9 0 1 0;
#X restore 183 168 pd midi2plays;
#X obj 183 191 prepend sampler;
#X connect 2 0 16 0;
#X connect 2 0 0 0;
#X connect 2 0 30 0;
#X connect 3 0 2 0;
#X connect 5 0 13 0;
#X connect 6 0 7 0;
#X connect 8 0 9 0;
#X connect 9 0 13 0;
#X connect 11 1 12 0;
#X connect 11 1 32 0;
#X connect 12 0 13 0;
#X connect 12 0 32 0;
#X connect 13 0 31 0;
#X connect 13 1 31 1;
#X connect 13 2 31 16;
#X connect 14 4 6 0;
#X connect 15 3 21 0;
#X connect 16 0 13 0;
#X connect 17 0 19 0;
#X connect 18 0 17 0;
#X connect 19 0 31 15;
#X connect 19 0 31 14;
#X connect 20 0 31 16;
#X connect 21 0 24 0;
#X connect 21 0 26 0;
#X connect 22 0 13 0;
#X connect 23 0 28 0;
#X connect 24 0 23 0;
#X connect 25 0 24 1;
#X connect 26 0 22 0;
#X connect 27 0 26 1;
#X connect 28 0 13 0;
#X connect 30 0 31 16;
#X connect 31 0 10 0;
#X connect 31 1 10 1;
#X connect 31 2 29 0;
#X connect 32 0 33 0;
#X connect 33 0 13 0;
