#N canvas 820 87 956 954 10;
#X msg 10 312 volume 0.6;
#X obj 10 -35 lbang;
#X msg 25 -3 volumes 0.7 0.7 0.7 0.7 0.7 0.7 0.7 0.7;
#X obj 118 17 notein;
#X obj 118 45 list;
#X msg 118 73 midinote \$1 \$2;
#X obj 133 792 dac~ 1 2;
#X msg 354 -17 \; pd dsp 1;
#X obj 118 98 gui/samplerX8;
#X obj 131 602 gui/masterStereo;
#X connect 0 0 9 0;
#X connect 1 0 2 0;
#X connect 1 0 0 0;
#X connect 1 0 7 0;
#X connect 2 0 8 0;
#X connect 3 0 4 0;
#X connect 3 1 4 1;
#X connect 4 0 5 0;
#X connect 5 0 8 0;
#X connect 8 0 9 1;
#X connect 8 1 9 2;
#X connect 9 0 6 0;
#X connect 9 1 6 1;
