#N canvas 334 302 450 300 10;
#X obj 131 113 ../utls/tapMetronome;
#X obj -17 77 bng 36 250 50 0 empty empty Tap 7 17 0 10 -262144 -1
-1;
#X msg 149 57 stop;
#X msg 189 54 0;
#X obj 62 77 bng 36 250 50 0 empty empty Beat 7 17 0 10 -262144 -1
-1;
#X obj 131 26 inlet;
#X obj 131 198 outlet;
#X obj 22 77 bng 36 250 50 0 empty empty Stop 7 17 0 10 -262144 -1
-1;
#X connect 0 0 4 0;
#X connect 0 0 6 0;
#X connect 1 0 0 0;
#X connect 2 0 0 0;
#X connect 3 0 0 0;
#X connect 5 0 0 0;
#X connect 7 0 2 0;
#X coords 0 -1 1 1 130 60 1 -25 60;
