#N canvas 904 560 450 300 10;
#X obj 95 337 outlet~;
#X obj 160 337 outlet~;
#X obj 18 69 route volume;
#X obj 221 313 dac~;
#X obj 99 120 mixerX1;
#X obj 121 45 inlet~ l;
#X obj 193 47 inlet~ r;
#X obj 16 43 inlet control;
#X msg 15 100 volume \$1;
#X connect 2 0 8 0;
#X connect 4 0 0 0;
#X connect 4 0 3 0;
#X connect 4 1 1 0;
#X connect 4 1 3 1;
#X connect 5 0 4 1;
#X connect 6 0 4 2;
#X connect 7 0 2 0;
#X connect 8 0 4 0;
#X coords 0 -1 1 1 105 160 1 90 100;
