#N canvas 909 565 450 300 10;
#X obj -18 186 *~;
#X obj -47 289 env~ 128;
#X obj -49 314 - 100;
#X obj 95 307 outlet~;
#X obj 160 307 outlet~;
#X obj 112 127 vsl 15 119 0 1 0 0 empty empty empty 0 -9 0 10 -262144
-1 -1 8260 1;
#X obj 129 127 vu 8 120 empty empty -1 -8 0 4 -66577 -262144 1 0;
#X obj 139 127 vu 8 120 empty empty -1 -8 0 10 -66577 -1 1 0;
#X obj 13 288 env~ 128;
#X obj 11 314 - 100;
#X obj 34 106 inlet~;
#X obj 32 186 *~;
#X obj 108 51 route volume;
#X obj -16 106 inlet~;
#X obj -58 106 inlet;
#X connect 0 0 1 0;
#X connect 0 0 3 0;
#X connect 1 0 2 0;
#X connect 2 0 6 1;
#X connect 5 0 0 1;
#X connect 5 0 11 1;
#X connect 8 0 9 0;
#X connect 9 0 7 1;
#X connect 10 0 11 0;
#X connect 11 0 8 0;
#X connect 11 0 4 0;
#X connect 12 0 5 0;
#X connect 13 0 0 0;
#X connect 14 0 12 0;
#X coords 0 -1 1 1 85 160 1 100 100;
