#N canvas 586 364 450 300 10;
#X obj -18 106 inlet~;
#X obj -15 236 dac~;
#X obj -18 186 *~;
#X obj 131 131 vu 15 120 empty empty -1 -8 0 10 -66577 -1 1 0;
#X obj -47 289 env~ 128;
#X obj 114 131 vsl 15 119 0 1 0 0 empty empty empty 0 -9 0 10 -262144
-1 -1 0 1;
#X obj -98 124 osc~ 440;
#X obj -49 314 - 100;
#X obj 95 307 outlet~;
#X obj 160 307 outlet~;
#X connect 0 0 2 0;
#X connect 2 0 1 0;
#X connect 2 0 4 0;
#X connect 2 0 1 1;
#X connect 2 0 8 0;
#X connect 2 0 9 0;
#X connect 4 0 7 0;
#X connect 5 0 2 1;
#X connect 7 0 3 0;
#X coords 0 -1 1 1 85 160 1 100 100;
