#N canvas 958 435 446 237 10;
#X obj 147 118 tgl 20 0 \$0-mute empty Mute 0 -7 0 12 -1 -258113 -1
0 1;
#N canvas 1297 366 534 632 audio 0;
#X obj 191 130 *~;
#X obj 228 45 t b b b;
#X obj 278 143 bng 15 250 50 0 empty empty empty 17 7 0 10 -262144
-1 -1;
#X obj 318 146 bng 15 250 50 0 empty empty empty 17 7 0 10 -262144
-1 -1;
#X floatatom 370 43 5 0 0 0 - - -;
#X obj 12 334 +~;
#X obj 133 366 r \$0-mute;
#X obj 130 401 == 1;
#X obj 238 19 r \$0-first;
#X obj 192 98 osc~;
#X obj -73 137 *~;
#X obj -36 52 t b b b;
#X obj 14 150 bng 15 250 50 0 empty empty empty 17 7 0 10 -262144 -1
-1;
#X obj 54 153 bng 15 250 50 0 empty empty empty 17 7 0 10 -262144 -1
-1;
#X floatatom 106 50 5 0 0 0 - - -;
#X obj -72 105 osc~;
#X obj -26 26 r \$0-tick;
#X obj 50 498 s~ \$0-out;
#X obj 49 459 *~;
#X obj 193 434 r \$0-vol;
#X obj 281 218 line~ 0 100;
#X obj 17 225 line~ 0 100;
#X msg 53 113 0 30;
#X msg 317 106 0 30;
#X obj -51 81 500;
#X obj 211 74 1000;
#X obj 48 87 delay 5;
#X obj 312 80 delay 5;
#X msg -11 110 1 2;
#X msg 252 104 0.4 2;
#X obj 49 420 ../utls/gate~;
#X connect 0 0 5 1;
#X connect 1 0 25 0;
#X connect 1 1 29 0;
#X connect 1 2 27 0;
#X connect 4 0 27 1;
#X connect 5 0 30 0;
#X connect 6 0 7 0;
#X connect 7 0 30 1;
#X connect 8 0 1 0;
#X connect 9 0 0 0;
#X connect 10 0 5 0;
#X connect 11 0 24 0;
#X connect 11 1 28 0;
#X connect 11 2 26 0;
#X connect 14 0 26 1;
#X connect 15 0 10 0;
#X connect 16 0 11 0;
#X connect 18 0 17 0;
#X connect 19 0 18 1;
#X connect 20 0 0 1;
#X connect 21 0 10 1;
#X connect 22 0 13 0;
#X connect 22 0 21 0;
#X connect 23 0 3 0;
#X connect 23 0 20 0;
#X connect 24 0 15 0;
#X connect 25 0 9 0;
#X connect 26 0 22 0;
#X connect 27 0 23 0;
#X connect 28 0 12 0;
#X connect 28 0 21 0;
#X connect 29 0 2 0;
#X connect 29 0 20 0;
#X connect 30 0 18 0;
#X restore 245 113 pd audio;
#X obj 108 117 knob 20 20 0 2 0 0 \$0-vol empty Volume 0 -8 0 10 -1
-1 -1 550 1;
#X obj 246 77 s \$0-tick;
#X obj 246 49 inlet;
#X obj 326 49 inlet;
#X obj 326 77 s \$0-first;
#X obj 246 183 outlet~;
#X obj 246 155 r~ \$0-out;
#X obj 108 45 loadbang;
#X msg 108 68 1;
#X connect 4 0 3 0;
#X connect 5 0 6 0;
#X connect 8 0 7 0;
#X connect 9 0 10 0;
#X connect 10 0 2 0;
#X coords 0 -1 1 1 80 45 2 100 100;
