#N canvas 106 742 381 298 10;
#X obj 14 -539 inlet~;
#X obj 95 -539 inlet~;
#X obj 198 -542 inlet;
#X obj 198 -361 outlet;
#X obj 198 -463 ../utls/param \$0 volume;
#N canvas 288 351 449 231 init 0;
#X obj 70 39 loadbang;
#X obj 70 104 outlet;
#X obj 70 12 inlet;
#X msg 70 67 volume 1 \, mute 0;
#X connect 0 0 3 0;
#X connect 2 0 0 0;
#X connect 3 0 1 0;
#X restore 267 -514 pd init;
#X obj 267 -535 bng 15 250 50 0 empty empty empty 17 7 0 10 -262144
-1 -1;
#X obj 198 -443 ../utls/param \$0 mute;
#X obj 14 -511 s~ \$0-in-l;
#X obj 94 -511 s~ \$0-in-r;
#X obj 16 -389 r~ \$0-out-l;
#X obj 16 -361 outlet~;
#X obj 96 -389 r~ \$0-out-r;
#X obj 96 -361 outlet~;
#X obj 198 -389 r \$0-out-ctrl;
#X obj 261 -486 s \$0-out-ctrl;
#X obj 198 -514 route \$1;
#N canvas 578 417 450 300 gain 0;
#X obj 46 128 *~;
#X obj 166 128 *~;
#X obj 61 100 r \$0-volume-set;
#X obj 166 156 s~ \$0-out-r;
#X obj 46 72 r~ \$0-in-l;
#X obj 166 72 r~ \$0-in-r;
#X obj 181 100 r \$0-volume-set;
#X obj 46 156 s~ \$0-out-l;
#X connect 0 0 7 0;
#X connect 1 0 3 0;
#X connect 2 0 0 1;
#X connect 4 0 0 0;
#X connect 5 0 1 0;
#X connect 6 0 1 1;
#X restore 13 -457 pd gain;
#X connect 0 0 8 0;
#X connect 1 0 9 0;
#X connect 2 0 16 0;
#X connect 4 0 7 0;
#X connect 5 0 4 0;
#X connect 6 0 5 0;
#X connect 7 0 15 0;
#X connect 10 0 11 0;
#X connect 12 0 13 0;
#X connect 14 0 3 0;
#X connect 16 0 4 0;
#X connect 16 1 15 0;
#X coords 0 298 1 297 86 135 0;
