#N canvas 13 87 1905 954 10;
#X obj 5 -56 *~;
#X obj 73 50 env~ 128;
#X obj 114 131 vsl 15 119 0 1 0 0 empty empty empty 0 -9 0 10 -262144
-1 -1 0 1;
#X obj 73 78 - 100;
#X obj 133 50 env~ 128;
#X obj 133 78 - 100;
#X obj 646 425 +~;
#X obj 709 428 +~;
#X obj 669 468 +~;
#X obj 86 -57 *~;
#X obj 6 -84 inlet~ in-1l;
#X obj 87 -84 inlet~ in-1r;
#X obj 131 131 vu 8 120 empty empty -1 -8 0 4 -66577 -262144 1 0;
#X obj 141 131 vu 8 120 empty empty -1 -8 0 10 -66577 -1 1 0;
#X obj 927 424 +~;
#X obj 990 427 +~;
#X obj 950 467 +~;
#X obj 174 -56 *~;
#X obj 192 50 env~ 128;
#X obj 193 131 vsl 15 119 0 1 0 0 empty empty empty 0 -9 0 10 -262144
-1 -1 0 1;
#X obj 192 78 - 100;
#X obj 252 50 env~ 128;
#X obj 252 78 - 100;
#X obj 255 -57 *~;
#X obj 210 131 vu 8 120 empty empty -1 -8 0 4 -66577 -262144 1 0;
#X obj 220 131 vu 8 120 empty empty -1 -8 0 10 -66577 -1 1 0;
#X obj 313 50 env~ 128;
#X obj 273 131 vsl 15 119 0 1 0 0 empty empty empty 0 -9 0 10 -262144
-1 -1 0 1;
#X obj 313 78 - 100;
#X obj 373 50 env~ 128;
#X obj 373 78 - 100;
#X obj 290 131 vu 8 120 empty empty -1 -8 0 4 -66577 -262144 1 0;
#X obj 300 131 vu 8 120 empty empty -1 -8 0 10 -66577 -1 1 0;
#X obj 432 50 env~ 128;
#X obj 353 131 vsl 15 119 0 1 0 0 empty empty empty 0 -9 0 10 -262144
-1 -1 0 1;
#X obj 432 78 - 100;
#X obj 492 50 env~ 128;
#X obj 492 78 - 100;
#X obj 370 131 vu 8 120 empty empty -1 -8 0 4 -66577 -262144 1 0;
#X obj 380 131 vu 8 120 empty empty -1 -8 0 10 -66577 -1 1 0;
#X obj 335 -56 *~;
#X obj 416 -57 *~;
#X obj 504 -56 *~;
#X obj 585 -57 *~;
#X obj 668 575 outlet~ out-l;
#X obj 930 574 outlet~ out-r;
#X obj 176 -84 inlet~ in-2l;
#X obj 256 -84 inlet~ in-2r;
#X obj 336 -84 inlet~ in-3l;
#X obj 417 -84 inlet~ in-3r;
#X obj 505 -84 inlet~ in-4l;
#X obj 586 -84 inlet~ in-4r;
#X obj 665 -56 *~;
#X obj 553 50 env~ 128;
#X obj 433 131 vsl 15 119 0 1 0 0 empty empty empty 0 -9 0 10 -262144
-1 -1 0 1;
#X obj 553 78 - 100;
#X obj 613 50 env~ 128;
#X obj 613 78 - 100;
#X obj 746 -57 *~;
#X obj 450 131 vu 8 120 empty empty -1 -8 0 4 -66577 -262144 1 0;
#X obj 460 131 vu 8 120 empty empty -1 -8 0 10 -66577 -1 1 0;
#X obj 834 -56 *~;
#X obj 672 50 env~ 128;
#X obj 512 131 vsl 15 119 0 1 0 0 empty empty empty 0 -9 0 10 -262144
-1 -1 0 1;
#X obj 672 78 - 100;
#X obj 732 50 env~ 128;
#X obj 732 78 - 100;
#X obj 915 -57 *~;
#X obj 529 131 vu 8 120 empty empty -1 -8 0 4 -66577 -262144 1 0;
#X obj 539 131 vu 8 120 empty empty -1 -8 0 10 -66577 -1 1 0;
#X obj 793 50 env~ 128;
#X obj 592 131 vsl 15 119 0 1 0 0 empty empty empty 0 -9 0 10 -262144
-1 -1 0 1;
#X obj 793 78 - 100;
#X obj 853 50 env~ 128;
#X obj 853 78 - 100;
#X obj 609 131 vu 8 120 empty empty -1 -8 0 4 -66577 -262144 1 0;
#X obj 619 131 vu 8 120 empty empty -1 -8 0 10 -66577 -1 1 0;
#X obj 912 50 env~ 128;
#X obj 672 131 vsl 15 119 0 1 0 0 empty empty empty 0 -9 0 10 -262144
-1 -1 0 1;
#X obj 912 78 - 100;
#X obj 972 50 env~ 128;
#X obj 972 78 - 100;
#X obj 689 131 vu 8 120 empty empty -1 -8 0 4 -66577 -262144 1 0;
#X obj 699 131 vu 8 120 empty empty -1 -8 0 10 -66577 -1 1 0;
#X obj 995 -56 *~;
#X obj 1076 -57 *~;
#X obj 1164 -56 *~;
#X obj 1245 -57 *~;
#X obj 666 -84 inlet~ in-5l;
#X obj 747 -84 inlet~ in-5r;
#X obj 836 -84 inlet~ in-6l;
#X obj 916 -84 inlet~ in-6r;
#X obj 996 -84 inlet~ in-7l;
#X obj 1077 -84 inlet~ in-7r;
#X obj 1165 -84 inlet~ in-8l;
#X obj 1246 -84 inlet~ in-8r;
#X obj 677 522 +~;
#X obj 766 425 +~;
#X obj 829 428 +~;
#X obj 789 468 +~;
#X obj 1067 424 +~;
#X obj 1130 427 +~;
#X obj 1090 467 +~;
#X obj 947 522 +~;
#X obj -92 -85 inlet control;
#X obj -94 -22 route volumes;
#X obj -96 51 unpack f f f f f f f f;
#X connect 0 0 1 0;
#X connect 0 0 6 0;
#X connect 1 0 3 0;
#X connect 2 0 0 1;
#X connect 2 0 9 1;
#X connect 3 0 12 0;
#X connect 4 0 5 0;
#X connect 5 0 13 1;
#X connect 6 0 8 0;
#X connect 7 0 8 1;
#X connect 8 0 96 0;
#X connect 9 0 4 0;
#X connect 9 0 14 0;
#X connect 10 0 0 0;
#X connect 11 0 9 0;
#X connect 14 0 16 0;
#X connect 15 0 16 1;
#X connect 16 0 103 0;
#X connect 17 0 18 0;
#X connect 17 0 6 1;
#X connect 18 0 20 0;
#X connect 19 0 17 1;
#X connect 19 0 23 1;
#X connect 20 0 24 0;
#X connect 21 0 22 0;
#X connect 22 0 25 1;
#X connect 23 0 21 0;
#X connect 23 0 14 1;
#X connect 26 0 28 0;
#X connect 27 0 40 1;
#X connect 27 0 41 1;
#X connect 28 0 31 0;
#X connect 29 0 30 0;
#X connect 30 0 32 1;
#X connect 33 0 35 0;
#X connect 34 0 42 1;
#X connect 34 0 43 1;
#X connect 35 0 38 0;
#X connect 36 0 37 0;
#X connect 37 0 39 1;
#X connect 40 0 26 0;
#X connect 40 0 7 0;
#X connect 41 0 29 0;
#X connect 41 0 15 0;
#X connect 42 0 33 0;
#X connect 42 0 7 1;
#X connect 43 0 36 0;
#X connect 43 0 15 1;
#X connect 46 0 17 0;
#X connect 47 0 23 0;
#X connect 48 0 40 0;
#X connect 49 0 41 0;
#X connect 50 0 42 0;
#X connect 51 0 43 0;
#X connect 52 0 53 0;
#X connect 52 0 97 0;
#X connect 53 0 55 0;
#X connect 54 0 52 1;
#X connect 54 0 58 1;
#X connect 55 0 59 0;
#X connect 56 0 57 0;
#X connect 57 0 60 1;
#X connect 58 0 56 0;
#X connect 58 0 100 0;
#X connect 61 0 62 0;
#X connect 61 0 97 1;
#X connect 62 0 64 0;
#X connect 63 0 61 1;
#X connect 63 0 67 1;
#X connect 64 0 68 0;
#X connect 65 0 66 0;
#X connect 66 0 69 1;
#X connect 67 0 65 0;
#X connect 67 0 100 1;
#X connect 70 0 72 0;
#X connect 71 0 84 1;
#X connect 71 0 85 1;
#X connect 72 0 75 0;
#X connect 73 0 74 0;
#X connect 74 0 76 1;
#X connect 77 0 79 0;
#X connect 78 0 86 1;
#X connect 78 0 87 1;
#X connect 79 0 82 0;
#X connect 80 0 81 0;
#X connect 81 0 83 1;
#X connect 84 0 70 0;
#X connect 84 0 98 0;
#X connect 85 0 73 0;
#X connect 85 0 101 0;
#X connect 86 0 77 0;
#X connect 86 0 98 1;
#X connect 87 0 80 0;
#X connect 87 0 101 1;
#X connect 88 0 52 0;
#X connect 89 0 58 0;
#X connect 90 0 61 0;
#X connect 91 0 67 0;
#X connect 92 0 84 0;
#X connect 93 0 85 0;
#X connect 94 0 86 0;
#X connect 95 0 87 0;
#X connect 96 0 44 0;
#X connect 97 0 99 0;
#X connect 98 0 99 1;
#X connect 99 0 96 1;
#X connect 100 0 102 0;
#X connect 101 0 102 1;
#X connect 102 0 103 1;
#X connect 103 0 45 0;
#X connect 104 0 105 0;
#X connect 105 0 106 0;
#X connect 106 0 2 0;
#X connect 106 1 19 0;
#X connect 106 2 27 0;
#X connect 106 3 34 0;
#X connect 106 4 54 0;
#X connect 106 5 63 0;
#X connect 106 6 71 0;
#X connect 106 7 78 0;
#X coords 0 -1 1 1 645 160 1 100 100;
