#N canvas 2 87 956 954 10;
#X obj 5 -56 *~;
#X obj 73 50 env~ 128;
#X obj 114 131 vsl 15 119 0 1 0 0 empty empty empty 0 -9 0 10 -262144
-1 -1 11800 1;
#X obj 73 78 - 100;
#X obj 133 50 env~ 128;
#X obj 133 78 - 100;
#X obj 516 135 +~;
#X obj 579 138 +~;
#X obj 539 178 +~;
#X obj 86 -57 *~;
#X obj 6 -84 inlet~ in-1l;
#X obj 87 -84 inlet~ in-1r;
#X obj 131 131 vu 8 120 empty empty -1 -8 0 4 -66577 -262144 1 0;
#X obj 141 131 vu 8 120 empty empty -1 -8 0 10 -66577 -1 1 0;
#X obj 667 134 +~;
#X obj 730 137 +~;
#X obj 690 177 +~;
#X obj 174 -56 *~;
#X obj 192 50 env~ 128;
#X obj 193 131 vsl 15 119 0 1 0 0 empty empty empty 0 -9 0 10 -262144
-1 -1 11800 1;
#X obj 192 78 - 100;
#X obj 252 50 env~ 128;
#X obj 252 78 - 100;
#X obj 255 -57 *~;
#X obj 210 131 vu 8 120 empty empty -1 -8 0 4 -66577 -262144 1 0;
#X obj 220 131 vu 8 120 empty empty -1 -8 0 10 -66577 -1 1 0;
#X obj 313 50 env~ 128;
#X obj 273 131 vsl 15 119 0 1 0 0 empty empty empty 0 -9 0 10 -262144
-1 -1 11800 1;
#X obj 313 78 - 100;
#X obj 373 50 env~ 128;
#X obj 373 78 - 100;
#X obj 290 131 vu 8 120 empty empty -1 -8 0 4 -66577 -262144 1 0;
#X obj 300 131 vu 8 120 empty empty -1 -8 0 10 -66577 -1 1 0;
#X obj 432 50 env~ 128;
#X obj 353 131 vsl 15 119 0 1 0 0 empty empty empty 0 -9 0 10 -262144
-1 -1 11800 1;
#X obj 432 78 - 100;
#X obj 492 50 env~ 128;
#X obj 492 78 - 100;
#X obj 370 131 vu 8 120 empty empty -1 -8 0 4 -66577 -262144 1 0;
#X obj 380 131 vu 8 120 empty empty -1 -8 0 10 -66577 -1 1 0;
#X obj 335 -56 *~;
#X obj 416 -57 *~;
#X obj 504 -56 *~;
#X obj 585 -57 *~;
#X obj 538 225 outlet~ out-l;
#X obj 690 224 outlet~ out-r;
#X obj 176 -84 inlet~ in-2l;
#X obj 256 -84 inlet~ in-2r;
#X obj 336 -84 inlet~ in-3l;
#X obj 417 -84 inlet~ in-3r;
#X obj 505 -84 inlet~ in-4l;
#X obj 586 -84 inlet~ in-4r;
#X obj -122 -82 inlet control;
#X obj -137 -39 route volumes;
#X obj -120 0 unpack f f f f;
#X connect 0 0 1 0;
#X connect 0 0 6 0;
#X connect 1 0 3 0;
#X connect 2 0 0 1;
#X connect 2 0 9 1;
#X connect 3 0 12 0;
#X connect 4 0 5 0;
#X connect 5 0 13 1;
#X connect 6 0 8 0;
#X connect 7 0 8 1;
#X connect 8 0 44 0;
#X connect 9 0 4 0;
#X connect 9 0 14 0;
#X connect 10 0 0 0;
#X connect 11 0 9 0;
#X connect 14 0 16 0;
#X connect 15 0 16 1;
#X connect 16 0 45 0;
#X connect 17 0 18 0;
#X connect 17 0 6 1;
#X connect 18 0 20 0;
#X connect 19 0 17 1;
#X connect 19 0 23 1;
#X connect 20 0 24 0;
#X connect 21 0 22 0;
#X connect 22 0 25 1;
#X connect 23 0 21 0;
#X connect 23 0 14 1;
#X connect 26 0 28 0;
#X connect 27 0 40 1;
#X connect 27 0 41 1;
#X connect 28 0 31 0;
#X connect 29 0 30 0;
#X connect 30 0 32 1;
#X connect 33 0 35 0;
#X connect 34 0 42 1;
#X connect 34 0 43 1;
#X connect 35 0 38 0;
#X connect 36 0 37 0;
#X connect 37 0 39 1;
#X connect 40 0 26 0;
#X connect 40 0 7 0;
#X connect 41 0 29 0;
#X connect 41 0 15 0;
#X connect 42 0 33 0;
#X connect 42 0 7 1;
#X connect 43 0 36 0;
#X connect 43 0 15 1;
#X connect 46 0 17 0;
#X connect 47 0 23 0;
#X connect 48 0 40 0;
#X connect 49 0 41 0;
#X connect 50 0 42 0;
#X connect 51 0 43 0;
#X connect 52 0 53 0;
#X connect 53 0 54 0;
#X connect 54 0 2 0;
#X connect 54 1 19 0;
#X connect 54 2 27 0;
#X connect 54 3 34 0;
#X coords 0 -1 1 1 325 160 1 100 100;
