#N canvas 388 87 956 954 10;
#X obj 163 -28 *~;
#X obj 103 50 env~ 128;
#X obj 105 108 vsl 25 119 0 1 0 0 empty empty empty 0 -9 0 10 -262144
-1 -1 8260 1;
#X obj 103 78 - 100;
#X obj 163 50 env~ 128;
#X obj 163 78 - 100;
#X obj 244 -29 *~;
#X obj 164 -56 inlet~ in-1l;
#X obj 245 -56 inlet~ in-1r;
#X obj 133 108 vu 8 120 empty empty -1 -8 0 4 -66577 -262144 1 0;
#X obj 145 108 vu 8 120 empty empty -1 -8 0 10 -66577 -1 1 0;
#X obj 352 44 outlet~ out-l;
#X obj 38 -52 inlet control;
#X obj 452 44 outlet~ out-r;
#X obj 38 -24 route volume;
#X connect 0 0 1 0;
#X connect 0 0 11 0;
#X connect 1 0 3 0;
#X connect 2 0 0 1;
#X connect 2 0 6 1;
#X connect 3 0 9 0;
#X connect 4 0 5 0;
#X connect 5 0 10 1;
#X connect 6 0 4 0;
#X connect 6 0 13 0;
#X connect 7 0 0 0;
#X connect 8 0 6 0;
#X connect 12 0 14 0;
#X connect 14 0 2 0;
#X coords 0 -1 1 1 86 135 2 100 100;
