#N canvas 107 716 381 298 10;
#N canvas 164 793 291 229 gui 0;
#N canvas 388 615 450 300 guts 0;
#X obj 73 182 *~;
#X obj 73 210 env~ 128;
#X obj 73 238 - 100;
#X obj 73 266 pack 0 0;
#X obj 73 294 s \$0-apvuL;
#X obj 233 182 *~;
#X obj 233 210 env~ 128;
#X obj 233 238 - 100;
#X obj 233 266 pack 0 0;
#X obj 233 294 s \$0-apvuR;
#X obj 73 126 r~ \$0-in-l;
#X obj 233 126 r~ \$0-in-r;
#X obj 136 210 pvu~ 300 300;
#X obj 296 210 pvu~ 300 300;
#X obj 88 154 r \$0-volume-set;
#X obj 248 154 r \$0-volume-set;
#X obj 379 32 r \$0-gui-onoff;
#X obj 398 69 sel 0 1;
#X msg 396 102 stop;
#X msg 448 102 start;
#X obj 405 141 t a a;
#X obj 289 75 loadbang;
#X connect 0 0 1 0;
#X connect 0 0 12 0;
#X connect 1 0 2 0;
#X connect 2 0 3 0;
#X connect 3 0 4 0;
#X connect 5 0 6 0;
#X connect 5 0 13 0;
#X connect 6 0 7 0;
#X connect 7 0 8 0;
#X connect 8 0 9 0;
#X connect 10 0 0 0;
#X connect 11 0 5 0;
#X connect 12 0 3 1;
#X connect 13 0 8 1;
#X connect 14 0 0 1;
#X connect 15 0 5 1;
#X connect 16 0 17 0;
#X connect 17 0 18 0;
#X connect 17 1 19 0;
#X connect 18 0 20 0;
#X connect 19 0 20 0;
#X connect 20 0 12 0;
#X connect 20 1 13 0;
#X connect 21 0 18 0;
#X restore 226 47 pd guts;
#X obj 52 34 cnv 15 100 165 empty empty empty 20 12 0 14 -233017 -66577
0;
#X obj 62 68 vsl 25 119 0 1 0 0 \$0-volume-button-set \$0-volume-set
empty 0 -9 0 10 -262144 -1 -1 8260 1;
#X obj 90 68 vu 8 120 \$0-apvuL empty -1 -8 0 4 -66577 -262144 1 0
;
#X obj 102 68 vu 8 120 \$0-apvuR empty -1 -8 0 10 -66577 -1 1 0;
#X obj 62 41 tgl 15 0 \$0-gui-onoff empty on_off 17 7 0 10 -262144
-1 -1 0 1;
#X floatatom 72 214 5 0 0 0 - - -;
#X connect 2 0 6 0;
#X restore 108 -456 pd gui;
#X obj 14 -539 inlet~;
#X obj 95 -539 inlet~;
#X obj 198 -542 inlet;
#X obj 198 -361 outlet;
#X obj 198 -463 ../utls/param \$0 volume;
#N canvas 288 351 449 231 init 0;
#X obj 70 39 loadbang;
#X obj 70 104 outlet;
#X obj 70 12 inlet;
#X msg 70 67 volume 1 \, mute 0;
#X connect 0 0 3 0;
#X connect 2 0 0 0;
#X connect 3 0 1 0;
#X restore 267 -514 pd init;
#X obj 267 -535 bng 15 250 50 0 empty empty empty 17 7 0 10 -262144
-1 -1;
#X obj 198 -443 ../utls/param \$0 mute;
#X obj 14 -511 s~ \$0-in-l;
#X obj 94 -511 s~ \$0-in-r;
#X obj 16 -389 r~ \$0-out-l;
#X obj 16 -361 outlet~;
#X obj 96 -389 r~ \$0-out-r;
#X obj 96 -361 outlet~;
#X obj 198 -389 r \$0-out-ctrl;
#X obj 261 -486 s \$0-out-ctrl;
#X obj 198 -514 route \$1;
#N canvas 578 417 450 300 gain 1;
#X obj 46 128 *~;
#X obj 166 128 *~;
#X obj 61 100 r \$0-volume-set;
#X obj 166 156 s~ \$0-out-r;
#X obj 46 72 r~ \$0-in-l;
#X obj 166 72 r~ \$0-in-r;
#X obj 181 100 r \$0-volume-set;
#X obj 46 156 s~ \$0-out-l;
#X connect 0 0 7 0;
#X connect 1 0 3 0;
#X connect 2 0 0 1;
#X connect 4 0 0 0;
#X connect 5 0 1 0;
#X connect 6 0 1 1;
#X restore 13 -457 pd gain;
#X connect 1 0 9 0;
#X connect 2 0 10 0;
#X connect 3 0 17 0;
#X connect 5 0 8 0;
#X connect 6 0 5 0;
#X connect 7 0 6 0;
#X connect 8 0 16 0;
#X connect 11 0 12 0;
#X connect 13 0 14 0;
#X connect 15 0 4 0;
#X connect 17 0 5 0;
#X connect 17 1 16 0;
#X coords 0 298 1 297 86 135 0;
