#N canvas 818 121 956 954 10;
#X obj 105 108 vsl 25 119 0 1 0 0 \$0-volumeOut \$0-volumeIn empty
0 -9 0 10 -262144 -1 -1 11800 1;
#X obj 133 108 vu 8 120 \$0-apvuL empty -1 -8 0 4 -66577 -262144 1
0;
#X obj 145 108 vu 8 120 \$0-apvuR empty -1 -8 0 10 -66577 -1 1 0;
#X obj 358 114 route volume;
#X obj 358 26 loadbang;
#N canvas 1097 491 450 300 gui 1;
#X obj 73 112 *~;
#X obj 73 140 env~ 128;
#X obj 73 168 - 100;
#X obj 73 196 pack 0 0;
#X obj 73 56 r~ \$0-inL;
#X obj 73 224 s \$0-apvuL;
#X obj 233 112 *~;
#X obj 233 140 env~ 128;
#X obj 233 168 - 100;
#X obj 233 196 pack 0 0;
#X obj 233 56 r~ \$0-inR;
#X obj 233 224 s \$0-apvuR;
#X obj 88 84 r \$0-volumeOut;
#X obj 248 84 r \$0-volumeOut;
#X obj 136 140 pvu~ 100 200;
#X obj 296 140 pvu~ 100 200;
#X connect 0 0 1 0;
#X connect 0 0 14 0;
#X connect 1 0 2 0;
#X connect 2 0 3 0;
#X connect 3 0 5 0;
#X connect 4 0 0 0;
#X connect 6 0 7 0;
#X connect 6 0 15 0;
#X connect 7 0 8 0;
#X connect 8 0 9 0;
#X connect 9 0 11 0;
#X connect 10 0 6 0;
#X connect 12 0 0 1;
#X connect 13 0 6 1;
#X connect 14 0 3 1;
#X connect 15 0 9 1;
#X restore 358 196 pd gui;
#X obj 448 114 s~ \$0-inL;
#X obj 528 114 s~ \$0-inR;
#X obj 438 293 outlet~ outR;
#N canvas 592 431 450 300 audio 0;
#X obj 46 156 s~ \$0-outL;
#X obj 46 72 r~ \$0-inL;
#X obj 46 128 *~;
#X obj 166 128 *~;
#X obj 166 72 r~ \$0-inR;
#X obj 166 156 s~ \$0-outR;
#X obj 61 100 r \$0-volumeOut;
#X obj 181 100 r \$0volume-Out;
#X connect 1 0 2 0;
#X connect 2 0 0 0;
#X connect 3 0 5 0;
#X connect 4 0 3 0;
#X connect 6 0 2 1;
#X connect 7 0 3 1;
#X restore 358 216 pd audio;
#X obj 438 265 r~ \$0-outR;
#X obj 358 265 r~ \$0-outL;
#X obj 358 293 outlet~ outL;
#X obj 358 145 s \$0-volumeIn;
#X msg 358 54 volume 1;
#X obj 448 86 inlet~;
#X obj 529 86 inlet~;
#X obj 358 86 inlet;
#X connect 3 0 13 0;
#X connect 4 0 14 0;
#X connect 10 0 8 0;
#X connect 11 0 12 0;
#X connect 14 0 3 0;
#X connect 15 0 6 0;
#X connect 16 0 7 0;
#X connect 17 0 3 0;
#X coords 0 -1 1 1 86 135 2 100 100;
