#N canvas 2 87 1905 989 10;
#X obj 102 104 cnv 15 797 156 empty empty empty 20 12 0 14 -204800
-66577 0;
#X obj 185 338 +~;
#X obj 239 338 +~;
#X obj 199 378 +~;
#X obj 6 -44 inlet~ in-1l;
#X obj 87 -44 inlet~ in-1r;
#X obj 459 334 +~;
#X obj 522 337 +~;
#X obj 480 377 +~;
#X obj 176 -44 inlet~ in-2l;
#X obj 256 -44 inlet~ in-2r;
#X obj 336 -44 inlet~ in-3l;
#X obj 417 -44 inlet~ in-3r;
#X obj 505 -44 inlet~ in-4l;
#X obj 586 -44 inlet~ in-4r;
#X obj 666 -44 inlet~ in-5l;
#X obj 747 -44 inlet~ in-5r;
#X obj 836 -44 inlet~ in-6l;
#X obj 916 -44 inlet~ in-6r;
#X obj 996 -44 inlet~ in-7l;
#X obj 1077 -44 inlet~ in-7r;
#X obj 1165 -44 inlet~ in-8l;
#X obj 1246 -44 inlet~ in-8r;
#X obj 207 432 +~;
#X obj 296 335 +~;
#X obj 359 338 +~;
#X obj 319 378 +~;
#X obj 601 334 +~;
#X obj 664 337 +~;
#X obj 620 377 +~;
#X obj 477 432 +~;
#X obj -106 -45 inlet control;
#X obj -106 19 unpack f f f f f f f f;
#X msg -106 39 volume \$1;
#X msg -88 59 volume \$1;
#X msg -68 79 volume \$1;
#X msg -48 99 volume \$1;
#X msg -28 119 volume \$1;
#X msg -8 139 volume \$1;
#X msg 12 159 volume \$1;
#X msg 32 179 volume \$1;
#X obj 188 121 mixerX1;
#X obj 275 121 mixerX1;
#X obj 710 121 mixerX1;
#X obj 101 121 mixerX1;
#X obj 362 121 mixerX1;
#X obj 449 121 mixerX1;
#X obj 536 121 mixerX1;
#X obj 623 121 mixerX1;
#X obj 797 101 masterStereo;
#X obj 758 395 outlet~;
#X obj 870 394 outlet~;
#X obj -117 -141 loadbang;
#X obj -106 -12 route volumes volume;
#X msg 67 12 volume \$1;
#X msg -111 -98 volumes 1 1 1 1 1 1 1 1 \, volume 1;
#X connect 1 0 3 0;
#X connect 2 0 3 1;
#X connect 3 0 23 0;
#X connect 4 0 44 1;
#X connect 5 0 44 2;
#X connect 6 0 8 0;
#X connect 7 0 8 1;
#X connect 8 0 30 0;
#X connect 9 0 41 1;
#X connect 10 0 41 2;
#X connect 11 0 42 1;
#X connect 12 0 42 2;
#X connect 13 0 45 1;
#X connect 14 0 45 2;
#X connect 15 0 46 1;
#X connect 16 0 46 2;
#X connect 17 0 47 1;
#X connect 18 0 47 2;
#X connect 19 0 48 1;
#X connect 20 0 48 2;
#X connect 21 0 43 1;
#X connect 22 0 43 2;
#X connect 23 0 49 1;
#X connect 24 0 26 0;
#X connect 25 0 26 1;
#X connect 26 0 23 1;
#X connect 27 0 29 0;
#X connect 28 0 29 1;
#X connect 29 0 30 1;
#X connect 30 0 49 2;
#X connect 31 0 53 0;
#X connect 32 0 33 0;
#X connect 32 1 34 0;
#X connect 32 2 35 0;
#X connect 32 3 36 0;
#X connect 32 4 37 0;
#X connect 32 5 38 0;
#X connect 32 6 39 0;
#X connect 32 7 40 0;
#X connect 33 0 44 0;
#X connect 34 0 41 0;
#X connect 35 0 42 0;
#X connect 36 0 45 0;
#X connect 37 0 46 0;
#X connect 38 0 47 0;
#X connect 39 0 48 0;
#X connect 40 0 43 0;
#X connect 41 0 1 1;
#X connect 41 1 6 1;
#X connect 42 0 2 0;
#X connect 42 1 7 0;
#X connect 43 0 25 1;
#X connect 43 1 28 1;
#X connect 44 0 1 0;
#X connect 44 1 6 0;
#X connect 45 0 2 1;
#X connect 45 1 7 1;
#X connect 46 0 24 0;
#X connect 46 1 27 0;
#X connect 47 0 24 1;
#X connect 47 1 27 1;
#X connect 48 0 25 0;
#X connect 48 1 28 0;
#X connect 49 0 50 0;
#X connect 49 1 51 0;
#X connect 52 0 55 0;
#X connect 53 0 32 0;
#X connect 53 1 54 0;
#X connect 54 0 49 0;
#X connect 55 0 53 0;
#X coords 0 -1 1 1 803 162 1 100 100;
