#N canvas 270 309 331 238 10;
#X obj 21 29 cnv 15 220 190 empty empty empty 20 12 0 14 -233017 -66577
0;
#X obj 37 41 vsl 15 128 0 1 0 0 \$0-volume-1 empty 1 4 140 0 10 -262144
-1 -1 8790 1;
#X obj 57 41 vsl 15 128 0 1 0 0 \$0-volume-2 empty 2 4 140 0 10 -262144
-1 -1 8890 1;
#X obj 77 41 vsl 15 128 0 1 0 0 \$0-volume-3 empty 3 4 140 0 10 -262144
-1 -1 7390 1;
#X obj 97 41 vsl 15 128 0 1 0 0 \$0-volume-4 empty 4 4 140 0 10 -262144
-1 -1 7390 1;
#X obj 117 41 vsl 15 128 0 1 0 0 \$0-volume-5 empty 5 4 140 0 10 -262144
-1 -1 6000 1;
#X obj 137 41 vsl 15 128 0 1 0 0 \$0-volume-6 empty 6 4 140 0 10 -262144
-1 -1 5890 1;
#X obj 157 41 vsl 15 128 0 1 0 0 \$0-volume-7 empty 7 4 140 0 10 -262144
-1 -1 6890 1;
#X obj 177 41 vsl 15 128 0 1 0 0 \$0-volume-8 empty 8 4 140 0 10 -262144
-1 -1 8200 1;
#X obj 207 41 vsl 15 128 0 1 0 0 \$0-volume-master empty master -7
140 0 10 -262144 -1 -1 7190 1;
#X obj 37 195 tgl 15 0 \$0-mute-1 empty M 4 7 0 10 -262144 -1 -1 0
1;
#X obj 57 195 tgl 15 0 \$0-mute-2 empty M 4 7 0 10 -262144 -1 -1 0
1;
#X obj 77 195 tgl 15 0 \$0-mute-3 empty M 4 7 0 10 -262144 -1 -1 0
1;
#X obj 97 195 tgl 15 0 \$0-mute-4 empty M 4 7 0 10 -262144 -1 -1 0
1;
#X obj 117 195 tgl 15 0 \$0-mute-5 empty M 4 7 0 10 -262144 -1 -1 0
1;
#X obj 137 195 tgl 15 0 \$0-mute-6 empty M 4 7 0 10 -262144 -1 -1 0
1;
#X obj 157 195 tgl 15 0 \$0-mute-7 empty M 4 7 0 10 -262144 -1 -1 0
1;
#X obj 177 195 tgl 15 0 \$0-mute-8 empty M 4 7 0 10 -262144 -1 -1 0
1;
#X obj 207 195 tgl 15 0 \$0-mute-master empty M 4 7 0 10 -262144 -1
-1 0 1;
#N canvas 52 269 970 373 guts 0;
#X obj 31 60 r \$0-volume-1;
#X obj 211 60 r \$0-volume-3;
#X obj 121 60 r \$0-volume-2;
#X obj 301 60 r \$0-volume-4;
#X obj 391 60 r \$0-volume-5;
#X msg 31 80 1 volume \$1;
#X msg 121 80 2 volume \$1;
#X msg 211 80 3 volume \$1;
#X msg 301 80 4 volume \$1;
#X msg 391 80 5 volume \$1;
#X msg 481 80 6 volume \$1;
#X msg 571 80 7 volume \$1;
#X msg 661 80 8 volume \$1;
#X msg 751 80 master volume \$1;
#X obj 661 60 r \$0-volume-8;
#X obj 571 60 r \$0-volume-7;
#X obj 481 60 r \$0-volume-6;
#X obj 751 60 r \$0-volume-master;
#X obj 31 330 outlet;
#X obj 31 118 prepend mixer;
#X obj 41 248 prepend mixer;
#X text 32 36 get volumes from sliders;
#X text 48 168 get mutes from toggles;
#X obj 41 190 r \$0-mute-1;
#X obj 131 190 r \$0-mute-2;
#X obj 221 190 r \$0-mute-3;
#X obj 311 190 r \$0-mute-4;
#X obj 401 190 r \$0-mute-5;
#X obj 491 190 r \$0-mute-6;
#X obj 581 190 r \$0-mute-7;
#X obj 671 190 r \$0-mute-8;
#X obj 761 190 r \$0-mute-master;
#X msg 41 210 1 mute \$1;
#X msg 131 210 2 mute \$1;
#X msg 221 210 3 mute \$1;
#X msg 311 210 4 mute \$1;
#X msg 401 210 5 mute \$1;
#X msg 491 210 6 mute \$1;
#X msg 581 210 7 mute \$1;
#X msg 671 210 8 mute \$1;
#X msg 761 210 master mute \$1;
#X connect 0 0 5 0;
#X connect 1 0 7 0;
#X connect 2 0 6 0;
#X connect 3 0 8 0;
#X connect 4 0 9 0;
#X connect 5 0 19 0;
#X connect 6 0 19 0;
#X connect 7 0 19 0;
#X connect 8 0 19 0;
#X connect 9 0 19 0;
#X connect 10 0 19 0;
#X connect 11 0 19 0;
#X connect 12 0 19 0;
#X connect 13 0 19 0;
#X connect 14 0 12 0;
#X connect 15 0 11 0;
#X connect 16 0 10 0;
#X connect 17 0 13 0;
#X connect 19 0 18 0;
#X connect 20 0 18 0;
#X connect 23 0 32 0;
#X connect 24 0 33 0;
#X connect 25 0 34 0;
#X connect 26 0 35 0;
#X connect 27 0 36 0;
#X connect 28 0 37 0;
#X connect 29 0 38 0;
#X connect 30 0 39 0;
#X connect 31 0 40 0;
#X connect 32 0 20 0;
#X connect 33 0 20 0;
#X connect 34 0 20 0;
#X connect 35 0 20 0;
#X connect 36 0 20 0;
#X connect 37 0 20 0;
#X connect 38 0 20 0;
#X connect 39 0 20 0;
#X connect 40 0 20 0;
#X restore 272 81 pd guts;
#X obj 272 109 outlet;
#N canvas 960 586 450 300 init 0;
#X obj 139 69 inlet;
#X obj 139 170 outlet;
#X obj 139 106 loadbang;
#X msg 139 132 0.7;
#X connect 0 0 2 0;
#X connect 2 0 3 0;
#X connect 3 0 1 0;
#X restore 272 22 pd init;
#X connect 19 0 20 0;
#X connect 21 0 1 0;
#X connect 21 0 2 0;
#X connect 21 0 3 0;
#X connect 21 0 4 0;
#X connect 21 0 5 0;
#X connect 21 0 6 0;
#X connect 21 0 7 0;
#X connect 21 0 8 0;
#X connect 21 0 9 0;
