#N canvas 2 87 956 954 10;
#X obj 145 307 +~;
#X obj 208 310 +~;
#X obj 168 350 +~;
#X obj 6 -84 inlet~ in-1l;
#X obj 87 -84 inlet~ in-1r;
#X obj 298 306 +~;
#X obj 361 309 +~;
#X obj 319 349 +~;
#X obj 167 397 outlet~ out-l;
#X obj 319 396 outlet~ out-r;
#X obj 176 -84 inlet~ in-2l;
#X obj 256 -84 inlet~ in-2r;
#X obj 336 -84 inlet~ in-3l;
#X obj 417 -84 inlet~ in-3r;
#X obj 505 -84 inlet~ in-4l;
#X obj 586 -84 inlet~ in-4r;
#X obj -122 -82 inlet control;
#X obj -122 -54 route volumes;
#X obj -122 -26 unpack f f f f;
#X obj 188 101 mixerX1;
#X msg -122 -6 volume \$1;
#X msg -95 14 volume \$1;
#X msg -68 34 volume \$1;
#X msg -41 54 volume \$1;
#X obj 101 101 mixerX1;
#X obj 275 101 mixerX1;
#X obj 362 101 mixerX1;
#X connect 0 0 2 0;
#X connect 1 0 2 1;
#X connect 2 0 8 0;
#X connect 3 0 24 1;
#X connect 4 0 24 2;
#X connect 5 0 7 0;
#X connect 6 0 7 1;
#X connect 7 0 9 0;
#X connect 10 0 19 1;
#X connect 11 0 19 2;
#X connect 12 0 25 1;
#X connect 13 0 25 2;
#X connect 14 0 26 1;
#X connect 15 0 26 2;
#X connect 16 0 17 0;
#X connect 17 0 18 0;
#X connect 18 0 20 0;
#X connect 18 1 21 0;
#X connect 18 2 22 0;
#X connect 18 3 23 0;
#X connect 19 0 0 1;
#X connect 19 1 5 1;
#X connect 20 0 24 0;
#X connect 21 0 19 0;
#X connect 22 0 25 0;
#X connect 23 0 26 0;
#X connect 24 0 0 0;
#X connect 24 1 5 0;
#X connect 25 0 1 0;
#X connect 25 1 6 0;
#X connect 26 0 1 1;
#X connect 26 1 6 1;
#X coords 0 -1 1 1 349 137 1 100 100;
