#N canvas 2 140 315 186 10;
#X obj 28 26 notein;
#X obj 191 145 outlet potis;
#X obj 28 145 outlet keys;
#X obj 28 64 pack f f;
#X obj 108 145 outlet pads;
#X obj 191 24 ctlin;
#X obj 191 64 pack f f;
#X msg 28 104 note \$1 \$2;
#X msg 108 104 note \$1 \$2;
#X connect 0 0 3 0;
#X connect 0 1 3 1;
#X connect 3 0 7 0;
#X connect 3 0 8 0;
#X connect 5 0 6 1;
#X connect 5 1 6 0;
#X connect 6 0 1 0;
#X connect 7 0 2 0;
#X connect 8 0 4 0;
