#N canvas 2 138 630 213 10;
#X obj 28 26 notein;
#X obj 28 145 outlet keys;
#X obj 28 64 pack f f;
#X obj 108 145 outlet pads;
#X obj 191 24 ctlin;
#X obj 191 64 pack f f;
#X msg 28 104 note \$1 \$2;
#X msg 108 104 note \$1 \$2;
#X obj 191 145 outlet ctrlpads;
#X obj 292 145 outlet potis;
#X obj 386 28 pgmin;
#X obj 386 145 outlet programm;
#X obj 386 83 - 1;
#X connect 0 0 2 0;
#X connect 0 1 2 1;
#X connect 2 0 6 0;
#X connect 2 0 7 0;
#X connect 4 0 5 1;
#X connect 4 1 5 0;
#X connect 5 0 8 0;
#X connect 5 0 9 0;
#X connect 6 0 1 0;
#X connect 7 0 3 0;
#X connect 10 0 12 0;
#X connect 12 0 11 0;
