#N canvas 358 401 450 300 10;
#X obj -17 77 bng 36 250 50 0 empty empty Tap 7 17 0 10 -262144 -1
-1;
#X msg 279 57 stop;
#X msg 319 54 0;
#X obj 62 77 bng 36 250 50 0 empty empty Beat 7 17 0 10 -262144 -1
-1;
#X obj 135 -50 inlet;
#X obj 261 202 outlet;
#X obj 22 77 bng 36 250 50 0 empty empty Stop 7 17 0 10 -262144 -1
-1;
#X obj 261 113 ../utls/tapMetronome;
#X obj 261 163 spigot;
#X obj 325 143 tgl 15 0 empty empty empty 17 7 0 10 -262144 -1 -1 1
1;
#X obj 321 189 bng 15 250 50 0 empty empty empty 17 7 0 10 -262144
-1 -1;
#X obj 118 127 ../utls/stopWatch;
#X floatatom 148 158 5 0 0 0 - - -;
#X obj 208 55 sel 0;
#X obj 151 188 >=;
#X floatatom 388 155 5 0 0 0 - - -;
#X obj 374 180 / 1000;
#X obj 214 203 bng 15 250 50 0 empty empty empty 17 7 0 10 -262144
-1 -1;
#X obj 178 -4 route stop float list;
#X msg 223 26 \$2;
#X connect 0 0 7 0;
#X connect 0 0 11 0;
#X connect 1 0 7 0;
#X connect 1 0 11 0;
#X connect 2 0 7 0;
#X connect 4 0 18 0;
#X connect 6 0 1 0;
#X connect 7 0 8 0;
#X connect 7 1 15 0;
#X connect 8 0 5 0;
#X connect 8 0 10 0;
#X connect 9 0 8 1;
#X connect 11 0 12 0;
#X connect 12 0 14 0;
#X connect 13 0 6 0;
#X connect 13 1 7 0;
#X connect 13 1 11 0;
#X connect 13 1 17 0;
#X connect 14 0 9 0;
#X connect 15 0 16 0;
#X connect 16 0 14 1;
#X connect 17 0 5 0;
#X connect 18 0 6 0;
#X connect 18 1 13 0;
#X connect 18 2 19 0;
#X connect 18 3 7 0;
#X connect 19 0 13 0;
#X coords 0 -1 1 1 130 60 1 -25 60;
