#N canvas 691 571 667 356 10;
#X obj 264 85 readsf~ 2;
#X msg 398 47 open \$1;
#X obj 398 -6 symbol;
#X obj 264 -23 t a b;
#X obj 10 87 ../utls/param \$0 start;
#X obj 10 113 ../utls/param \$0 stop;
#X obj 10 137 ../utls/param \$0 file;
#X obj 10 -114 inlet;
#X obj 79 -56 s \$0-ctrl-out;
#X obj 10 -2 route bang;
#X msg 10 20 start;
#X text 83 2 convert bang to start;
#X obj 10 170 s \$0-ctrl-out;
#X text 8 191 unhandled messages will get send out;
#X text 94 -74 daisy chaining;
#X text 44 65 get parameters;
#X obj 264 -50 r \$0-start-set;
#X obj 313 18 r \$0-stop-set;
#X obj 398 -35 r \$0-file-set;
#N canvas 272 792 206 284 control 1;
#X obj 56 43 cnv 15 100 60 empty empty empty 20 12 0 14 -233017 -66577
0;
#X obj 67 221 outlet;
#X obj 119 167 openpanel;
#X obj 67 84 bng 15 250 50 0 empty empty load_file 20 8 0 10 -262144
-1 -1;
#X obj 67 48 bng 15 250 50 0 empty empty start 20 8 0 10 -262144 -1
-1;
#X obj 67 66 bng 15 250 50 0 empty empty stop 20 8 0 10 -262144 -1
-1;
#X msg 67 190 stop;
#X msg 25 190 start;
#X msg 119 190 file \$1;
#X connect 2 0 8 0;
#X connect 3 0 2 0;
#X connect 4 0 7 0;
#X connect 5 0 6 0;
#X connect 6 0 1 0;
#X connect 7 0 1 0;
#X connect 8 0 1 0;
#X restore 27 -29 pd control;
#X msg 264 48 start;
#X msg 313 48 stop;
#X obj 264 150 outlet~;
#X obj 324 150 outlet~;
#X obj 380 149 outlet;
#X obj 472 75 s \$0-ctrl-out;
#X obj 380 118 r \$0-ctrl-out;
#X obj 472 -5 symbol;
#X text 522 7 output file if set;
#X msg 472 22 \$1;
#X obj 472 47 prepend dump file \$1;
#X obj 10 -81 route \$1;
#X connect 0 0 22 0;
#X connect 0 1 23 0;
#X connect 1 0 0 0;
#X connect 2 0 1 0;
#X connect 3 0 20 0;
#X connect 3 1 2 0;
#X connect 4 0 5 0;
#X connect 5 0 6 0;
#X connect 6 0 12 0;
#X connect 7 0 31 0;
#X connect 9 0 10 0;
#X connect 9 1 4 0;
#X connect 10 0 4 0;
#X connect 16 0 3 0;
#X connect 17 0 21 0;
#X connect 18 0 2 0;
#X connect 18 0 27 0;
#X connect 19 0 9 0;
#X connect 20 0 0 0;
#X connect 21 0 0 0;
#X connect 26 0 24 0;
#X connect 27 0 29 0;
#X connect 29 0 30 0;
#X connect 30 0 25 0;
#X connect 31 0 9 0;
#X connect 31 1 8 0;
#X coords 0 356 1 355 330 30 0;
