#N canvas 2 87 450 300 10;
#X obj 242 64 inlet~ in1;
#X obj 331 64 inlet~ in2;
#X obj 99 204 writesf~ 2;
#X obj 241 182 readsf~ 2;
#X obj 99 134 rec-name;
#X obj 241 223 outlet~ out1;
#X obj 331 224 outlet~ out1;
#X obj 83 64 inlet rec;
#X obj 146 65 inlet play;
#X obj 170 102 tgl 13 0 empty empty empty 0 -6 0 8 -24198 -1 -1 0 551250
;
#X obj 154 102 tgl 13 0 empty empty empty 0 -6 0 8 -258699 -1 -1 0
1;
#X connect 0 0 2 0;
#X connect 0 0 5 0;
#X connect 1 0 2 1;
#X connect 1 0 6 0;
#X connect 3 0 5 0;
#X connect 3 1 6 0;
#X connect 4 0 2 0;
#X connect 4 1 3 0;
#X connect 7 0 10 0;
#X connect 8 0 9 0;
#X connect 9 0 4 1;
#X connect 10 0 4 0;
#X coords 0 -1 1 1 85 17 1 100 100;
