#N canvas 958 87 956 954 10;
#X obj -3 284 outlet~;
#X obj 811 284 outlet~;
#X obj 110 84 bng 36 250 50 0 empty empty empty 17 7 0 10 -262144 -1
-1;
#X obj 190 84 bng 36 250 50 0 empty empty empty 17 7 0 10 -262144 -1
-1;
#X obj 270 84 bng 36 250 50 0 empty empty empty 17 7 0 10 -262144 -1
-1;
#X obj 350 84 bng 36 250 50 0 empty empty empty 17 7 0 10 -262144 -1
-1;
#X obj 112 -207 inlet b-1;
#X obj 190 -19 inlet b-2;
#X obj 270 -19 inlet b-3;
#X obj 350 -19 inlet b-4;
#X obj 519 -119 loadbang;
#X obj 127 4 r sample-1;
#X obj 367 4 r sample-4;
#X obj 207 4 r sample-2;
#X obj 287 4 r sample-3;
#X obj 331 299 hradio 15 1 0 16 empty empty empty 125 7 0 10 -262144
-1 -1 0;
#X obj 331 329 hradio 15 1 0 16 empty empty empty 125 7 0 10 -262144
-1 -1 0;
#X obj 251 329 bng 15 250 50 0 empty empty safe_nr: 17 7 0 10 -262144
-1 -1;
#X msg -6 -85 \$1;
#X obj -5 -59 s sample-1;
#X msg 64 -85 \$1;
#X msg 134 -85 \$1;
#X msg 204 -85 \$1;
#X obj 65 -59 s sample-2;
#X obj 135 -59 s sample-3;
#X obj 205 -59 s sample-4;
#X obj 81 395 playSample;
#X obj 80 360 playSample;
#X obj 82 431 playSample;
#X obj 82 468 playSample;
#X msg 524 -88 0;
#X obj 304 883 textfile;
#X obj 174 788 list prepend add;
#X obj 176 822 list trim;
#X msg 304 823 clear;
#X obj 269 759 t b b b;
#X text 173 699 SAVE PRESETS;
#X text 396 752 create a text file for each;
#X text 395 780 in the load section;
#X obj 146 730 r \$1-s-save;
#X obj 288 787 s \$1-save-bng;
#X text 396 766 list of presets & select accordingly;
#X obj 703 865 list;
#X obj 640 775 t b b;
#X obj 640 752 r \$1-save-bng;
#X obj 703 888 s \$1-s-save;
#X text 680 699 make a list of the presets to be saved;
#X obj 774 733 symbol;
#X obj 724 733 symbol;
#X obj 734 753 symbol;
#X obj 754 773 symbol;
#X obj 507 -161 textfile;
#X msg 507 -196 rewind;
#X obj 467 -196 until;
#X obj 488 -222 t b b b;
#X obj 251 299 bng 15 250 50 0 empty empty load_nr.: 17 7 0 10 -262144
-1 -1;
#X obj 110 -180 route bang samples volumes preset;
#X obj 489 -38 t b f;
#X msg 274 -85 \$1;
#X msg 344 -85 \$1;
#X msg 414 -85 \$1;
#X msg 484 -85 \$1;
#X obj 430 -19 inlet b-5;
#X obj 510 -19 inlet b-6;
#X obj 590 -19 inlet b-7;
#X obj 670 -19 inlet b-8;
#X obj 687 4 r sample-8;
#X obj 607 4 r sample-7;
#X obj 527 4 r sample-6;
#X obj 447 4 r sample-5;
#X obj 430 84 bng 36 250 50 0 empty empty empty 17 7 0 10 -262144 -1
-1;
#X obj 510 84 bng 36 250 50 0 empty empty empty 17 7 0 10 -262144 -1
-1;
#X obj 590 84 bng 36 250 50 0 empty empty empty 17 7 0 10 -262144 -1
-1;
#X obj 670 84 bng 36 250 50 0 empty empty empty 17 7 0 10 -262144 -1
-1;
#X msg 317 -140 volumes \$1 \$2 \$3 \$4 \$5 \$6 \$7 \$8;
#X obj 167 -130 unpack s s s s s s s s;
#X msg 562 -197 read ../presets/samplerX8_0.txt;
#X obj 421 395 playSample;
#X obj 420 360 playSample;
#X obj 422 431 playSample;
#X obj 422 468 playSample;
#X msg 385 837 write ../presets/samplerX8_0.txt;
#X obj 874 733 symbol;
#X obj 824 733 symbol;
#X obj 834 753 symbol;
#X obj 854 773 symbol;
#X obj 724 808 pack s s s s s s s s;
#X text -33 883 based on SSAD by F. Barknecht // modified by dr/2013
cornicis/2014;
#X obj 275 -59 s sample-5;
#X obj 345 -59 s sample-6;
#X obj 415 -59 s sample-7;
#X obj 485 -59 s sample-8;
#X obj 96 125 mixerX8;
#X msg 385 810 set write ../presets/samplerX8_\$1.txt;
#X msg 562 -224 set read ../presets/samplerX8_\$1.txt;
#X connect 2 0 27 0;
#X connect 3 0 26 0;
#X connect 4 0 28 0;
#X connect 5 0 29 0;
#X connect 6 0 56 0;
#X connect 7 0 3 0;
#X connect 8 0 4 0;
#X connect 9 0 5 0;
#X connect 10 0 30 0;
#X connect 11 0 27 1;
#X connect 12 0 29 1;
#X connect 13 0 26 1;
#X connect 14 0 28 1;
#X connect 15 0 94 0;
#X connect 16 0 93 0;
#X connect 17 0 35 0;
#X connect 18 0 19 0;
#X connect 20 0 23 0;
#X connect 21 0 24 0;
#X connect 22 0 25 0;
#X connect 26 0 92 3;
#X connect 26 1 92 4;
#X connect 26 2 49 0;
#X connect 27 0 92 1;
#X connect 27 1 92 2;
#X connect 27 2 48 0;
#X connect 28 0 92 5;
#X connect 28 1 92 6;
#X connect 28 2 50 0;
#X connect 29 0 92 7;
#X connect 29 1 92 8;
#X connect 29 2 47 0;
#X connect 30 0 57 0;
#X connect 32 0 33 0;
#X connect 33 0 31 0;
#X connect 34 0 31 0;
#X connect 35 0 81 0;
#X connect 35 1 40 0;
#X connect 35 2 34 0;
#X connect 39 0 32 0;
#X connect 42 0 45 0;
#X connect 43 0 42 0;
#X connect 43 1 86 0;
#X connect 44 0 43 0;
#X connect 47 0 86 3;
#X connect 48 0 86 0;
#X connect 49 0 86 1;
#X connect 50 0 86 2;
#X connect 51 0 75 0;
#X connect 51 1 53 1;
#X connect 52 0 51 0;
#X connect 53 0 51 0;
#X connect 54 0 53 0;
#X connect 54 1 52 0;
#X connect 54 2 76 0;
#X connect 55 0 54 0;
#X connect 56 0 2 0;
#X connect 56 1 75 0;
#X connect 56 2 74 0;
#X connect 56 3 57 0;
#X connect 57 0 55 0;
#X connect 57 1 15 0;
#X connect 58 0 88 0;
#X connect 59 0 89 0;
#X connect 60 0 90 0;
#X connect 61 0 91 0;
#X connect 62 0 70 0;
#X connect 63 0 71 0;
#X connect 64 0 72 0;
#X connect 65 0 73 0;
#X connect 66 0 80 1;
#X connect 67 0 79 1;
#X connect 68 0 77 1;
#X connect 69 0 78 1;
#X connect 70 0 78 0;
#X connect 71 0 77 0;
#X connect 72 0 79 0;
#X connect 73 0 80 0;
#X connect 74 0 92 0;
#X connect 75 0 18 0;
#X connect 75 1 20 0;
#X connect 75 2 21 0;
#X connect 75 3 22 0;
#X connect 75 4 58 0;
#X connect 75 5 59 0;
#X connect 75 6 60 0;
#X connect 75 7 61 0;
#X connect 76 0 51 0;
#X connect 77 0 92 11;
#X connect 77 1 92 12;
#X connect 77 2 84 0;
#X connect 78 0 92 9;
#X connect 78 1 92 10;
#X connect 78 2 83 0;
#X connect 79 0 92 13;
#X connect 79 1 92 14;
#X connect 79 2 85 0;
#X connect 80 0 92 15;
#X connect 80 1 92 16;
#X connect 80 2 82 0;
#X connect 81 0 31 0;
#X connect 82 0 86 7;
#X connect 83 0 86 4;
#X connect 84 0 86 5;
#X connect 85 0 86 6;
#X connect 86 0 42 1;
#X connect 92 0 0 0;
#X connect 92 1 1 0;
#X connect 93 0 81 0;
#X connect 94 0 76 0;
#X coords 0 -1 1 1 685 450 1 75 65;
