#N canvas 2 87 1905 989 10;
#X obj 31 445 outlet~;
#X obj 794 458 outlet~;
#X obj 79 81 bng 56 250 50 0 \$0-b1-out \$0-b1-in 1 20 30 0 20 -262144
-1 -1;
#X obj 167 81 bng 56 250 50 0 \$0-b2-out \$0-b2-in 2 20 30 0 20 -262144
-1 -1;
#X obj 255 81 bng 56 250 50 0 \$0-b3-out \$0-b3-in 3 20 30 0 20 -262144
-1 -1;
#X obj 340 81 bng 56 250 50 0 \$0-b4-out \$0-b4-in 4 20 30 0 20 -262144
-1 -1;
#X obj 1269 -201 r sample-1;
#X obj 1269 54 r sample-4;
#X obj 1270 -121 r sample-2;
#X obj 1267 -35 r sample-3;
#X obj 79 156 hradio 36 1 0 15 \$0-preset-nr-out \$0-preset-nr-in preset_bank
0 -8 0 10 -262144 -1 -1 0;
#X obj 705 156 bng 36 250 50 0 \$0-safe-bang empty safe 5 17 0 10 -262144
-1 -1;
#X obj 655 156 bng 36 250 50 0 \$0-load-bang-out \$0-load-bang-in load
5 17 0 10 -262144 -1 -1;
#X obj 1263 422 r sample-8;
#X obj 1266 339 r sample-7;
#X obj 1266 251 r sample-6;
#X obj 1265 155 r sample-5;
#X obj 425 81 bng 56 250 50 0 \$0-b5-out \$0-b5-in 5 20 30 0 20 -262144
-1 -1;
#X obj 516 81 bng 56 250 50 0 \$0-b6-out \$0-b6-in 6 20 30 0 20 -262144
-1 -1;
#X obj 599 81 bng 56 250 50 0 \$0-b7-out \$0-b7-in 7 20 30 0 20 -262144
-1 -1;
#X obj 685 81 bng 56 250 50 0 \$0-b8-out \$0-b8-in 8 20 30 0 20 -262144
-1 -1;
#X msg 117 -51 volumes \$1 \$2 \$3 \$4 \$5 \$6 \$7 \$8;
#X obj 24 269 mixerX8;
#X obj 1004 -181 playSample;
#X obj 69 -147 inlet;
#X obj 69 -11 s \$0-samples;
#N canvas 1057 135 450 300 unpackSamples 0;
#X msg -546 -125 \$1;
#X obj -545 -99 s sample-1;
#X msg -476 -125 \$1;
#X msg -406 -125 \$1;
#X msg -336 -125 \$1;
#X obj -475 -99 s sample-2;
#X obj -405 -99 s sample-3;
#X obj -335 -99 s sample-4;
#X msg -266 -125 \$1;
#X msg -196 -125 \$1;
#X msg -126 -125 \$1;
#X msg -56 -125 \$1;
#X obj -370 -231 unpack s s s s s s s s;
#X obj -265 -99 s sample-5;
#X obj -195 -99 s sample-6;
#X obj -125 -99 s sample-7;
#X obj -55 -99 s sample-8;
#X obj -370 -259 r \$0-samples;
#X connect 0 0 1 0;
#X connect 2 0 5 0;
#X connect 3 0 6 0;
#X connect 4 0 7 0;
#X connect 8 0 13 0;
#X connect 9 0 14 0;
#X connect 10 0 15 0;
#X connect 11 0 16 0;
#X connect 12 0 0 0;
#X connect 12 1 2 0;
#X connect 12 2 3 0;
#X connect 12 3 4 0;
#X connect 12 4 8 0;
#X connect 12 5 9 0;
#X connect 12 6 10 0;
#X connect 12 7 11 0;
#X connect 17 0 12 0;
#X restore -62 -143 pd unpackSamples;
#X obj 166 -71 s \$0-preset-in;
#X obj 215 -91 s \$0-note-in;
#X obj 117 -31 s \$0-volumes-in;
#X obj -85 229 r \$0-volumes-in;
#X obj 137 -183 loadbang;
#N canvas 843 321 450 300 midi 0;
#X obj 50 -150 route 44 45 46 47 48 49 50 51;
#X obj 50 -178 stripnote;
#X obj 50 10 s \$0-b1-in;
#X obj 71 -10 s \$0-b2-in;
#X obj 92 -30 s \$0-b3-in;
#X obj 114 -50 s \$0-b4-in;
#X obj 135 -70 s \$0-b5-in;
#X obj 156 -90 s \$0-b6-in;
#X obj 178 -110 s \$0-b7-in;
#X obj 199 -130 s \$0-b8-in;
#X obj 50 -206 r \$0-note-in;
#X connect 0 0 2 0;
#X connect 0 1 3 0;
#X connect 0 2 4 0;
#X connect 0 3 5 0;
#X connect 0 4 6 0;
#X connect 0 5 7 0;
#X connect 0 6 8 0;
#X connect 0 7 9 0;
#X connect 1 0 0 0;
#X connect 10 0 1 0;
#X restore -62 -185 pd midi;
#X obj 1004 -201 r \$0-b1-out;
#X obj 1004 -121 r \$0-b2-out;
#X obj 1006 -42 r \$0-b3-out;
#X obj 1007 52 r \$0-b4-out;
#X obj 1004 148 r \$0-b5-out;
#X obj 1009 244 r \$0-b6-out;
#X obj 1007 331 r \$0-b7-out;
#X obj 1221 -145 s \$0-sample-1-file;
#N canvas 343 163 706 659 presets 0;
#X obj 57 172 textfile;
#X msg 57 137 rewind;
#X obj 17 137 until;
#X obj 38 111 t b b b;
#X msg 152 128 read ../presets/samplerX8_0.txt;
#X msg 152 108 set read ../presets/samplerX8_\$1.txt;
#X obj 57 200 s \$0-samples;
#X obj 150 -31 t b f;
#X obj 150 9 s \$0-load-bang-in;
#X obj 150 -51 r \$0-preset-in;
#X obj 177 -11 s \$0-preset-nr-in;
#X obj 152 88 r \$0-preset-nr-out;
#X obj 45 48 r \$0-load-bang-out;
#X obj 228 551 textfile;
#X obj 228 496 list prepend add;
#X obj 228 524 list trim;
#X msg 356 534 clear;
#X obj 209 285 t b b b;
#X msg -41 372 write ../presets/samplerX8_0.txt;
#X msg -41 285 set write ../presets/samplerX8_\$1.txt;
#X text -6 624 saving preset based on SSAD by F. Barknecht // modified
by dr/2013 cornicis/2014;
#X obj -41 257 r \$0-preset-nr-out;
#X obj 209 258 r \$0-safe-bang;
#X obj 228 466 list;
#X obj 228 320 t b b;
#X obj 347 449 pack s s s s s s s s;
#X obj 347 277 symbol;
#X obj 363 297 symbol;
#X obj 380 317 symbol;
#X obj 397 337 symbol;
#X obj 413 357 symbol;
#X obj 430 377 symbol;
#X obj 447 397 symbol;
#X obj 464 417 symbol;
#X obj 347 187 r \$0-sample-1-file;
#X obj 363 207 r \$0-sample-2-file;
#X obj 380 227 r \$0-sample-3-file;
#X obj 397 247 r \$0-sample-4-file;
#X obj 413 267 r \$0-sample-5-file;
#X obj 430 287 r \$0-sample-6-file;
#X obj 447 307 r \$0-sample-7-file;
#X obj 463 327 r \$0-sample-8-file;
#X connect 0 0 6 0;
#X connect 0 1 2 1;
#X connect 1 0 0 0;
#X connect 2 0 0 0;
#X connect 3 0 2 0;
#X connect 3 1 1 0;
#X connect 3 2 4 0;
#X connect 4 0 0 0;
#X connect 5 0 4 0;
#X connect 7 0 8 0;
#X connect 7 1 10 0;
#X connect 9 0 7 0;
#X connect 11 0 5 0;
#X connect 12 0 3 0;
#X connect 14 0 15 0;
#X connect 15 0 13 0;
#X connect 16 0 13 0;
#X connect 17 0 18 0;
#X connect 17 1 24 0;
#X connect 17 2 16 0;
#X connect 18 0 13 0;
#X connect 19 0 18 0;
#X connect 21 0 19 0;
#X connect 22 0 17 0;
#X connect 23 0 14 0;
#X connect 24 0 23 0;
#X connect 24 1 25 0;
#X connect 25 0 23 1;
#X connect 26 0 25 0;
#X connect 27 0 25 1;
#X connect 28 0 25 2;
#X connect 29 0 25 3;
#X connect 30 0 25 4;
#X connect 31 0 25 5;
#X connect 32 0 25 6;
#X connect 33 0 25 7;
#X connect 34 0 26 0;
#X connect 35 0 27 0;
#X connect 36 0 28 0;
#X connect 37 0 29 0;
#X connect 38 0 30 0;
#X connect 39 0 31 0;
#X connect 40 0 32 0;
#X connect 41 0 33 0;
#X restore -62 -164 pd presets;
#X obj 1221 -65 s \$0-sample-2-file;
#X obj 1221 25 s \$0-sample-3-file;
#X obj 1221 115 s \$0-sample-4-file;
#X obj 1220 215 s \$0-sample-5-file;
#X obj 1221 307 s \$0-sample-6-file;
#X obj 1221 397 s \$0-sample-7-file;
#X obj 1221 487 s \$0-sample-8-file;
#X obj 1003 -14 playSample;
#X obj 1004 -101 playSample;
#X obj 1002 77 playSample;
#X obj 1001 274 playSample;
#X obj 1000 179 playSample;
#X obj 1002 360 playSample;
#X obj 996 446 playSample;
#X obj 1004 416 r \$0-b8-out;
#X msg 137 -163 preset 0 \, volumes 1 1 1 1 1 1 1 1;
#X obj 69 -119 route samples volumes preset note stop;
#X msg 959 -102 stop;
#X connect 6 0 23 1;
#X connect 7 0 51 1;
#X connect 8 0 50 1;
#X connect 9 0 49 1;
#X connect 13 0 55 1;
#X connect 14 0 54 1;
#X connect 15 0 52 1;
#X connect 16 0 53 1;
#X connect 21 0 29 0;
#X connect 22 0 0 0;
#X connect 22 1 1 0;
#X connect 23 0 22 1;
#X connect 23 1 22 2;
#X connect 23 2 40 0;
#X connect 24 0 58 0;
#X connect 30 0 22 0;
#X connect 31 0 57 0;
#X connect 33 0 23 0;
#X connect 34 0 50 0;
#X connect 35 0 49 0;
#X connect 36 0 51 0;
#X connect 37 0 53 0;
#X connect 38 0 52 0;
#X connect 39 0 54 0;
#X connect 49 0 22 5;
#X connect 49 1 22 6;
#X connect 49 2 43 0;
#X connect 50 0 22 3;
#X connect 50 1 22 4;
#X connect 50 2 42 0;
#X connect 51 0 22 7;
#X connect 51 1 22 8;
#X connect 51 2 44 0;
#X connect 52 0 22 11;
#X connect 52 1 22 12;
#X connect 52 2 46 0;
#X connect 53 0 22 9;
#X connect 53 1 22 10;
#X connect 53 2 45 0;
#X connect 54 0 22 13;
#X connect 54 1 22 14;
#X connect 54 2 47 0;
#X connect 55 0 22 15;
#X connect 55 1 22 16;
#X connect 55 2 48 0;
#X connect 56 0 55 0;
#X connect 57 0 58 0;
#X connect 58 0 25 0;
#X connect 58 1 21 0;
#X connect 58 2 27 0;
#X connect 58 3 28 0;
#X connect 58 4 59 0;
#X connect 59 0 23 0;
#X connect 59 0 50 0;
#X connect 59 0 49 0;
#X connect 59 0 51 0;
#X connect 59 0 53 0;
#X connect 59 0 52 0;
#X connect 59 0 54 0;
#X connect 59 0 55 0;
#X coords 0 -1 1 1 690 140 1 65 65;
