#N canvas 30 87 956 954 10;
#X obj -3 296 outlet~;
#X obj 811 296 outlet~;
#X obj 79 81 bng 56 250 50 0 empty empty empty 17 7 0 10 -262144 -1
-1;
#X obj 167 81 bng 56 250 50 0 empty empty empty 17 7 0 10 -262144 -1
-1;
#X obj 255 81 bng 56 250 50 0 empty empty empty 17 7 0 10 -262144 -1
-1;
#X obj 340 81 bng 56 250 50 0 empty empty empty 17 7 0 10 -262144 -1
-1;
#X obj 286 -288 loadbang;
#X obj -3 370 r sample-1;
#X obj -7 479 r sample-4;
#X obj -6 409 r sample-2;
#X obj -5 444 r sample-3;
#X obj 80 316 hradio 36 1 0 16 \$0-presetNr empty preset_bank 0 -8
0 10 -262144 -1 -1 2;
#X obj 714 316 bng 36 250 50 0 \$0-safeBang empty safe 5 17 0 10 -262144
-1 -1;
#X msg 275 -261 0;
#X obj 667 316 bng 36 250 50 0 \$0-loadBang empty load 5 17 0 10 -262144
-1 -1;
#X obj 240 -211 t b f;
#X obj 782 481 r sample-8;
#X obj 783 441 r sample-7;
#X obj 782 401 r sample-6;
#X obj 782 361 r sample-5;
#X obj 425 81 bng 56 250 50 0 empty empty empty 17 7 0 10 -262144 -1
-1;
#X obj 516 81 bng 56 250 50 0 empty empty empty 17 7 0 10 -262144 -1
-1;
#X obj 599 81 bng 56 250 50 0 empty empty empty 17 7 0 10 -262144 -1
-1;
#X obj 685 81 bng 56 250 50 0 empty empty empty 17 7 0 10 -262144 -1
-1;
#X msg 190 -191 volumes \$1 \$2 \$3 \$4 \$5 \$6 \$7 \$8;
#X obj 69 140 mixerX8;
#X obj 82 440 playSample;
#X obj 80 369 playSample;
#X obj 81 404 playSample;
#X obj 82 477 playSample;
#X obj 421 404 playSample;
#X obj 420 369 playSample;
#X obj 422 440 playSample;
#X obj 422 477 playSample;
#X obj 428 -50 route 44 45 46 47 48 49 50 51;
#X obj 428 -69 stripnote;
#X obj 91 -239 route bang samples volumes preset midinote;
#X obj 290 -74 oneButtonTapMetro;
#X obj 290 -134 route 44;
#X obj 290 -115 moses 1;
#X msg 290 -94 44 0;
#X msg 326 -94 44 1;
#X obj 91 -267 inlet;
#X obj 140 -171 s \$0-samples;
#N canvas 1060 138 450 300 unpackSamples 0;
#X msg -546 -125 \$1;
#X obj -545 -99 s sample-1;
#X msg -476 -125 \$1;
#X msg -406 -125 \$1;
#X msg -336 -125 \$1;
#X obj -475 -99 s sample-2;
#X obj -405 -99 s sample-3;
#X obj -335 -99 s sample-4;
#X msg -266 -125 \$1;
#X msg -196 -125 \$1;
#X msg -126 -125 \$1;
#X msg -56 -125 \$1;
#X obj -370 -231 unpack s s s s s s s s;
#X obj -265 -99 s sample-5;
#X obj -195 -99 s sample-6;
#X obj -125 -99 s sample-7;
#X obj -55 -99 s sample-8;
#X obj -370 -259 r \$0-samples;
#X connect 0 0 1 0;
#X connect 2 0 5 0;
#X connect 3 0 6 0;
#X connect 4 0 7 0;
#X connect 8 0 13 0;
#X connect 9 0 14 0;
#X connect 10 0 15 0;
#X connect 11 0 16 0;
#X connect 12 0 0 0;
#X connect 12 1 2 0;
#X connect 12 2 3 0;
#X connect 12 3 4 0;
#X connect 12 4 8 0;
#X connect 12 5 9 0;
#X connect 12 6 10 0;
#X connect 12 7 11 0;
#X connect 17 0 12 0;
#X restore 770 544 pd unpackSamples;
#N canvas 1077 268 450 300 loadPreset 0;
#X obj 84 58 r \$0-loadBang;
#X obj 227 59 r \$0-presetNr;
#X obj 97 182 textfile;
#X msg 97 147 rewind;
#X obj 57 147 until;
#X obj 78 121 t b b b;
#X msg 152 146 read ../presets/samplerX8_2.txt;
#X msg 152 119 set read ../presets/samplerX8_\$1.txt;
#X obj 97 210 s \$0-samples;
#X connect 0 0 5 0;
#X connect 1 0 7 0;
#X connect 2 0 8 0;
#X connect 2 1 4 1;
#X connect 3 0 2 0;
#X connect 4 0 2 0;
#X connect 5 0 4 0;
#X connect 5 1 3 0;
#X connect 5 2 6 0;
#X connect 6 0 2 0;
#X connect 7 0 6 0;
#X restore 770 572 pd loadPreset;
#X obj -48 389 s \$0-sampleDump-1;
#X obj -53 499 s \$0-sampleDump-4;
#X obj -50 462 s \$0-sampleDump-3;
#X obj -49 427 s \$0-sampleDump-2;
#X obj 782 379 s \$0-sampleDump-5;
#X obj 782 419 s \$0-sampleDump-6;
#X obj 783 459 s \$0-sampleDump-7;
#X obj 782 500 s \$0-sampleDump-8;
#N canvas 1012 496 583 300 savePreset 0;
#X obj 208 219 textfile;
#X obj 208 164 list prepend add;
#X obj 208 192 list trim;
#X msg 398 169 clear;
#X obj 189 95 t b b b;
#X msg -61 182 write ../presets/samplerX8_2.txt;
#X msg -61 95 set write ../presets/samplerX8_\$1.txt;
#X obj 189 67 r \$0-safeBang;
#X obj -61 67 r \$0-presetNr;
#N canvas 1353 675 450 300 packPresets 0;
#X obj 133 235 list;
#X obj 60 161 t b b;
#X obj 154 178 pack s s s s s s s s;
#X obj 154 6 symbol;
#X obj 170 26 symbol;
#X obj 187 46 symbol;
#X obj 204 66 symbol;
#X obj 220 86 symbol;
#X obj 237 106 symbol;
#X obj 254 126 symbol;
#X obj 271 146 symbol;
#X obj 154 -84 r \$0-sampleDump-1;
#X obj 170 -64 r \$0-sampleDump-2;
#X obj 187 -44 r \$0-sampleDump-3;
#X obj 204 -24 r \$0-sampleDump-4;
#X obj 220 -4 r \$0-sampleDump-5;
#X obj 237 16 r \$0-sampleDump-6;
#X obj 254 36 r \$0-sampleDump-7;
#X obj 270 56 r \$0-sampleDump-8;
#X obj 133 258 outlet;
#X obj 60 133 inlet;
#X connect 0 0 19 0;
#X connect 1 0 0 0;
#X connect 1 1 2 0;
#X connect 2 0 0 1;
#X connect 3 0 2 0;
#X connect 4 0 2 1;
#X connect 5 0 2 2;
#X connect 6 0 2 3;
#X connect 7 0 2 4;
#X connect 8 0 2 5;
#X connect 9 0 2 6;
#X connect 10 0 2 7;
#X connect 11 0 3 0;
#X connect 12 0 4 0;
#X connect 13 0 5 0;
#X connect 14 0 6 0;
#X connect 15 0 7 0;
#X connect 16 0 8 0;
#X connect 17 0 9 0;
#X connect 18 0 10 0;
#X connect 20 0 1 0;
#X restore 208 136 pd packPresets;
#X text -26 254 saving preset based on SSAD by F. Barknecht // modified
by dr/2013 cornicis/2014;
#X connect 1 0 2 0;
#X connect 2 0 0 0;
#X connect 3 0 0 0;
#X connect 4 0 5 0;
#X connect 4 1 9 0;
#X connect 4 2 3 0;
#X connect 5 0 0 0;
#X connect 6 0 5 0;
#X connect 7 0 4 0;
#X connect 8 0 6 0;
#X connect 9 0 1 0;
#X restore 769 602 pd savePreset;
#X connect 2 0 27 0;
#X connect 3 0 28 0;
#X connect 4 0 26 0;
#X connect 5 0 29 0;
#X connect 6 0 13 0;
#X connect 7 0 27 1;
#X connect 8 0 29 1;
#X connect 9 0 28 1;
#X connect 10 0 26 1;
#X connect 13 0 15 0;
#X connect 15 0 14 0;
#X connect 15 1 11 0;
#X connect 16 0 33 1;
#X connect 17 0 32 1;
#X connect 18 0 30 1;
#X connect 19 0 31 1;
#X connect 20 0 31 0;
#X connect 21 0 30 0;
#X connect 22 0 32 0;
#X connect 23 0 33 0;
#X connect 24 0 25 0;
#X connect 25 0 0 0;
#X connect 25 1 1 0;
#X connect 26 0 25 5;
#X connect 26 1 25 6;
#X connect 26 2 48 0;
#X connect 27 0 25 1;
#X connect 27 1 25 2;
#X connect 27 2 46 0;
#X connect 28 0 25 3;
#X connect 28 1 25 4;
#X connect 28 2 49 0;
#X connect 29 0 25 7;
#X connect 29 1 25 8;
#X connect 29 2 47 0;
#X connect 30 0 25 11;
#X connect 30 1 25 12;
#X connect 30 2 51 0;
#X connect 31 0 25 9;
#X connect 31 1 25 10;
#X connect 31 2 50 0;
#X connect 32 0 25 13;
#X connect 32 1 25 14;
#X connect 32 2 52 0;
#X connect 33 0 25 15;
#X connect 33 1 25 16;
#X connect 33 2 53 0;
#X connect 34 1 3 0;
#X connect 34 2 4 0;
#X connect 34 3 5 0;
#X connect 34 4 20 0;
#X connect 34 5 21 0;
#X connect 34 6 22 0;
#X connect 34 7 23 0;
#X connect 35 0 34 0;
#X connect 36 0 2 0;
#X connect 36 1 43 0;
#X connect 36 2 24 0;
#X connect 36 3 15 0;
#X connect 36 4 35 0;
#X connect 36 4 38 0;
#X connect 37 0 2 0;
#X connect 38 0 39 0;
#X connect 39 0 40 0;
#X connect 39 1 41 0;
#X connect 40 0 37 0;
#X connect 41 0 37 0;
#X connect 42 0 36 0;
#X coords 0 -1 1 1 705 450 1 65 65;
