#N canvas 925 87 956 954 10;
#X obj 185 343 outlet~;
#X obj 242 343 outlet~;
#X obj 110 84 bng 36 250 50 0 empty empty empty 17 7 0 10 -262144 -1
-1;
#X obj 190 84 bng 36 250 50 0 empty empty empty 17 7 0 10 -262144 -1
-1;
#X obj 270 84 bng 36 250 50 0 empty empty empty 17 7 0 10 -262144 -1
-1;
#X obj 350 84 bng 36 250 50 0 empty empty empty 17 7 0 10 -262144 -1
-1;
#X obj 112 -207 inlet b-1;
#X obj 190 -19 inlet b-2;
#X obj 270 -19 inlet b-3;
#X obj 350 -19 inlet b-4;
#X obj 519 -119 loadbang;
#X obj 127 4 r sample-1;
#X obj 367 4 r sample-4;
#X obj 207 4 r sample-2;
#X obj 287 4 r sample-3;
#X obj 511 79 hradio 15 1 0 16 empty empty empty 125 7 0 10 -262144
-1 -1 0;
#X obj 511 109 hradio 15 1 0 16 empty empty empty 125 7 0 10 -262144
-1 -1 0;
#X obj 431 109 bng 15 250 50 0 empty empty safe_nr: 17 7 0 10 -262144
-1 -1;
#X obj 167 -130 unpack s s s s;
#X msg 164 -95 \$1;
#X obj 165 -69 s sample-1;
#X msg 234 -95 \$1;
#X msg 304 -95 \$1;
#X msg 374 -95 \$1;
#X obj 235 -69 s sample-2;
#X obj 305 -69 s sample-3;
#X obj 375 -69 s sample-4;
#X obj 431 175 playSample;
#X msg 281 -141 volumes \$1 \$2 \$3 \$4;
#X obj 430 140 playSample;
#X obj 432 211 playSample;
#X obj 432 248 playSample;
#X msg 524 -88 0;
#X obj 304 583 textfile;
#X obj 174 488 list prepend add;
#X obj 176 522 list trim;
#X obj 310 435 bng 15 250 50 0 empty empty save_nr.: 17 7 0 10 -262144
-1 -1;
#X msg 304 523 clear;
#X obj 269 459 t b b b;
#X msg 385 537 write ../presets/samplerX4_0.txt;
#X text 173 399 SAVE PRESETS;
#X text 396 452 create a text file for each;
#X text 395 480 in the load section;
#X obj 146 430 r \$1-s-save;
#X obj 288 487 s \$1-save-bng;
#X text 396 466 list of presets & select accordingly;
#X obj 703 565 list;
#X obj 640 475 t b b;
#X obj 640 452 r \$1-save-bng;
#X obj 703 588 s \$1-s-save;
#X text 680 399 make a list of the presets to be saved;
#X obj 827 582 print ddddd;
#X obj 774 433 symbol;
#X obj 724 433 symbol;
#X obj 734 453 symbol;
#X obj 754 473 symbol;
#X obj 724 508 pack s s s s;
#X text 21 699 based on SSAD by F. Barknecht // modified by dr/2013
cornicis/2014;
#X obj 507 -161 textfile;
#X msg 507 -196 rewind;
#X obj 467 -196 until;
#X obj 488 -222 t b b b;
#X obj 431 79 bng 15 250 50 0 empty empty load_nr.: 17 7 0 10 -262144
-1 -1;
#X msg 562 -197 read ../presets/samplerX4_0.txt;
#X obj 614 -146 print dump;
#X obj 110 -180 route bang samples volumes preset;
#X obj 489 -38 t b f;
#X obj 96 125 mixerX4;
#X msg 385 510 set write ../presets/samplerX4_\$1.txt;
#X msg 562 -224 set read ../presets/samplerX4_\$1.txt;
#X connect 2 0 29 0;
#X connect 3 0 27 0;
#X connect 4 0 30 0;
#X connect 5 0 31 0;
#X connect 6 0 65 0;
#X connect 7 0 3 0;
#X connect 8 0 4 0;
#X connect 9 0 5 0;
#X connect 10 0 32 0;
#X connect 11 0 29 1;
#X connect 12 0 31 1;
#X connect 13 0 27 1;
#X connect 14 0 30 1;
#X connect 15 0 69 0;
#X connect 16 0 68 0;
#X connect 17 0 36 0;
#X connect 18 0 19 0;
#X connect 18 1 21 0;
#X connect 18 2 22 0;
#X connect 18 3 23 0;
#X connect 19 0 20 0;
#X connect 21 0 24 0;
#X connect 22 0 25 0;
#X connect 23 0 26 0;
#X connect 27 0 67 3;
#X connect 27 1 67 4;
#X connect 27 2 54 0;
#X connect 28 0 67 0;
#X connect 29 0 67 1;
#X connect 29 1 67 2;
#X connect 29 2 53 0;
#X connect 30 0 67 5;
#X connect 30 1 67 6;
#X connect 30 2 55 0;
#X connect 31 0 67 7;
#X connect 31 1 67 8;
#X connect 31 2 52 0;
#X connect 32 0 66 0;
#X connect 34 0 35 0;
#X connect 35 0 33 0;
#X connect 36 0 38 0;
#X connect 37 0 33 0;
#X connect 38 0 39 0;
#X connect 38 1 44 0;
#X connect 38 2 37 0;
#X connect 39 0 33 0;
#X connect 43 0 34 0;
#X connect 46 0 49 0;
#X connect 46 0 51 0;
#X connect 47 0 46 0;
#X connect 47 1 56 0;
#X connect 48 0 47 0;
#X connect 52 0 56 3;
#X connect 53 0 56 0;
#X connect 54 0 56 1;
#X connect 55 0 56 2;
#X connect 56 0 46 1;
#X connect 58 0 64 0;
#X connect 58 0 18 0;
#X connect 58 1 60 1;
#X connect 59 0 58 0;
#X connect 60 0 58 0;
#X connect 61 0 60 0;
#X connect 61 1 59 0;
#X connect 61 2 63 0;
#X connect 62 0 61 0;
#X connect 63 0 58 0;
#X connect 65 0 2 0;
#X connect 65 1 18 0;
#X connect 65 2 28 0;
#X connect 65 3 66 0;
#X connect 66 0 62 0;
#X connect 66 1 15 0;
#X connect 67 0 0 0;
#X connect 67 1 1 0;
#X connect 68 0 39 0;
#X connect 69 0 63 0;
#X coords 0 -1 1 1 675 220 1 96 65;
