#N canvas 957 87 956 954 10;
#X msg 10 312 volume 0.6;
#X obj 10 -35 lbang;
#X msg 25 -3 volumes 0.7 0.7 0.7 0.7 0.7 0.7 0.7 0.7;
#X obj 133 582 masterStereo;
#X obj 118 98 samplerX8;
#X obj 118 17 notein;
#X obj 118 45 list;
#X msg 118 73 midinote \$1 \$2;
#X obj 241 62 print;
#X msg 23 85 \; pd dsp 1;
#X connect 0 0 3 0;
#X connect 1 0 2 0;
#X connect 1 0 0 0;
#X connect 2 0 4 0;
#X connect 2 0 9 0;
#X connect 4 0 3 1;
#X connect 4 1 3 2;
#X connect 5 0 6 0;
#X connect 5 1 6 1;
#X connect 6 0 7 0;
#X connect 6 0 8 0;
#X connect 7 0 4 0;
