#N canvas 627 227 844 699 10;
#X obj 149 762 dac~;
#X msg 10 312 volume 0.6;
#X obj 10 15 lbang;
#X msg 78 69 volumes 0.7 0.7 0.7 0.7 0.7 0.7 0.7 0.7;
#X obj 351 7 ../midi/midi2bang;
#X obj 133 582 masterStereo;
#X obj 118 98 samplerX8;
#X connect 1 0 5 0;
#X connect 2 0 3 0;
#X connect 2 0 1 0;
#X connect 3 0 6 0;
#X connect 4 0 6 0;
#X connect 4 1 6 1;
#X connect 4 2 6 2;
#X connect 4 3 6 3;
#X connect 4 4 6 4;
#X connect 4 5 6 5;
#X connect 4 6 6 6;
#X connect 4 7 6 7;
#X connect 5 0 0 0;
#X connect 5 1 0 1;
#X connect 6 0 5 1;
#X connect 6 1 5 2;
