#N canvas 960 87 956 954 10;
#X obj 246 -266 clock;
#X obj 491 63 writesf~ 2;
#X obj 574 64 readsf~ 2;
#X obj 574 84 dac~;
#X obj 491 34 rec-name;
#X obj 21 -150 metroBPM;
#X obj 21 -66 metroClick;
#X obj 21 76 mixerX4;
#X obj 247 -240 stopWatch;
#X obj 22 -241 workSpaceGuitarControl;
#X obj 356 76 masterMonoToStereo;
#X connect 2 0 3 0;
#X connect 2 1 3 1;
#X connect 4 0 1 0;
#X connect 4 1 2 0;
#X connect 5 0 6 0;
#X connect 5 1 6 1;
#X connect 6 0 7 1;
#X connect 6 0 7 2;
#X connect 7 0 10 0;
#X connect 8 0 9 2;
#X connect 9 0 0 0;
#X connect 9 0 5 0;
#X connect 9 2 0 1;
#X connect 9 3 4 0;
