#N canvas 165 302 455 339 10;
#X obj 125 -126 inlet;
#X text 171 -126 midinote;
#X text 196 164 play or stop;
#X obj 125 -15 != 0;
#X obj 125 11 sel 0 1;
#X obj 125 -54 route \$2;
#X text 187 -66 daisy chaining;
#X obj 125 -88 route note;
#X obj 125 166 outlet;
#X msg 195 -13 note \$1 \$2;
#X obj 125 139 prepend \$1;
#X msg 125 78 stop;
#X msg 195 78 start;
#X connect 0 0 7 0;
#X connect 3 0 4 0;
#X connect 4 0 11 0;
#X connect 4 1 12 0;
#X connect 5 0 3 0;
#X connect 5 1 9 0;
#X connect 7 0 5 0;
#X connect 7 1 8 0;
#X connect 9 0 8 0;
#X connect 10 0 8 0;
#X connect 11 0 10 0;
#X connect 12 0 10 0;
