#N canvas 2 87 450 300 10;
#X obj 196 94 midiin;
#X obj 76 183 notein;
#X obj 55 231 print n1;
#X obj 78 255 print n2;
#X obj 145 229 print n3;
#X obj 256 188 ctlin;
#X obj 236 231 print c1;
#X obj 259 255 print c2;
#X obj 326 229 print c3;
#X obj 317 92 pgmin;
#X obj 313 127 print p1;
#X obj 373 127 print p2;
#X obj 199 135 print midi;
#X connect 0 0 12 0;
#X connect 1 0 2 0;
#X connect 1 1 3 0;
#X connect 1 2 4 0;
#X connect 5 0 6 0;
#X connect 5 1 7 0;
#X connect 5 2 8 0;
#X connect 9 0 10 0;
#X connect 9 1 11 0;
