#N canvas 655 257 956 617 10;
#X obj 394 216 randomPitchOscillator;
#X obj 51 14 inlet;
#X obj 129 14 inlet;
#X obj 232 14 inlet;
#X obj 329 14 inlet;
#X obj 419 14 inlet;
#X obj 509 14 inlet;
#X obj 129 50 s \$0-minLength;
#X obj 232 50 s \$0-maxLength;
#X obj 329 50 s \$0-minPitch;
#X obj 419 51 s \$0-maxPitch;
#X obj 509 51 s \$0-amplitude;
#X obj 590 161 r \$0-maxPitch;
#X obj 590 181 r \$0-amplitude;
#X floatatom 163 31 5 0 0 0 - - -;
#X floatatom 266 31 5 0 0 0 - - -;
#X floatatom 363 31 5 0 0 0 - - -;
#X floatatom 453 31 5 0 0 0 - - -;
#X floatatom 544 31 5 0 0 0 - - -;
#X obj 590 141 r \$0-minPitch;
#X obj 590 201 r \$0-mute;
#X obj 49 261 r \$0-maxLength;
#X obj 51 233 r \$0-minLength;
#X obj 390 387 outlet~;
#X obj 182 134 bng 15 250 50 0 empty empty empty 17 7 0 10 -262144
-1 -1;
#X msg 210 139 stop;
#X obj 158 135 tgl 15 0 empty empty empty 17 7 0 10 -262144 -1 -1 0
1;
#X obj 196 235 ../utls/randomMetronome;
#X connect 0 0 23 0;
#X connect 1 0 27 0;
#X connect 2 0 7 0;
#X connect 2 0 14 0;
#X connect 3 0 8 0;
#X connect 3 0 15 0;
#X connect 4 0 9 0;
#X connect 4 0 16 0;
#X connect 5 0 10 0;
#X connect 5 0 17 0;
#X connect 6 0 11 0;
#X connect 6 0 18 0;
#X connect 12 0 0 2;
#X connect 13 0 0 3;
#X connect 19 0 0 1;
#X connect 20 0 0 4;
#X connect 21 0 27 2;
#X connect 22 0 27 1;
#X connect 24 0 27 0;
#X connect 25 0 27 0;
#X connect 26 0 27 0;
#X connect 27 0 0 0;
#X coords 0 -1 1 1 400 150 1 190 210;
