#N canvas 1079 382 450 300 10;
#X obj 25 10 inlet \$0-tap;
#X obj 114 108 timer;
#X floatatom 125 164 10 0 0 0 - - -;
#X obj 246 51 bng 15 250 50 0 empty empty empty 17 7 0 10 -262144 -1
-1;
#X obj 91 213 metro;
#X obj 118 264 bng 15 250 50 0 empty empty empty 17 7 0 10 -262144
-1 -1;
#X obj 29 41 route stop float;
#X obj 52 68 sel 0;
#X msg 45 174 stop;
#X obj 168 250 outlet;
#X obj 102 75 t b b b b;
#X connect 0 0 6 0;
#X connect 1 0 2 0;
#X connect 2 0 4 1;
#X connect 3 0 10 0;
#X connect 4 0 5 0;
#X connect 4 0 9 0;
#X connect 6 0 8 0;
#X connect 6 1 7 0;
#X connect 6 2 10 0;
#X connect 7 0 8 0;
#X connect 7 1 10 0;
#X connect 8 0 4 0;
#X connect 10 0 4 0;
#X connect 10 1 1 0;
#X connect 10 2 1 1;
#X connect 10 3 8 0;
