#N canvas 916 489 513 347 10;
#X obj 23 -18 inlet \$0-tap;
#X obj 114 108 timer;
#X floatatom 184 145 10 0 0 0 - - -;
#X obj 91 39 bng 15 250 50 0 empty empty empty 17 7 0 10 -262144 -1
-1;
#X obj 91 213 metro;
#X obj 118 264 bng 15 250 50 0 empty empty empty 17 7 0 10 -262144
-1 -1;
#X obj 52 68 sel 0;
#X msg 45 174 stop;
#X obj 168 250 outlet;
#X obj 102 75 t b b b b;
#X floatatom 215 198 5 0 0 0 - - -;
#X obj 27 13 route stop float list;
#X obj 177 45 stripnote;
#X text 243 43 lists are interpreted as pitch velocity;
#X obj 238 274 outlet;
#X floatatom 312 260 5 0 0 0 - - -;
#X obj 213 229 msToBPM;
#X obj 281 4 loadbang;
#X msg 284 83 500;
#X msg 292 220 timedelta \$1;
#X obj 124 169 cyclone/split 100 10000;
#X connect 0 0 11 0;
#X connect 1 0 2 0;
#X connect 1 0 20 0;
#X connect 3 0 9 0;
#X connect 4 0 5 0;
#X connect 4 0 8 0;
#X connect 6 0 7 0;
#X connect 6 1 9 0;
#X connect 7 0 4 0;
#X connect 9 0 4 0;
#X connect 9 1 1 0;
#X connect 9 2 1 1;
#X connect 9 3 7 0;
#X connect 11 0 7 0;
#X connect 11 1 6 0;
#X connect 11 2 12 0;
#X connect 11 3 9 0;
#X connect 12 0 9 0;
#X connect 16 0 14 0;
#X connect 16 0 15 0;
#X connect 17 0 18 0;
#X connect 18 0 20 0;
#X connect 19 0 14 0;
#X connect 20 0 4 1;
#X connect 20 0 10 0;
#X connect 20 0 16 0;
#X connect 20 0 19 0;
