#N canvas 2 87 450 300 10;
#X obj 13 167 outlet;
#X obj 63 167 outlet;
#X obj 113 167 outlet;
#X obj 163 167 outlet;
#X obj 84 32 notein;
#X obj 84 96 route 44 45 46 47 48 49 50 51;
#X obj 84 72 stripnote;
#X obj 213 167 outlet;
#X obj 263 167 outlet;
#X obj 313 167 outlet;
#X obj 363 167 outlet;
#X connect 4 0 6 0;
#X connect 4 1 6 1;
#X connect 5 0 0 0;
#X connect 5 1 1 0;
#X connect 5 2 2 0;
#X connect 5 3 3 0;
#X connect 5 4 7 0;
#X connect 5 5 8 0;
#X connect 5 6 9 0;
#X connect 5 7 10 0;
#X connect 6 0 5 0;
