#N canvas 216 411 450 300 10;
#X obj 82 39 inlet;
#X obj 137 39 inlet;
#X obj 82 82 metro;
#X obj 137 65 expr 1000/($f1/60);
#X obj 82 115 outlet;
#X connect 0 0 2 0;
#X connect 1 0 3 0;
#X connect 2 0 4 0;
#X connect 3 0 2 1;
