#N canvas 230 503 450 300 10;
#X obj 172 57 inlet;
#X obj 217 121 outlet;
#X obj 172 97 route \$3;
#X obj 179 156 r /utz/\$2/\$3;
#X obj 172 184 s \$1-\$3-set;
#X connect 0 0 2 0;
#X connect 2 0 4 0;
#X connect 2 1 1 0;
#X connect 3 0 4 0;
