#N canvas 514 278 450 427 10;
#X text 246 178 reset;
#X obj 174 196 f;
#X floatatom 103 233 10 0 0 0 - - -;
#X text 95 248 current time;
#X obj 176 268 outlet;
#X obj 115 189 bng 15 250 50 0 empty empty empty 17 7 0 10 -262144
-1 -1;
#X msg 124 155 0;
#X obj 174 122 t b b;
#X obj 254 44 loadbang;
#X obj 281 122 t f f;
#X obj 308 199 / 1000;
#X msg 221 179 0;
#X text 205 215 counter;
#X obj 174 172 metro;
#X obj 176 216 +;
#X msg 254 72 50;
#X obj 281 94 inlet \$0-interval;
#X obj 124 44 inlet \$0-start;
#X obj 124 73 route stop float;
#X obj 147 97 sel 0;
#X text 352 199 delta time step;
#X connect 1 0 14 0;
#X connect 6 0 13 0;
#X connect 7 0 13 0;
#X connect 7 1 11 0;
#X connect 8 0 15 0;
#X connect 9 0 13 1;
#X connect 9 1 10 0;
#X connect 10 0 14 1;
#X connect 11 0 1 1;
#X connect 13 0 1 0;
#X connect 13 0 5 0;
#X connect 14 0 1 1;
#X connect 14 0 4 0;
#X connect 14 0 2 0;
#X connect 15 0 9 0;
#X connect 16 0 9 0;
#X connect 17 0 18 0;
#X connect 18 0 6 0;
#X connect 18 1 19 0;
#X connect 18 2 7 0;
#X connect 19 0 6 0;
#X connect 19 1 7 0;
