#N canvas 31 275 761 675 10;
#X msg 16 161 stop;
#X obj 46 -55 inlet;
#X obj 278 372 outlet;
#X obj 259 224 spigot;
#X obj 476 76 sel 0;
#X obj 16 259 >=;
#X obj 278 324 pack;
#X msg 278 346 note \$1 \$2;
#X msg 358 346 bpm \$1;
#X obj 448 178 route timedelta;
#X obj 448 201 / 1000;
#X obj 326 5 kollabs/midi_r utz /utz/\$0/midiin note \$1 \$2;
#X obj 16 212 utls/stopWatch;
#X obj 259 264 t b b b;
#X obj 259 403 s /utz/\$3/start;
#X obj 278 297 f \$1;
#X obj 46 -23 utls/param \$0 \$1 float;
#X obj 46 -3 utls/param \$0 \$1 bang;
#X obj 46 17 utls/param \$0 \$1 note;
#X obj 317 297 r \$0-float-set;
#X obj 366 55 r /utz/\$0/midiin;
#X obj 376 97 route \$1;
#X obj 376 75 r \$0-note-set;
#X obj 366 119 s \$0-float-set;
#X text 183 -23 this is the velocity parameter;
#X obj 46 37 utls/param \$0 \$1 stop;
#X obj 476 55 r \$0-float-set;
#X obj 23 188 r \$0-bang-set;
#X obj 503 97 s \$0-bang-set;
#X obj 476 117 s \$0-stop-set;
#X obj 16 138 r \$0-stop-set;
#X obj 292 203 r \$0-hold-set;
#X obj 16 304 s \$0-hold-set;
#X obj 448 224 s \$0-beat-length;
#X obj 31 239 r \$0-beat-length;
#X text 47 258 activate output if;
#X text 47 273 note pressed for one beat;
#X text 209 192 beat -->;
#X obj 497 269 r \$0-beat-length;
#X obj 497 290 expr 60 / $f1;
#X obj 497 310 s \$0-bpm;
#X obj 358 324 r \$0-bpm;
#X obj 457 351 r \$0-bpm;
#X obj 457 378 s /utz/bpm;
#N canvas 871 351 444 361 tapMetronome 0;
#X obj 187 132 timer;
#X obj 160 229 metro;
#X msg 87 212 stop;
#X obj 160 71 t b b b b;
#X obj 207 256 outlet;
#X obj 254 103 loadbang;
#X msg 254 132 500;
#X msg 207 207 timedelta \$1;
#X obj 187 170 cyclone/split 100 10000;
#X obj 160 256 outlet;
#X obj 87 181 r \$0-stop-set;
#X obj 160 48 r \$0-bang-set;
#X connect 0 0 8 0;
#X connect 1 0 9 0;
#X connect 2 0 1 0;
#X connect 3 0 1 0;
#X connect 3 1 0 0;
#X connect 3 2 0 1;
#X connect 3 3 2 0;
#X connect 5 0 6 0;
#X connect 6 0 8 0;
#X connect 7 0 4 0;
#X connect 8 0 1 1;
#X connect 8 0 7 0;
#X connect 10 0 2 0;
#X connect 11 0 3 0;
#X restore 259 161 pd tapMetronome;
#X connect 0 0 12 0;
#X connect 1 0 16 0;
#X connect 3 0 13 0;
#X connect 4 0 29 0;
#X connect 4 1 28 0;
#X connect 5 0 32 0;
#X connect 6 0 7 0;
#X connect 7 0 2 0;
#X connect 8 0 2 0;
#X connect 9 0 10 0;
#X connect 10 0 33 0;
#X connect 12 0 5 0;
#X connect 13 0 14 0;
#X connect 13 1 15 0;
#X connect 15 0 6 0;
#X connect 16 0 17 0;
#X connect 17 0 18 0;
#X connect 18 0 25 0;
#X connect 19 0 6 1;
#X connect 20 0 23 0;
#X connect 21 0 23 0;
#X connect 22 0 21 0;
#X connect 25 0 2 0;
#X connect 26 0 4 0;
#X connect 27 0 12 0;
#X connect 30 0 0 0;
#X connect 31 0 3 1;
#X connect 34 0 5 1;
#X connect 38 0 39 0;
#X connect 39 0 40 0;
#X connect 41 0 8 0;
#X connect 42 0 43 0;
#X connect 44 0 3 0;
#X connect 44 1 9 0;
#X coords 0 675 1 674 140 15 0;
