#N canvas 685 359 657 448 10;
#X obj 273 381 outlet~ envelope;
#X obj 294 77 inlet decay;
#X obj 194 77 inlet attack;
#X obj 273 353 vline~;
#X obj 484 76 inlet release;
#X obj 384 77 inlet sustain;
#X obj 194 105 s \$0-attack;
#X obj 294 105 s \$0-decay;
#X obj 384 105 s \$0-sustain;
#X obj 484 105 s \$0-release;
#X obj 35 87 inlet note;
#X obj 35 208 s \$0-velocity;
#X msg 83 160 1;
#X obj 35 132 route float bang;
#X obj 273 325 r to-vline~;
#N canvas 905 220 988 736 guts 1;
#X obj 355 323 r \$0-decay;
#X obj 225 12 r \$0-velocity;
#X text 238 61 assume scaling of 0->1;
#X obj 52 559 f;
#X msg 52 587 0 \$1;
#X obj 70 531 r \$0-release;
#X obj 269 624 s to-vline~;
#X obj 381 489 *;
#X obj 225 41 > 0;
#X obj 214 84 sel 1 0;
#X obj 214 133 t b b;
#X obj 223 190 timer;
#X obj 223 212 expr $f2-$f1;
#X obj 223 234 t f f;
#X obj 221 323 sel 0 1;
#X obj 326 158 f;
#X obj 326 180 +;
#X obj 349 123 r \$0-attack;
#X obj 367 148 r \$0-decay;
#X obj 319 502 f;
#X obj 333 549 pack f f f;
#X msg 333 577 \$1 \$2 \, 0 \$3 \$2;
#X obj 418 507 r \$0-release;
#X obj 333 382 min;
#X obj 333 404 min;
#X obj 374 363 r \$0-release;
#X obj 665 486 r \$0-attack;
#X text 552 280 [attack \, decay \, sustain];
#X obj 545 307 r \$0-velocity;
#X obj 581 542 pack f f f f f;
#X msg 581 568 \$1 \$2 \, \$3 \$4 \$5;
#X obj 630 437 *;
#X obj 622 363 r \$0-attack;
#X obj 636 462 r \$0-decay;
#X obj 534 346 sel 0;
#X obj 651 406 r \$0-sustain;
#X obj 410 465 r \$0-sustain;
#X floatatom 124 591 5 0 0 0 - - -, f 5;
#X obj 186 348 bng 15 250 50 0 empty empty empty 17 7 0 10 -262144
-1 -1;
#X floatatom 154 47 5 0 0 0 - - -, f 5;
#X obj 183 116 bng 15 250 50 0 empty empty empty 17 7 0 10 -262144
-1 -1;
#X obj 263 111 bng 15 250 50 0 empty empty empty 17 7 0 10 -262144
-1 -1;
#X obj 236 361 bng 15 250 50 0 empty empty empty 17 7 0 10 -262144
-1 -1;
#X obj 275 357 bng 15 250 50 0 empty empty empty 17 7 0 10 -262144
-1 -1;
#X obj 399 631 print;
#X obj 315 293 abs;
#X text 41 272 is note-time shorter than attack + decay?;
#X floatatom 373 274 5 0 0 0 - - -, f 5;
#X obj 221 276 <= 0;
#X floatatom 463 562 5 0 0 0 - - -, f 5;
#X floatatom 277 538 5 0 0 0 - - -, f 5;
#X floatatom 373 521 5 0 0 0 - - -, f 5;
#X obj 573 392 t f f;
#X obj 385 417 r \$0-velocity;
#X obj 385 438 sel 0;
#X text 231 442 this path is for a noteoffs before finished decay;
#X text 40 494 noteoff after decay (on sustain-state);
#X connect 0 0 23 1;
#X connect 1 0 8 0;
#X connect 1 0 39 0;
#X connect 3 0 4 0;
#X connect 4 0 6 0;
#X connect 5 0 3 1;
#X connect 5 0 37 0;
#X connect 7 0 19 1;
#X connect 7 0 51 0;
#X connect 8 0 9 0;
#X connect 9 0 10 0;
#X connect 9 0 40 0;
#X connect 9 1 11 1;
#X connect 9 1 41 0;
#X connect 10 0 11 0;
#X connect 10 1 15 0;
#X connect 11 0 12 0;
#X connect 12 0 13 0;
#X connect 13 0 48 0;
#X connect 13 1 45 0;
#X connect 13 1 47 0;
#X connect 14 0 3 0;
#X connect 14 0 38 0;
#X connect 14 1 19 0;
#X connect 14 1 42 0;
#X connect 14 2 43 0;
#X connect 15 0 16 0;
#X connect 16 0 12 1;
#X connect 17 0 15 1;
#X connect 18 0 16 1;
#X connect 19 0 20 0;
#X connect 19 0 50 0;
#X connect 20 0 21 0;
#X connect 21 0 6 0;
#X connect 21 0 44 0;
#X connect 22 0 20 2;
#X connect 23 0 24 0;
#X connect 24 0 20 1;
#X connect 24 0 49 0;
#X connect 25 0 24 1;
#X connect 26 0 29 4;
#X connect 28 0 34 0;
#X connect 29 0 30 0;
#X connect 30 0 6 0;
#X connect 31 0 29 2;
#X connect 32 0 29 1;
#X connect 33 0 29 3;
#X connect 34 1 52 0;
#X connect 35 0 31 1;
#X connect 36 0 7 1;
#X connect 45 0 23 0;
#X connect 48 0 14 0;
#X connect 52 0 29 0;
#X connect 52 1 31 0;
#X connect 53 0 54 0;
#X connect 54 0 7 0;
#X restore 278 231 pd guts;
#X connect 1 0 7 0;
#X connect 2 0 6 0;
#X connect 3 0 0 0;
#X connect 4 0 9 0;
#X connect 5 0 8 0;
#X connect 10 0 13 0;
#X connect 12 0 11 0;
#X connect 13 0 11 0;
#X connect 13 1 12 0;
#X connect 14 0 3 0;
