#N canvas 1329 604 414 287 10;
#N canvas 1374 346 411 377 dsp 0;
#X obj 106 50 r \$0-volume-set;
#X obj 106 170 r \$0-mute-set;
#X obj 106 190 == 0;
#X obj 87 302 outlet~;
#X obj 88 20 inlet~;
#X obj 106 90 vline~;
#X obj 106 230 vline~;
#X msg 106 70 \$1 15;
#X msg 106 210 \$1 15;
#X obj 88 118 *~;
#X obj 88 258 *~;
#X connect 0 0 7 0;
#X connect 1 0 2 0;
#X connect 2 0 8 0;
#X connect 4 0 9 0;
#X connect 5 0 9 1;
#X connect 6 0 10 1;
#X connect 7 0 5 0;
#X connect 8 0 6 0;
#X connect 9 0 10 0;
#X connect 10 0 3 0;
#X restore 79 116 pd dsp;
#X obj 79 88 inlet~ sig-in;
#X obj 79 144 outlet~ sig-out;
#X obj 245 88 inlet ctl-in;
#N canvas 968 282 464 225 parse-ctl 1;
#X obj 104 82 route float volume mute;
#X obj 104 134 s \$0-volume-set;
#X obj 209 113 s \$0-mute-set;
#X obj 104 54 inlet;
#X connect 0 0 1 0;
#X connect 0 1 1 0;
#X connect 0 2 2 0;
#X connect 3 0 0 0;
#X restore 245 116 pd parse-ctl;
#N canvas 2 87 450 300 init 1;
#X obj 153 72 loadbang;
#X msg 153 128 0;
#X msg 231 117 1;
#X obj 153 100 t b b;
#X obj 153 157 s \$0-mute-set;
#X obj 231 137 s \$0-volume-set;
#X connect 0 0 3 0;
#X connect 1 0 4 0;
#X connect 2 0 5 0;
#X connect 3 0 1 0;
#X connect 3 1 2 0;
#X restore 239 159 pd init;
#X connect 0 0 2 0;
#X connect 1 0 0 0;
#X connect 3 0 4 0;
