#N canvas 370 467 414 287 10;
#N canvas 2 87 409 406 dsp 1;
#X obj 87 285 hip~ 5;
#X obj 113 40 r \$0-volume-set;
#X obj 113 160 r \$0-mute-set;
#X obj 113 180 == 0;
#X obj 87 342 outlet~;
#X obj 88 10 inlet~;
#X obj 87 306 lop~ 22000;
#X obj 88 108 *~ 1;
#X obj 88 248 *~ 1;
#X obj 113 220 line;
#X obj 113 80 line;
#X msg 113 60 \$1 30;
#X msg 113 200 \$1 30;
#X connect 0 0 6 0;
#X connect 1 0 11 0;
#X connect 2 0 3 0;
#X connect 3 0 12 0;
#X connect 5 0 7 0;
#X connect 6 0 4 0;
#X connect 7 0 8 0;
#X connect 8 0 0 0;
#X connect 9 0 8 1;
#X connect 10 0 7 1;
#X connect 11 0 10 0;
#X connect 12 0 9 0;
#X restore 79 116 pd dsp;
#X obj 79 88 inlet~ sig-in;
#X obj 79 144 outlet~ sig-out;
#X obj 245 88 inlet ctl-in;
#N canvas 298 172 450 300 parse-ctl 0;
#X obj 104 82 route float volume mute;
#X obj 104 154 s \$0-volume-set;
#X obj 209 203 s \$0-mute-set;
#X obj 104 54 inlet;
#X obj 262 130 print \$0-dropped;
#X obj 83 131 r /utz/\$1/volume;
#X obj 198 181 r /utz/\$1/mute;
#X obj 155 54 r /utz/\$1;
#X connect 0 0 1 0;
#X connect 0 1 1 0;
#X connect 0 2 2 0;
#X connect 0 3 4 0;
#X connect 3 0 0 0;
#X connect 5 0 1 0;
#X connect 6 0 2 0;
#X connect 7 0 0 0;
#X restore 245 116 pd parse-ctl;
#X connect 0 0 2 0;
#X connect 1 0 0 0;
#X connect 3 0 4 0;
