#N canvas 1029 517 419 330 10;
#X obj 30 157 osc~ 440;
#X obj 31 249 dac~ 1 2;
#X msg 133 91 0.7;
#X obj 191 166 tgl 15 0 empty empty empty 17 7 0 10 -262144 -1 -1 0
1;
#X msg 191 182 mute \$1;
#X obj 105 49 vsl 15 128 0 1.5 0 0 empty empty empty 0 -9 0 10 -262144
-1 -1 0 1;
#X msg 123 47 1.3;
#X msg 128 69 1;
#X msg 138 112 0.3;
#X msg 145 133 0;
#X obj 31 199 env_volume~ help;
#X msg 245 103 \; /utz/help/mute 0;
#X msg 245 50 \; /utz/help/volume 0.3 \; /utz/help/mute 1;
#X connect 0 0 10 0;
#X connect 2 0 10 1;
#X connect 3 0 4 0;
#X connect 4 0 10 1;
#X connect 5 0 10 1;
#X connect 6 0 10 1;
#X connect 7 0 10 1;
#X connect 8 0 10 1;
#X connect 9 0 10 1;
#X connect 10 0 1 0;
#X connect 10 0 1 1;
