#N canvas 634 119 657 448 10;
#X obj 55 343 outlet~ envelope;
#X obj 274 77 inlet decay;
#X obj 174 77 inlet attack;
#X obj 55 315 vline~;
#X obj 474 77 inlet release;
#X obj 367 77 inlet sustain;
#X obj 174 105 s \$0-attack;
#X obj 274 105 s \$0-decay;
#X obj 367 105 s \$0-sustain;
#X obj 474 106 s \$0-release;
#X obj 55 105 s \$0-velocity;
#N canvas 139 261 999 753 guts 0;
#X obj 432 463 r \$0-decay;
#X obj 460 26 r \$0-velocity;
#X text 77 104 assume scaling of 0->1;
#X obj 254 668 f;
#X msg 254 688 0 \$1;
#X obj 272 648 r \$0-release;
#X obj 295 537 *;
#X obj 254 104 > 0;
#X obj 254 129 sel 1 0;
#X obj 254 152 t b b;
#X obj 254 222 timer;
#X obj 254 244 expr $f2-$f1;
#X obj 254 286 t f f;
#X obj 254 355 sel 0 1;
#X obj 335 183 f;
#X obj 335 223 +;
#X obj 353 163 r \$0-attack;
#X obj 353 203 r \$0-decay;
#X obj 277 564 f;
#X obj 381 581 pack f f f;
#X msg 381 609 \$1 \$2 \, 0 \$3 \$2;
#X obj 448 560 r \$0-release;
#X obj 432 505 r \$0-release;
#X obj 745 274 r \$0-attack;
#X text 622 92 [attack \, decay \, sustain];
#X obj 650 294 pack f f f f f;
#X msg 650 320 \$1 \$2 \, \$3 \$4 \$5;
#X obj 697 206 *;
#X obj 673 234 r \$0-attack;
#X obj 721 254 r \$0-decay;
#X obj 618 113 sel 0;
#X obj 715 186 r \$0-sustain;
#X obj 313 514 r \$0-sustain;
#X obj 650 158 t f f;
#X obj 503 705 s \$0-to-vline~;
#X obj 254 327 >= 0;
#X obj 237 689 bng 15 250 50 0 empty empty empty 17 7 0 10 -262144
-1 -1;
#X obj 364 610 bng 15 250 50 0 empty empty empty 17 7 0 10 -262144
-1 -1;
#X obj 633 321 bng 15 250 50 0 empty empty empty 17 7 0 10 -262144
-1 -1;
#X text 622 60 this side will be triggered;
#X text 623 76 on velocities greater than zero;
#X text 647 348 rise to velocity in attack time;
#X text 647 365 fall back to sustain level after decay time;
#X text 694 167 velocity determines sustain-level;
#X text 102 333 is note-time shorter;
#X text 102 349 than attack + decay?;
#X text 284 376 noteoff before decay has finished;
#X text 49 628 noteoff after decay has finished;
#X text 97 176 measure time between;
#X text 111 192 noteon and noteoff;
#X text 413 411 determine remaining;
#X obj 296 487 sel 0;
#X obj 460 47 t f f f;
#X text 18 7 on a note off two different cases must be distinguished:
;
#X text 30 24 case 1: noteoff happens after decay has finished;
#X text 49 38 => regular attack \, decay \, sustain \, release sequence
;
#X text 30 54 case 2: noteoff happens before decay has finished;
#X text 414 424 time to sustain-level;
#X text 49 68 => wait for decay to finish \, then release;
#X obj 414 442 f;
#X obj 414 484 max;
#X obj 414 526 max;
#X connect 0 0 60 1;
#X connect 1 0 52 0;
#X connect 3 0 4 0;
#X connect 4 0 34 0;
#X connect 4 0 36 0;
#X connect 5 0 3 1;
#X connect 6 0 18 1;
#X connect 7 0 8 0;
#X connect 8 0 9 0;
#X connect 8 1 10 1;
#X connect 9 0 10 0;
#X connect 9 1 14 0;
#X connect 10 0 11 0;
#X connect 11 0 12 0;
#X connect 12 0 35 0;
#X connect 12 1 59 0;
#X connect 13 0 3 0;
#X connect 13 1 18 0;
#X connect 14 0 15 0;
#X connect 15 0 11 1;
#X connect 16 0 14 1;
#X connect 17 0 15 1;
#X connect 18 0 19 0;
#X connect 19 0 20 0;
#X connect 20 0 34 0;
#X connect 20 0 37 0;
#X connect 21 0 19 2;
#X connect 22 0 61 1;
#X connect 23 0 25 4;
#X connect 25 0 26 0;
#X connect 26 0 34 0;
#X connect 26 0 38 0;
#X connect 27 0 25 2;
#X connect 28 0 25 1;
#X connect 29 0 25 3;
#X connect 30 1 33 0;
#X connect 31 0 27 1;
#X connect 32 0 6 1;
#X connect 33 0 25 0;
#X connect 33 1 27 0;
#X connect 35 0 13 0;
#X connect 51 1 6 0;
#X connect 52 0 7 0;
#X connect 52 1 51 0;
#X connect 52 2 30 0;
#X connect 59 0 60 0;
#X connect 60 0 61 0;
#X connect 61 0 19 1;
#X restore 58 231 pd guts;
#X obj 55 287 r \$0-to-vline~;
#N canvas 2 87 450 300 init 0;
#X obj 79 26 loadbang;
#X obj 79 53 t b b b b;
#X msg 79 201 0;
#X obj 79 221 s \$0-attack;
#X msg 99 161 0;
#X msg 139 81 0;
#X obj 99 181 s \$0-decay;
#X obj 119 141 s \$0-sustain;
#X obj 139 101 s \$0-release;
#X msg 119 121 1;
#X connect 0 0 1 0;
#X connect 1 0 2 0;
#X connect 1 1 4 0;
#X connect 1 2 9 0;
#X connect 1 3 5 0;
#X connect 2 0 3 0;
#X connect 4 0 6 0;
#X connect 5 0 8 0;
#X connect 9 0 7 0;
#X restore 55 173 pd init;
#X obj 55 77 inlet velocity;
#X connect 1 0 7 0;
#X connect 2 0 6 0;
#X connect 3 0 0 0;
#X connect 4 0 9 0;
#X connect 5 0 8 0;
#X connect 12 0 3 0;
#X connect 14 0 10 0;
