#N canvas 30 338 450 300 10;
#N canvas 471 330 517 430 dsp 0;
#X obj 176 39 inlet~;
#X obj 176 338 outlet~;
#X msg 201 97 1 5;
#X msg 210 147 0 5;
#X obj 176 292 *~ 1;
#X obj 201 67 r \$0-trigger-on;
#X obj 210 127 r \$0-trigger-off;
#X obj 201 175 line;
#X obj 201 252 spigot;
#X obj 261 252 select 0;
#X msg 261 274 1 5;
#X obj 261 295 line;
#X obj 240 224 r \$0-enable-set;
#X obj 278 377 s \$0-released;
#X obj 276 350 sel 0;
#X floatatom 232 373 5 0 0 0 - - -, f 5;
#X obj 346 95 t b b b;
#X obj 260 326 spigot;
#X msg 348 311 0;
#X msg 326 290 1;
#X connect 0 0 4 0;
#X connect 2 0 7 0;
#X connect 3 0 7 0;
#X connect 4 0 1 0;
#X connect 5 0 16 0;
#X connect 6 0 3 0;
#X connect 7 0 8 0;
#X connect 8 0 4 1;
#X connect 8 0 15 0;
#X connect 8 0 17 0;
#X connect 9 0 10 0;
#X connect 10 0 11 0;
#X connect 11 0 4 1;
#X connect 12 0 8 1;
#X connect 12 0 9 0;
#X connect 14 0 13 0;
#X connect 16 0 19 0;
#X connect 16 1 2 0;
#X connect 16 2 18 0;
#X connect 17 0 14 0;
#X connect 18 0 17 1;
#X connect 19 0 17 1;
#X restore 58 126 pd dsp;
#X obj 58 98 inlet~ signal-in;
#X obj 58 154 outlet~ signal-out;
#X obj 260 98 inlet ctl-in;
#X obj 260 229 outlet ctl-out;
#N canvas 60 319 450 300 trigger 0;
#X obj 116 94 r \$0-velocity-set;
#X obj 116 122 sel 0;
#X obj 116 162 s \$0-trigger-off;
#X obj 148 142 s \$0-trigger-on;
#X connect 0 0 1 0;
#X connect 1 0 2 0;
#X connect 1 1 3 0;
#X restore 260 154 pd trigger;
#N canvas 2 87 450 300 out 0;
#X obj 105 162 outlet;
#X obj 105 108 r \$0-released;
#X msg 105 131 released;
#X connect 1 0 2 0;
#X connect 2 0 0 0;
#X restore 260 201 pd out;
#N canvas 710 310 603 490 param-parse 0;
#X obj 24 54 inlet;
#X obj 75 54 r /utz/\$1;
#X obj 24 118 r /utz/\$1/velocity;
#X obj 24 138 s \$0-velocity-set;
#X obj 107 164 r /utz/\$1/sustain-level;
#X obj 107 184 s \$0-sustain-level-set;
#X obj 148 212 r /utz/\$1/attack-time;
#X obj 148 232 s \$0-attack-time-set;
#X obj 189 280 s \$0-decay-time-set;
#X obj 189 260 r /utz/\$1/decay-time;
#X obj 232 116 r /utz/\$1/sustain-time;
#X obj 232 136 s \$0-sustain-time-set;
#X obj 24 82 route float velocity sustain-level attack decay sustain
release enable reset;
#X obj 275 164 r /utz/\$1/release-time;
#X obj 274 184 s \$0-release-time-set;
#X obj 325 212 r /utz/\$1/enable;
#X obj 324 232 s \$0-enable-set;
#X obj 365 260 r /utz/\$1/reset;
#X obj 364 280 s \$0-reset-set;
#X connect 0 0 12 0;
#X connect 1 0 12 0;
#X connect 2 0 3 0;
#X connect 4 0 5 0;
#X connect 6 0 7 0;
#X connect 9 0 8 0;
#X connect 10 0 11 0;
#X connect 12 0 3 0;
#X connect 12 1 3 0;
#X connect 12 2 5 0;
#X connect 12 3 7 0;
#X connect 12 4 8 0;
#X connect 12 5 11 0;
#X connect 12 6 14 0;
#X connect 12 7 16 0;
#X connect 12 8 18 0;
#X connect 13 0 14 0;
#X connect 15 0 16 0;
#X connect 17 0 18 0;
#X restore 260 126 pd param-parse;
#X connect 0 0 2 0;
#X connect 1 0 0 0;
#X connect 3 0 7 0;
#X connect 6 0 4 0;
