#N canvas 1180 290 436 311 10;
#X obj 26 43 cnv 15 220 119 empty empty empty 20 12 0 14 -233017 -66577
0;
#X obj 77 58 vsl 15 66 0.01 1 1 0 /utz/\$1/volume /utz/\$1/volume empty
4 4 0 10 -262144 -1 -1 6500 1;
#X obj 97 112 tgl 15 0 /utz/\$1/mute /utz/\$1/mute M 4 7 0 10 -262144
-1 -1 0 1;
#X obj 36 56 bng 30 250 50 0 /utz/\$1/start /utz/\$1/start empty 17
7 0 10 -262144 -1 -1;
#X obj 36 97 bng 30 250 50 0 /utz/\$1/stop /utz/\$1/stop S 4 7 0 10
-262144 -1 -1;
#X obj 97 56 tgl 15 0 /utz/\$1/envelope /utz/\$1/envelope E 4 7 0 10
-262144 -1 -1 0 1;
#X obj -103 154 openpanel;
#X obj 36 138 bng 16 250 50 0 empty empty B 4 7 0 10 -262144 -1 -1
;
#X obj -103 176 moonlib/relativepath;
#X symbolatom 56 138 30 0 0 0 - - -;
#X obj -103 199 s /utz/\$1/file;
#X obj -103 98 r /utz/\$1/file;
#X obj -103 121 symbol;
#X obj 117 112 tgl 15 0 /utz/\$1/reverse /utz/\$1/reverse R 4 7 0 10
-262144 -1 -1 0 1;
#X obj 138 82 hsl 128 15 0.25 5 0 0 /utz/\$1/pitch /utz/\$1/pitch pitch
-2 -8 0 10 -262144 -1 -1 2200 1;
#X obj 138 112 hsl 128 15 0 1 0 0 /utz/\$1/position /utz/\$1/position
position -2 -8 0 10 -262144 -1 -1 10662 1;
#X obj 124 229 hsl 128 15 0 1 0 0 /utz/\$1/right /utz/\$1/right right_limit
-2 -8 0 10 -262144 -1 -1 9700 1;
#X obj 124 199 hsl 128 15 0 1 0 0 /utz/\$1/left /utz/\$1/left left_limit
-2 -8 0 10 -262144 -1 -1 4400 1;
#X connect 6 0 8 0;
#X connect 7 0 6 0;
#X connect 8 0 10 0;
#X connect 11 0 12 0;
#X connect 12 0 9 0;
#X coords 0 -1 1 1 222 141 1 25 25;
