#N canvas 1213 602 596 435 10;
#X obj 136 343 dac~ 1 2;
#X msg 136 135 file \$1;
#X obj 136 32 bng 15 250 50 0 empty empty empty 17 7 0 10 -262144 -1
-1;
#X obj 136 54 openpanel;
#X msg 230 258 loop \$1;
#X obj 230 240 tgl 15 0 empty empty empty 17 7 0 10 -262144 -1 -1 0
1;
#X obj 300 240 tgl 15 0 empty empty empty 17 7 0 10 -262144 -1 -1 0
1;
#X msg 300 258 reverse \$1;
#X msg 186 204 reset;
#X obj 261 144 vsl 15 64 0.1 3 0 0 empty empty empty 0 -9 0 10 -262144
-1 -1 1300 1;
#X obj 378 142 hsl 128 15 0 1 0 0 empty empty empty -2 -8 0 10 -262144
-1 -1 0 1;
#X obj 378 172 hsl 128 15 0 1 0 1 empty empty empty -2 -8 0 10 -262144
-1 -1 4700 1;
#X msg 310 161 left \$1;
#X msg 312 190 right \$1;
#X msg 261 213 pitch \$1;
#X obj 255 317 vsl 15 64 0 1 0 0 empty empty empty 0 -9 0 10 -262144
-1 -1 6300 1;
#X msg 255 386 volume \$1;
#X obj 103 266 bng 15 250 50 0 empty empty empty 17 7 0 10 -262144
-1 -1;
#X obj 84 272 tgl 15 0 empty empty empty 17 7 0 10 -262144 -1 -1 0
1;
#X msg 136 181 load;
#X obj 136 315 env_volume~ help;
#X obj 136 114 list;
#X obj 299 304 bng 15 250 50 0 empty empty empty 17 7 0 10 -262144
-1 -1;
#X text 319 303 right outlet: finished loading file;
#X obj 136 287 inst_sampler~ help;
#X msg 150 74 samples/kick/707.wav;
#X msg 160 94 samples/snare/Low80s.wav;
#X obj 136 159 t b a;
#X obj 283 338 tgl 15 0 empty empty empty 17 7 0 10 -262144 -1 -1 0
1;
#X msg 283 356 mute \$1;
#X obj 15 374 iemlib/unsig~ 50;
#X floatatom 17 401 15 0 0 1 - - -, f 15;
#X msg 229 166 1;
#X msg 230 189 0.5;
#X msg 229 141 2;
#X connect 1 0 27 0;
#X connect 2 0 3 0;
#X connect 3 0 21 0;
#X connect 4 0 24 0;
#X connect 5 0 4 0;
#X connect 6 0 7 0;
#X connect 7 0 24 0;
#X connect 8 0 24 0;
#X connect 9 0 14 0;
#X connect 10 0 12 0;
#X connect 11 0 13 0;
#X connect 12 0 24 0;
#X connect 13 0 24 0;
#X connect 14 0 24 0;
#X connect 15 0 16 0;
#X connect 16 0 20 1;
#X connect 17 0 24 0;
#X connect 18 0 24 0;
#X connect 19 0 24 0;
#X connect 20 0 0 0;
#X connect 20 0 0 1;
#X connect 20 0 30 0;
#X connect 21 0 1 0;
#X connect 24 0 20 0;
#X connect 24 1 22 0;
#X connect 25 0 21 0;
#X connect 26 0 21 0;
#X connect 27 0 19 0;
#X connect 27 1 24 0;
#X connect 28 0 29 0;
#X connect 29 0 20 1;
#X connect 30 0 31 0;
#X connect 32 0 14 0;
#X connect 33 0 14 0;
#X connect 34 0 14 0;
