#N canvas 632 425 518 480 10;
#X obj 229 152 outlet;
#X obj 109 -160 s \$0-ctrl-out;
#X obj 229 125 r \$0-ctrl-out;
#X obj 64 43 s \$0-ctrl-out;
#X text 76 -129 get parameters;
#X text 72 26 forward unhandled input;
#X obj 64 154 outlet~;
#N canvas 993 336 683 590 audio 0;
#X obj 175 88 readsf~ 2;
#X msg 45 71 open \$1;
#X obj 45 43 symbol;
#X msg 175 60 start;
#X msg 297 -15 stop;
#X obj 174 221 *~;
#X text 284 91 attack;
#X text 326 91 release;
#X obj 297 -63 t b b;
#X msg 281 106 1 0.1;
#X obj 297 -40 delay 40;
#X msg 324 106 0 40;
#X obj 281 146 line~;
#X obj 282 205 +~;
#X obj 281 174 *~;
#X obj 352 160 + 1;
#X obj 352 188 mod 2;
#X obj 297 40 spigot;
#X obj 175 -59 t b b b;
#X obj 174 299 *~;
#X obj 174 339 throw~ \$0-out;
#X obj 45 -86 r \$0-file-set;
#X obj 175 -86 r \$0-start-set;
#X obj 297 -86 r \$0-stop-set;
#X obj 330 12 r \$0-envelope-set;
#X obj 352 132 r \$0-envelope-set;
#X obj 189 271 r \$0-volume-set;
#X connect 0 0 5 0;
#X connect 1 0 0 0;
#X connect 2 0 1 0;
#X connect 3 0 0 0;
#X connect 4 0 17 0;
#X connect 5 0 19 0;
#X connect 8 0 10 0;
#X connect 8 1 11 0;
#X connect 9 0 12 0;
#X connect 10 0 4 0;
#X connect 11 0 12 0;
#X connect 12 0 14 0;
#X connect 13 0 5 1;
#X connect 14 0 13 0;
#X connect 15 0 16 0;
#X connect 16 0 13 1;
#X connect 17 0 0 0;
#X connect 18 0 3 0;
#X connect 18 1 9 0;
#X connect 18 2 2 0;
#X connect 19 0 20 0;
#X connect 21 0 2 0;
#X connect 22 0 18 0;
#X connect 23 0 8 0;
#X connect 24 0 17 1;
#X connect 25 0 14 1;
#X connect 25 0 15 0;
#X connect 26 0 19 1;
#X restore 138 92 pd audio;
#X text 128 -188 daisy chaining;
#N canvas 1466 89 450 300 init 0;
#X obj 75 85 loadbang;
#X msg 75 113 1;
#X obj 75 141 s \$0-volume-set;
#X msg 185 113 1;
#X obj 185 141 s \$0-envelope-set;
#X connect 0 0 1 0;
#X connect 0 0 3 0;
#X connect 1 0 2 0;
#X connect 3 0 4 0;
#X restore 271 -213 pd init;
#X obj -26 -186 throw~ \$0-out;
#X obj 63 125 catch~ \$0-out;
#X obj -26 -214 inlet~;
#X obj 64 -214 inlet;
#X obj 64 -186 route \$1;
#X obj 64 -111 utls/param \$0 \$1 file;
#X obj 64 -89 utls/param \$0 \$1 start;
#X obj 64 -69 utls/param \$0 \$1 stop;
#X obj 64 -49 utls/param \$0 \$1 volume;
#X obj 295 -131 r \$0-file-set;
#X obj 295 -71 r \$0-volume-set;
#X obj 289 -10 r \$0-envelope-set;
#X floatatom 299 -40 5 0 0 0 - - -;
#X floatatom 296 26 5 0 0 0 - - -;
#X obj 64 -9 utls/param \$0 \$1 envelope;
#X obj 64 -29 utls/param \$0 \$1 mute;
#X floatatom 346 56 5 0 0 0 - - -;
#X obj 339 20 r \$0-mute-set;
#X obj 295 -100 print TEST;
#N canvas 1000 269 450 300 input 1;
#X obj 32 -97 kollabs/ds_reg utz /utz/\$1/volume;
#X obj 32 -77 kollabs/ds_reg utz /utz/\$1/file;
#X obj 32 -57 kollabs/ds_reg utz /utz/\$1/envelope;
#X restore 274 -177 pd input;
#X connect 2 0 0 0;
#X connect 11 0 6 0;
#X connect 12 0 10 0;
#X connect 13 0 14 0;
#X connect 14 0 15 0;
#X connect 14 1 1 0;
#X connect 15 0 16 0;
#X connect 16 0 17 0;
#X connect 17 0 18 0;
#X connect 18 0 25 0;
#X connect 19 0 28 0;
#X connect 20 0 22 0;
#X connect 21 0 23 0;
#X connect 24 0 3 0;
#X connect 25 0 24 0;
#X connect 27 0 26 0;
#X coords 0 480 1 479 690 140 0;
