#N canvas 2 87 956 989 10;
#X obj 496 -63 expr 44100 / $f1;
#X floatatom 496 228 5 0 0 0 - - -;
#X obj 307 309 unsig~ 50;
#X obj 298 612 *~;
#X obj 298 748 *~;
#X obj 313 720 line~;
#X msg 313 692 \$1 20;
#X obj 298 776 hip~ 5;
#X msg 369 211 0;
#X obj 564 211 t b f;
#X obj 564 85 t b f;
#X obj 496 255 * 1;
#X obj 91 278 t b f;
#X obj 103 332 -;
#X floatatom 81 308 5 0 0 0 - - -;
#X obj 297 457 *~;
#X obj 298 564 +~;
#X obj 550 23 *;
#X obj 550 3 expr 1 / $f1;
#X obj 313 664 r \$0-volume-set;
#X obj 298 640 tabread4~ \$0-array-sample;
#N canvas 0 0 450 300 (subpatch) 0;
#X array \$0-array-sample 91227 float 2;
#X coords 0 1 91227 -1 200 140 1;
#X restore 742 -158 graph;
#X obj 307 337 s /utz/\$1/position;
#X obj 129 -140 s \$0-ctrl-out;
#X obj 84 183 s \$0-ctrl-out;
#X text 96 -109 get parameters;
#X text 92 166 forward unhandled input;
#X text 148 -168 daisy chaining;
#N canvas 1462 87 450 300 init 0;
#X obj 75 85 loadbang;
#X msg 75 113 1;
#X obj 75 141 s \$0-volume-set;
#X msg 185 113 1;
#X obj 185 141 s \$0-envelope-set;
#X connect 0 0 1 0;
#X connect 0 0 3 0;
#X connect 1 0 2 0;
#X connect 3 0 4 0;
#X restore 291 -193 pd init;
#X obj -6 -166 throw~ \$0-out;
#X obj -6 -194 inlet~;
#X obj 84 -194 inlet;
#X obj 84 -166 route \$1;
#X obj 84 -91 utls/param \$0 \$1 file;
#X obj 84 -69 utls/param \$0 \$1 start;
#X obj 84 -49 utls/param \$0 \$1 stop;
#X obj 84 -29 utls/param \$0 \$1 volume;
#X obj 84 11 utls/param \$0 \$1 envelope;
#X obj 84 -9 utls/param \$0 \$1 mute;
#N canvas 222 306 450 300 input 0;
#X obj 32 -47 kollabs/ds_reg utz /utz/\$1/volume;
#X obj 32 -27 kollabs/ds_reg utz /utz/\$1/file;
#X obj 32 -7 kollabs/ds_reg utz /utz/\$1/envelope;
#X restore 294 -157 pd input;
#X obj 17 -128 r /utz/\$1;
#X obj 84 111 utls/param \$0 \$1 loop;
#X obj 84 51 utls/param \$0 \$1 pitch;
#X obj 84 31 utls/param \$0 \$1 reverse;
#X obj 564 57 r \$0-reverse-set;
#X obj 517 154 r \$0-pitch-set;
#X obj 564 183 * 1;
#X obj 84 71 utls/param \$0 \$1 left;
#X obj 84 91 utls/param \$0 \$1 right;
#X obj 369 191 r \$0-stop-set;
#X obj 376 117 r \$0-start-set;
#X obj 496 -91 r \$0-number-of-samples;
#X obj 313 584 r \$0-number-of-samples;
#X obj 312 369 r \$0-difference;
#X obj 103 360 s \$0-difference;
#X obj 496 275 s \$0-freq;
#X obj 282 159 r \$0-freq;
#N canvas 544 87 450 300 fileloading 0;
#X obj 106 49 soundfiler;
#X obj 106 160 s \$0-number-of-samples;
#X obj 106 77 t f b;
#X obj 133 101 \$0;
#X msg 133 125 \; \$1-array-sample normalize;
#X obj 106 -72 r \$0-file-set;
#X obj 106 -7 pack s f;
#X msg 106 21 read -resize \$1 \$2-array-sample;
#X obj 151 -27 \$0;
#X obj 106 -54 t s b;
#X connect 0 0 2 0;
#X connect 2 0 1 0;
#X connect 2 1 3 0;
#X connect 3 0 4 0;
#X connect 5 0 9 0;
#X connect 6 0 7 0;
#X connect 7 0 0 0;
#X connect 8 0 6 1;
#X connect 9 0 6 0;
#X connect 9 1 8 0;
#X restore 295 -124 pd fileloading;
#X obj 591 112 sel 0;
#X obj 550 -22 r \$0-difference;
#X obj 81 230 r \$0-right-set;
#X obj 91 250 r \$0-left-set;
#X floatatom 459 276 5 0 0 0 - - -;
#X floatatom 624 209 5 0 0 0 - - -;
#X msg 591 132 1;
#X msg 618 132 -1;
#X obj 275 218 spigot;
#X msg 342 188 1;
#X floatatom 438 -67 5 0 0 0 - - -;
#X obj 313 477 r \$0-left-set;
#X obj 312 415 vline~;
#X obj 313 521 vline~;
#X msg 313 498 \$1 20;
#X msg 312 392 \$1 200;
#X obj 312 436 spigot~;
#X obj 383 143 t b b b;
#X msg 332 244 0;
#X obj 313 543 spigot~;
#X obj 298 802 outlet~;
#X obj 164 780 catch~ \$0-out;
#X msg 230 263 0 \, 1 \$1;
#X obj 296 281 vline~;
#X obj 227 241 expr 1000 / $f1;
#X floatatom 480 356 5 0 0 0 - - -;
#X obj 471 392 sel 1;
#X obj 476 426 bng 15 250 50 0 empty empty empty 17 7 0 10 -262144
-1 -1;
#X obj 535 348 spigot;
#X obj 569 313 r \$0-loop-set;
#X msg 542 381 bang;
#N canvas 459 667 450 300 init 0;
#X obj 23 114 s /utz/\$1/volume;
#X msg 23 94 1;
#X obj 185 29 loadbang;
#X msg 133 94 1;
#X obj 133 114 s /utz/\$1/right;
#X obj 163 94 s /utz/\$1/left;
#X msg 163 74 0;
#X msg 263 94 1;
#X obj 263 114 s /utz/\$1/pitch;
#X connect 1 0 0 0;
#X connect 2 0 6 0;
#X connect 2 0 3 0;
#X connect 2 0 1 0;
#X connect 2 0 7 0;
#X connect 3 0 4 0;
#X connect 6 0 5 0;
#X connect 7 0 8 0;
#X restore 302 -81 pd init \$1;
#X connect 0 0 1 0;
#X connect 0 0 17 1;
#X connect 1 0 11 0;
#X connect 2 0 22 0;
#X connect 2 0 83 0;
#X connect 3 0 20 0;
#X connect 4 0 7 0;
#X connect 5 0 4 1;
#X connect 6 0 5 0;
#X connect 7 0 78 0;
#X connect 8 0 66 1;
#X connect 8 0 74 1;
#X connect 8 0 77 1;
#X connect 8 0 81 0;
#X connect 9 0 1 0;
#X connect 9 1 11 1;
#X connect 10 0 46 0;
#X connect 10 1 58 0;
#X connect 11 0 55 0;
#X connect 11 0 62 0;
#X connect 12 0 14 0;
#X connect 12 1 13 1;
#X connect 13 0 54 0;
#X connect 14 0 13 0;
#X connect 15 0 16 0;
#X connect 16 0 3 0;
#X connect 17 0 1 0;
#X connect 18 0 17 0;
#X connect 19 0 6 0;
#X connect 20 0 4 0;
#X connect 30 0 29 0;
#X connect 31 0 32 0;
#X connect 32 0 33 0;
#X connect 32 1 23 0;
#X connect 33 0 34 0;
#X connect 34 0 35 0;
#X connect 35 0 36 0;
#X connect 36 0 38 0;
#X connect 37 0 43 0;
#X connect 38 0 37 0;
#X connect 40 0 33 0;
#X connect 41 0 24 0;
#X connect 42 0 47 0;
#X connect 43 0 42 0;
#X connect 44 0 10 0;
#X connect 45 0 46 0;
#X connect 46 0 9 0;
#X connect 46 0 63 0;
#X connect 47 0 48 0;
#X connect 48 0 41 0;
#X connect 49 0 8 0;
#X connect 50 0 75 0;
#X connect 51 0 0 0;
#X connect 51 0 68 0;
#X connect 52 0 3 1;
#X connect 53 0 73 0;
#X connect 56 0 66 0;
#X connect 58 0 64 0;
#X connect 58 1 65 0;
#X connect 59 0 18 0;
#X connect 60 0 14 0;
#X connect 61 0 12 0;
#X connect 64 0 46 1;
#X connect 65 0 46 1;
#X connect 66 0 82 0;
#X connect 67 0 66 1;
#X connect 67 0 74 1;
#X connect 67 0 77 1;
#X connect 69 0 72 0;
#X connect 70 0 74 0;
#X connect 71 0 77 0;
#X connect 72 0 71 0;
#X connect 73 0 70 0;
#X connect 74 1 15 1;
#X connect 75 0 1 0;
#X connect 75 1 67 0;
#X connect 75 2 76 0;
#X connect 76 0 81 0;
#X connect 77 1 16 1;
#X connect 79 0 78 0;
#X connect 80 0 81 0;
#X connect 81 0 2 0;
#X connect 81 0 15 0;
#X connect 82 0 80 0;
#X connect 83 0 84 0;
#X connect 84 0 85 0;
#X connect 84 0 86 0;
#X connect 86 0 88 0;
#X connect 87 0 86 1;
#X connect 88 0 1 0;
