#N canvas 733 164 488 433 10;
#N canvas 519 87 652 300 fileloading 0;
#X obj 106 148 soundfiler;
#X obj 106 259 s \$0-number-of-samples;
#X obj 133 200 \$0;
#X msg 133 224 \; \$1-array-sample normalize;
#X obj 126 -65 r \$0-file-set;
#X obj 106 92 pack s f;
#X msg 106 120 read -resize \$1 \$2-array-sample;
#X obj 159 73 \$0;
#N canvas 0 50 450 300 (subpatch) 0;
#X array \$0-array-sample 25448 float 2;
#X coords 0 1 25448 -1 200 140 1;
#X restore 366 63 graph;
#X obj 126 -40 symbol;
#X obj 106 52 t s b b;
#X obj 214 96 s \$0-ready-set;
#X obj 106 176 t b f b;
#X obj 14 226 s \$0-ready-set;
#X msg 20 205 1;
#X obj 16 -33 r \$0-start-set;
#X msg 149 12 0;
#X obj 126 -12 t s b b;
#X obj 214 5 s \$0-stop-set;
#X obj 16 -11 f 0;
#X obj 16 12 + 1;
#X obj 16 53 b;
#X obj 25 116 print;
#X obj 19 92 bng 15 250 50 0 empty empty empty 17 7 0 10 -262144 -1
-1;
#X floatatom 57 76 5 0 0 0 - - -, f 5;
#X obj 16 31 moses 2;
#X msg 220 75 0;
#X obj 91 28 symbol;
#X obj 93 -8 bng 15 250 50 0 empty empty empty 17 7 0 10 -262144 -1
-1;
#X connect 0 0 12 0;
#X connect 2 0 3 0;
#X connect 4 0 9 0;
#X connect 5 0 6 0;
#X connect 6 0 0 0;
#X connect 7 0 5 1;
#X connect 9 0 17 0;
#X connect 10 0 5 0;
#X connect 10 1 7 0;
#X connect 10 2 26 0;
#X connect 12 0 14 0;
#X connect 12 1 1 0;
#X connect 12 2 2 0;
#X connect 14 0 13 0;
#X connect 15 0 19 0;
#X connect 16 0 19 1;
#X connect 17 0 27 1;
#X connect 17 1 16 0;
#X connect 19 0 20 0;
#X connect 20 0 19 1;
#X connect 20 0 24 0;
#X connect 20 0 25 0;
#X connect 21 0 23 0;
#X connect 21 0 27 0;
#X connect 25 0 21 0;
#X connect 26 0 11 0;
#X connect 27 0 10 0;
#X connect 28 0 27 0;
#X restore 60 202 pd fileloading;
#X obj 231 313 outlet;
#N canvas 26 415 514 404 start 0;
#X obj 122 58 inlet;
#X obj 196 118 outlet;
#X obj 122 98 route start;
#X obj 129 147 r /utz/\$1/start;
#X obj 122 333 s \$0-start-set;
#X obj 122 309 spigot;
#X obj 221 259 r \$0-ready-set;
#X obj 122 169 t b b;
#X obj 147 240 spigot;
#X obj 183 214 == 0;
#X obj 146 273 s \$0-load-set;
#X connect 0 0 2 0;
#X connect 2 0 7 0;
#X connect 2 1 1 0;
#X connect 3 0 7 0;
#X connect 5 0 4 0;
#X connect 6 0 5 1;
#X connect 6 0 9 0;
#X connect 7 0 5 0;
#X connect 8 0 10 0;
#X connect 9 0 8 1;
#X restore 60 224 pd start;
#X obj 54 116 inlet ctl-in;
#N canvas 1296 87 589 581 param-parse 0;
#X obj 38 71 r /utz/\$1;
#X obj 18 31 inlet;
#X obj 18 107 route bang float left right pitch reverse loop file load
reset;
#X text 13 527 every float != 0 counts as a trigger;
#X obj 95 452 r /utz/\$1/left;
#X obj 95 472 s \$0-left-set;
#X msg 18 493 1;
#X obj 18 513 s \$0-trigger-set;
#X obj 134 412 r /utz/\$1/right;
#X obj 134 432 s \$0-right-set;
#X obj 173 362 r /utz/\$1/pitch;
#X obj 173 382 s \$0-pitch-set;
#X obj 212 322 r /utz/\$1/reverse;
#X obj 212 342 s \$0-reverse-set;
#X obj 251 282 r /utz/\$1/loop;
#X obj 251 302 s \$0-loop-set;
#X obj 290 252 s \$0-file-set;
#X obj 290 232 r /utz/\$1/file;
#X obj 330 192 r /utz/\$1/load;
#X obj 330 212 s \$0-load-set;
#X obj 368 144 r /utz/\$1/reset;
#X obj 368 164 s \$0-reset-set;
#X connect 0 0 2 0;
#X connect 1 0 2 0;
#X connect 2 0 6 0;
#X connect 2 1 7 0;
#X connect 2 2 5 0;
#X connect 2 3 9 0;
#X connect 2 4 11 0;
#X connect 2 5 13 0;
#X connect 2 6 15 0;
#X connect 2 7 16 0;
#X connect 2 8 19 0;
#X connect 2 9 21 0;
#X connect 4 0 5 0;
#X connect 6 0 7 0;
#X connect 8 0 9 0;
#X connect 10 0 11 0;
#X connect 12 0 13 0;
#X connect 14 0 15 0;
#X connect 17 0 16 0;
#X connect 18 0 19 0;
#X connect 20 0 21 0;
#X restore 54 144 pd param-parse;
#N canvas 9 264 701 783 dsp 0;
#X obj 108 544 +~;
#X obj 205 588 s /utz/\$1/position;
#X obj 122 349 r \$0-difference;
#X obj 123 457 r \$0-left-set;
#X obj 122 395 vline~;
#X obj 123 501 vline~;
#X msg 123 478 \$1 20;
#X msg 122 372 \$1 20;
#X obj 123 523 unauthorized/spigot~;
#X obj 122 417 unauthorized/spigot~;
#X msg 207 190 0;
#X obj 108 602 s~ \$0-index;
#X obj 152 68 r \$0-start-set;
#X obj 107 180 f;
#X obj 107 118 r \$0-freq;
#X floatatom 63 135 5 0 0 0 - - -, f 5;
#X msg 171 159 1;
#X obj 107 207 spigot;
#X obj 107 437 *~;
#X obj 235 379 r \$0-start-set;
#X msg 235 400 1;
#X msg 267 423 0;
#X obj 207 130 r \$0-stop-set;
#X obj 267 401 r \$0-stop-set;
#X obj 107 289 tof/phasorshot~;
#X obj 194 241 r \$0-loop-set;
#X obj 207 170 spigot;
#X obj 240 150 r \$0-stoppable-set;
#X floatatom 38 289 5 0 0 0 - - -, f 5;
#X obj 390 200 r \$0-freq;
#X obj 390 229 < 0;
#X text 425 228 reverse?;
#X obj 357 252 spigot;
#X obj 194 262 f;
#X obj 152 90 t b b b b;
#X msg 357 272 1;
#X obj 107 138 t b f;
#X obj 107 240 t b f;
#X obj 150 245 del 2;
#X obj 376 58 spigot;
#X obj 409 18 r \$0-stoppable-set;
#X obj 409 38 == 0;
#X obj 409 78 r \$0-loop-set;
#X obj 376 98 spigot;
#X msg 526 120 1;
#X msg 424 121 0;
#X obj 424 101 r \$0-start-set;
#X obj 526 99 r \$0-stop-set;
#X obj 377 142 spigot;
#X obj 205 560 iemlib/unsig~ 50;
#N canvas 54 226 643 467 time 0;
#X text 237 75 samplerate 441000kHz !;
#X obj 124 48 r \$0-number-of-samples;
#X obj 124 76 expr $f1 / 44.1;
#X obj 171 113 r \$0-difference;
#X obj 136 147 *;
#X obj 124 113 t f f;
#X floatatom 124 176 5 0 0 0 - - -, f 5;
#X floatatom 124 394 5 0 0 0 - - -, f 5;
#X obj 139 218 r \$0-pitch-set;
#X obj 139 240 t b f;
#X obj 124 263 /;
#X obj 154 309 t b f;
#X obj 154 281 r \$0-reverse-set;
#X obj 124 373 * 1;
#X obj 181 336 sel 0;
#X msg 181 356 1;
#X msg 208 356 -1;
#X obj 124 421 s \$0-duration;
#X text 160 176 duration of subsample;
#X obj 427 128 t b f;
#X obj 439 182 -;
#X floatatom 417 158 5 0 0 0 - - -, f 5;
#X obj 439 210 s \$0-difference;
#X obj 417 80 r \$0-right-set;
#X obj 427 100 r \$0-left-set;
#X obj 429 299 r \$0-duration;
#X obj 429 376 s \$0-freq;
#X obj 429 327 sel 0;
#X msg 429 347 0;
#X obj 456 348 expr 1000 / $f1;
#X text 160 393 pitched duration in ms;
#X text 131 4 handles time \, i.e. calculates phasor frequency out
of the number of samples and the set boundaries;
#X connect 1 0 2 0;
#X connect 2 0 5 0;
#X connect 3 0 4 0;
#X connect 4 0 6 0;
#X connect 5 0 6 0;
#X connect 5 1 4 1;
#X connect 6 0 10 0;
#X connect 7 0 17 0;
#X connect 8 0 9 0;
#X connect 9 0 10 0;
#X connect 9 1 10 1;
#X connect 10 0 13 0;
#X connect 11 0 13 0;
#X connect 11 1 14 0;
#X connect 12 0 11 0;
#X connect 13 0 7 0;
#X connect 14 0 15 0;
#X connect 14 1 16 0;
#X connect 15 0 13 1;
#X connect 16 0 13 1;
#X connect 19 0 21 0;
#X connect 19 1 20 1;
#X connect 20 0 22 0;
#X connect 21 0 20 0;
#X connect 23 0 21 0;
#X connect 24 0 19 0;
#X connect 25 0 27 0;
#X connect 27 0 28 0;
#X connect 27 1 29 0;
#X connect 28 0 26 0;
#X connect 29 0 26 0;
#X restore 29 29 pd time;
#X obj 368 600 *~;
#X obj 368 620 tabread4~ \$0-array-sample;
#X obj 383 580 r \$0-number-of-samples;
#X obj 367 538 r~ \$0-index;
#X text 559 621 play back sample;
#X obj 368 674 outlet~;
#X connect 0 0 11 0;
#X connect 0 0 49 0;
#X connect 2 0 7 0;
#X connect 3 0 6 0;
#X connect 4 0 9 0;
#X connect 5 0 8 0;
#X connect 6 0 5 0;
#X connect 7 0 4 0;
#X connect 8 1 0 1;
#X connect 9 1 18 1;
#X connect 10 0 17 1;
#X connect 10 0 24 1;
#X connect 10 0 24 0;
#X connect 12 0 34 0;
#X connect 13 0 17 0;
#X connect 14 0 15 0;
#X connect 14 0 36 0;
#X connect 16 0 17 1;
#X connect 17 0 28 0;
#X connect 17 0 37 0;
#X connect 18 0 0 0;
#X connect 19 0 20 0;
#X connect 20 0 9 1;
#X connect 20 0 8 1;
#X connect 21 0 8 1;
#X connect 21 0 9 1;
#X connect 22 0 26 0;
#X connect 24 0 18 0;
#X connect 24 1 39 0;
#X connect 24 2 39 0;
#X connect 25 0 33 0;
#X connect 26 0 10 0;
#X connect 27 0 26 1;
#X connect 29 0 30 0;
#X connect 30 0 32 1;
#X connect 32 0 35 0;
#X connect 33 0 24 2;
#X connect 34 0 13 0;
#X connect 34 1 16 0;
#X connect 34 2 32 0;
#X connect 34 3 10 0;
#X connect 35 0 24 2;
#X connect 36 0 13 0;
#X connect 36 1 13 1;
#X connect 37 0 38 0;
#X connect 37 1 24 0;
#X connect 38 0 33 0;
#X connect 39 0 43 0;
#X connect 40 0 41 0;
#X connect 41 0 39 1;
#X connect 42 0 43 1;
#X connect 43 0 48 0;
#X connect 44 0 48 1;
#X connect 45 0 48 1;
#X connect 46 0 45 0;
#X connect 47 0 44 0;
#X connect 48 0 10 0;
#X connect 49 0 1 0;
#X connect 51 0 52 0;
#X connect 52 0 56 0;
#X connect 53 0 51 1;
#X connect 54 0 51 0;
#X restore 60 285 pd dsp;
#X obj 60 313 outlet~ signal-out;
#N canvas 433 641 582 300 init 0;
#X msg 83 154 1;
#X obj 83 174 s /utz/\$1/right;
#X obj 43 194 s /utz/\$1/left;
#X msg 43 174 0;
#X msg 233 174 1;
#X obj 233 194 s /utz/\$1/pitch;
#X msg 393 174 0;
#X obj 393 194 s /utz/\$1/loop;
#X msg 393 134 0;
#X obj 393 154 s /utz/\$1/reverse;
#X obj 185 99 bang;
#X obj 171 58 loadbang;
#X obj 252 67 r \$0-reset-set;
#X connect 0 0 1 0;
#X connect 3 0 2 0;
#X connect 4 0 5 0;
#X connect 6 0 7 0;
#X connect 8 0 9 0;
#X connect 10 0 3 0;
#X connect 10 0 0 0;
#X connect 10 0 4 0;
#X connect 10 0 6 0;
#X connect 10 0 8 0;
#X connect 11 0 10 0;
#X connect 12 0 10 0;
#X restore 210 113 pd init;
#N canvas 2 87 450 300 ctl-out 0;
#X obj 121 177 outlet;
#X obj 121 125 r \$0-file-loaded;
#X msg 121 151 file-loaded;
#X connect 1 0 2 0;
#X connect 2 0 0 0;
#X restore 231 285 pd ctl-out;
#X connect 3 0 4 0;
#X connect 5 0 6 0;
#X connect 8 0 1 0;
