#N canvas 810 415 585 580 10;
#X obj 189 110 s \$0-ctrl-out;
#X obj 144 423 s \$0-ctrl-out;
#X text 156 141 get parameters;
#X text 152 406 forward unhandled input;
#X text 208 82 daisy chaining;
#X obj 54 84 throw~ \$0-out;
#X obj 54 56 inlet~;
#X obj 144 56 inlet;
#X obj 144 84 route \$1;
#X obj 144 201 utls/param \$0 \$1 stop;
#X obj 77 122 r /utz/\$1;
#N canvas 522 87 652 300 fileloading 0;
#X obj 106 148 soundfiler;
#X obj 106 259 s \$0-number-of-samples;
#X obj 133 200 \$0;
#X msg 133 224 \; \$1-array-sample normalize;
#X obj 126 -65 r \$0-file-set;
#X obj 106 92 pack s f;
#X msg 106 120 read -resize \$1 \$2-array-sample;
#X obj 159 73 \$0;
#N canvas 0 50 450 300 (subpatch) 0;
#X array \$0-array-sample 25448 float 2;
#X coords 0 1 25448 -1 200 140 1;
#X restore 366 63 graph;
#X obj 126 -40 symbol;
#X obj 106 52 t s b b;
#X obj 214 96 s \$0-ready-set;
#X obj 106 176 t b f b;
#X obj 14 226 s \$0-ready-set;
#X msg 20 205 1;
#X obj 16 -33 r \$0-start-set;
#X msg 149 12 0;
#X obj 126 -12 t s b b;
#X obj 214 5 s \$0-stop-set;
#X obj 16 -11 f 0;
#X obj 16 12 + 1;
#X obj 16 53 b;
#X obj 25 116 print;
#X obj 19 92 bng 15 250 50 0 empty empty empty 17 7 0 10 -262144 -1
-1;
#X floatatom 57 76 5 0 0 0 - - -, f 5;
#X obj 16 31 moses 2;
#X msg 220 75 0;
#X obj 91 28 symbol;
#X obj 93 -8 bng 15 250 50 0 empty empty empty 17 7 0 10 -262144 -1
-1;
#X connect 0 0 12 0;
#X connect 2 0 3 0;
#X connect 4 0 9 0;
#X connect 5 0 6 0;
#X connect 6 0 0 0;
#X connect 7 0 5 1;
#X connect 9 0 17 0;
#X connect 10 0 5 0;
#X connect 10 1 7 0;
#X connect 10 2 26 0;
#X connect 12 0 14 0;
#X connect 12 1 1 0;
#X connect 12 2 2 0;
#X connect 14 0 13 0;
#X connect 15 0 19 0;
#X connect 16 0 19 1;
#X connect 17 0 27 1;
#X connect 17 1 16 0;
#X connect 19 0 20 0;
#X connect 20 0 19 1;
#X connect 20 0 24 0;
#X connect 20 0 25 0;
#X connect 21 0 23 0;
#X connect 21 0 27 0;
#X connect 25 0 21 0;
#X connect 26 0 11 0;
#X connect 27 0 10 0;
#X connect 28 0 27 0;
#X restore 422 233 pd fileloading;
#X obj 68 512 outlet~;
#X obj 68 484 catch~ \$0-out;
#N canvas 441 649 582 300 init 0;
#X obj 23 114 s /utz/\$1/volume;
#X msg 23 94 1;
#X obj 185 29 loadbang;
#X msg 133 94 1;
#X obj 133 114 s /utz/\$1/right;
#X obj 163 94 s /utz/\$1/left;
#X msg 163 74 0;
#X msg 263 94 1;
#X obj 263 114 s /utz/\$1/pitch;
#X msg 383 94 1;
#X obj 383 114 s /utz/\$1/envelope;
#X msg 253 134 0;
#X obj 253 154 s /utz/\$1/loop;
#X msg 353 134 0;
#X obj 353 154 s /utz/\$1/reverse;
#X msg 43 134 0;
#X obj 43 154 s /utz/\$1/mute;
#X msg 423 74 1;
#X obj 423 94 s /utz/\$1/stoppable;
#X connect 1 0 0 0;
#X connect 2 0 6 0;
#X connect 2 0 3 0;
#X connect 2 0 1 0;
#X connect 2 0 7 0;
#X connect 2 0 9 0;
#X connect 2 0 11 0;
#X connect 2 0 13 0;
#X connect 2 0 15 0;
#X connect 2 0 17 0;
#X connect 3 0 4 0;
#X connect 6 0 5 0;
#X connect 7 0 8 0;
#X connect 9 0 10 0;
#X connect 11 0 12 0;
#X connect 13 0 14 0;
#X connect 15 0 16 0;
#X connect 17 0 18 0;
#X restore 422 179 pd init \$1;
#N canvas 484 87 508 467 playback 0;
#X obj 138 80 *~;
#X obj 138 288 *~;
#X obj 153 250 line~;
#X msg 153 230 \$1 20;
#X obj 138 368 hip~ 5;
#X obj 153 210 r \$0-volume-set;
#X obj 138 100 tabread4~ \$0-array-sample;
#X obj 153 60 r \$0-number-of-samples;
#X obj 137 18 r~ \$0-index;
#X obj 138 394 throw~ \$0-out;
#X obj 138 348 *~;
#X obj 183 332 line~;
#X msg 183 312 \$1 20;
#X obj 183 272 r \$0-mute-set;
#X obj 183 292 == 0;
#N canvas 341 325 660 416 envelope 0;
#X obj 176 59 inlet~;
#X obj 296 67 inlet;
#X obj 176 238 outlet~;
#X obj 425 246 outlet;
#X obj 296 95 route float start stop;
#X obj 192 164 vline~;
#X obj 177 192 *~;
#X obj 192 112 spigot;
#X obj 287 141 sel 0;
#X msg 340 118 0 \, 1 0;
#X msg 287 160 1 5;
#X msg 382 142 0 5;
#X connect 0 0 6 0;
#X connect 1 0 4 0;
#X connect 4 0 7 1;
#X connect 4 0 8 0;
#X connect 4 1 9 0;
#X connect 4 2 11 0;
#X connect 4 3 3 0;
#X connect 5 0 6 1;
#X connect 6 0 2 0;
#X connect 7 0 5 0;
#X connect 8 0 10 0;
#X connect 9 0 7 0;
#X connect 10 0 5 0;
#X connect 11 0 7 0;
#X restore 138 172 pd envelope;
#X obj 201 125 r \$0-start-set;
#X obj 294 125 r \$0-stop-set;
#X msg 201 145 start;
#X msg 294 146 stop;
#X obj 345 155 r \$0-envelope-set;
#X text 329 101 play back sample;
#X connect 0 0 6 0;
#X connect 1 0 10 0;
#X connect 2 0 1 1;
#X connect 3 0 2 0;
#X connect 4 0 9 0;
#X connect 5 0 3 0;
#X connect 6 0 15 0;
#X connect 7 0 0 1;
#X connect 8 0 0 0;
#X connect 10 0 4 0;
#X connect 11 0 10 1;
#X connect 12 0 11 0;
#X connect 13 0 14 0;
#X connect 14 0 12 0;
#X connect 15 0 1 0;
#X connect 16 0 18 0;
#X connect 17 0 19 0;
#X connect 18 0 15 1;
#X connect 19 0 15 1;
#X connect 20 0 15 1;
#X restore 422 290 pd playback;
#N canvas 572 280 450 300 save 0;
#X obj 32 23 kollabs/ds_reg utz /utz/\$1/volume;
#X obj 32 43 kollabs/ds_reg utz /utz/\$1/file;
#X obj 32 63 kollabs/ds_reg utz /utz/\$1/envelope;
#X obj 32 83 kollabs/ds_reg utz /utz/\$1/loop;
#X obj 32 103 kollabs/ds_reg utz /utz/\$1/stoppable;
#X obj 32 124 kollabs/ds_reg utz /utz/\$1/left;
#X obj 32 144 kollabs/ds_reg utz /utz/\$1/right;
#X obj 32 164 kollabs/ds_reg utz /utz/\$1/pitch;
#X obj 32 184 kollabs/ds_reg utz /utz/\$1/reverse;
#X obj 32 203 kollabs/ds_reg utz /utz/\$1/mute;
#X restore 422 200 pd save;
#N canvas 11 266 701 646 indexing 0;
#X obj 108 544 +~;
#X obj 205 588 s /utz/\$1/position;
#X obj 122 349 r \$0-difference;
#X obj 123 457 r \$0-left-set;
#X obj 122 395 vline~;
#X obj 123 501 vline~;
#X msg 123 478 \$1 20;
#X msg 122 372 \$1 20;
#X obj 123 523 unauthorized/spigot~;
#X obj 122 417 unauthorized/spigot~;
#X msg 207 190 0;
#X obj 108 602 s~ \$0-index;
#X obj 152 68 r \$0-start-set;
#X obj 107 180 f;
#X obj 107 118 r \$0-freq;
#X floatatom 63 135 5 0 0 0 - - -, f 5;
#X msg 171 159 1;
#X obj 107 207 spigot;
#X obj 107 437 *~;
#X obj 235 379 r \$0-start-set;
#X msg 235 400 1;
#X msg 267 423 0;
#X obj 207 130 r \$0-stop-set;
#X obj 267 401 r \$0-stop-set;
#X obj 107 289 tof/phasorshot~;
#X obj 194 241 r \$0-loop-set;
#X obj 207 170 spigot;
#X obj 240 150 r \$0-stoppable-set;
#X floatatom 38 289 5 0 0 0 - - -, f 5;
#X obj 390 200 r \$0-freq;
#X obj 390 229 < 0;
#X text 425 228 reverse?;
#X obj 357 252 spigot;
#X obj 194 262 f;
#X obj 152 90 t b b b b;
#X msg 357 272 1;
#X obj 107 138 t b f;
#X obj 107 240 t b f;
#X obj 150 245 del 2;
#X obj 376 58 spigot;
#X obj 409 18 r \$0-stoppable-set;
#X obj 409 38 == 0;
#X obj 409 78 r \$0-loop-set;
#X obj 376 98 spigot;
#X msg 526 120 1;
#X msg 424 121 0;
#X obj 424 101 r \$0-start-set;
#X obj 526 99 r \$0-stop-set;
#X obj 377 142 spigot;
#X obj 205 560 iemlib/unsig~ 50;
#N canvas 54 226 643 467 time 0;
#X text 237 75 samplerate 441000kHz !;
#X obj 124 48 r \$0-number-of-samples;
#X obj 124 76 expr $f1 / 44.1;
#X obj 171 113 r \$0-difference;
#X obj 136 147 *;
#X obj 124 113 t f f;
#X floatatom 124 176 5 0 0 0 - - -, f 5;
#X floatatom 124 394 5 0 0 0 - - -, f 5;
#X obj 139 218 r \$0-pitch-set;
#X obj 139 240 t b f;
#X obj 124 263 /;
#X obj 154 309 t b f;
#X obj 154 281 r \$0-reverse-set;
#X obj 124 373 * 1;
#X obj 181 336 sel 0;
#X msg 181 356 1;
#X msg 208 356 -1;
#X obj 124 421 s \$0-duration;
#X text 160 176 duration of subsample;
#X obj 427 128 t b f;
#X obj 439 182 -;
#X floatatom 417 158 5 0 0 0 - - -, f 5;
#X obj 439 210 s \$0-difference;
#X obj 417 80 r \$0-right-set;
#X obj 427 100 r \$0-left-set;
#X obj 429 299 r \$0-duration;
#X obj 429 376 s \$0-freq;
#X obj 429 327 sel 0;
#X msg 429 347 0;
#X obj 456 348 expr 1000 / $f1;
#X text 160 393 pitched duration in ms;
#X text 131 4 handles time \, i.e. calculates phasor frequency out
of the number of samples and the set boundaries;
#X connect 1 0 2 0;
#X connect 2 0 5 0;
#X connect 3 0 4 0;
#X connect 4 0 6 0;
#X connect 5 0 6 0;
#X connect 5 1 4 1;
#X connect 6 0 10 0;
#X connect 7 0 17 0;
#X connect 8 0 9 0;
#X connect 9 0 10 0;
#X connect 9 1 10 1;
#X connect 10 0 13 0;
#X connect 11 0 13 0;
#X connect 11 1 14 0;
#X connect 12 0 11 0;
#X connect 13 0 7 0;
#X connect 14 0 15 0;
#X connect 14 1 16 0;
#X connect 15 0 13 1;
#X connect 16 0 13 1;
#X connect 19 0 21 0;
#X connect 19 1 20 1;
#X connect 20 0 22 0;
#X connect 21 0 20 0;
#X connect 23 0 21 0;
#X connect 24 0 19 0;
#X connect 25 0 27 0;
#X connect 27 0 28 0;
#X connect 27 1 29 0;
#X connect 28 0 26 0;
#X connect 29 0 26 0;
#X restore 29 29 pd time;
#X connect 0 0 11 0;
#X connect 0 0 49 0;
#X connect 2 0 7 0;
#X connect 3 0 6 0;
#X connect 4 0 9 0;
#X connect 5 0 8 0;
#X connect 6 0 5 0;
#X connect 7 0 4 0;
#X connect 8 1 0 1;
#X connect 9 1 18 1;
#X connect 10 0 17 1;
#X connect 10 0 24 1;
#X connect 10 0 24 0;
#X connect 12 0 34 0;
#X connect 13 0 17 0;
#X connect 14 0 15 0;
#X connect 14 0 36 0;
#X connect 16 0 17 1;
#X connect 17 0 28 0;
#X connect 17 0 37 0;
#X connect 18 0 0 0;
#X connect 19 0 20 0;
#X connect 20 0 9 1;
#X connect 20 0 8 1;
#X connect 21 0 8 1;
#X connect 21 0 9 1;
#X connect 22 0 26 0;
#X connect 24 0 18 0;
#X connect 24 1 39 0;
#X connect 24 2 39 0;
#X connect 25 0 33 0;
#X connect 26 0 10 0;
#X connect 27 0 26 1;
#X connect 29 0 30 0;
#X connect 30 0 32 1;
#X connect 32 0 35 0;
#X connect 33 0 24 2;
#X connect 34 0 13 0;
#X connect 34 1 16 0;
#X connect 34 2 32 0;
#X connect 34 3 10 0;
#X connect 35 0 24 2;
#X connect 36 0 13 0;
#X connect 36 1 13 1;
#X connect 37 0 38 0;
#X connect 37 1 24 0;
#X connect 38 0 33 0;
#X connect 39 0 43 0;
#X connect 40 0 41 0;
#X connect 41 0 39 1;
#X connect 42 0 43 1;
#X connect 43 0 48 0;
#X connect 44 0 48 1;
#X connect 45 0 48 1;
#X connect 46 0 45 0;
#X connect 47 0 44 0;
#X connect 48 0 10 0;
#X connect 49 0 1 0;
#X restore 422 268 pd indexing;
#X obj 181 484 r \$0-ctrl-out;
#X obj 181 512 outlet;
#N canvas 32 421 514 404 start 0;
#X obj 122 58 inlet;
#X obj 196 118 outlet;
#X obj 122 98 route start;
#X obj 129 147 r /utz/\$1/start;
#X obj 122 333 s \$0-start-set;
#X obj 122 309 spigot;
#X obj 221 259 r \$0-ready-set;
#X obj 122 169 t b b;
#X obj 147 240 spigot;
#X obj 183 214 == 0;
#X obj 146 273 s \$0-load-set;
#X connect 0 0 2 0;
#X connect 2 0 7 0;
#X connect 2 1 1 0;
#X connect 3 0 7 0;
#X connect 5 0 4 0;
#X connect 6 0 5 1;
#X connect 6 0 9 0;
#X connect 7 0 5 0;
#X connect 8 0 10 0;
#X connect 9 0 8 1;
#X restore 144 181 pd start;
#X obj 144 159 utls/param \$0 \$1 file;
#X obj 144 221 utls/param \$0 \$1 volume;
#X obj 144 261 utls/param \$0 \$1 envelope;
#X obj 144 241 utls/param \$0 \$1 mute;
#X obj 144 361 utls/param \$0 \$1 loop;
#X obj 144 301 utls/param \$0 \$1 pitch;
#X obj 144 281 utls/param \$0 \$1 reverse;
#X obj 144 321 utls/param \$0 \$1 left;
#X obj 144 341 utls/param \$0 \$1 right;
#X obj 144 381 utls/param \$0 \$1 stoppable;
#X obj 361 73 ggee/moog~;
#X connect 6 0 5 0;
#X connect 7 0 8 0;
#X connect 8 0 21 0;
#X connect 8 1 0 0;
#X connect 9 0 22 0;
#X connect 10 0 21 0;
#X connect 13 0 12 0;
#X connect 18 0 19 0;
#X connect 20 0 9 0;
#X connect 21 0 20 0;
#X connect 22 0 24 0;
#X connect 23 0 27 0;
#X connect 24 0 23 0;
#X connect 25 0 30 0;
#X connect 26 0 28 0;
#X connect 27 0 26 0;
#X connect 28 0 29 0;
#X connect 29 0 25 0;
#X connect 30 0 1 0;
