#N canvas 2 87 585 580 10;
#X obj 189 -90 s \$0-ctrl-out;
#X obj 144 223 s \$0-ctrl-out;
#X text 156 -59 get parameters;
#X text 152 206 forward unhandled input;
#X text 208 -118 daisy chaining;
#X obj 54 -116 throw~ \$0-out;
#X obj 54 -144 inlet~;
#X obj 144 -144 inlet;
#X obj 144 -116 route \$1;
#X obj 144 -41 utls/param \$0 \$1 file;
#X obj 144 -19 utls/param \$0 \$1 start;
#X obj 144 1 utls/param \$0 \$1 stop;
#X obj 144 21 utls/param \$0 \$1 volume;
#X obj 144 61 utls/param \$0 \$1 envelope;
#X obj 144 41 utls/param \$0 \$1 mute;
#X obj 77 -78 r /utz/\$1;
#X obj 144 161 utls/param \$0 \$1 loop;
#X obj 144 101 utls/param \$0 \$1 pitch;
#X obj 144 81 utls/param \$0 \$1 reverse;
#X obj 144 121 utls/param \$0 \$1 left;
#X obj 144 141 utls/param \$0 \$1 right;
#N canvas 541 87 652 300 fileloading 0;
#X obj 106 68 soundfiler;
#X obj 106 179 s \$0-number-of-samples;
#X obj 106 96 t f b;
#X obj 133 120 \$0;
#X msg 133 144 \; \$1-array-sample normalize;
#X obj 106 -55 r \$0-file-set;
#X obj 106 12 pack s f;
#X msg 106 40 read -resize \$1 \$2-array-sample;
#X obj 151 -8 \$0;
#X obj 106 -35 t s b;
#N canvas 0 0 450 300 (subpatch) 0;
#X array \$0-array-sample 91227 float 2;
#X coords 0 1 91227 -1 200 140 1;
#X restore 366 -17 graph;
#X connect 0 0 2 0;
#X connect 2 0 1 0;
#X connect 2 1 3 0;
#X connect 3 0 4 0;
#X connect 5 0 9 0;
#X connect 6 0 7 0;
#X connect 7 0 0 0;
#X connect 8 0 6 1;
#X connect 9 0 6 0;
#X connect 9 1 8 0;
#X restore 422 33 pd fileloading;
#X obj 68 312 outlet~;
#X obj 68 284 catch~ \$0-out;
#N canvas 452 660 582 300 init 0;
#X obj 23 114 s /utz/\$1/volume;
#X msg 23 94 1;
#X obj 185 29 loadbang;
#X msg 133 94 1;
#X obj 133 114 s /utz/\$1/right;
#X obj 163 94 s /utz/\$1/left;
#X msg 163 74 0;
#X msg 263 94 1;
#X obj 263 114 s /utz/\$1/pitch;
#X msg 383 94 1;
#X obj 383 114 s /utz/\$1/envelope;
#X connect 1 0 0 0;
#X connect 2 0 6 0;
#X connect 2 0 3 0;
#X connect 2 0 1 0;
#X connect 2 0 7 0;
#X connect 2 0 9 0;
#X connect 3 0 4 0;
#X connect 6 0 5 0;
#X connect 7 0 8 0;
#X connect 9 0 10 0;
#X restore 422 -21 pd init \$1;
#N canvas 590 87 643 467 time 0;
#X text 237 45 samplerate 441000kHz !;
#X obj 124 18 r \$0-number-of-samples;
#X obj 124 46 expr $f1 / 44.1;
#X obj 171 93 r \$0-difference;
#X obj 136 127 *;
#X obj 124 93 t f f;
#X floatatom 124 156 5 0 0 0 - - -;
#X floatatom 124 384 5 0 0 0 - - -;
#X obj 139 178 r \$0-pitch-set;
#X obj 139 230 t b f;
#X obj 124 253 /;
#X obj 154 299 t b f;
#X obj 154 271 r \$0-reverse-set;
#X obj 124 363 * 1;
#X obj 181 326 sel 0;
#X msg 181 346 1;
#X msg 208 346 -1;
#X text 160 383 pitched duration;
#X obj 124 411 s \$0-duration;
#X text 160 156 duration of subsample;
#X obj 447 98 t b f;
#X obj 459 152 -;
#X floatatom 437 128 5 0 0 0 - - -;
#X obj 459 180 s \$0-difference;
#X obj 437 50 r \$0-right-set;
#X obj 447 70 r \$0-left-set;
#X connect 1 0 2 0;
#X connect 2 0 5 0;
#X connect 3 0 4 0;
#X connect 4 0 6 0;
#X connect 5 0 6 0;
#X connect 5 1 4 1;
#X connect 6 0 10 0;
#X connect 7 0 18 0;
#X connect 8 0 9 0;
#X connect 9 0 10 0;
#X connect 9 1 10 1;
#X connect 10 0 13 0;
#X connect 11 0 13 0;
#X connect 11 1 14 0;
#X connect 12 0 11 0;
#X connect 13 0 7 0;
#X connect 14 0 15 0;
#X connect 14 1 16 0;
#X connect 15 0 13 1;
#X connect 16 0 13 1;
#X connect 20 0 22 0;
#X connect 20 1 21 1;
#X connect 21 0 23 0;
#X connect 22 0 21 0;
#X connect 24 0 22 0;
#X connect 25 0 20 0;
#X restore 422 54 pd time;
#N canvas 509 87 450 300 playback 0;
#X obj 138 80 *~;
#X obj 138 208 *~;
#X obj 153 180 line~;
#X msg 153 160 \$1 20;
#X obj 138 228 hip~ 5;
#X obj 153 140 r \$0-volume-set;
#X obj 138 100 tabread4~ \$0-array-sample;
#X obj 153 60 r \$0-number-of-samples;
#X obj 137 18 r~ \$0-index;
#X obj 138 254 throw~ \$0-out;
#X connect 0 0 6 0;
#X connect 1 0 4 0;
#X connect 2 0 1 1;
#X connect 3 0 2 0;
#X connect 4 0 9 0;
#X connect 5 0 3 0;
#X connect 6 0 1 0;
#X connect 7 0 0 1;
#X connect 8 0 0 0;
#X restore 422 110 pd playback;
#N canvas 220 304 450 300 save 0;
#X obj 32 23 kollabs/ds_reg utz /utz/\$1/volume;
#X obj 32 43 kollabs/ds_reg utz /utz/\$1/file;
#X obj 32 63 kollabs/ds_reg utz /utz/\$1/envelope;
#X restore 422 0 pd save;
#N canvas 1020 87 744 989 indexing 1;
#X obj 285 890 unsig~ 50;
#X obj 107 577 *~;
#X obj 108 684 +~;
#X obj 285 918 s /utz/\$1/position;
#X obj 122 459 r \$0-difference;
#X obj 123 597 r \$0-left-set;
#X obj 122 535 vline~;
#X obj 123 641 vline~;
#X msg 123 618 \$1 20;
#X msg 122 512 \$1 20;
#X obj 123 663 spigot~;
#X obj 183 641 tgl 15 0 empty empty empty 17 7 0 10 -262144 -1 -1 0
1;
#X obj 122 557 spigot~;
#X obj 182 535 tgl 15 0 empty empty empty 17 7 0 10 -262144 -1 -1 0
1;
#X obj 264 595 t b f;
#X obj 264 567 r \$0-reverse-set;
#X obj 291 622 sel 0;
#X obj 108 784 +~;
#X obj 123 741 vline~;
#X msg 123 718 \$1 20;
#X obj 123 763 spigot~;
#X obj 183 741 tgl 15 0 empty empty empty 17 7 0 10 -262144 -1 -1 0
1;
#X msg 291 642 0;
#X obj 318 682 f;
#X floatatom 313 702 5 0 0 0 - - -;
#X obj 333 601 r \$0-difference;
#X obj 329 622 t b f;
#X msg 318 652 bang;
#X msg 239 785 1;
#X msg 207 785 -1;
#X obj 123 851 vline~;
#X msg 123 828 \$1 20;
#X obj 123 873 spigot~;
#X obj 184 851 tgl 15 0 empty empty empty 17 7 0 10 -262144 -1 -1 0
1;
#X obj 108 894 *~;
#X obj 122 487 *;
#X obj 280 423 t b f;
#X obj 280 395 r \$0-reverse-set;
#X obj 307 450 sel 0;
#X msg 307 470 1;
#X msg 334 470 -1;
#X obj 277 519 unsig~ 50;
#X floatatom 290 545 50 0 0 0 - - -;
#X obj 387 489 unsig~ 50;
#X floatatom 400 515 50 0 0 0 - - -;
#X obj 107 179 phasor~;
#X msg 146 64 0;
#X obj 233 279 r \$0-loop-set;
#X obj 200 319 spigot;
#X obj 233 299 == 0;
#X obj 177 268 bng 15 250 50 0 empty empty empty 17 7 0 10 -262144
-1 -1;
#X obj 200 195 rzero~ 1;
#X obj 200 223 *~ 1;
#X obj 364 206 * -1;
#X obj 364 125 expr $f1 > 0;
#X obj 364 145 sel 0 1;
#X msg 395 172 1;
#X obj 107 108 t f f b;
#X msg 364 173 -1;
#X msg 164 162 0.998;
#X obj 200 251 threshold~ 0.999 1 0.999 1;
#X floatatom 107 65 5 0 0 0 - - -;
#X text 203 147 start with offset;
#X text 202 159 on reverse;
#X text 203 171 must be below threshold;
#X obj 107 38 bng 15 250 50 0 empty empty empty 17 7 0 10 -262144 -1
-1;
#X obj 146 36 r \$0-stop-set;
#X obj 200 347 s \$0-stop-set;
#X obj 108 919 s~ \$0-index;
#X connect 0 0 3 0;
#X connect 1 0 2 0;
#X connect 1 0 41 0;
#X connect 2 0 17 0;
#X connect 4 0 35 0;
#X connect 5 0 8 0;
#X connect 6 0 12 0;
#X connect 6 0 43 0;
#X connect 7 0 10 0;
#X connect 8 0 7 0;
#X connect 9 0 6 0;
#X connect 10 0 2 1;
#X connect 11 0 10 1;
#X connect 12 0 1 1;
#X connect 13 0 12 1;
#X connect 14 1 16 0;
#X connect 15 0 14 0;
#X connect 16 0 22 0;
#X connect 16 1 27 0;
#X connect 17 0 34 0;
#X connect 18 0 20 0;
#X connect 19 0 18 0;
#X connect 20 0 17 1;
#X connect 21 0 20 1;
#X connect 22 0 24 0;
#X connect 23 0 24 0;
#X connect 24 0 19 0;
#X connect 25 0 26 0;
#X connect 26 0 23 0;
#X connect 26 1 23 1;
#X connect 27 0 23 0;
#X connect 28 0 31 0;
#X connect 29 0 31 0;
#X connect 30 0 32 0;
#X connect 31 0 30 0;
#X connect 32 0 34 1;
#X connect 32 1 0 0;
#X connect 33 0 32 1;
#X connect 34 0 68 0;
#X connect 35 0 9 0;
#X connect 36 0 35 0;
#X connect 36 1 38 0;
#X connect 37 0 36 0;
#X connect 38 0 39 0;
#X connect 38 1 40 0;
#X connect 39 0 35 1;
#X connect 40 0 35 1;
#X connect 41 0 42 0;
#X connect 43 0 44 0;
#X connect 45 0 51 0;
#X connect 45 0 1 0;
#X connect 46 0 45 1;
#X connect 46 0 45 0;
#X connect 47 0 49 0;
#X connect 48 0 67 0;
#X connect 49 0 48 1;
#X connect 51 0 52 0;
#X connect 52 0 60 0;
#X connect 53 0 52 1;
#X connect 54 0 55 0;
#X connect 55 0 58 0;
#X connect 55 0 59 0;
#X connect 55 1 56 0;
#X connect 56 0 53 0;
#X connect 57 0 45 0;
#X connect 57 1 54 0;
#X connect 58 0 53 0;
#X connect 59 0 45 1;
#X connect 60 0 50 0;
#X connect 60 0 48 0;
#X connect 61 0 57 0;
#X connect 65 0 61 0;
#X connect 66 0 46 0;
#X restore 422 88 pd indexing;
#X obj 181 284 r \$0-ctrl-out;
#X obj 181 312 outlet;
#X connect 6 0 5 0;
#X connect 7 0 8 0;
#X connect 8 0 9 0;
#X connect 8 1 0 0;
#X connect 9 0 10 0;
#X connect 10 0 11 0;
#X connect 11 0 12 0;
#X connect 12 0 14 0;
#X connect 13 0 18 0;
#X connect 14 0 13 0;
#X connect 15 0 9 0;
#X connect 16 0 1 0;
#X connect 17 0 19 0;
#X connect 18 0 17 0;
#X connect 19 0 20 0;
#X connect 20 0 16 0;
#X connect 23 0 22 0;
#X connect 29 0 30 0;
