#N canvas 1213 113 488 433 10;
#N canvas 1196 300 667 622 fileloading 0;
#X obj 106 328 soundfiler;
#X obj 152 384 \$0;
#X obj 145 137 r \$0-file-set;
#X obj 106 272 pack s f;
#X obj 129 239 \$0;
#N canvas 2 87 450 300 (subpatch) 0;
#X array \$0-sample-array 4342 float 2;
#X coords 0 1 4342 -1 200 140 1;
#X restore 398 127 graph;
#X obj 145 157 symbol;
#X obj 106 202 t s b b;
#X obj 106 356 t b f b;
#X msg 106 466 1;
#X msg 237 219 0;
#X obj 106 178 symbol;
#X obj 106 111 r \$0-load-trigger;
#X obj 237 239 s \$0-ready;
#X text 270 220 signal;
#X msg 106 301 read -resize \$1 \$2-sample-array;
#X text 175 274 format command for soundfiler;
#X obj 106 486 s \$0-ready;
#X obj 129 442 s \$0-number-of-samples;
#X msg 152 404 \; \$1-sample-array normalize;
#X obj 295 487 print TESTFLD;
#X connect 0 0 8 0;
#X connect 1 0 19 0;
#X connect 2 0 6 0;
#X connect 3 0 15 0;
#X connect 4 0 3 1;
#X connect 6 0 11 1;
#X connect 7 0 3 0;
#X connect 7 1 4 0;
#X connect 7 2 10 0;
#X connect 8 0 9 0;
#X connect 8 1 18 0;
#X connect 8 1 20 0;
#X connect 8 2 1 0;
#X connect 9 0 17 0;
#X connect 10 0 13 0;
#X connect 11 0 7 0;
#X connect 12 0 11 0;
#X connect 15 0 0 0;
#X restore 54 222 pd fileloading;
#X obj 54 116 inlet ctl-in;
#N canvas 1249 87 631 613 param-parse 0;
#X obj 118 81 r /utz/\$1;
#X obj 98 41 inlet;
#X obj 98 117 route bang float left right pitch reverse loop file load
reset;
#X text 93 537 every float != 0 counts as a trigger;
#X obj 175 462 r /utz/\$1/left;
#X obj 175 482 s \$0-left-set;
#X msg 98 503 1;
#X obj 98 523 s \$0-trigger-set;
#X obj 214 422 r /utz/\$1/right;
#X obj 214 442 s \$0-right-set;
#X obj 253 372 r /utz/\$1/pitch;
#X obj 253 392 s \$0-pitch-set;
#X obj 292 332 r /utz/\$1/reverse;
#X obj 292 352 s \$0-reverse-set;
#X obj 331 292 r /utz/\$1/loop;
#X obj 331 312 s \$0-loop-set;
#X obj 370 262 s \$0-file-set;
#X obj 370 242 r /utz/\$1/file;
#X obj 410 202 r /utz/\$1/load;
#X obj 410 222 s \$0-load-set;
#X obj 448 154 r /utz/\$1/reset;
#X obj 448 174 s \$0-reset-set;
#X connect 0 0 2 0;
#X connect 1 0 2 0;
#X connect 2 0 6 0;
#X connect 2 1 7 0;
#X connect 2 2 5 0;
#X connect 2 3 9 0;
#X connect 2 4 11 0;
#X connect 2 5 13 0;
#X connect 2 6 15 0;
#X connect 2 7 16 0;
#X connect 2 8 19 0;
#X connect 2 9 21 0;
#X connect 4 0 5 0;
#X connect 6 0 7 0;
#X connect 8 0 9 0;
#X connect 10 0 11 0;
#X connect 12 0 13 0;
#X connect 14 0 15 0;
#X connect 17 0 16 0;
#X connect 18 0 19 0;
#X connect 20 0 21 0;
#X restore 54 144 pd param-parse;
#N canvas 113 125 929 888 dsp 1;
#X obj 215 672 s /utz/\$1/position;
#X obj 143 405 r \$0-difference;
#X obj 143 534 r \$0-left-set;
#X obj 143 451 vline~;
#X obj 143 578 vline~;
#X msg 143 555 \$1 20;
#X msg 143 428 \$1 20;
#X obj 143 600 unauthorized/spigot~;
#X obj 117 244 f;
#X floatatom 63 261 5 0 0 0 - - -, f 5;
#X obj 117 271 spigot;
#X obj 117 373 tof/phasorshot~;
#X obj 219 314 r \$0-loop-set;
#X floatatom 48 373 5 0 0 0 - - -, f 5;
#X obj 416 274 r \$0-freq;
#X obj 416 294 < 0;
#X text 451 293 reverse?;
#X obj 377 316 spigot;
#X obj 219 335 f;
#X msg 377 336 1;
#X obj 117 304 t b f;
#X obj 206 294 del 2;
#X obj 465 153 r \$0-loop-set;
#X obj 426 173 spigot;
#X obj 426 242 spigot;
#X obj 215 644 iemlib/unsig~ 50;
#X obj 141 714 r \$0-number-of-samples;
#X text 303 755 play back sample;
#X obj 118 798 outlet~;
#X obj 117 44 r \$0-duration;
#X obj 117 64 sel 0;
#X msg 117 84 0;
#X obj 149 84 expr 1000 / $f1;
#X obj 29 287 print TESTDSP;
#X text 159 65 time2frequency;
#X obj 118 628 +~ 0;
#X obj 117 501 *~ 1;
#X obj 118 734 *~ 1;
#X obj 142 473 unauthorized/spigot~;
#X obj 279 452 r \$0-play-trigger;
#X obj 280 579 r \$0-play-trigger;
#X text 338 644 send out current position;
#X text 201 557 add left value as offset;
#X text 201 427 scale source to reach all samples in window;
#X text 248 375 seeks from 0 to 1 with specified frequency and;
#X obj 117 112 t b f f;
#X obj 163 132 s \$0-freq;
#X obj 465 199 r \$0-play-trigger;
#X obj 465 221 == 0;
#X obj 311 113 r \$0-play-trigger;
#X obj 280 155 sel 0;
#X obj 311 133 t f f b b;
#X msg 198 259 0;
#X text 222 260 reset index on beginning;
#X text 32 645 index ---->;
#X text 409 337 start at the end of sample;
#X obj 156 208 b;
#X obj 117 754 tabread4~ \$0-sample-array;
#X obj 225 794 iemlib/unsig~ 50;
#X floatatom 225 820 5 0 0 0 - - -, f 5;
#X connect 1 0 6 0;
#X connect 2 0 5 0;
#X connect 3 0 38 0;
#X connect 4 0 7 0;
#X connect 5 0 4 0;
#X connect 6 0 3 0;
#X connect 7 1 35 1;
#X connect 8 0 10 0;
#X connect 8 0 9 0;
#X connect 8 0 33 0;
#X connect 10 0 13 0;
#X connect 10 0 20 0;
#X connect 11 0 36 0;
#X connect 11 1 23 0;
#X connect 11 2 23 0;
#X connect 12 0 18 0;
#X connect 14 0 15 0;
#X connect 15 0 17 1;
#X connect 17 0 19 0;
#X connect 18 0 11 2;
#X connect 19 0 11 1;
#X connect 19 0 11 0;
#X connect 20 0 21 0;
#X connect 20 1 11 0;
#X connect 21 0 18 0;
#X connect 22 0 23 1;
#X connect 23 0 24 0;
#X connect 24 0 52 0;
#X connect 25 0 0 0;
#X connect 26 0 37 1;
#X connect 29 0 30 0;
#X connect 30 0 31 0;
#X connect 30 1 32 0;
#X connect 31 0 45 0;
#X connect 32 0 45 0;
#X connect 35 0 25 0;
#X connect 35 0 37 0;
#X connect 36 0 35 0;
#X connect 37 0 57 0;
#X connect 38 1 36 1;
#X connect 39 0 38 1;
#X connect 40 0 7 1;
#X connect 45 0 8 0;
#X connect 45 1 8 1;
#X connect 45 2 46 0;
#X connect 47 0 48 0;
#X connect 48 0 24 1;
#X connect 49 0 51 0;
#X connect 50 0 52 0;
#X connect 50 1 56 0;
#X connect 51 0 50 0;
#X connect 51 1 10 1;
#X connect 51 2 17 0;
#X connect 51 3 52 0;
#X connect 52 0 11 0;
#X connect 52 0 11 1;
#X connect 56 0 8 0;
#X connect 57 0 28 0;
#X connect 57 0 58 0;
#X connect 58 0 59 0;
#X restore 54 282 pd dsp;
#X obj 54 310 outlet~ signal-out;
#N canvas 433 641 582 300 init 0;
#X msg 83 154 1;
#X obj 83 174 s /utz/\$1/right;
#X obj 43 194 s /utz/\$1/left;
#X msg 43 174 0;
#X msg 233 174 1;
#X obj 233 194 s /utz/\$1/pitch;
#X msg 393 174 0;
#X obj 393 194 s /utz/\$1/loop;
#X msg 393 134 0;
#X obj 393 154 s /utz/\$1/reverse;
#X obj 185 99 bang;
#X obj 171 58 loadbang;
#X obj 252 67 r \$0-reset-set;
#X connect 0 0 1 0;
#X connect 3 0 2 0;
#X connect 4 0 5 0;
#X connect 6 0 7 0;
#X connect 8 0 9 0;
#X connect 10 0 3 0;
#X connect 10 0 0 0;
#X connect 10 0 4 0;
#X connect 10 0 6 0;
#X connect 10 0 8 0;
#X connect 11 0 10 0;
#X connect 12 0 10 0;
#X restore 210 113 pd init;
#X obj 231 313 outlet ready;
#X text 219 334 file loading finished;
#X obj 231 285 r \$0-ready;
#N canvas 812 662 452 305 trigger 0;
#X obj 47 133 s \$0-load-trigger;
#X obj 47 91 r \$0-load-set;
#X obj 232 89 r \$0-trigger-set;
#X obj 232 129 s \$0-play-trigger;
#X connect 1 0 0 0;
#X connect 2 0 3 0;
#X restore 54 184 pd trigger;
#N canvas 804 250 643 467 window 0;
#X text 237 75 samplerate 441000kHz !;
#X obj 124 48 r \$0-number-of-samples;
#X obj 124 76 expr $f1 / 44.1;
#X obj 171 113 r \$0-difference;
#X obj 136 147 *;
#X obj 124 113 t f f;
#X floatatom 124 176 5 0 0 0 - - -, f 5;
#X floatatom 124 394 5 0 0 0 - - -, f 5;
#X obj 139 218 r \$0-pitch-set;
#X obj 139 240 t b f;
#X obj 154 309 t b f;
#X obj 154 281 r \$0-reverse-set;
#X obj 124 373 * 1;
#X obj 181 336 sel 0;
#X msg 181 356 1;
#X msg 208 356 -1;
#X obj 124 421 s \$0-duration;
#X text 160 176 duration of subsample;
#X obj 427 128 t b f;
#X obj 439 182 -;
#X floatatom 417 158 5 0 0 0 - - -, f 5;
#X obj 439 210 s \$0-difference;
#X obj 417 80 r \$0-right-set;
#X obj 427 100 r \$0-left-set;
#X text 160 393 pitched duration in ms;
#X text 131 4 handles time \, i.e. calculates phasor frequency out
of the number of samples and the set boundaries;
#X obj 124 263 / 1;
#X connect 1 0 2 0;
#X connect 2 0 5 0;
#X connect 3 0 4 0;
#X connect 4 0 6 0;
#X connect 5 0 6 0;
#X connect 5 1 4 1;
#X connect 6 0 26 0;
#X connect 7 0 16 0;
#X connect 8 0 9 0;
#X connect 9 0 26 0;
#X connect 9 1 26 1;
#X connect 10 0 12 0;
#X connect 10 1 13 0;
#X connect 11 0 10 0;
#X connect 12 0 7 0;
#X connect 13 0 14 0;
#X connect 13 1 15 0;
#X connect 14 0 12 1;
#X connect 15 0 12 1;
#X connect 18 0 20 0;
#X connect 18 1 19 1;
#X connect 19 0 21 0;
#X connect 20 0 19 0;
#X connect 22 0 20 0;
#X connect 23 0 18 0;
#X connect 26 0 12 0;
#X restore 54 242 pd window;
#X obj 227 399 print TESTREADY;
#X connect 1 0 2 0;
#X connect 3 0 4 0;
#X connect 8 0 6 0;
#X connect 8 0 11 0;
