#N canvas 1109 249 434 339 10;
#X obj 68 116 r \$0-midi;
#X obj 68 144 != 0;
#X obj 68 170 sel 0 1;
#X obj 68 43 kollabs/midi_in \$0;
#X msg 68 197 bang;
#X msg 87 217 bang;
#X obj 87 245 s /utz/\$3/start;
#X obj 68 267 s /utz/\$3/stop;
#X obj 68 63 kollabs/midi_r \$0 \$0-midi note \$2 \$1 \$3;
#X connect 0 0 1 0;
#X connect 1 0 2 0;
#X connect 2 0 4 0;
#X connect 2 1 5 0;
#X connect 4 0 7 0;
#X connect 5 0 6 0;
