#N canvas 1100 240 434 265 10;
#X obj 68 126 r \$0-midi;
#X obj 68 43 kollabs/midi_in;
#X obj 68 63 kollabs/midi_r utz \$0-midi \$1 \$3 \$2;
#X obj 68 149 != 0;
#X msg 68 175 trigger \$1;
#X obj 68 202 s /utz/\$4;
#X connect 0 0 3 0;
#X connect 3 0 4 0;
#X connect 4 0 5 0;
