#N canvas 1111 251 434 339 10;
#X obj 68 116 r \$0-midi;
#X obj 68 63 kollabs/midi_r \$0 \$0-midi note \$2 10;
#X obj 68 144 != 0;
#X obj 68 170 sel 0 1;
#X obj 68 43 kollabs/midi_in \$0;
#X obj 68 267 s /utz/\$1/stop;
#X msg 68 197 bang;
#X msg 87 217 bang;
#X obj 87 245 s /utz/\$1/start;
#X connect 0 0 2 0;
#X connect 2 0 3 0;
#X connect 3 0 6 0;
#X connect 3 1 7 0;
#X connect 6 0 5 0;
#X connect 7 0 8 0;
