#N canvas 1112 252 434 339 10;
#X obj 68 116 r \$0-midi;
#X obj 68 63 kollabs/midi_r \$0 \$0-midi note \$2 10;
#X obj 68 227 s /utz/\$1;
#X obj 68 144 != 0;
#X obj 68 170 sel 0 1;
#X msg 68 197 stop;
#X msg 109 197 start;
#X obj 68 43 kollabs/midi_in \$0;
#X connect 0 0 3 0;
#X connect 3 0 4 0;
#X connect 4 0 5 0;
#X connect 4 1 6 0;
#X connect 5 0 2 0;
#X connect 6 0 2 0;
