#N canvas 1107 247 434 339 10;
#X obj 68 116 r \$0-midi;
#X obj 68 144 != 0;
#X obj 68 170 sel 0 1;
#X msg 68 197 bang;
#X msg 87 217 bang;
#X obj 87 245 s /utz/\$3/start;
#X obj 68 267 s /utz/\$3/stop;
#X obj 68 43 kollabs/midi_in;
#X obj 68 63 kollabs/midi_r utz \$0-midi note \$2 \$1;
#X connect 0 0 1 0;
#X connect 1 0 2 0;
#X connect 2 0 3 0;
#X connect 2 1 4 0;
#X connect 3 0 6 0;
#X connect 4 0 5 0;
