#N canvas 1050 214 762 725 10;
#X obj 182 246 unpack f f;
#X text 248 164 message: $NOTE $VEL;
#X obj 183 671 outlet~;
#X obj 529 137 inlet control;
#X obj 182 137 inlet note;
#X text 44 354 midi pitch;
#X obj 182 500 sgn_basicsynth~;
#N canvas 808 416 450 300 MIDI 0;
#X obj 186 38 r /midi/\$4/in;
#X obj 186 73 route note;
#X msg 186 104 \$3 \$2 \$1;
#X obj 186 139 route \$3;
#X obj 186 182 outlet note;
#X connect 0 0 1 0;
#X connect 1 0 2 0;
#X connect 2 0 3 0;
#X connect 3 0 4 0;
#X restore 208 211 pd MIDI;
#X obj 249 274 / 127;
#X obj 184 639 *~;
#X text 216 642 VCA;
#X obj 372 399 r \$0-velocity;
#X obj 387 419 r \$0-attack;
#X obj 402 439 r \$0-decay;
#X obj 417 459 r \$0-sustain;
#X obj 432 479 r \$0-release;
#X obj 372 503 env_adsr~;
#X obj 249 302 s \$0-velocity;
#N canvas 2 87 450 300 params 1;
#X obj 58 104 route attack decay sustain release;
#X obj 58 152 s \$0-attack;
#X obj 68 132 r /utz/\$1/attack;
#X obj 127 211 r /utz/\$1/decay;
#X obj 117 231 s \$0-decay;
#X obj 186 171 r /utz/\$1/sustain;
#X obj 175 191 s \$0-sustain;
#X obj 243 130 r /utz/\$1/release;
#X obj 233 150 s \$0-release;
#X obj 55 58 inlet control;
#X connect 0 0 1 0;
#X connect 0 1 4 0;
#X connect 0 2 6 0;
#X connect 0 3 8 0;
#X connect 2 0 1 0;
#X connect 3 0 4 0;
#X connect 5 0 6 0;
#X connect 7 0 8 0;
#X connect 9 0 0 0;
#X restore 529 238 pd params;
#X obj 182 460 sel 0;
#X text 228 465 no trigger-offs;
#X obj 183 600 vcf~;
#X obj 195 570 *~ 0.5;
#X connect 0 0 19 0;
#X connect 0 1 8 0;
#X connect 3 0 18 0;
#X connect 4 0 0 0;
#X connect 6 0 21 0;
#X connect 7 0 0 0;
#X connect 8 0 17 0;
#X connect 9 0 2 0;
#X connect 11 0 16 0;
#X connect 12 0 16 1;
#X connect 13 0 16 2;
#X connect 14 0 16 3;
#X connect 15 0 16 4;
#X connect 16 0 9 1;
#X connect 16 0 22 0;
#X connect 19 1 6 0;
#X connect 21 0 9 0;
#X connect 22 0 21 1;
