#N canvas 2 87 450 333 10;
#X obj 89 212 throw~ /utz/master/out;
#X text 83 235 send to master audio out;
#X msg 272 96 1;
#X msg 296 129 0;
#X msg 352 146 enable 1;
#X obj 300 190 bng 15 250 50 0 empty empty empty 17 7 0 10 -262144
-1 -1;
#N canvas 565 273 450 300 save 0;
#X obj 32 223 kollabs/ds_reg utz /utz/\$1/volume;
#X obj 32 13 kollabs/ds_reg utz /utz/\$1/file;
#X obj 32 73 kollabs/ds_reg utz /utz/\$1/loop;
#X obj 32 94 kollabs/ds_reg utz /utz/\$1/left;
#X obj 32 114 kollabs/ds_reg utz /utz/\$1/right;
#X obj 32 134 kollabs/ds_reg utz /utz/\$1/pitch;
#X obj 32 154 kollabs/ds_reg utz /utz/\$1/reverse;
#X restore 83 279 pd save;
#X obj 90 129 inst_sampler~ \$1;
#X obj 89 157 env_adsr~ \$1;
#X obj 89 185 env_volume~ \$1;
#X obj 58 29 midi2play \$2 \$3 \$4 \$1;
#X obj 58 54 ctr_tap-metronome \$4 \$3 \$1;
#X connect 2 0 8 1;
#X connect 3 0 8 1;
#X connect 4 0 8 1;
#X connect 7 0 8 0;
#X connect 8 0 9 0;
#X connect 8 1 5 0;
#X connect 9 0 0 0;
