#N canvas 2 87 450 333 10;
#X text 83 295 send to master audio out;
#X obj 90 272 outlet~;
#X obj 91 175 module_sampler~ \$1 \$2 \$3 \$4 \$5;
#X obj 298 85 inlet ctl-in;
#X obj 91 85 inlet velocity;
#X connect 2 0 1 0;
#X connect 3 0 2 1;
#X connect 4 0 2 0;
