#N canvas 2 87 613 513 10;
#X text 83 295 send to master audio out;
#X obj 90 272 outlet~;
#X obj 91 175 module_sampler~ \$1 \$2 \$3 \$4 \$5;
#X obj 298 45 inlet ctl-in;
#X obj 91 45 inlet velocity;
#N canvas 638 155 811 670 tap-metro 0;
#X msg 160 300 stop;
#X obj 686 551 outlet;
#X obj 403 363 spigot;
#X obj 160 398 >=;
#X msg 712 513 bpm \$1;
#X obj 592 317 route timedelta;
#X obj 592 340 / 1000;
#X obj 160 351 utls/stopWatch;
#X obj 160 277 r \$0-stop-set;
#X obj 436 342 r \$0-hold-set;
#X obj 160 443 s \$0-hold-set;
#X obj 592 363 s \$0-beat-length;
#X obj 175 378 r \$0-beat-length;
#X text 191 397 activate output if;
#X text 191 412 note pressed for one beat;
#X text 330 332 beat -->;
#X obj 641 408 r \$0-beat-length;
#X obj 641 429 expr 60 / $f1;
#X obj 641 449 s \$0-bpm;
#X obj 712 491 r \$0-bpm;
#N canvas 1257 428 444 361 tapMetronome 0;
#X obj 187 132 timer;
#X obj 160 229 metro;
#X msg 87 212 stop;
#X obj 160 71 t b b b b;
#X obj 207 256 outlet;
#X obj 254 103 loadbang;
#X msg 254 132 500;
#X msg 207 207 timedelta \$1;
#X obj 187 170 cyclone/split 100 10000;
#X obj 160 256 outlet;
#X obj 87 181 r \$0-stop-set;
#X obj 160 18 r \$0-velocity-set;
#X obj 160 43 sel 0;
#X connect 0 0 8 0;
#X connect 1 0 9 0;
#X connect 2 0 1 0;
#X connect 3 0 1 0;
#X connect 3 1 0 0;
#X connect 3 2 0 1;
#X connect 3 3 2 0;
#X connect 5 0 6 0;
#X connect 6 0 8 0;
#X connect 7 0 4 0;
#X connect 8 0 1 1;
#X connect 8 0 7 0;
#X connect 10 0 2 0;
#X connect 11 0 12 0;
#X connect 12 1 3 0;
#X restore 403 300 pd tapMetronome;
#X obj 471 184 param \$0 \$1 stop;
#X obj 148 61 inlet velocity;
#X obj 471 89 inlet control;
#X obj 148 99 route float bang;
#X msg 202 148 1;
#X obj 148 124 sel 0;
#X msg 148 148 0;
#X obj 180 191 s \$0-velocity-set;
#X obj 421 415 r \$0-velocity-set;
#X floatatom 84 97 5 0 0 0 - - -, f 5;
#X obj 403 478 outlet;
#X obj 403 443 f;
#X obj 403 331 bng 15 250 50 0 empty empty empty 17 7 0 10 -262144
-1 -1;
#X obj 206 325 sel 0;
#X floatatom 81 395 5 0 0 0 - - -, f 5;
#X obj 206 301 r \$0-velocity-set;
#X text 25 355 time since last;
#X text 66 370 trigger --->;
#X connect 0 0 7 0;
#X connect 2 0 32 0;
#X connect 3 0 10 0;
#X connect 4 0 1 0;
#X connect 5 0 6 0;
#X connect 6 0 11 0;
#X connect 7 0 3 0;
#X connect 7 0 35 0;
#X connect 8 0 0 0;
#X connect 9 0 2 1;
#X connect 12 0 3 1;
#X connect 16 0 17 0;
#X connect 17 0 18 0;
#X connect 19 0 4 0;
#X connect 20 0 33 0;
#X connect 20 1 5 0;
#X connect 21 0 1 0;
#X connect 22 0 24 0;
#X connect 22 0 30 0;
#X connect 23 0 21 0;
#X connect 24 0 26 0;
#X connect 24 1 25 0;
#X connect 25 0 28 0;
#X connect 26 0 27 0;
#X connect 26 1 28 0;
#X connect 27 0 28 0;
#X connect 29 0 32 1;
#X connect 32 0 31 0;
#X connect 33 0 2 0;
#X connect 34 1 7 0;
#X connect 36 0 34 0;
#X restore 119 129 pd tap-metro;
#N canvas 64 392 573 386 MIDI 0;
#X obj 312 164 sel 0;
#X obj 102 97 kollabs/midi_r utz /utz/\$0/midiin note \$1 \$2;
#X obj 128 142 r /utz/\$0/midiin;
#X obj 138 184 route \$1;
#X obj 138 162 r \$0-note-set;
#X obj 128 206 s \$0-float-set;
#X obj 312 143 r \$0-float-set;
#X obj 339 185 s \$0-bang-set;
#X obj 312 205 s \$0-stop-set;
#X connect 0 0 8 0;
#X connect 0 1 7 0;
#X connect 2 0 5 0;
#X connect 3 0 5 0;
#X connect 4 0 3 0;
#X connect 6 0 0 0;
#X restore 371 138 pd MIDI;
#X obj 147 103 r /\$5/\$1;
#X obj 119 83 r /\$5/\$1/velocity;
#X obj 200 272 outlet ctl-out;
#X connect 2 0 1 0;
#X connect 3 0 2 1;
#X connect 3 0 5 1;
#X connect 4 0 2 0;
#X connect 4 0 5 0;
#X connect 5 0 2 0;
#X connect 5 1 9 0;
#X connect 7 0 5 0;
#X connect 7 0 5 1;
#X connect 8 0 5 0;
