#N canvas 1189 212 518 480 10;
#X obj 229 152 outlet;
#X obj 64 -186 route sampler;
#X obj 139 -160 s \$0-ctrl-out;
#X obj 229 125 r \$0-ctrl-out;
#X obj 64 43 s \$0-ctrl-out;
#X text 76 -129 get parameters;
#X text 72 26 forward unhandled input;
#X obj 64 154 outlet~;
#N canvas 19 153 683 590 audio 1;
#X obj 175 88 readsf~ 2;
#X msg 45 71 open \$1;
#X obj 45 43 symbol;
#X obj 175 -86 r \$0-start-set;
#X obj 297 -86 r \$0-stop-set;
#X obj 45 -86 r \$0-file-set;
#X msg 175 60 start;
#X msg 297 -15 stop;
#X obj -81 203 s \$0-ctrl-out;
#X obj -81 123 symbol;
#X msg -81 150 \$1;
#X obj -81 175 cyclone/prepend dump file \$1;
#X obj 174 221 *~;
#X text 284 91 attack;
#X text 326 91 release;
#X obj 297 -63 t b b;
#X msg 281 106 1 0.1;
#X obj 297 -40 delay 40;
#X msg 324 106 0 40;
#X obj 281 146 line~;
#X obj 352 132 r \$0-envelope-set;
#X obj 282 205 +~;
#X obj 281 174 *~;
#X obj 352 160 + 1;
#X obj 352 188 mod 2;
#X obj 330 12 r \$0-envelope-set;
#X obj 297 40 spigot;
#X obj 175 -59 t b b b;
#X obj 189 271 r \$0-volume-set;
#X obj 174 299 *~;
#X text -49 149 print name of loaded file;
#X obj 174 339 throw~ \$0-out;
#X connect 0 0 12 0;
#X connect 1 0 0 0;
#X connect 2 0 1 0;
#X connect 3 0 27 0;
#X connect 4 0 15 0;
#X connect 5 0 2 0;
#X connect 6 0 0 0;
#X connect 7 0 26 0;
#X connect 9 0 10 0;
#X connect 10 0 11 0;
#X connect 11 0 8 0;
#X connect 12 0 29 0;
#X connect 15 0 17 0;
#X connect 15 1 18 0;
#X connect 16 0 19 0;
#X connect 17 0 7 0;
#X connect 18 0 19 0;
#X connect 19 0 22 0;
#X connect 20 0 22 1;
#X connect 20 0 23 0;
#X connect 21 0 12 1;
#X connect 22 0 21 0;
#X connect 23 0 24 0;
#X connect 24 0 21 1;
#X connect 25 0 26 1;
#X connect 26 0 0 0;
#X connect 27 0 6 0;
#X connect 27 1 16 0;
#X connect 27 2 2 0;
#X connect 28 0 29 1;
#X connect 29 0 31 0;
#X restore 137 93 pd audio;
#X obj 64 -111 utls/param \$0 file;
#X obj 64 -89 utls/param \$0 start;
#X obj 64 -69 utls/param \$0 stop;
#X obj 64 -49 utls/param \$0 volume;
#X text 158 -188 daisy chaining;
#X obj 64 -29 utls/param \$0 envelope;
#N canvas 1467 90 450 300 init 0;
#X obj 75 85 loadbang;
#X msg 75 113 1;
#X obj 75 141 s \$0-volume-set;
#X msg 185 113 1;
#X obj 185 141 s \$0-envelope-set;
#X connect 0 0 1 0;
#X connect 0 0 3 0;
#X connect 1 0 2 0;
#X connect 3 0 4 0;
#X restore 271 -213 pd init;
#X obj -26 -186 throw~ \$0-out;
#X obj 63 125 catch~ \$0-out;
#X obj -26 -214 inlet~;
#X obj 64 -214 inlet;
#X connect 1 0 9 0;
#X connect 1 1 2 0;
#X connect 3 0 0 0;
#X connect 9 0 10 0;
#X connect 10 0 11 0;
#X connect 11 0 12 0;
#X connect 12 0 14 0;
#X connect 14 0 4 0;
#X connect 17 0 7 0;
#X connect 18 0 16 0;
#X connect 19 0 1 0;
#X coords 0 480 1 479 690 140 0;
