#N canvas 736 157 488 433 10;
#N canvas 1202 275 667 708 fileloading 0;
#X obj 106 328 soundfiler;
#X obj 152 384 \$0;
#X obj 106 272 pack s f;
#X obj 129 239 \$0;
#N canvas 2 87 450 300 (subpatch) 0;
#X array \$0-sample-array 6819 float 2;
#X coords 0 1 6819 -1 200 140 1;
#X restore 398 127 graph;
#X obj 145 157 symbol;
#X obj 106 202 t s b b;
#X obj 106 356 t b f b;
#X msg 102 466 1;
#X msg 237 219 0;
#X obj 106 178 symbol;
#X obj 106 61 r \$0-load-trigger;
#X obj 237 239 s \$0-ready;
#X text 270 220 signal;
#X msg 106 301 read -resize \$1 \$2-sample-array;
#X text 175 274 format command for soundfiler;
#X obj 102 486 s \$0-ready;
#X obj 129 442 s \$0-number-of-samples;
#X msg 152 404 \; \$1-sample-array normalize;
#X obj 70 396 t b b;
#X msg 70 496 0;
#X obj 70 516 s \$0-file-new;
#X obj 308 349 print SOUNDFILER;
#X obj 106 111 sel 0;
#X text 48 138 trigger on;
#X obj 76 64 bng 15 250 50 0 empty empty empty 17 7 0 10 -262144 -1
-1;
#X obj 199 184 print TESTSYMBOL;
#X obj 261 76 print TESTINPUT;
#X obj 106 156 b;
#X obj 270 161 print TESTFILE;
#X msg 76 84 1;
#X obj 132 88 bng 15 250 50 0 empty empty empty 17 7 0 10 -262144 -1
-1;
#X obj 145 137 r \$0-file-staged;
#X text 170 110 this value holds;
#X text 170 123 the file to load next;
#X obj 237 475 bng 15 250 50 0 empty empty empty 17 7 0 10 -262144
-1 -1;
#X floatatom 238 499 5 0 0 0 - - -, f 5;
#X connect 0 0 7 0;
#X connect 1 0 18 0;
#X connect 2 0 14 0;
#X connect 3 0 2 1;
#X connect 5 0 10 1;
#X connect 5 0 29 0;
#X connect 6 0 2 0;
#X connect 6 1 3 0;
#X connect 6 2 9 0;
#X connect 7 0 19 0;
#X connect 7 1 17 0;
#X connect 7 1 35 0;
#X connect 7 1 36 0;
#X connect 7 2 1 0;
#X connect 8 0 16 0;
#X connect 9 0 12 0;
#X connect 10 0 6 0;
#X connect 10 0 26 0;
#X connect 11 0 27 0;
#X connect 11 0 23 0;
#X connect 11 0 31 0;
#X connect 14 0 0 0;
#X connect 14 0 22 0;
#X connect 19 0 20 0;
#X connect 19 1 8 0;
#X connect 20 0 21 0;
#X connect 23 1 28 0;
#X connect 25 0 30 0;
#X connect 28 0 10 0;
#X connect 30 0 23 0;
#X connect 32 0 5 0;
#X restore 54 172 pd fileloading;
#X obj 54 66 inlet ctl-in;
#N canvas 354 158 631 613 param-parse 0;
#X obj 118 81 r /utz/\$1;
#X obj 98 41 inlet;
#X text 93 537 every float != 0 counts as a trigger;
#X obj 185 462 r /utz/\$1/left;
#X obj 175 482 s \$0-left-set;
#X msg 98 241 1;
#X obj 98 523 s \$0-trigger-set;
#X obj 224 422 r /utz/\$1/right;
#X obj 214 442 s \$0-right-set;
#X obj 263 372 r /utz/\$1/pitch;
#X obj 253 392 s \$0-pitch-set;
#X obj 302 332 r /utz/\$1/reverse;
#X obj 292 352 s \$0-reverse-set;
#X obj 341 292 r /utz/\$1/loop;
#X obj 331 312 s \$0-loop-set;
#X obj 370 262 s \$0-file-set;
#X obj 380 242 r /utz/\$1/file;
#X obj 420 202 r /utz/\$1/load;
#X obj 410 222 s \$0-load-set;
#X obj 458 154 r /utz/\$1/reset;
#X obj 448 174 s \$0-reset-set;
#X obj 98 117 route bang trigger float left right pitch reverse loop
file load reset;
#X obj 108 503 r /utz/\$1/trigger;
#X connect 0 0 21 0;
#X connect 1 0 21 0;
#X connect 3 0 4 0;
#X connect 5 0 6 0;
#X connect 7 0 8 0;
#X connect 9 0 10 0;
#X connect 11 0 12 0;
#X connect 13 0 14 0;
#X connect 16 0 15 0;
#X connect 17 0 18 0;
#X connect 19 0 20 0;
#X connect 21 0 5 0;
#X connect 21 1 6 0;
#X connect 21 2 6 0;
#X connect 21 3 4 0;
#X connect 21 4 8 0;
#X connect 21 5 10 0;
#X connect 21 6 12 0;
#X connect 21 7 14 0;
#X connect 21 8 15 0;
#X connect 21 9 18 0;
#X connect 21 10 20 0;
#X connect 22 0 6 0;
#X restore 54 94 pd param-parse;
#N canvas 523 120 480 485 dsp 0;
#X obj 176 344 outlet~;
#X obj 173 107 r \$0-play-trigger;
#N canvas 1231 127 628 868 player~ 0;
#X obj 117 15 inlet;
#X obj 168 15 inlet;
#X obj 219 15 inlet;
#X obj 204 757 outlet~;
#X obj 215 522 s /utz/\$1/position;
#X obj 142 255 r \$0-difference;
#X obj 143 384 r \$0-left-set;
#X msg 143 405 \$1 20;
#X msg 142 278 \$1 20;
#X obj 117 43 tof/phasorshot~;
#X obj 258 69 r \$0-loop-set;
#X obj 219 89 spigot;
#X obj 219 158 spigot;
#X obj 215 494 iemlib/unsig~ 50;
#X obj 143 580 r \$0-number-of-samples;
#X text 306 675 play back sample;
#X obj 118 478 +~ 0;
#X obj 117 351 *~ 1;
#X obj 181 302 r \$0-play-trigger;
#X obj 182 429 r \$0-play-trigger;
#X text 338 494 send out current position;
#X text 201 407 add left value as offset;
#X text 201 277 scale source to reach all samples in window;
#X obj 258 115 r \$0-play-trigger;
#X obj 258 137 == 0;
#X text 32 495 index ---->;
#X obj 117 671 tabread4~ \$0-sample-array;
#X obj 142 301 line;
#X obj 142 323 spigot;
#X obj 143 428 line;
#X obj 143 450 spigot;
#X text 189 323 prevent audio glitches on changing values;
#X text 194 450 prevent audio glitches on changing values;
#X text 192 225 end loop if stopped pressing;
#X text 227 44 <-- seeks from 0 to 1 with specified frequency;
#X obj 219 201 s \$0-play-trigger;
#X msg 219 179 0;
#X floatatom 168 511 5 0 0 0 - - -, f 5;
#X obj 155 700 r \$0-play-trigger;
#X text 280 700 prevent audio glitches on fileload;
#X obj 116 721 unauthorized/spigot~;
#X floatatom 154 597 5 0 0 0 - - -, f 5;
#X obj 118 608 *~ 1;
#X connect 0 0 9 0;
#X connect 1 0 9 1;
#X connect 2 0 9 2;
#X connect 5 0 8 0;
#X connect 6 0 7 0;
#X connect 7 0 29 0;
#X connect 8 0 27 0;
#X connect 9 0 17 0;
#X connect 9 1 11 0;
#X connect 9 2 11 0;
#X connect 10 0 11 1;
#X connect 11 0 12 0;
#X connect 12 0 36 0;
#X connect 13 0 4 0;
#X connect 13 0 37 0;
#X connect 14 0 41 0;
#X connect 14 0 42 1;
#X connect 16 0 13 0;
#X connect 16 0 42 0;
#X connect 17 0 16 0;
#X connect 18 0 28 1;
#X connect 19 0 30 1;
#X connect 23 0 24 0;
#X connect 24 0 12 1;
#X connect 26 0 40 0;
#X connect 27 0 28 0;
#X connect 28 0 17 1;
#X connect 29 0 30 0;
#X connect 30 0 16 1;
#X connect 36 0 35 0;
#X connect 38 0 40 1;
#X connect 40 1 3 0;
#X connect 42 0 26 0;
#X restore 176 316 pd player~;
#N canvas 880 159 450 300 loop-trigger 0;
#X obj 163 83 inlet;
#X obj 163 217 outlet;
#X obj 181 141 r \$0-loop-set;
#X obj 163 189 spigot;
#X obj 163 161 f;
#X obj 163 111 t b f;
#X connect 0 0 5 0;
#X connect 2 0 4 0;
#X connect 3 0 1 0;
#X connect 4 0 3 0;
#X connect 5 0 4 0;
#X connect 5 1 3 1;
#X restore 243 288 pd loop-trigger;
#N canvas 2 87 450 300 reverse-trigger 0;
#X obj 104 45 inlet;
#X obj 104 190 outlet;
#X obj 136 151 < 0;
#X text 157 172 start at the end when in reverse;
#X obj 145 121 r \$0-duration;
#X obj 104 70 sel 0;
#X obj 104 168 f;
#X obj 104 103 t b b;
#X connect 0 0 5 0;
#X connect 2 0 6 1;
#X connect 4 0 2 0;
#X connect 5 1 7 0;
#X connect 6 0 1 0;
#X connect 7 0 6 0;
#X connect 7 1 2 0;
#X restore 209 260 pd reverse-trigger;
#N canvas 509 186 502 413 trigger-hold 0;
#X obj 150 109 inlet;
#X obj 150 268 outlet;
#X obj 237 109 r \$0-duration;
#X obj 237 129 sel 0;
#X msg 237 149 0;
#X obj 269 149 expr 1000 / $f1;
#X text 279 130 time2frequency;
#X obj 150 239 spigot;
#X obj 150 216 f;
#X obj 150 154 t f f;
#X obj 118 175 sel 0;
#X text 80 134 just trigger ons;
#X floatatom 228 183 5 0 0 0 - - -, f 5;
#X text 265 184 <--- loop frequency;
#X obj 150 195 b;
#X connect 0 0 9 0;
#X connect 2 0 3 0;
#X connect 3 0 4 0;
#X connect 3 1 5 0;
#X connect 4 0 12 0;
#X connect 5 0 12 0;
#X connect 7 0 1 0;
#X connect 8 0 7 0;
#X connect 9 0 10 0;
#X connect 9 1 7 1;
#X connect 10 1 14 0;
#X connect 12 0 8 1;
#X connect 12 0 8 0;
#X connect 14 0 8 0;
#X restore 176 232 pd trigger-hold;
#X obj 173 131 tgl 15 0 empty empty empty 17 7 0 10 -262144 -1 -1 0
1;
#X obj 173 152 t f f f f;
#N canvas 2 87 450 300 stop 0;
#X obj 152 81 inlet;
#X obj 152 103 sel 0;
#X msg 152 125 0;
#X obj 152 147 outlet;
#X connect 0 0 1 0;
#X connect 1 0 2 0;
#X connect 2 0 3 0;
#X restore 152 208 pd stop;
#X connect 1 0 6 0;
#X connect 2 0 0 0;
#X connect 3 0 2 2;
#X connect 4 0 2 1;
#X connect 5 0 2 0;
#X connect 6 0 7 0;
#X connect 7 0 8 0;
#X connect 7 1 5 0;
#X connect 7 2 4 0;
#X connect 7 3 3 0;
#X connect 8 0 2 0;
#X connect 8 0 2 1;
#X connect 8 0 2 2;
#X restore 54 232 pd dsp;
#X obj 54 260 outlet~ signal-out;
#N canvas 426 634 582 300 init 0;
#X msg 83 154 1;
#X obj 83 174 s /utz/\$1/right;
#X obj 43 194 s /utz/\$1/left;
#X msg 43 174 0;
#X msg 233 174 1;
#X obj 233 194 s /utz/\$1/pitch;
#X msg 393 174 0;
#X obj 393 194 s /utz/\$1/loop;
#X msg 393 134 0;
#X obj 393 154 s /utz/\$1/reverse;
#X obj 185 99 bang;
#X obj 171 58 loadbang;
#X obj 252 67 r \$0-reset-set;
#X connect 0 0 1 0;
#X connect 3 0 2 0;
#X connect 4 0 5 0;
#X connect 6 0 7 0;
#X connect 8 0 9 0;
#X connect 10 0 3 0;
#X connect 10 0 0 0;
#X connect 10 0 4 0;
#X connect 10 0 6 0;
#X connect 10 0 8 0;
#X connect 11 0 10 0;
#X connect 12 0 10 0;
#X restore 210 63 pd init;
#X obj 231 263 outlet ready;
#X text 219 284 file loading finished;
#X obj 231 235 r \$0-ready;
#N canvas 1302 278 615 519 trigger 0;
#X obj 50 80 r \$0-trigger-set;
#X obj 50 339 s \$0-play-trigger;
#X obj 122 193 r \$0-file-new;
#X obj 89 290 r \$0-ready;
#X obj 73 210 spigot;
#X text 81 229 load new file if necassary;
#X msg 96 128 0;
#X obj 96 149 s \$0-play-trigger;
#X obj 50 108 t f b b;
#X obj 338 66 r \$0-file-set;
#X text 391 164 set flag for new file;
#X msg 361 163 1;
#X obj 361 184 s \$0-file-new;
#X obj 384 115 s \$0-file-staged;
#X text 371 132 load path in staged-buffer;
#X obj 353 423 s \$0-load-trigger;
#X obj 353 381 r \$0-load-set;
#X obj 338 285 spigot;
#X obj 377 245 r \$0-play-trigger;
#X obj 377 265 == 0;
#X obj 338 337 s \$0-load-trigger;
#X text 224 356 interpret explicit load request as force;
#X msg 338 312 1;
#X text 394 285 if nothing is played;
#X text 443 271 load new file;
#X obj 338 94 t b b a;
#X msg 353 402 1;
#X obj 50 311 spigot;
#X text 97 312 drop if not ready;
#X connect 0 0 8 0;
#X connect 2 0 4 1;
#X connect 3 0 27 1;
#X connect 4 0 22 0;
#X connect 6 0 7 0;
#X connect 8 0 27 0;
#X connect 8 1 4 0;
#X connect 8 2 6 0;
#X connect 9 0 25 0;
#X connect 11 0 12 0;
#X connect 16 0 26 0;
#X connect 17 0 22 0;
#X connect 18 0 19 0;
#X connect 19 0 17 1;
#X connect 22 0 20 0;
#X connect 25 0 17 0;
#X connect 25 1 11 0;
#X connect 25 2 13 0;
#X connect 26 0 15 0;
#X connect 27 0 1 0;
#X restore 54 134 pd trigger;
#N canvas 1116 276 643 467 window 0;
#X text 237 75 samplerate 441000kHz !;
#X obj 124 48 r \$0-number-of-samples;
#X obj 124 76 expr $f1 / 44.1;
#X obj 174 113 r \$0-difference;
#X obj 138 147 *;
#X obj 124 113 t f f;
#X floatatom 124 176 5 0 0 0 - - -, f 5;
#X floatatom 124 394 5 0 0 0 - - -, f 5;
#X obj 139 218 r \$0-pitch-set;
#X obj 139 240 t b f;
#X obj 154 309 t b f;
#X obj 154 281 r \$0-reverse-set;
#X obj 124 373 * 1;
#X obj 181 336 sel 0;
#X msg 181 356 1;
#X msg 208 356 -1;
#X obj 124 421 s \$0-duration;
#X text 160 176 duration of subsample;
#X obj 427 128 t b f;
#X obj 441 182 -;
#X floatatom 417 158 5 0 0 0 - - -, f 5;
#X obj 441 210 s \$0-difference;
#X obj 417 80 r \$0-right-set;
#X obj 427 100 r \$0-left-set;
#X text 160 393 pitched duration in ms;
#X text 131 4 handles time \, i.e. calculates phasor frequency out
of the number of samples and the set boundaries;
#X obj 124 263 / 1;
#X connect 1 0 2 0;
#X connect 2 0 5 0;
#X connect 3 0 4 0;
#X connect 4 0 6 0;
#X connect 5 0 6 0;
#X connect 5 1 4 1;
#X connect 6 0 26 0;
#X connect 7 0 16 0;
#X connect 8 0 9 0;
#X connect 9 0 26 0;
#X connect 9 1 26 1;
#X connect 10 0 12 0;
#X connect 10 1 13 0;
#X connect 11 0 10 0;
#X connect 12 0 7 0;
#X connect 13 0 14 0;
#X connect 13 1 15 0;
#X connect 14 0 12 1;
#X connect 15 0 12 1;
#X connect 18 0 20 0;
#X connect 18 1 19 1;
#X connect 19 0 21 0;
#X connect 20 0 19 0;
#X connect 22 0 20 0;
#X connect 23 0 18 0;
#X connect 26 0 12 0;
#X restore 54 192 pd window;
#X connect 1 0 2 0;
#X connect 3 0 4 0;
#X connect 8 0 6 0;
