#N canvas 487 164 788 775 10;
#X obj 169 545 dac~ 1 2;
#X obj 370 124 bng 15 250 50 0 empty empty empty 17 7 0 10 -262144
-1 -1;
#X obj 370 142 openpanel;
#X msg 371 400 loop \$1;
#X obj 371 383 tgl 15 0 empty empty empty 17 7 0 10 -262144 -1 -1 0
1;
#X obj 371 423 tgl 15 0 empty empty empty 17 7 0 10 -262144 -1 -1 0
1;
#X msg 371 440 reverse \$1;
#X msg 371 480 reset;
#X obj 436 228 vsl 15 30 0.1 3 0 0 empty empty empty 0 -9 0 10 -262144
-1 -1 0 1;
#X obj 373 294 hsl 60 15 0 1 0 0 empty empty empty -2 -8 0 10 -262144
-1 -1 0 1;
#X obj 373 333 hsl 60 15 0 1 0 1 empty empty empty -2 -8 0 10 -262144
-1 -1 5900 1;
#X msg 370 312 left \$1;
#X msg 370 351 right \$1;
#X msg 370 266 pitch \$1;
#X obj 201 494 vsl 15 30 0 1 0 0 empty empty empty 0 -9 0 10 -262144
-1 -1 2900 1;
#X obj 140 432 bng 15 250 50 0 empty empty empty 17 7 0 10 -262144
-1 -1;
#X obj 163 432 tgl 15 0 empty empty empty 17 7 0 10 -262144 -1 -1 1
1;
#X msg 370 192 load;
#X obj 236 573 bng 15 250 50 0 empty empty empty 17 7 0 10 -262144
-1 -1;
#X msg 370 225 1;
#X msg 402 245 0.5;
#X msg 401 225 2;
#X msg 133 404 0;
#X msg 163 404 1;
#X floatatom 429 313 5 0 0 0 - - -, f 5;
#X floatatom 437 353 5 0 0 0 - - -, f 5;
#X msg 370 162 file \$1;
#X obj 168 501 *~;
#X text 461 381 loop 0: disable looped playback;
#X text 462 398 loop 1: enable looped playback;
#X text 462 429 reverse 0: disable reversed playback;
#X text 463 446 reverse 1: enable reversed playback;
#X text 530 349 must be between 0 and 1;
#X text 526 313 must be between 0 and 1;
#X text 456 296 left \$1: define left playback-margin;
#X text 459 332 right \$1: define right playback-margin;
#X msg 370 245 -1;
#X text 454 265 pitch \$1: define playback speed;
#X text 430 191 load: explicitely load file;
#X text 429 163 file \$1: load file at path \$1;
#X text 92 127 sgn_sampler~ - HELP FILE;
#X obj 196 447 sgn_sampler~;
#X text 446 482 reset: ???;
#X obj 276 530 iemlib/unsig~ 50;
#X obj 279 549 hsl 60 15 0 1 0 0 empty empty empty -2 -8 0 10 -262144
-1 -1 5900 1;
#X text 256 572 middle outlet: bang on finished loading file;
#X text 119 598 left outlet: audio signal;
#X text 284 514 right outlet: phase/sample-position;
#X text 126 356 1: start playback;
#X text 127 374 0: stop playback;
#X text 74 450 bang acts as 1;
#X connect 1 0 2 0;
#X connect 2 0 26 0;
#X connect 3 0 41 1;
#X connect 4 0 3 0;
#X connect 5 0 6 0;
#X connect 6 0 41 1;
#X connect 7 0 41 1;
#X connect 8 0 13 0;
#X connect 9 0 11 0;
#X connect 9 0 24 0;
#X connect 10 0 12 0;
#X connect 10 0 25 0;
#X connect 11 0 41 1;
#X connect 12 0 41 1;
#X connect 13 0 41 1;
#X connect 14 0 27 1;
#X connect 15 0 41 0;
#X connect 16 0 41 0;
#X connect 17 0 41 1;
#X connect 19 0 8 0;
#X connect 20 0 8 0;
#X connect 21 0 8 0;
#X connect 22 0 16 0;
#X connect 23 0 16 0;
#X connect 24 0 9 0;
#X connect 25 0 10 0;
#X connect 26 0 41 1;
#X connect 27 0 0 0;
#X connect 27 0 0 1;
#X connect 36 0 8 0;
#X connect 41 0 27 0;
#X connect 41 1 18 0;
#X connect 41 2 43 0;
#X connect 43 0 44 0;
