#N canvas 1319 515 488 433 10;
#N canvas 1194 267 667 708 fileloading 1;
#X obj 106 328 soundfiler;
#X obj 152 384 \$0;
#X obj 106 272 pack s f;
#X obj 129 239 \$0;
#N canvas 2 87 450 300 (subpatch) 0;
#X array \$0-sample-array 7800 float 2;
#X coords 0 1 7800 -1 200 140 1;
#X restore 398 127 graph;
#X obj 145 157 symbol;
#X obj 106 202 t s b b;
#X obj 106 356 t b f b;
#X msg 102 466 1;
#X msg 237 219 0;
#X obj 106 178 symbol;
#X obj 106 61 r \$0-load-trigger;
#X obj 237 239 s \$0-ready;
#X text 270 220 signal;
#X msg 106 301 read -resize \$1 \$2-sample-array;
#X text 175 274 format command for soundfiler;
#X obj 102 486 s \$0-ready;
#X obj 129 442 s \$0-number-of-samples;
#X msg 152 404 \; \$1-sample-array normalize;
#X obj 70 396 t b b;
#X msg 70 496 0;
#X obj 70 516 s \$0-file-new;
#X obj 106 111 sel 0;
#X text 48 138 trigger on;
#X obj 76 64 bng 15 250 50 0 empty empty empty 17 7 0 10 -262144 -1
-1;
#X obj 106 156 b;
#X msg 76 84 1;
#X obj 145 137 r \$0-file-staged;
#X text 170 110 this value holds;
#X text 170 123 the file to load next;
#X connect 0 0 7 0;
#X connect 1 0 18 0;
#X connect 2 0 14 0;
#X connect 3 0 2 1;
#X connect 5 0 10 1;
#X connect 6 0 2 0;
#X connect 6 1 3 0;
#X connect 6 2 9 0;
#X connect 7 0 19 0;
#X connect 7 1 17 0;
#X connect 7 2 1 0;
#X connect 8 0 16 0;
#X connect 9 0 12 0;
#X connect 10 0 6 0;
#X connect 11 0 22 0;
#X connect 14 0 0 0;
#X connect 19 0 20 0;
#X connect 19 1 8 0;
#X connect 20 0 21 0;
#X connect 22 1 25 0;
#X connect 24 0 26 0;
#X connect 25 0 10 0;
#X connect 26 0 22 0;
#X connect 27 0 5 0;
#X restore 54 212 pd fileloading;
#X obj 173 66 inlet ctl-in;
#N canvas 573 233 531 583 param-parse 0;
#X obj 33 214 s \$0-trigger-set;
#X obj 298 147 param \$0 left;
#X obj 298 169 param \$0 right;
#X obj 298 191 param \$0 pitch;
#X obj 298 213 param \$0 reverse;
#X obj 298 235 param \$0 loop;
#X obj 298 257 param \$0 file;
#X obj 298 279 param \$0 load;
#X obj 298 301 param \$0 reset;
#X obj 33 102 inlet;
#X obj 298 114 inlet ctl-in;
#X obj 298 339 outlet ctl-out;
#X text 19 252 every float != 0 counts as a trigger;
#X obj 33 157 sel 0;
#X msg 65 185 1;
#X obj 33 130 route float bang;
#X connect 1 0 2 0;
#X connect 2 0 3 0;
#X connect 3 0 4 0;
#X connect 4 0 5 0;
#X connect 5 0 6 0;
#X connect 6 0 7 0;
#X connect 7 0 8 0;
#X connect 8 0 11 0;
#X connect 9 0 15 0;
#X connect 10 0 1 0;
#X connect 13 0 0 0;
#X connect 13 1 14 0;
#X connect 14 0 0 0;
#X connect 15 0 13 0;
#X connect 15 1 14 0;
#X restore 68 93 pd param-parse;
#N canvas 519 116 480 485 dsp 0;
#X obj 176 344 outlet~;
#X obj 173 77 r \$0-play-trigger;
#N canvas 1227 123 628 868 player~ 0;
#X obj 117 15 inlet;
#X obj 168 15 inlet;
#X obj 219 15 inlet;
#X obj 204 787 outlet~;
#X obj 215 522 s /utz/\$1/position;
#X obj 142 255 r \$0-difference;
#X obj 143 384 r \$0-left-set;
#X msg 143 405 \$1 20;
#X msg 142 278 \$1 20;
#X obj 117 43 tof/phasorshot~;
#X obj 258 69 r \$0-loop-set;
#X obj 219 89 spigot;
#X obj 219 158 spigot;
#X obj 215 494 iemlib/unsig~ 50;
#X obj 143 580 r \$0-number-of-samples;
#X text 306 675 play back sample;
#X obj 118 478 +~ 0;
#X obj 117 351 *~ 1;
#X obj 181 302 r \$0-play-trigger;
#X obj 182 429 r \$0-play-trigger;
#X text 338 494 send out current position;
#X text 201 407 add left value as offset;
#X text 201 277 scale source to reach all samples in window;
#X obj 258 115 r \$0-play-trigger;
#X obj 258 137 == 0;
#X text 32 495 index ---->;
#X obj 117 671 tabread4~ \$0-sample-array;
#X obj 142 301 line;
#X obj 142 323 spigot;
#X obj 143 428 line;
#X obj 143 450 spigot;
#X text 189 323 prevent audio glitches on changing values;
#X text 194 450 prevent audio glitches on changing values;
#X text 192 225 end loop if stopped pressing;
#X text 227 44 <-- seeks from 0 to 1 with specified frequency;
#X obj 219 201 s \$0-play-trigger;
#X msg 219 179 0;
#X floatatom 168 511 5 0 0 0 - - -, f 5;
#X obj 185 700 r \$0-play-trigger;
#X text 310 700 prevent audio glitches on fileload;
#X obj 116 751 unauthorized/spigot~;
#X floatatom 154 597 5 0 0 0 - - -, f 5;
#X obj 118 608 *~ 1;
#X obj 185 721 > 0;
#X connect 0 0 9 0;
#X connect 1 0 9 1;
#X connect 2 0 9 2;
#X connect 5 0 8 0;
#X connect 6 0 7 0;
#X connect 7 0 29 0;
#X connect 8 0 27 0;
#X connect 9 0 17 0;
#X connect 9 1 11 0;
#X connect 9 2 11 0;
#X connect 10 0 11 1;
#X connect 11 0 12 0;
#X connect 12 0 36 0;
#X connect 13 0 4 0;
#X connect 13 0 37 0;
#X connect 14 0 41 0;
#X connect 14 0 42 1;
#X connect 16 0 13 0;
#X connect 16 0 42 0;
#X connect 17 0 16 0;
#X connect 18 0 28 1;
#X connect 19 0 30 1;
#X connect 23 0 24 0;
#X connect 24 0 12 1;
#X connect 26 0 40 0;
#X connect 27 0 28 0;
#X connect 28 0 17 1;
#X connect 29 0 30 0;
#X connect 30 0 16 1;
#X connect 36 0 35 0;
#X connect 38 0 43 0;
#X connect 40 1 3 0;
#X connect 42 0 26 0;
#X connect 43 0 40 1;
#X restore 176 316 pd player~;
#N canvas 879 158 450 300 loop-trigger 0;
#X obj 163 83 inlet;
#X obj 163 217 outlet;
#X obj 181 141 r \$0-loop-set;
#X obj 163 189 spigot;
#X obj 163 161 f;
#X obj 163 111 t b f;
#X connect 0 0 5 0;
#X connect 2 0 4 0;
#X connect 3 0 1 0;
#X connect 4 0 3 0;
#X connect 5 0 4 0;
#X connect 5 1 3 1;
#X restore 243 288 pd loop-trigger;
#N canvas 2 87 450 300 reverse-trigger 0;
#X obj 104 45 inlet;
#X obj 104 190 outlet;
#X obj 136 151 < 0;
#X text 157 172 start at the end when in reverse;
#X obj 145 121 r \$0-duration;
#X obj 104 70 sel 0;
#X obj 104 168 f;
#X obj 104 103 t b b;
#X connect 0 0 5 0;
#X connect 2 0 6 1;
#X connect 4 0 2 0;
#X connect 5 1 7 0;
#X connect 6 0 1 0;
#X connect 7 0 6 0;
#X connect 7 1 2 0;
#X restore 209 260 pd reverse-trigger;
#N canvas 508 185 502 413 trigger-hold 0;
#X obj 150 109 inlet;
#X obj 150 268 outlet;
#X obj 237 109 r \$0-duration;
#X obj 237 129 sel 0;
#X msg 237 149 0;
#X obj 269 149 expr 1000 / $f1;
#X text 279 130 time2frequency;
#X obj 150 239 spigot;
#X obj 150 216 f;
#X obj 150 154 t f f;
#X obj 118 175 sel 0;
#X text 80 134 just trigger ons;
#X floatatom 228 183 5 0 0 0 - - -, f 5;
#X text 265 184 <--- loop frequency;
#X obj 150 195 b;
#X connect 0 0 9 0;
#X connect 2 0 3 0;
#X connect 3 0 4 0;
#X connect 3 1 5 0;
#X connect 4 0 12 0;
#X connect 5 0 12 0;
#X connect 7 0 1 0;
#X connect 8 0 7 0;
#X connect 9 0 10 0;
#X connect 9 1 7 1;
#X connect 10 1 14 0;
#X connect 12 0 8 1;
#X connect 12 0 8 0;
#X connect 14 0 8 0;
#X restore 176 232 pd trigger-hold;
#X obj 173 121 tgl 15 0 empty empty empty 17 7 0 10 -262144 -1 -1 1
1;
#X obj 173 152 t f f f f;
#N canvas 2 87 450 300 stop 0;
#X obj 152 81 inlet;
#X obj 152 103 sel 0;
#X msg 152 125 0;
#X obj 152 147 outlet;
#X connect 0 0 1 0;
#X connect 1 0 2 0;
#X connect 2 0 3 0;
#X restore 152 208 pd stop;
#X connect 1 0 6 0;
#X connect 2 0 0 0;
#X connect 3 0 2 2;
#X connect 4 0 2 1;
#X connect 5 0 2 0;
#X connect 6 0 7 0;
#X connect 7 0 8 0;
#X connect 7 1 5 0;
#X connect 7 2 4 0;
#X connect 7 3 3 0;
#X connect 8 0 2 0;
#X connect 8 0 2 1;
#X connect 8 0 2 2;
#X restore 54 272 pd dsp;
#X obj 54 300 outlet~ signal-out;
#N canvas 421 557 442 372 init 0;
#X msg 163 244 1;
#X msg 145 284 0;
#X msg 182 204 1;
#X msg 200 164 0;
#X msg 219 124 0;
#X obj 145 38 loadbang;
#X obj 159 68 r \$0-reset-set;
#X obj 145 304 s \$0-left-set;
#X obj 163 264 s \$0-right-set;
#X obj 182 224 s \$0-pitch-set;
#X obj 219 144 s \$0-reverse-set;
#X obj 200 184 s \$0-loop-set;
#X obj 145 99 t b b b b b;
#X connect 0 0 8 0;
#X connect 1 0 7 0;
#X connect 2 0 9 0;
#X connect 3 0 11 0;
#X connect 4 0 10 0;
#X connect 5 0 12 0;
#X connect 6 0 12 0;
#X connect 12 0 1 0;
#X connect 12 1 0 0;
#X connect 12 2 2 0;
#X connect 12 3 3 0;
#X connect 12 4 4 0;
#X restore 380 63 pd init;
#X obj 231 283 outlet ready;
#X text 219 304 file loading finished;
#X obj 231 255 r \$0-ready;
#N canvas 1112 272 643 467 window 0;
#X text 237 75 samplerate 441000kHz !;
#X obj 124 48 r \$0-number-of-samples;
#X obj 124 76 expr $f1 / 44.1;
#X obj 174 113 r \$0-difference;
#X obj 138 147 *;
#X obj 124 113 t f f;
#X floatatom 124 176 5 0 0 0 - - -, f 5;
#X floatatom 124 394 5 0 0 0 - - -, f 5;
#X obj 139 218 r \$0-pitch-set;
#X obj 139 240 t b f;
#X obj 154 309 t b f;
#X obj 154 281 r \$0-reverse-set;
#X obj 124 373 * 1;
#X obj 181 336 sel 0;
#X msg 181 356 1;
#X msg 208 356 -1;
#X obj 124 421 s \$0-duration;
#X text 160 176 duration of subsample;
#X obj 427 128 t b f;
#X obj 441 182 -;
#X floatatom 417 158 5 0 0 0 - - -, f 5;
#X obj 441 210 s \$0-difference;
#X obj 417 80 r \$0-right-set;
#X obj 427 100 r \$0-left-set;
#X text 160 393 pitched duration in ms;
#X text 131 4 handles time \, i.e. calculates phasor frequency out
of the number of samples and the set boundaries;
#X obj 124 263 / 1;
#X connect 1 0 2 0;
#X connect 2 0 5 0;
#X connect 3 0 4 0;
#X connect 4 0 6 0;
#X connect 5 0 6 0;
#X connect 5 1 4 1;
#X connect 6 0 26 0;
#X connect 7 0 16 0;
#X connect 8 0 9 0;
#X connect 9 0 26 0;
#X connect 9 1 26 1;
#X connect 10 0 12 0;
#X connect 10 1 13 0;
#X connect 11 0 10 0;
#X connect 12 0 7 0;
#X connect 13 0 14 0;
#X connect 13 1 15 0;
#X connect 14 0 12 1;
#X connect 15 0 12 1;
#X connect 18 0 20 0;
#X connect 18 1 19 1;
#X connect 19 0 21 0;
#X connect 20 0 19 0;
#X connect 22 0 20 0;
#X connect 23 0 18 0;
#X connect 26 0 12 0;
#X restore 54 232 pd window;
#X obj 58 66 inlet trigger;
#N canvas 1293 269 615 519 triggering 0;
#X obj 50 80 r \$0-trigger-set;
#X obj 50 339 s \$0-play-trigger;
#X obj 122 193 r \$0-file-new;
#X obj 89 290 r \$0-ready;
#X obj 73 210 spigot;
#X text 81 229 load new file if necassary;
#X msg 96 128 0;
#X obj 96 149 s \$0-play-trigger;
#X obj 50 108 t f b b;
#X obj 338 66 r \$0-file-set;
#X text 391 164 set flag for new file;
#X msg 361 163 1;
#X obj 361 184 s \$0-file-new;
#X obj 384 115 s \$0-file-staged;
#X text 371 132 load path in staged-buffer;
#X obj 353 423 s \$0-load-trigger;
#X obj 353 381 r \$0-load-set;
#X obj 338 285 spigot;
#X obj 377 245 r \$0-play-trigger;
#X obj 377 265 == 0;
#X obj 338 337 s \$0-load-trigger;
#X text 224 356 interpret explicit load request as force;
#X msg 338 312 1;
#X text 394 285 if nothing is played;
#X text 443 271 load new file;
#X obj 338 94 t b b a;
#X msg 353 402 1;
#X obj 50 311 spigot;
#X text 97 312 drop if not ready;
#X connect 0 0 8 0;
#X connect 2 0 4 1;
#X connect 3 0 27 1;
#X connect 4 0 22 0;
#X connect 6 0 7 0;
#X connect 8 0 27 0;
#X connect 8 1 4 0;
#X connect 8 2 6 0;
#X connect 9 0 25 0;
#X connect 11 0 12 0;
#X connect 16 0 26 0;
#X connect 17 0 22 0;
#X connect 18 0 19 0;
#X connect 19 0 17 1;
#X connect 22 0 20 0;
#X connect 25 0 17 0;
#X connect 25 1 11 0;
#X connect 25 2 13 0;
#X connect 26 0 15 0;
#X connect 27 0 1 0;
#X restore 54 174 pd triggering;
#X connect 1 0 2 1;
#X connect 3 0 4 0;
#X connect 8 0 6 0;
#X connect 10 0 2 0;
