#N canvas 519 87 445 236 10;
#N canvas 717 87 1165 989 UI 0;
#X obj 10 -3 tgl 15 0 $dspStatusOut $dspStatusIn dsp 17 7 0 10 -262144
-1 -1 1 1;
#X obj 94 -7 kollabs/ds_gui utz;
#X obj 834 -7 gui_master;
#X obj -1 281 gui_sampler-control sampler5;
#X obj 275 -7 kollabs/midi_in_gui utz;
#X obj 291 480 gui_sampler-control sampler2;
#X obj 583 480 gui_sampler-control sampler3;
#X obj 875 480 gui_sampler-control sampler4;
#X obj 875 281 gui_sampler-control sampler8;
#X obj 583 281 gui_sampler-control sampler7;
#X obj 291 281 gui_sampler-control sampler6;
#N canvas 525 350 450 300 mpk 0;
#X obj 51 38 kollabs/midi_in_gui mpk;
#X restore 17 28 pd mpk;
#X obj -1 480 gui_sampler-control sampler1;
#X restore 44 51 pd UI;
#N canvas 274 199 444 266 MIDI 0;
#N canvas 423 699 450 300 pgm2preset 0;
#X obj 38 42 pgmin;
#X obj 38 90 - 1;
#X obj 38 117 %;
#X obj 38 145 abs;
#X text 66 144 preset number is positive;
#X obj 38 173 + 1;
#X text 72 171 presets begin with 1;
#X obj 38 200 s /ds/utz/scene;
#X obj 63 90 r /ds/utz/scene/maximum;
#X connect 0 0 1 0;
#X connect 1 0 2 0;
#X connect 2 0 3 0;
#X connect 3 0 5 0;
#X connect 5 0 7 0;
#X connect 8 0 2 1;
#X restore 78 108 pd pgm2preset;
#N canvas 998 659 412 300 note2plays 0;
#X obj 34 226 midi2play 2 36 multimelody;
#X obj 34 196 midi2play 2 51 sampler1;
#X obj 34 176 midi2play 2 50 sampler2;
#X obj 34 56 midi2play 2 44 sampler3;
#X obj 34 76 midi2play 2 45 sampler4;
#X obj 34 96 midi2play 2 46 sampler5;
#X obj 34 116 midi2play 2 47 sampler6;
#X obj 34 136 midi2play 2 48 sampler7;
#X obj 34 156 midi2play 2 49 sampler8;
#X restore 85 132 pd note2plays;
#X obj 71 5 kollabs/midi_in utz;
#X obj 71 58 print MIDI;
#N canvas 476 459 479 200 ctl2pitch 0;
#X obj 40 17 kollabs/midi_r utz /utz/sampler8/pitch ctl 10 2 1.5 0.3
;
#X obj 40 37 kollabs/midi_r utz /utz/sampler7/pitch ctl 11 2 1.5 0.3
;
#X obj 40 57 kollabs/midi_r utz /utz/sampler6/pitch ctl 12 2 1.5 0.3
;
#X obj 40 77 kollabs/midi_r utz /utz/sampler5/pitch ctl 13 2 1.5 0.3
;
#X obj 40 97 kollabs/midi_r utz /utz/sampler4/pitch ctl 14 2 1.5 0.3
;
#X obj 40 117 kollabs/midi_r utz /utz/sampler3/pitch ctl 15 2 1.5 0.3
;
#X restore 102 173 pd ctl2pitch;
#N canvas 2 87 429 226 mpkMiniAdapter 0;
#N canvas 2 452 450 300 ctl2vol 0;
#X obj 41 108 kollabs/midi_r utz /utz/sampler4/volume ctl 4 17;
#X obj 41 128 kollabs/midi_r utz /utz/sampler5/volume ctl 5 17;
#X obj 41 148 kollabs/midi_r utz /utz/sampler6/volume ctl 6 17;
#X obj 40 188 kollabs/midi_r utz /utz/sampler8/volume ctl 8 17;
#X obj 41 88 kollabs/midi_r utz /utz/sampler3/volume ctl 3 17;
#X obj 41 68 kollabs/midi_r utz /utz/sampler2/volume ctl 2 17;
#X obj 41 48 kollabs/midi_r utz /utz/sampler1/volume ctl 1 17;
#X obj 41 168 #kollabs/midi_r utz /utz/sampler7/volume ctl 7 17;
#X obj 40 227 kollabs/midi_r utz /utz/sampler7/pitch ctl 7 17 1.5 0.3
;
#X restore 107 98 pd ctl2vol;
#N canvas 599 420 450 300 padNotesAdapter 0;
#X obj 73 93 kollabs/midi_in mpk;
#X obj 73 125 route note;
#X msg 73 147 \$3 \$2 \$1;
#X obj 73 244 s /midi/utz/in;
#X msg 73 210 note \$2 \$1 2;
#X obj 73 169 route 26;
#X text 44 49 it's 26 because it's the 2nd device [16 + 10];
#X text 44 34 all midi pad note input from channel 26 -> channel 2
;
#X connect 0 0 1 0;
#X connect 1 0 2 0;
#X connect 2 0 5 0;
#X connect 4 0 3 0;
#X connect 5 0 4 0;
#X restore 107 72 pd padNotesAdapter;
#X restore 251 74 pd mpkMiniAdapter;
#X connect 2 0 3 0;
#X restore 93 52 pd MIDI;
#N canvas 407 232 433 300 init 0;
#N canvas 2 87 497 268 dsp 0;
#X obj 41 31 loadbang;
#X msg 41 57 1;
#X msg 41 181 \; pd dsp \$1;
#X obj 41 141 r $dspStatusOut;
#X obj 41 107 s $dspStatusIn;
#X obj 41 81 delay 100;
#X text 106 74 // hack to prevent switching on dsp // before soundcard
is acquired;
#X connect 0 0 1 0;
#X connect 1 0 5 0;
#X connect 3 0 2 0;
#X connect 5 0 4 0;
#X restore 35 27 pd dsp;
#N canvas 1268 357 487 222 multimelody 0;
#X obj 61 18 loadbang;
#X obj 61 79 t b b b;
#X msg 218 96 3000;
#X obj 191 116 delay;
#X text 250 96 playing time;
#X obj 61 47 delay 1000;
#X obj 61 158 s /utz/multimelody;
#X msg 61 136 start;
#X msg 191 136 stop;
#X connect 0 0 5 0;
#X connect 1 0 7 0;
#X connect 1 1 3 0;
#X connect 1 2 2 0;
#X connect 2 0 3 1;
#X connect 3 0 8 0;
#X connect 5 0 1 0;
#X connect 7 0 6 0;
#X connect 8 0 6 0;
#X restore 35 84 pd multimelody;
#N canvas 684 333 450 300 kollabs 0;
#X obj 111 -128 loadbang;
#X obj 111 -72 t b b;
#X msg 111 24 \; /ds/utz/scene 1;
#X obj 111 -4 delay 500;
#X msg 138 -44 \; /ds/utz/loadfile ../preset.txt;
#X obj 200 -98 kollabs/ds_logic utz;
#X obj 111 -100 del 150;
#X connect 0 0 6 0;
#X connect 1 0 3 0;
#X connect 1 1 4 0;
#X connect 3 0 2 0;
#X connect 6 0 1 0;
#X restore 35 54 pd kollabs;
#X restore 44 13 pd init;
#N canvas 615 219 450 300 control-processing 0;
#X obj 40 44 ctr_tap-metronome 51 2 sampler1;
#X restore 44 91 pd control-processing;
#N canvas 431 490 463 427 DSP 1;
#N canvas 1118 551 450 300 master 0;
#X obj 44 100 dac~ 1 2;
#X obj 40 211 kollabs/ds_reg utz /utz/master/volume;
#X text 44 229 saving master volume for each preset;
#X obj 44 44 catch~ /utz/master/out;
#X obj 44 72 env_volume~ master;
#X connect 3 0 4 0;
#X connect 4 0 0 0;
#X restore 160 332 pd master;
#N canvas 2 87 450 300 snaredrum 0;
#X obj 129 182 throw~ /utz/master/out;
#X text 123 205 send to master audio out;
#X obj 129 143 inst_sampler snaredrum;
#X connect 2 0 0 0;
#X restore 158 133 pd snaredrum;
#N canvas 2 87 450 300 cymbal 0;
#X obj 129 182 throw~ /utz/master/out;
#X text 123 205 send to master audio out;
#X obj 129 143 inst_sampler cymbal;
#X connect 2 0 0 0;
#X restore 158 153 pd cymbal;
#N canvas 2 87 450 300 percussion 0;
#X obj 129 182 throw~ /utz/master/out;
#X text 123 205 send to master audio out;
#X obj 129 143 inst_sampler percussion;
#X connect 2 0 0 0;
#X restore 158 173 pd percussion;
#N canvas 2 87 450 300 animal 0;
#X obj 129 172 throw~ /utz/master/out;
#X text 123 195 send to master audio out;
#X obj 129 133 inst_sampler animal;
#X connect 2 0 0 0;
#X restore 159 193 pd animal;
#N canvas 2 87 450 300 tone 0;
#X obj 129 172 throw~ /utz/master/out;
#X text 123 195 send to master audio out;
#X obj 130 133 inst_sampler tone;
#X connect 2 0 0 0;
#X restore 159 213 pd tone;
#N canvas 2 87 450 300 voice 0;
#X obj 129 192 throw~ /utz/master/out;
#X text 123 215 send to master audio out;
#X obj 129 153 inst_sampler voice;
#X connect 2 0 0 0;
#X restore 159 233 pd voice;
#N canvas 2 87 450 300 noise 0;
#X obj 129 182 throw~ /utz/master/out;
#X text 123 205 send to master audio out;
#X obj 129 144 inst_sampler noise;
#X connect 2 0 0 0;
#X restore 159 253 pd noise;
#N canvas 2 87 450 300 multimelody 0;
#X obj 129 222 throw~ /utz/master/out;
#X text 123 245 send to master audio out;
#X obj 129 183 inst_sampler bassdrum;
#X connect 2 0 0 0;
#X restore 159 63 pd multimelody;
#X text 340 134 note 51;
#X text 340 154 note 50;
#X text 340 174 note 49;
#X text 340 194 note 48;
#X text 340 214 note 47;
#X text 340 234 note 46;
#X text 340 254 note 45;
#X text 336 113 note 52;
#X text 269 64 intro theme + note 36;
#X obj 158 113 module_sampler bassdrum;
#X restore 42 132 pd DSP;
