#N canvas 1063 181 445 377 10;
#N canvas 1089 155 463 353 audio 0;
#X obj 29 64 cmpstn/multiMelody;
#X text 130 16 control messages;
#X obj 134 37 inlet control;
#X obj 30 296 outlet~;
#X obj 152 296 outlet;
#X text 132 319 control messages;
#X text 29 319 audio out;
#X obj 269 54 print ctrl-audio-in;
#X obj 29 92 inst_sampler sampler1;
#X obj 29 112 inst_sampler sampler2;
#X obj 29 132 inst_sampler sampler3;
#X obj 29 152 inst_sampler sampler4;
#X obj 29 172 inst_sampler sampler5;
#X obj 29 192 inst_sampler sampler6;
#X obj 29 212 inst_sampler sampler7;
#X obj 29 232 inst_sampler sampler8;
#X connect 0 0 8 0;
#X connect 0 1 8 1;
#X connect 2 0 0 1;
#X connect 2 0 7 0;
#X connect 8 0 9 0;
#X connect 8 1 9 1;
#X connect 9 0 10 0;
#X connect 9 1 10 1;
#X connect 10 0 11 0;
#X connect 10 1 11 1;
#X connect 11 0 12 0;
#X connect 11 1 12 1;
#X connect 12 0 13 0;
#X connect 12 1 13 1;
#X connect 13 0 14 0;
#X connect 13 1 14 1;
#X connect 14 0 15 0;
#X connect 14 1 15 1;
#X connect 15 0 3 0;
#X connect 15 1 4 0;
#X restore 44 257 pd audio;
#N canvas 1137 570 450 300 master 0;
#X obj 48 221 dac~ 1 2;
#X obj 234 209 outlet control;
#X obj 47 75 *~ 1;
#X obj 234 47 route master;
#X obj 68 47 r \$0-volume-set;
#X obj 68 117 r \$0-mute-set;
#X obj 47 19 inlet~;
#X obj 234 19 inlet;
#X obj 47 173 *~ 1;
#X obj 68 145 expr 1-$f1;
#X obj 234 153 s master-ctrl-out;
#X obj 303 75 s master-ctrl-out;
#X obj 234 180 r master-ctrl-out;
#X obj 234 105 utls/param \$0 volume;
#X obj 234 125 utls/param \$0 mute;
#X obj 50 -18 kollabs/ds_reg utz /utz/master/volume;
#X connect 2 0 8 0;
#X connect 3 0 13 0;
#X connect 3 1 11 0;
#X connect 4 0 2 1;
#X connect 5 0 9 0;
#X connect 6 0 2 0;
#X connect 7 0 3 0;
#X connect 8 0 0 0;
#X connect 8 0 0 1;
#X connect 9 0 8 1;
#X connect 12 0 1 0;
#X connect 13 0 14 0;
#X connect 14 0 10 0;
#X restore 44 284 pd master;
#X obj 44 312 print dropped;
#N canvas 959 87 956 989 UI 0;
#X obj 10 -3 tgl 15 0 $dspStatusOut $dspStatusIn dsp 17 7 0 10 -262144
-1 -1 1 1;
#X obj 94 -7 kollabs/ds_gui utz;
#X obj 834 -7 gui_master;
#X obj 228 220 gui_sampler-control sampler2;
#X obj -2 220 gui_sampler-control sampler1;
#X obj 458 220 gui_sampler-control sampler3;
#X obj 688 220 gui_sampler-control sampler4;
#X obj 688 370 gui_sampler-control sampler8;
#X obj 458 370 gui_sampler-control sampler7;
#X obj 228 370 gui_sampler-control sampler6;
#X obj -2 370 gui_sampler-control sampler5;
#X restore 114 81 pd UI;
#N canvas 1000 240 462 262 MIDI 0;
#X obj 48 165 outlet;
#X text 35 184 audio control output;
#X obj 48 55 inlet;
#X text 61 36 control inlet;
#N canvas 444 720 450 300 pgm2preset 0;
#X obj 38 155 outlet;
#X msg 38 98 preset \$1;
#X obj 38 42 pgmin;
#X obj 38 70 - 1;
#X connect 1 0 0 0;
#X connect 2 0 3 0;
#X connect 3 0 1 0;
#X restore 88 108 pd pgm2preset;
#N canvas 1356 152 450 300 note2inst 0;
#X obj 28 208 outlet;
#N canvas 721 800 233 273 midi2plays 0;
#X obj 34 253 outlet;
#X obj 34 16 inlet;
#X obj 34 226 midi2play multimelody 36;
#X obj 34 56 midi2play sampler1 44;
#X obj 34 76 midi2play sampler2 45;
#X obj 34 96 midi2play sampler3 46;
#X obj 34 196 midi2play sampler8 51;
#X obj 34 176 midi2play sampler7 50;
#X obj 34 156 midi2play sampler6 49;
#X obj 34 136 midi2play sampler5 48;
#X obj 34 116 midi2play sampler4 47;
#X connect 1 0 3 0;
#X connect 2 0 0 0;
#X connect 3 0 4 0;
#X connect 4 0 5 0;
#X connect 5 0 10 0;
#X connect 6 0 2 0;
#X connect 7 0 6 0;
#X connect 8 0 7 0;
#X connect 9 0 8 0;
#X connect 10 0 9 0;
#X restore 28 180 pd midi2plays;
#X obj 28 36 notein;
#X obj 28 64 pack f f;
#X msg 28 92 note \$1 \$2;
#X obj 81 136 gui/oneButtonTapMetro;
#X connect 1 0 0 0;
#X connect 2 0 3 0;
#X connect 2 1 3 1;
#X connect 3 0 4 0;
#X connect 4 0 1 0;
#X connect 4 0 5 0;
#X connect 5 0 1 0;
#X restore 98 128 pd note2inst;
#N canvas 1343 428 450 296 mididump 0;
#X obj 123 51 ctlin;
#X obj 123 107 pack f f;
#X obj 213 51 pgmin;
#X obj 213 79 - 1;
#X obj 123 79 swap;
#X obj 123 217 print midi-in;
#X msg 213 107 pgm \$1;
#X obj 33 51 notein;
#X obj 33 79 pack f f;
#X msg 33 107 note \$1 \$2;
#X msg 123 135 ctl \$1 \$2;
#X connect 0 0 4 0;
#X connect 0 1 4 1;
#X connect 1 0 10 0;
#X connect 2 0 3 0;
#X connect 3 0 6 0;
#X connect 4 0 1 0;
#X connect 4 1 1 1;
#X connect 6 0 5 0;
#X connect 7 0 8 0;
#X connect 7 1 8 1;
#X connect 8 0 9 0;
#X connect 9 0 5 0;
#X connect 10 0 5 0;
#X restore 219 169 pd mididump;
#N canvas 1422 151 450 300 ctl2vol 0;
#X obj 71 41 ctlin;
#X obj 71 241 outlet;
#X msg 98 163 set s\$2 volume \$1;
#X msg 71 211 s1 volume 0;
#X obj 98 135 pack f f;
#X obj 98 110 / 127;
#X obj 71 82 t b a;
#X connect 0 0 6 0;
#X connect 0 1 4 1;
#X connect 2 0 3 0;
#X connect 3 0 1 0;
#X connect 4 0 2 0;
#X connect 5 0 4 0;
#X connect 6 0 3 0;
#X connect 6 1 5 0;
#X restore 78 86 pd ctl2vol;
#X connect 2 0 0 0;
#X connect 4 0 0 0;
#X connect 5 0 0 0;
#X connect 7 0 0 0;
#X restore 44 81 pd MIDI;
#N canvas 119 344 433 300 init 0;
#N canvas 2 87 497 268 dsp 0;
#X obj 41 31 loadbang;
#X msg 41 57 1;
#X msg 41 181 \; pd dsp \$1;
#X obj 41 141 r $dspStatusOut;
#X obj 41 107 s $dspStatusIn;
#X obj 41 81 delay 100;
#X text 106 74 // hack to prevent switching on dsp // before soundcard
is acquired;
#X connect 0 0 1 0;
#X connect 1 0 5 0;
#X connect 3 0 2 0;
#X connect 5 0 4 0;
#X restore 145 -23 pd dsp;
#X obj 146 104 outlet;
#N canvas 632 587 450 300 master 0;
#X obj 32 63 loadbang;
#X msg 132 115 master volume 1;
#X msg 32 115 master mute 0;
#X obj 32 172 outlet;
#X connect 0 0 1 0;
#X connect 0 0 2 0;
#X connect 1 0 3 0;
#X connect 2 0 3 0;
#X restore 157 17 pd master;
#N canvas 1118 281 487 222 multimelody 0;
#X obj 61 18 loadbang;
#X msg 61 146 multimelody start;
#X obj 61 189 outlet;
#X obj 61 79 t b b b;
#X msg 218 96 3000;
#X obj 191 127 delay;
#X msg 191 146 multimelody stop;
#X text 250 96 playing time;
#X obj 61 47 delay 1000;
#X connect 0 0 8 0;
#X connect 1 0 2 0;
#X connect 3 0 1 0;
#X connect 3 1 5 0;
#X connect 3 2 4 0;
#X connect 4 0 5 1;
#X connect 5 0 6 0;
#X connect 6 0 2 0;
#X connect 8 0 3 0;
#X restore 167 37 pd multimelody;
#N canvas 703 352 450 300 preset 0;
#X obj 61 -168 loadbang;
#X obj 61 -112 t b b;
#X msg 88 -84 \; /ds/help/loadfile preset.txt;
#X msg 61 -16 \; /ds/utz/scene 1;
#X obj 61 -140 del 100;
#X obj 61 -44 delay 500;
#X msg 326 -132 preset 1;
#X obj 330 -84 outlet;
#X connect 0 0 4 0;
#X connect 0 0 6 0;
#X connect 1 0 5 0;
#X connect 1 1 2 0;
#X connect 4 0 1 0;
#X connect 5 0 3 0;
#X connect 6 0 7 0;
#X restore 146 -3 pd preset;
#X connect 2 0 1 0;
#X connect 3 0 1 0;
#X connect 4 0 1 0;
#X restore 44 13 pd init;
#N canvas 1247 145 450 300 preset 0;
#X obj 52 34 inlet;
#X obj 121 242 outlet;
#X obj 52 128 %;
#X obj 87 91 loadbang;
#X msg 87 111 8;
#X text 115 109 number of presets;
#X obj 52 62 route preset;
#X text 136 61 forward if unfit;
#X obj 52 186 s \$0-preset-set;
#X obj 52 156 abs;
#X text 80 155 preset number is positive;
#N canvas 656 189 1117 769 sampler 0;
#X obj 37 144 textfile;
#X msg 37 116 rewind;
#X obj 18 88 until;
#X obj 18 61 t b b b;
#X obj 120 -41 t b f;
#X obj 458 508 textfile;
#X obj 458 453 list prepend add;
#X obj 458 481 list trim;
#X msg 586 491 clear;
#X obj 439 242 t b b b;
#X text -6 624 saving preset based on SSAD by F. Barknecht // modified
by dr/2013 cornicis/2014;
#X obj 439 215 r \$0-safe-bang;
#X obj 458 423 list;
#X obj 458 277 t b b;
#X obj 577 406 pack s s s s s s s s;
#X obj 577 234 symbol;
#X obj 593 254 symbol;
#X obj 610 274 symbol;
#X obj 627 294 symbol;
#X obj 643 314 symbol;
#X obj 660 334 symbol;
#X obj 677 354 symbol;
#X obj 694 374 symbol;
#X obj 120 -61 r \$0-preset-set;
#X obj 577 178 route file;
#X obj 577 206 route 1 2 3 4 5 6 7 8;
#X obj 767 210 route 1 2 3 4 5 6 7 8;
#X obj 767 240 route file;
#X obj 767 143 t a a;
#X msg 872 250 \$1;
#X obj 767 269 symbol;
#X obj 872 278 expr if ($f1 > 8 \, 0 \, $f1) \;;
#X obj 577 153 r \$0-dump-set;
#X obj 769 299 cyclone/gate 8;
#X msg 147 108 read ../presets/samplerX8_0.txt;
#X msg 189 329 write ../presets/samplerX8_0.txt;
#X obj 151 172 print read samples;
#X obj 42 310 outlet;
#X obj 217 144 print presetfile;
#X msg 146 59 set read ../presets/samplerX8_\$1.txt;
#N canvas 631 175 722 497 sendfiles 0;
#X obj -370 -231 unpack s s s s s s s s;
#X obj -413 36 outlet;
#X obj -370 -259 inlet;
#X msg -546 -44 s1 file \$1;
#X msg -478 -23 s2 file \$1;
#X msg -406 -45 s3 file \$1;
#X msg -336 -23 s4 file \$1;
#X msg -266 -46 s5 file \$1;
#X msg -192 -23 s6 file \$1;
#X msg -127 -44 s7 file \$1;
#X msg -46 -22 s8 file \$1;
#X obj -400 -126 makefilename ../samples/%s;
#X obj -540 -186 makefilename ../samples/%s;
#X obj -481 -146 makefilename ../samples/%s;
#X obj -329 -96 makefilename ../samples/%s;
#X obj -265 -193 makefilename ../samples/%s;
#X obj -195 -163 makefilename ../samples/%s;
#X obj -125 -123 makefilename ../samples/%s;
#X obj -55 -93 makefilename ../samples/%s;
#X connect 0 0 12 0;
#X connect 0 1 13 0;
#X connect 0 2 11 0;
#X connect 0 3 14 0;
#X connect 0 4 15 0;
#X connect 0 5 16 0;
#X connect 0 6 17 0;
#X connect 0 7 18 0;
#X connect 2 0 0 0;
#X connect 3 0 1 0;
#X connect 4 0 1 0;
#X connect 5 0 1 0;
#X connect 6 0 1 0;
#X connect 7 0 1 0;
#X connect 8 0 1 0;
#X connect 9 0 1 0;
#X connect 10 0 1 0;
#X connect 11 0 5 0;
#X connect 12 0 3 0;
#X connect 13 0 4 0;
#X connect 14 0 6 0;
#X connect 15 0 7 0;
#X connect 16 0 8 0;
#X connect 17 0 9 0;
#X connect 18 0 10 0;
#X restore 43 231 pd sendfiles;
#X msg 189 242 set write ../presets/samplerX8_\$1.txt;
#X text 753 118 here comes the loaded filename;
#N canvas 96 557 696 469 envelope 0;
#X text 163 -6 envelope settings;
#X obj 17 -36 r \$0-preset-set;
#X obj 17 -8 route 0 1 2 3 4 5 6 7;
#X text 383 306 preset 0;
#X text 403 266 preset 1;
#X text 413 226 preset 2;
#X text 423 186 preset 3;
#X text 443 146 preset 4;
#X text 454 106 preset 5;
#X text 473 65 preset 6;
#X text 493 26 preset 7;
#X obj 17 361 outlet;
#X msg 109 60 s1 envelope 0 \, s2 envelope 0 \, s3 envelope 0 \, s4
envelope 0 \, s5 envelope 1 \, s6 envelope 1 \, s7 envelope 1 \, s8
envelope 1;
#X msg 47 220 s1 envelope 0 \, s2 envelope 0 \, s3 envelope 0 \, s4
envelope 0 \, s5 envelope 1 \, s6 envelope 1 \, s7 envelope 1 \, s8
envelope 1;
#X msg 93 100 s1 envelope 0 \, s2 envelope 0 \, s3 envelope 0 \, s4
envelope 0 \, s5 envelope 1 \, s6 envelope 1 \, s7 envelope 1 \, s8
envelope 1;
#X msg 63 180 s1 envelope 0 \, s2 envelope 0 \, s3 envelope 0 \, s4
envelope 0 \, s5 envelope 1 \, s6 envelope 1 \, s7 envelope 1 \, s8
envelope 1;
#X msg 32 260 s1 envelope 0 \, s2 envelope 0 \, s3 envelope 0 \, s4
envelope 0 \, s5 envelope 1 \, s6 envelope 1 \, s7 envelope 1 \, s8
envelope 1;
#X msg 17 300 s1 envelope 0 \, s2 envelope 0 \, s3 envelope 0 \, s4
envelope 0 \, s5 envelope 1 \, s6 envelope 1 \, s7 envelope 1 \, s8
envelope 0;
#X msg 124 20 s1 envelope 0 \, s2 envelope 0 \, s3 envelope 3 \, s4
envelope 0 \, s5 envelope 1 \, s6 envelope 1 \, s7 envelope 1 \, s8
envelope 1;
#X msg 78 140 s1 envelope 0 \, s2 envelope 0 \, s3 envelope 0 \, s4
envelope 0 \, s5 envelope 1 \, s6 envelope 1 \, s7 envelope 0 \, s8
envelope 1;
#X connect 1 0 2 0;
#X connect 2 0 17 0;
#X connect 2 1 16 0;
#X connect 2 2 13 0;
#X connect 2 3 15 0;
#X connect 2 4 19 0;
#X connect 2 5 14 0;
#X connect 2 6 12 0;
#X connect 2 7 18 0;
#X connect 12 0 11 0;
#X connect 13 0 11 0;
#X connect 14 0 11 0;
#X connect 15 0 11 0;
#X connect 16 0 11 0;
#X connect 17 0 11 0;
#X connect 18 0 11 0;
#X connect 19 0 11 0;
#X restore 101 286 pd envelope;
#N canvas 128 304 645 478 volumes 0;
#X text 173 4 envelope settings;
#X obj 27 -26 r \$0-preset-set;
#X obj 27 2 route 0 1 2 3 4 5 6 7;
#X text 393 386 preset 0;
#X text 413 336 preset 1;
#X text 423 286 preset 2;
#X text 433 236 preset 3;
#X text 453 186 preset 4;
#X text 464 136 preset 5;
#X text 483 85 preset 6;
#X text 503 36 preset 7;
#X obj 27 431 outlet;
#X msg 27 380 s1 volume 1 \, s2 volume 0.637 \, s3 volume 0.401 \,
s4 volume 0.401 \, s5 volume 0.44 \, s6 volume 0.425 \, s7 volume 0.527
\, s8 volume 0.362;
#X msg 42 331 s1 volume 1 \, s2 volume 0.889 \, s3 volume 0.433 \,
s4 volume 0.362 \, s5 volume 0.33 \, s6 volume 0.173 \, s7 volume 0.299
\, s8 volume 0.173;
#X msg 57 280 s1 volume 1 \, s2 volume 0.433 \, s3 volume 0.322 \,
s4 volume 0.44 \, s5 volume 0.275 \, s6 volume 0.251 \, s7 volume 0.322
\, s8 volume 0.212;
#X msg 73 230 s1 volume 0.651 \, s2 volume 0.393 \, s3 volume 0.212
\, s4 volume 0.259 \, s5 volume 0.519 \, s6 volume 0.251 \, s7 volume
0.322 \, s8 volume 0.519;
#X msg 88 180 s1 volume 0.795 \, s2 volume 0.409 \, s3 volume 0.267
\, s4 volume 0.37 \, s5 volume 0.401 \, s6 volume 0.346 \, s7 volume
0.338 \, s8 volume 0.275;
#X msg 103 130 s1 volume 0.385 \, s2 volume 0.496 \, s3 volume 0.244
\, s4 volume 0.307 \, s5 volume 0.322 \, s6 volume 0.346 \, s7 volume
0.346 \, s8 volume 0.291;
#X msg 119 80 s1 volume 0.614 \, s2 volume 0.314 \, s3 volume 0.204
\, s4 volume 0.236 \, s5 volume 0.267 \, s6 volume 0.85 \, s7 volume
0.259 \, s8 volume 0.22;
#X msg 134 30 s1 volume 0.614 \, s2 volume 0.33 \, s3 volume 0.062
\, s4 volume 0.503 \, s5 volume 0.362 \, s6 volume 0.244 \, s7 volume
0.338 \, s8 volume 0.22;
#X connect 1 0 2 0;
#X connect 2 0 12 0;
#X connect 2 1 13 0;
#X connect 2 2 14 0;
#X connect 2 3 15 0;
#X connect 2 4 16 0;
#X connect 2 5 17 0;
#X connect 2 6 18 0;
#X connect 2 7 19 0;
#X connect 12 0 11 0;
#X connect 13 0 11 0;
#X connect 14 0 11 0;
#X connect 15 0 11 0;
#X connect 16 0 11 0;
#X connect 17 0 11 0;
#X connect 18 0 11 0;
#X connect 19 0 11 0;
#X restore 92 263 pd volumes;
#X text 49 205 8 x filename from txt-file;
#X connect 0 0 36 0;
#X connect 0 0 40 0;
#X connect 0 1 2 1;
#X connect 1 0 0 0;
#X connect 2 0 0 0;
#X connect 3 0 2 0;
#X connect 3 1 1 0;
#X connect 3 2 34 0;
#X connect 4 0 3 0;
#X connect 4 1 41 0;
#X connect 4 1 39 0;
#X connect 6 0 7 0;
#X connect 7 0 5 0;
#X connect 8 0 5 0;
#X connect 9 0 35 0;
#X connect 9 1 13 0;
#X connect 9 2 8 0;
#X connect 11 0 9 0;
#X connect 12 0 6 0;
#X connect 13 0 12 0;
#X connect 13 1 14 0;
#X connect 14 0 12 1;
#X connect 15 0 14 0;
#X connect 16 0 14 1;
#X connect 17 0 14 2;
#X connect 18 0 14 3;
#X connect 19 0 14 4;
#X connect 20 0 14 5;
#X connect 21 0 14 6;
#X connect 22 0 14 7;
#X connect 23 0 4 0;
#X connect 24 0 25 0;
#X connect 25 0 15 0;
#X connect 25 1 16 0;
#X connect 25 2 17 0;
#X connect 25 3 18 0;
#X connect 25 4 19 0;
#X connect 25 5 20 0;
#X connect 25 6 21 0;
#X connect 25 7 22 0;
#X connect 26 0 27 0;
#X connect 26 1 27 0;
#X connect 26 2 27 0;
#X connect 26 3 27 0;
#X connect 26 4 27 0;
#X connect 26 5 27 0;
#X connect 26 6 27 0;
#X connect 26 7 27 0;
#X connect 27 0 30 0;
#X connect 28 0 26 0;
#X connect 28 1 29 0;
#X connect 29 0 31 0;
#X connect 30 0 33 1;
#X connect 31 0 33 0;
#X connect 32 0 24 0;
#X connect 33 0 14 0;
#X connect 33 1 14 1;
#X connect 33 2 14 2;
#X connect 33 3 14 3;
#X connect 33 4 14 4;
#X connect 33 5 14 5;
#X connect 33 6 14 6;
#X connect 33 7 14 7;
#X connect 34 0 0 0;
#X connect 34 0 38 0;
#X connect 35 0 5 0;
#X connect 39 0 34 0;
#X connect 40 0 37 0;
#X connect 41 0 35 0;
#X connect 43 0 37 0;
#X connect 44 0 37 0;
#X restore 280 136 pd sampler;
#N canvas 1083 466 515 325 volume-listener 0;
#X obj 89 5 inlet;
#X obj 89 109 route volume;
#X msg 89 81 \$2 \$1 \$3;
#X obj 89 33 list;
#X obj 89 143 route s1 s2 s3 s4 s5 s6 s7 s8;
#X floatatom 89 171 5 0 0 0 - - -;
#X floatatom 110 191 5 0 0 0 - - -;
#X floatatom 131 211 5 0 0 0 - - -;
#X floatatom 153 232 5 0 0 0 - - -;
#X floatatom 174 171 5 0 0 0 - - -;
#X floatatom 195 191 5 0 0 0 - - -;
#X floatatom 217 211 5 0 0 0 - - -;
#X floatatom 238 231 5 0 0 0 - - -;
#X obj 89 56 list append 0;
#X text 184 57 prevent "missing argument\$3"-warning;
#X connect 0 0 3 0;
#X connect 1 0 4 0;
#X connect 2 0 1 0;
#X connect 3 0 13 0;
#X connect 4 0 5 0;
#X connect 4 1 6 0;
#X connect 4 2 7 0;
#X connect 4 3 8 0;
#X connect 4 4 9 0;
#X connect 4 5 10 0;
#X connect 4 6 11 0;
#X connect 4 7 12 0;
#X connect 13 0 2 0;
#X restore 280 51 pd volume-listener;
#N canvas 1001 178 426 275 kollabs 0;
#X obj 42 -244 kollabs/ds_logic utz;
#X restore 157 15 pd kollabs;
#X connect 0 0 6 0;
#X connect 0 0 12 0;
#X connect 2 0 9 0;
#X connect 3 0 4 0;
#X connect 4 0 2 1;
#X connect 6 0 2 0;
#X connect 6 1 1 0;
#X connect 9 0 8 0;
#X connect 11 0 1 0;
#X restore 44 177 pd preset;
#X connect 0 0 1 0;
#X connect 0 1 1 1;
#X connect 1 0 2 0;
#X connect 4 0 6 0;
#X connect 5 0 4 0;
#X connect 6 0 0 0;
