#N canvas 577 266 445 313 10;
#N canvas 1127 193 612 718 audio 0;
#X obj 29 132 gui/samplerX8;
#X obj 104 160 cmpstn/multiMelody;
#X text 25 46 control messages;
#X obj 29 67 inlet control;
#X obj 30 376 outlet~;
#X obj 30 216 throw~ \$0-out;
#X obj 104 188 throw~ \$0-out;
#X obj 30 348 catch~ \$0-out;
#X obj 209 271 outlet control;
#X connect 0 0 5 0;
#X connect 0 2 1 0;
#X connect 1 0 6 0;
#X connect 1 1 8 0;
#X connect 3 0 0 0;
#X connect 7 0 4 0;
#X restore 44 197 pd audio;
#N canvas 1144 577 450 300 master 0;
#X obj 48 231 dac~ 1 2;
#X obj 234 219 outlet control;
#X obj 47 85 *~ 1;
#X obj 234 115 utls/param \$0 volume;
#X obj 234 57 route master;
#X obj 68 57 r \$0-volume-set;
#X obj 234 135 utls/param \$0 mute;
#X obj 68 127 r \$0-mute-set;
#X obj 47 29 inlet~;
#X obj 234 29 inlet;
#X obj 47 183 *~ 1;
#X obj 68 155 expr 1-$f1;
#X obj 234 163 s master-ctrl-out;
#X obj 303 85 s master-ctrl-out;
#X obj 234 190 r master-ctrl-out;
#X connect 2 0 10 0;
#X connect 3 0 6 0;
#X connect 4 0 3 0;
#X connect 4 1 13 0;
#X connect 5 0 2 1;
#X connect 6 0 12 0;
#X connect 7 0 11 0;
#X connect 8 0 2 0;
#X connect 9 0 4 0;
#X connect 10 0 0 0;
#X connect 10 0 0 1;
#X connect 11 0 10 1;
#X connect 14 0 1 0;
#X restore 44 224 pd master;
#X obj 44 252 print dropped;
#N canvas 330 157 965 682 UI 0;
#X obj 111 191 outlet control;
#X obj 46 -7 tgl 15 0 empty empty empty 17 7 0 10 -262144 -1 -1 0 1
;
#X text 71 -8 master mute;
#X msg 46 37 master mute \$1;
#X obj 175 -29 vsl 15 128 0 1 0 0 empty empty empty 0 -9 0 10 -262144
-1 -1 0 1;
#X msg 175 131 master volume \$1;
#X floatatom 359 9 5 0 0 0 global_bpm - -;
#X obj 359 -18 r \$0-tapBPM;
#X obj 359 36 s \$0-bpm;
#X obj 6 -34 tgl 15 0 $dspStatusOut $dspStatusIn dsp 17 7 0 10 -262144
-1 -1 1 1;
#X obj -1 134 inlet;
#X text -4 114 control;
#X obj 470 40 gui/sampler8-control;
#X obj 470 69 gui/mixer8-control;
#X msg 465 99 \$2 \$1 \$3;
#X obj 466 130 cyclone/prepend sampler;
#X obj 637 -15 hradio 15 1 0 16 empty empty empty 0 -8 0 10 -262144
-1 -1 0;
#X msg 636 19 preset \$1;
#X connect 1 0 3 0;
#X connect 3 0 0 0;
#X connect 4 0 5 0;
#X connect 5 0 0 0;
#X connect 6 0 8 0;
#X connect 7 0 6 0;
#X connect 10 0 0 0;
#X connect 12 0 0 0;
#X connect 13 0 14 0;
#X connect 14 0 15 0;
#X connect 15 0 0 0;
#X connect 16 0 17 0;
#X connect 17 0 0 0;
#X restore 44 99 pd UI;
#N canvas 734 219 462 262 MIDI 0;
#X obj 48 165 outlet;
#X text 35 184 audio control output;
#X obj 48 55 inlet;
#X text 61 36 control inlet;
#N canvas 939 413 450 300 pgm2preset 0;
#X obj 38 155 outlet;
#X msg 38 98 preset \$1;
#X obj 38 42 pgmin;
#X obj 38 70 - 1;
#X connect 1 0 0 0;
#X connect 2 0 3 0;
#X connect 3 0 1 0;
#X restore 88 108 pd pgm2preset;
#N canvas 1369 165 450 300 note2inst 0;
#X obj 28 208 outlet;
#X obj 81 136 gui/oneButtonTapMetro;
#N canvas 727 644 233 273 midi2plays 0;
#X obj 34 253 outlet;
#X obj 34 16 inlet;
#X obj 34 226 midi/midi2play 1 36 multimelody;
#X obj 34 56 midi/midi2play 1 44 sampler;
#X obj 34 76 midi/midi2play 2 45 sampler;
#X obj 34 96 midi/midi2play 3 46 sampler;
#X obj 34 116 midi/midi2play 4 47 sampler;
#X obj 34 136 midi/midi2play 5 48 sampler;
#X obj 34 156 midi/midi2play 6 49 sampler;
#X obj 34 176 midi/midi2play 7 50 sampler;
#X obj 34 196 midi/midi2play 8 51 sampler;
#X connect 1 0 3 0;
#X connect 2 0 0 0;
#X connect 3 0 4 0;
#X connect 4 0 5 0;
#X connect 5 0 6 0;
#X connect 6 0 7 0;
#X connect 7 0 8 0;
#X connect 8 0 9 0;
#X connect 9 0 10 0;
#X connect 10 0 2 0;
#X restore 28 180 pd midi2plays;
#X obj 28 36 notein;
#X obj 28 64 pack f f;
#X msg 28 92 note \$1 \$2;
#X connect 1 0 2 0;
#X connect 2 0 0 0;
#X connect 3 0 4 0;
#X connect 3 1 4 1;
#X connect 4 0 5 0;
#X connect 5 0 2 0;
#X connect 5 0 1 0;
#X restore 98 128 pd note2inst;
#N canvas 1177 423 450 296 mididump 0;
#X obj 123 51 ctlin;
#X obj 123 107 pack f f;
#X obj 213 51 pgmin;
#X obj 213 79 - 1;
#X obj 123 79 swap;
#X obj 123 217 print midi-in;
#X msg 213 107 pgm \$1;
#X obj 33 51 notein;
#X obj 33 79 pack f f;
#X msg 33 107 note \$1 \$2;
#X msg 123 135 ctl \$1 \$2;
#X connect 0 0 4 0;
#X connect 0 1 4 1;
#X connect 1 0 10 0;
#X connect 2 0 3 0;
#X connect 3 0 6 0;
#X connect 4 0 1 0;
#X connect 4 1 1 1;
#X connect 6 0 5 0;
#X connect 7 0 8 0;
#X connect 7 1 8 1;
#X connect 8 0 9 0;
#X connect 9 0 5 0;
#X connect 10 0 5 0;
#X restore 219 169 pd mididump;
#X connect 2 0 0 0;
#X connect 4 0 0 0;
#X connect 5 0 0 0;
#X restore 44 61 pd MIDI;
#N canvas 131 356 433 300 init 0;
#N canvas 2 87 497 268 dsp 0;
#X obj 41 31 loadbang;
#X msg 41 57 1;
#X msg 41 181 \; pd dsp \$1;
#X obj 41 141 r $dspStatusOut;
#X obj 41 107 s $dspStatusIn;
#X obj 41 81 delay 100;
#X text 106 74 // hack to prevent switching on dsp // before soundcard
is acquired;
#X connect 0 0 1 0;
#X connect 1 0 5 0;
#X connect 3 0 2 0;
#X connect 5 0 4 0;
#X restore 25 37 pd dsp;
#X obj 25 184 outlet;
#N canvas 637 592 450 300 master 0;
#X obj 32 63 loadbang;
#X msg 132 115 master volume 1;
#X msg 32 115 master mute 0;
#X obj 32 172 outlet;
#X connect 0 0 1 0;
#X connect 0 0 2 0;
#X connect 1 0 3 0;
#X connect 2 0 3 0;
#X restore 35 57 pd master;
#N canvas 1121 284 487 222 multimelody 0;
#X obj 61 18 loadbang;
#X msg 61 106 multimelody start;
#X obj 61 149 outlet;
#X obj 61 39 t b b b;
#X msg 218 56 3000;
#X obj 191 87 delay;
#X msg 191 106 multimelody stop;
#X text 250 56 playing time;
#X connect 0 0 3 0;
#X connect 1 0 2 0;
#X connect 3 0 1 0;
#X connect 3 1 5 0;
#X connect 3 2 4 0;
#X connect 4 0 5 1;
#X connect 5 0 6 0;
#X connect 6 0 2 0;
#X restore 45 77 pd multimelody;
#N canvas 1125 288 561 388 sampler 0;
#X obj 58 78 loadbang;
#X obj 58 176 cyclone/prepend mixer;
#X obj 58 201 cyclone/prepend sampler;
#X msg 58 123 1 volume 0.707 \, 2 volume 0.7 \, 3 volume 0.613 \, 4
volume 0.487 \, 5 volume 0.952 \, 6 volume 0.4 \, 7 volume 0.7 \, 8
volume 0.597 \, master volume 1;
#X obj 58 260 outlet;
#X connect 0 0 3 0;
#X connect 1 0 2 0;
#X connect 2 0 4 0;
#X connect 3 0 1 0;
#X restore 55 97 pd sampler;
#N canvas 264 492 450 300 preset 0;
#X obj 68 50 loadbang;
#X obj 68 134 outlet;
#X msg 68 91 preset 0;
#X connect 0 0 2 0;
#X connect 2 0 1 0;
#X restore 65 117 pd preset;
#X connect 2 0 1 0;
#X connect 3 0 1 0;
#X connect 4 0 1 0;
#X connect 5 0 1 0;
#X restore 44 23 pd init;
#X obj 130 40 print ctrl-init;
#X obj 130 116 print ctrl-ui;
#X obj 130 78 print ctrl-midi;
#N canvas 793 504 450 300 preset 0;
#X obj 52 34 inlet;
#X obj 52 184 outlet;
#X obj 52 128 %;
#X obj 87 91 loadbang;
#X msg 87 111 8;
#X text 115 109 number of presets;
#X obj 52 62 route preset;
#X msg 52 156 sampler preset \$1;
#X text 136 61 forward if unfit;
#X connect 0 0 6 0;
#X connect 2 0 7 0;
#X connect 3 0 4 0;
#X connect 4 0 2 1;
#X connect 6 0 2 0;
#X connect 6 1 1 0;
#X connect 7 0 1 0;
#X restore 44 137 pd preset;
#X obj 130 154 print ctrl-preset;
#X connect 0 0 1 0;
#X connect 0 1 1 1;
#X connect 1 0 2 0;
#X connect 3 0 7 0;
#X connect 3 0 9 0;
#X connect 4 0 8 0;
#X connect 4 0 3 0;
#X connect 5 0 6 0;
#X connect 5 0 4 0;
#X connect 9 0 0 0;
#X connect 9 0 10 0;
