#N canvas 525 87 445 236 10;
#N canvas 1106 417 463 353 audio 0;
#X text 130 16 control messages;
#X obj 134 37 inlet control;
#X obj 30 296 outlet~;
#X obj 232 296 outlet;
#X text 132 319 control messages;
#X text 29 319 audio out;
#X obj 269 54 print ctrl-audio-in;
#X obj 39 92 inst_sampler sampler1;
#X obj 29 64 cmpstn/multiMelody multimelody;
#X obj 59 132 inst_sampler sampler3;
#X obj 69 152 inst_sampler sampler4;
#X obj 79 172 inst_sampler sampler5;
#X obj 89 192 inst_sampler sampler6;
#X obj 99 212 inst_sampler sampler7;
#X obj 109 232 inst_sampler sampler8;
#X obj 49 112 inst_sampler sampler2;
#X connect 1 0 6 0;
#X connect 1 0 8 1;
#X connect 7 0 2 0;
#X connect 7 1 15 1;
#X connect 8 0 2 0;
#X connect 8 1 7 1;
#X connect 9 0 2 0;
#X connect 9 1 10 1;
#X connect 10 0 2 0;
#X connect 10 1 11 1;
#X connect 11 0 2 0;
#X connect 11 1 12 1;
#X connect 12 0 2 0;
#X connect 12 1 13 1;
#X connect 13 0 2 0;
#X connect 13 1 14 1;
#X connect 14 0 2 0;
#X connect 14 1 3 0;
#X connect 15 0 2 0;
#X connect 15 1 9 1;
#X restore 44 139 pd audio;
#N canvas 1127 560 450 300 master 0;
#X obj 48 221 dac~ 1 2;
#X obj 234 209 outlet control;
#X obj 47 75 *~ 1;
#X obj 234 47 route master;
#X obj 68 47 r \$0-volume-set;
#X obj 68 117 r \$0-mute-set;
#X obj 47 19 inlet~;
#X obj 234 19 inlet;
#X obj 47 173 *~ 1;
#X obj 68 145 expr 1-$f1;
#X obj 234 153 s master-ctrl-out;
#X obj 303 75 s master-ctrl-out;
#X obj 234 180 r master-ctrl-out;
#X obj 234 105 utls/param \$0 volume;
#X obj 234 125 utls/param \$0 mute;
#X obj 50 -29 kollabs/ds_reg utz /utz/master/volume;
#X obj 50 -9 kollabs/ds_reg utz /utz/master/mute;
#X connect 2 0 8 0;
#X connect 3 0 13 0;
#X connect 3 1 11 0;
#X connect 4 0 2 1;
#X connect 5 0 9 0;
#X connect 6 0 2 0;
#X connect 7 0 3 0;
#X connect 8 0 0 0;
#X connect 8 0 0 1;
#X connect 9 0 8 1;
#X connect 12 0 1 0;
#X connect 13 0 14 0;
#X connect 14 0 10 0;
#X restore 44 166 pd master;
#X obj 214 183 print dropped;
#N canvas 724 87 1165 989 UI 1;
#X obj 10 -3 tgl 15 0 $dspStatusOut $dspStatusIn dsp 17 7 0 10 -262144
-1 -1 1 1;
#X obj 94 -7 kollabs/ds_gui utz;
#X obj 834 -7 gui_master;
#X obj -1 281 gui_sampler-control sampler5;
#X obj 275 -7 kollabs/midi_in_gui utz;
#X obj -1 480 gui_sampler-control sampler1;
#X obj 291 480 gui_sampler-control sampler2;
#X obj 583 480 gui_sampler-control sampler3;
#X obj 875 480 gui_sampler-control sampler4;
#X obj 875 281 gui_sampler-control sampler8;
#X obj 583 281 gui_sampler-control sampler7;
#X obj 291 281 gui_sampler-control sampler6;
#X restore 44 51 pd UI;
#N canvas 281 206 444 266 MIDI 0;
#N canvas 427 703 450 300 pgm2preset 0;
#X obj 38 42 pgmin;
#X obj 38 90 - 1;
#X obj 38 117 %;
#X obj 38 145 abs;
#X text 66 144 preset number is positive;
#X obj 38 173 + 1;
#X text 72 171 presets begin with 1;
#X obj 38 200 s /ds/utz/scene;
#X obj 63 90 r /ds/utz/scene/maximum;
#X connect 0 0 1 0;
#X connect 1 0 2 0;
#X connect 2 0 3 0;
#X connect 3 0 5 0;
#X connect 5 0 7 0;
#X connect 8 0 2 1;
#X restore 78 108 pd pgm2preset;
#N canvas 766 202 450 300 ctl2vol 0;
#X obj 41 48 kollabs/midi_r utz /utz/sampler1/volume ctl 1;
#X obj 41 68 kollabs/midi_r utz /utz/sampler2/volume ctl 2;
#X obj 41 88 kollabs/midi_r utz /utz/sampler3/volume ctl 3;
#X obj 41 108 kollabs/midi_r utz /utz/sampler4/volume ctl 4;
#X obj 41 128 kollabs/midi_r utz /utz/sampler5/volume ctl 5;
#X obj 41 148 kollabs/midi_r utz /utz/sampler6/volume ctl 6;
#X obj 41 168 kollabs/midi_r utz /utz/sampler7/volume ctl 7;
#X obj 40 188 kollabs/midi_r utz /utz/sampler8/volume ctl 8;
#X restore 68 86 pd ctl2vol;
#X obj 71 25 kollabs/midi_in utz;
#N canvas 146 684 412 300 note2plays 1;
#X obj 34 56 midi2play 2 44 sampler1;
#X obj 34 76 midi2play 2 45 sampler2;
#X obj 34 96 midi2play 2 46 sampler3;
#X obj 34 116 midi2play 2 47 sampler4;
#X obj 34 136 midi2play 2 48 sampler5;
#X obj 34 156 midi2play 2 49 sampler6;
#X obj 34 176 midi2play 2 50 sampler7;
#X obj 34 196 midi2play 2 51 sampler8;
#X obj 34 226 midi2play 2 36 multimelody;
#X restore 85 132 pd note2plays;
#N canvas 597 341 450 300 mpkMiniAdapter 1;
#X obj 73 93 kollabs/midi_in mpk;
#X obj 73 125 route note;
#X msg 73 147 \$3 \$2 \$1;
#X obj 73 244 s /midi/utz/in;
#X msg 73 210 note \$2 \$1 2;
#X obj 73 169 route 26;
#X text 44 34 all midi note input from channel 26 -> channel 2;
#X text 44 49 it's 26 because it's the 2nd device [16 + 10];
#X connect 0 0 1 0;
#X connect 1 0 2 0;
#X connect 2 0 5 0;
#X connect 4 0 3 0;
#X connect 5 0 4 0;
#X restore 239 84 pd mpkMiniAdapter;
#X obj 71 53 print MIDI;
#X connect 2 0 5 0;
#X restore 93 52 pd MIDI;
#N canvas 409 234 433 300 init 0;
#N canvas 2 87 497 268 dsp 0;
#X obj 41 31 loadbang;
#X msg 41 57 1;
#X msg 41 181 \; pd dsp \$1;
#X obj 41 141 r $dspStatusOut;
#X obj 41 107 s $dspStatusIn;
#X obj 41 81 delay 100;
#X text 106 74 // hack to prevent switching on dsp // before soundcard
is acquired;
#X connect 0 0 1 0;
#X connect 1 0 5 0;
#X connect 3 0 2 0;
#X connect 5 0 4 0;
#X restore 35 27 pd dsp;
#N canvas 1269 358 487 222 multimelody 0;
#X obj 61 18 loadbang;
#X obj 61 79 t b b b;
#X msg 218 96 3000;
#X obj 191 116 delay;
#X text 250 96 playing time;
#X obj 61 47 delay 1000;
#X obj 61 158 s /utz/multimelody;
#X msg 61 136 start;
#X msg 191 136 stop;
#X connect 0 0 5 0;
#X connect 1 0 7 0;
#X connect 1 1 3 0;
#X connect 1 2 2 0;
#X connect 2 0 3 1;
#X connect 3 0 8 0;
#X connect 5 0 1 0;
#X connect 7 0 6 0;
#X connect 8 0 6 0;
#X restore 35 84 pd multimelody;
#N canvas 685 334 450 300 kollabs 0;
#X obj 111 -128 loadbang;
#X obj 111 -72 t b b;
#X msg 111 24 \; /ds/utz/scene 1;
#X obj 111 -4 delay 500;
#X msg 138 -44 \; /ds/utz/loadfile ../preset.txt;
#X obj 200 -98 kollabs/ds_logic utz;
#X obj 111 -100 del 150;
#X connect 0 0 6 0;
#X connect 1 0 3 0;
#X connect 1 1 4 0;
#X connect 3 0 2 0;
#X connect 6 0 1 0;
#X restore 35 54 pd kollabs;
#X restore 44 13 pd init;
#N canvas 620 224 450 300 control-processing 0;
#X obj 40 44 ctr_tap-metronome 44 2 sampler1;
#X restore 44 91 pd control-processing;
#X obj 234 43 midiin;
#X obj 301 47 notein;
#X obj 293 81 pack f f f;
#X obj 293 114 print MIDI;
#X obj 219 76 pack f f;
#X connect 0 0 1 0;
#X connect 0 1 1 1;
#X connect 1 0 2 0;
#X connect 7 0 11 0;
#X connect 7 1 11 1;
#X connect 8 0 9 0;
#X connect 8 1 9 1;
#X connect 8 2 9 2;
#X connect 9 0 10 0;
#X connect 11 0 10 0;
