#N canvas 538 216 445 377 10;
#N canvas 1110 176 463 353 audio 0;
#X obj 29 64 cmpstn/multiMelody;
#X text 130 16 control messages;
#X obj 134 37 inlet control;
#X obj 30 296 outlet~;
#X obj 29 92 sampler s1;
#X obj 29 112 sampler s2;
#X obj 29 132 sampler s3;
#X obj 29 152 sampler s4;
#X obj 29 172 sampler s5;
#X obj 29 192 sampler s6;
#X obj 29 212 sampler s7;
#X obj 29 232 sampler s8;
#X obj 133 296 outlet;
#X text 132 319 control messages;
#X text 29 319 audio out;
#X connect 0 0 4 0;
#X connect 0 1 4 1;
#X connect 2 0 0 1;
#X connect 4 0 5 0;
#X connect 4 1 5 1;
#X connect 5 0 6 0;
#X connect 5 1 6 1;
#X connect 6 0 7 0;
#X connect 6 1 7 1;
#X connect 7 0 8 0;
#X connect 7 1 8 1;
#X connect 8 0 9 0;
#X connect 8 1 9 1;
#X connect 9 0 10 0;
#X connect 9 1 10 1;
#X connect 10 0 11 0;
#X connect 10 1 11 1;
#X connect 11 0 3 0;
#X connect 11 1 12 0;
#X restore 44 257 pd audio;
#N canvas 1139 572 450 300 master 0;
#X obj 48 231 dac~ 1 2;
#X obj 234 219 outlet control;
#X obj 47 85 *~ 1;
#X obj 234 115 utls/param \$0 volume;
#X obj 234 57 route master;
#X obj 68 57 r \$0-volume-set;
#X obj 234 135 utls/param \$0 mute;
#X obj 68 127 r \$0-mute-set;
#X obj 47 29 inlet~;
#X obj 234 29 inlet;
#X obj 47 183 *~ 1;
#X obj 68 155 expr 1-$f1;
#X obj 234 163 s master-ctrl-out;
#X obj 303 85 s master-ctrl-out;
#X obj 234 190 r master-ctrl-out;
#X connect 2 0 10 0;
#X connect 3 0 6 0;
#X connect 4 0 3 0;
#X connect 4 1 13 0;
#X connect 5 0 2 1;
#X connect 6 0 12 0;
#X connect 7 0 11 0;
#X connect 8 0 2 0;
#X connect 9 0 4 0;
#X connect 10 0 0 0;
#X connect 10 0 0 1;
#X connect 11 0 10 1;
#X connect 14 0 1 0;
#X restore 44 284 pd master;
#X obj 44 312 print dropped;
#N canvas 905 195 965 682 UI 0;
#X obj 111 191 outlet control;
#X obj 46 -7 tgl 15 0 empty empty empty 17 7 0 10 -262144 -1 -1 0 1
;
#X text 71 -8 master mute;
#X msg 46 37 master mute \$1;
#X obj 175 -29 vsl 15 128 0 1 0 0 empty empty empty 0 -9 0 10 -262144
-1 -1 0 1;
#X msg 175 131 master volume \$1;
#X floatatom 359 9 5 0 0 0 global_bpm - -;
#X obj 359 -18 r \$0-tapBPM;
#X obj 359 36 s \$0-bpm;
#X obj 6 -34 tgl 15 0 $dspStatusOut $dspStatusIn dsp 17 7 0 10 -262144
-1 -1 1 1;
#X obj -1 134 inlet;
#X text -4 114 control;
#X obj 471 40 gui/sampler8-control;
#X obj 470 69 gui/mixer8-control;
#X msg 465 99 \$2 \$1 \$3;
#X obj 466 130 cyclone/prepend sampler;
#N canvas 750 480 450 300 sampler 0;
#X obj 89 -139 outlet;
#X msg 127 -213 s1 file ../samples/clap/clap_disco.wav;
#X msg 128 -192 s1 start;
#X msg 178 -153 s2 file ../samples/kick/707.wav;
#X msg 181 -131 s2 start;
#X connect 1 0 0 0;
#X connect 2 0 0 0;
#X connect 3 0 0 0;
#X connect 4 0 0 0;
#X restore 376 230 pd sampler;
#X connect 1 0 3 0;
#X connect 3 0 0 0;
#X connect 4 0 5 0;
#X connect 5 0 0 0;
#X connect 6 0 8 0;
#X connect 7 0 6 0;
#X connect 10 0 0 0;
#X connect 12 0 0 0;
#X connect 13 0 14 0;
#X connect 14 0 15 0;
#X connect 15 0 0 0;
#X connect 16 0 0 0;
#X restore 44 109 pd UI;
#N canvas 1021 261 462 262 MIDI 0;
#X obj 48 165 outlet;
#X text 35 184 audio control output;
#X obj 48 55 inlet;
#X text 61 36 control inlet;
#N canvas 450 726 450 300 pgm2preset 0;
#X obj 38 155 outlet;
#X msg 38 98 preset \$1;
#X obj 38 42 pgmin;
#X obj 38 70 - 1;
#X connect 1 0 0 0;
#X connect 2 0 3 0;
#X connect 3 0 1 0;
#X restore 88 108 pd pgm2preset;
#N canvas 1366 162 450 300 note2inst 0;
#X obj 28 208 outlet;
#X obj 81 136 gui/oneButtonTapMetro;
#N canvas 724 722 233 273 midi2plays 0;
#X obj 34 253 outlet;
#X obj 34 16 inlet;
#X obj 34 56 midi/midi2play s1 44;
#X obj 34 76 midi/midi2play s2 45;
#X obj 34 96 midi/midi2play s3 46;
#X obj 34 116 midi/midi2play s4 47;
#X obj 34 136 midi/midi2play s5 48;
#X obj 34 156 midi/midi2play s6 49;
#X obj 34 176 midi/midi2play s7 50;
#X obj 34 196 midi/midi2play s8 51;
#X obj 34 226 midi/midi2play multimelody 36;
#X connect 1 0 2 0;
#X connect 2 0 3 0;
#X connect 3 0 4 0;
#X connect 4 0 5 0;
#X connect 5 0 6 0;
#X connect 6 0 7 0;
#X connect 7 0 8 0;
#X connect 8 0 9 0;
#X connect 9 0 10 0;
#X connect 10 0 0 0;
#X restore 28 180 pd midi2plays;
#X obj 28 36 notein;
#X obj 28 64 pack f f;
#X msg 28 92 note \$1 \$2;
#X connect 1 0 2 0;
#X connect 2 0 0 0;
#X connect 3 0 4 0;
#X connect 3 1 4 1;
#X connect 4 0 5 0;
#X connect 5 0 2 0;
#X connect 5 0 1 0;
#X restore 98 128 pd note2inst;
#N canvas 1176 422 450 296 mididump 0;
#X obj 123 51 ctlin;
#X obj 123 107 pack f f;
#X obj 213 51 pgmin;
#X obj 213 79 - 1;
#X obj 123 79 swap;
#X obj 123 217 print midi-in;
#X msg 213 107 pgm \$1;
#X obj 33 51 notein;
#X obj 33 79 pack f f;
#X msg 33 107 note \$1 \$2;
#X msg 123 135 ctl \$1 \$2;
#X connect 0 0 4 0;
#X connect 0 1 4 1;
#X connect 1 0 10 0;
#X connect 2 0 3 0;
#X connect 3 0 6 0;
#X connect 4 0 1 0;
#X connect 4 1 1 1;
#X connect 6 0 5 0;
#X connect 7 0 8 0;
#X connect 7 1 8 1;
#X connect 8 0 9 0;
#X connect 9 0 5 0;
#X connect 10 0 5 0;
#X restore 219 169 pd mididump;
#X connect 2 0 0 0;
#X connect 4 0 0 0;
#X connect 5 0 0 0;
#X restore 44 81 pd MIDI;
#N canvas 129 354 433 300 init 0;
#N canvas 2 87 497 268 dsp 0;
#X obj 41 31 loadbang;
#X msg 41 57 1;
#X msg 41 181 \; pd dsp \$1;
#X obj 41 141 r $dspStatusOut;
#X obj 41 107 s $dspStatusIn;
#X obj 41 81 delay 100;
#X text 106 74 // hack to prevent switching on dsp // before soundcard
is acquired;
#X connect 0 0 1 0;
#X connect 1 0 5 0;
#X connect 3 0 2 0;
#X connect 5 0 4 0;
#X restore 25 37 pd dsp;
#X obj 25 184 outlet;
#N canvas 636 591 450 300 master 0;
#X obj 32 63 loadbang;
#X msg 132 115 master volume 1;
#X msg 32 115 master mute 0;
#X obj 32 172 outlet;
#X connect 0 0 1 0;
#X connect 0 0 2 0;
#X connect 1 0 3 0;
#X connect 2 0 3 0;
#X restore 35 57 pd master;
#N canvas 1121 284 487 222 multimelody 0;
#X obj 61 18 loadbang;
#X msg 61 106 multimelody start;
#X obj 61 149 outlet;
#X obj 61 39 t b b b;
#X msg 218 56 3000;
#X obj 191 87 delay;
#X msg 191 106 multimelody stop;
#X text 250 56 playing time;
#X connect 0 0 3 0;
#X connect 1 0 2 0;
#X connect 3 0 1 0;
#X connect 3 1 5 0;
#X connect 3 2 4 0;
#X connect 4 0 5 1;
#X connect 5 0 6 0;
#X connect 6 0 2 0;
#X restore 45 77 pd multimelody;
#N canvas 1124 287 561 388 sampler 0;
#X obj 58 78 loadbang;
#X msg 58 123 s1 volume 0.707 \, s2 volume 0.7 \, s3 volume 0.613 \,
s4 volume 0.487 \, s5 volume 0.952 \, s6 volume 0.4 \, s7 volume 0.7
\, s8 volume 0.597 \, master volume 1;
#X obj 58 175 outlet;
#X connect 0 0 1 0;
#X connect 1 0 2 0;
#X restore 55 97 pd sampler;
#N canvas 264 492 450 300 preset 0;
#X obj 68 50 loadbang;
#X obj 68 134 outlet;
#X msg 68 91 preset 0;
#X connect 0 0 2 0;
#X connect 2 0 1 0;
#X restore 65 117 pd preset;
#X connect 2 0 1 0;
#X connect 3 0 1 0;
#X connect 4 0 1 0;
#X connect 5 0 1 0;
#X restore 44 13 pd init;
#X obj 130 30 print ctrl-init;
#X obj 130 126 print ctrl-ui;
#X obj 130 98 print ctrl-midi;
#N canvas 1277 175 450 300 preset 0;
#X obj 52 34 inlet;
#X obj 121 242 outlet;
#X obj 52 128 %;
#X obj 87 91 loadbang;
#X msg 87 111 8;
#X text 115 109 number of presets;
#X obj 52 62 route preset;
#X text 136 61 forward if unfit;
#X obj 52 186 s \$0-preset-set;
#X obj 52 156 abs;
#X text 80 155 preset number is positive;
#N canvas 653 186 1117 769 sampler 0;
#X obj 37 144 textfile;
#X msg 37 116 rewind;
#X obj 18 88 until;
#X obj 18 61 t b b b;
#X obj 120 -41 t b f;
#X obj 458 508 textfile;
#X obj 458 453 list prepend add;
#X obj 458 481 list trim;
#X msg 586 491 clear;
#X obj 439 242 t b b b;
#X text -6 624 saving preset based on SSAD by F. Barknecht // modified
by dr/2013 cornicis/2014;
#X obj 439 215 r \$0-safe-bang;
#X obj 458 423 list;
#X obj 458 277 t b b;
#X obj 577 406 pack s s s s s s s s;
#X obj 577 234 symbol;
#X obj 593 254 symbol;
#X obj 610 274 symbol;
#X obj 627 294 symbol;
#X obj 643 314 symbol;
#X obj 660 334 symbol;
#X obj 677 354 symbol;
#X obj 694 374 symbol;
#X obj 120 -61 r \$0-preset-set;
#X obj 577 178 route file;
#X obj 577 206 route 1 2 3 4 5 6 7 8;
#X obj 767 210 route 1 2 3 4 5 6 7 8;
#X obj 767 240 route file;
#X obj 767 143 t a a;
#X msg 872 250 \$1;
#X obj 767 269 symbol;
#X obj 872 278 expr if ($f1 > 8 \, 0 \, $f1) \;;
#X obj 577 153 r \$0-dump-set;
#X obj 769 299 cyclone/gate 8;
#X msg 147 108 read ../presets/samplerX8_0.txt;
#X msg 189 329 write ../presets/samplerX8_0.txt;
#X obj 151 172 print read samples;
#X obj 42 310 outlet;
#X obj 217 144 print presetfile;
#X msg 146 59 set read ../presets/samplerX8_\$1.txt;
#N canvas 633 177 722 497 sendfiles 0;
#X obj -370 -231 unpack s s s s s s s s;
#X obj -413 36 outlet;
#X obj -370 -259 inlet;
#X msg -546 -44 s1 file \$1;
#X msg -478 -23 s2 file \$1;
#X msg -406 -45 s3 file \$1;
#X msg -336 -23 s4 file \$1;
#X msg -266 -46 s5 file \$1;
#X msg -192 -23 s6 file \$1;
#X msg -127 -44 s7 file \$1;
#X msg -46 -22 s8 file \$1;
#X obj -400 -126 makefilename ../samples/%s;
#X obj -540 -186 makefilename ../samples/%s;
#X obj -481 -146 makefilename ../samples/%s;
#X obj -329 -96 makefilename ../samples/%s;
#X obj -265 -193 makefilename ../samples/%s;
#X obj -195 -163 makefilename ../samples/%s;
#X obj -125 -123 makefilename ../samples/%s;
#X obj -55 -93 makefilename ../samples/%s;
#X connect 0 0 12 0;
#X connect 0 1 13 0;
#X connect 0 2 11 0;
#X connect 0 3 14 0;
#X connect 0 4 15 0;
#X connect 0 5 16 0;
#X connect 0 6 17 0;
#X connect 0 7 18 0;
#X connect 2 0 0 0;
#X connect 3 0 1 0;
#X connect 4 0 1 0;
#X connect 5 0 1 0;
#X connect 6 0 1 0;
#X connect 7 0 1 0;
#X connect 8 0 1 0;
#X connect 9 0 1 0;
#X connect 10 0 1 0;
#X connect 11 0 5 0;
#X connect 12 0 3 0;
#X connect 13 0 4 0;
#X connect 14 0 6 0;
#X connect 15 0 7 0;
#X connect 16 0 8 0;
#X connect 17 0 9 0;
#X connect 18 0 10 0;
#X restore 42 282 pd sendfiles;
#X msg 189 242 set write ../presets/samplerX8_\$1.txt;
#X text 753 118 here comes the loaded filename;
#N canvas 21 557 696 469 envelope 0;
#X text 163 -6 envelope settings;
#X obj 17 -36 r \$0-preset-set;
#X obj 17 -8 route 0 1 2 3 4 5 6 7;
#X text 383 306 preset 0;
#X text 403 266 preset 1;
#X text 413 226 preset 2;
#X text 423 186 preset 3;
#X text 443 146 preset 4;
#X text 454 106 preset 5;
#X text 473 65 preset 6;
#X text 493 26 preset 7;
#X obj 17 361 outlet;
#X msg 109 60 s1 envelope 0 \, s2 envelope 0 \, s3 envelope 0 \, s4
envelope 0 \, s5 envelope 1 \, s6 envelope 1 \, s7 envelope 1 \, s8
envelope 1;
#X msg 78 140 s1 envelope 0 \, s2 envelope 0 \, s3 envelope 0 \, s4
envelope 0 \, s5 envelope 1 \, s6 envelope 1 \, s7 envelope 1 \, s8
envelope 1;
#X msg 47 220 s1 envelope 0 \, s2 envelope 0 \, s3 envelope 0 \, s4
envelope 0 \, s5 envelope 1 \, s6 envelope 1 \, s7 envelope 1 \, s8
envelope 1;
#X msg 124 20 s1 envelope 0 \, s2 envelope 0 \, s3 envelope 0 \, s4
envelope 0 \, s5 envelope 1 \, s6 envelope 1 \, s7 envelope 1 \, s8
envelope 1;
#X msg 93 100 s1 envelope 0 \, s2 envelope 0 \, s3 envelope 0 \, s4
envelope 0 \, s5 envelope 1 \, s6 envelope 1 \, s7 envelope 1 \, s8
envelope 1;
#X msg 63 180 s1 envelope 0 \, s2 envelope 0 \, s3 envelope 0 \, s4
envelope 0 \, s5 envelope 1 \, s6 envelope 1 \, s7 envelope 1 \, s8
envelope 1;
#X msg 32 260 s1 envelope 0 \, s2 envelope 0 \, s3 envelope 0 \, s4
envelope 0 \, s5 envelope 1 \, s6 envelope 1 \, s7 envelope 1 \, s8
envelope 1;
#X msg 17 300 s1 envelope 0 \, s2 envelope 0 \, s3 envelope 0 \, s4
envelope 0 \, s5 envelope 1 \, s6 envelope 1 \, s7 envelope 1 \, s8
envelope 1;
#X connect 1 0 2 0;
#X connect 2 0 19 0;
#X connect 2 1 18 0;
#X connect 2 2 14 0;
#X connect 2 3 17 0;
#X connect 2 4 13 0;
#X connect 2 5 16 0;
#X connect 2 6 12 0;
#X connect 2 7 15 0;
#X connect 12 0 11 0;
#X connect 13 0 11 0;
#X connect 14 0 11 0;
#X connect 15 0 11 0;
#X connect 16 0 11 0;
#X connect 17 0 11 0;
#X connect 18 0 11 0;
#X connect 19 0 11 0;
#X restore 70 233 pd envelope;
#X connect 0 0 36 0;
#X connect 0 0 40 0;
#X connect 0 1 2 1;
#X connect 1 0 0 0;
#X connect 2 0 0 0;
#X connect 3 0 2 0;
#X connect 3 1 1 0;
#X connect 3 2 34 0;
#X connect 4 0 3 0;
#X connect 4 1 41 0;
#X connect 4 1 39 0;
#X connect 6 0 7 0;
#X connect 7 0 5 0;
#X connect 8 0 5 0;
#X connect 9 0 35 0;
#X connect 9 1 13 0;
#X connect 9 2 8 0;
#X connect 11 0 9 0;
#X connect 12 0 6 0;
#X connect 13 0 12 0;
#X connect 13 1 14 0;
#X connect 14 0 12 1;
#X connect 15 0 14 0;
#X connect 16 0 14 1;
#X connect 17 0 14 2;
#X connect 18 0 14 3;
#X connect 19 0 14 4;
#X connect 20 0 14 5;
#X connect 21 0 14 6;
#X connect 22 0 14 7;
#X connect 23 0 4 0;
#X connect 24 0 25 0;
#X connect 25 0 15 0;
#X connect 25 1 16 0;
#X connect 25 2 17 0;
#X connect 25 3 18 0;
#X connect 25 4 19 0;
#X connect 25 5 20 0;
#X connect 25 6 21 0;
#X connect 25 7 22 0;
#X connect 26 0 27 0;
#X connect 26 1 27 0;
#X connect 26 2 27 0;
#X connect 26 3 27 0;
#X connect 26 4 27 0;
#X connect 26 5 27 0;
#X connect 26 6 27 0;
#X connect 26 7 27 0;
#X connect 27 0 30 0;
#X connect 28 0 26 0;
#X connect 28 1 29 0;
#X connect 29 0 31 0;
#X connect 30 0 33 1;
#X connect 31 0 33 0;
#X connect 32 0 24 0;
#X connect 33 0 14 0;
#X connect 33 1 14 1;
#X connect 33 2 14 2;
#X connect 33 3 14 3;
#X connect 33 4 14 4;
#X connect 33 5 14 5;
#X connect 33 6 14 6;
#X connect 33 7 14 7;
#X connect 34 0 0 0;
#X connect 34 0 38 0;
#X connect 35 0 5 0;
#X connect 39 0 34 0;
#X connect 40 0 37 0;
#X connect 41 0 35 0;
#X connect 43 0 37 0;
#X restore 280 136 pd sampler;
#X connect 0 0 6 0;
#X connect 2 0 9 0;
#X connect 3 0 4 0;
#X connect 4 0 2 1;
#X connect 6 0 2 0;
#X connect 6 1 1 0;
#X connect 9 0 8 0;
#X connect 11 0 1 0;
#X restore 44 177 pd preset;
#X obj 130 194 print ctrl-preset;
#X connect 0 0 1 0;
#X connect 1 0 2 0;
#X connect 3 0 7 0;
#X connect 3 0 9 0;
#X connect 4 0 8 0;
#X connect 4 0 3 0;
#X connect 5 0 6 0;
#X connect 5 0 4 0;
#X connect 9 0 0 0;
#X connect 9 0 10 0;
