#N canvas 501 87 445 236 10;
#N canvas 1083 149 463 353 audio 0;
#X text 130 16 control messages;
#X obj 134 37 inlet control;
#X obj 30 296 outlet~;
#X obj 152 296 outlet;
#X text 132 319 control messages;
#X text 29 319 audio out;
#X obj 269 54 print ctrl-audio-in;
#X obj 29 92 inst_sampler sampler1;
#X obj 29 112 inst_sampler sampler2;
#X obj 29 132 inst_sampler sampler3;
#X obj 29 152 inst_sampler sampler4;
#X obj 29 172 inst_sampler sampler5;
#X obj 29 192 inst_sampler sampler6;
#X obj 29 212 inst_sampler sampler7;
#X obj 29 232 inst_sampler sampler8;
#X obj 29 64 cmpstn/multiMelody multimelody;
#X connect 1 0 6 0;
#X connect 1 0 15 1;
#X connect 7 0 8 0;
#X connect 7 1 8 1;
#X connect 8 0 9 0;
#X connect 8 1 9 1;
#X connect 9 0 10 0;
#X connect 9 1 10 1;
#X connect 10 0 11 0;
#X connect 10 1 11 1;
#X connect 11 0 12 0;
#X connect 11 1 12 1;
#X connect 12 0 13 0;
#X connect 12 1 13 1;
#X connect 13 0 14 0;
#X connect 13 1 14 1;
#X connect 14 0 2 0;
#X connect 14 1 3 0;
#X connect 15 0 7 0;
#X connect 15 1 7 1;
#X restore 194 77 pd audio;
#N canvas 1133 566 450 300 master 0;
#X obj 48 221 dac~ 1 2;
#X obj 234 209 outlet control;
#X obj 47 75 *~ 1;
#X obj 234 47 route master;
#X obj 68 47 r \$0-volume-set;
#X obj 68 117 r \$0-mute-set;
#X obj 47 19 inlet~;
#X obj 234 19 inlet;
#X obj 47 173 *~ 1;
#X obj 68 145 expr 1-$f1;
#X obj 234 153 s master-ctrl-out;
#X obj 303 75 s master-ctrl-out;
#X obj 234 180 r master-ctrl-out;
#X obj 234 105 utls/param \$0 volume;
#X obj 234 125 utls/param \$0 mute;
#X obj 50 -29 kollabs/ds_reg utz /utz/master/volume;
#X obj 50 -9 kollabs/ds_reg utz /utz/master/mute;
#X connect 2 0 8 0;
#X connect 3 0 13 0;
#X connect 3 1 11 0;
#X connect 4 0 2 1;
#X connect 5 0 9 0;
#X connect 6 0 2 0;
#X connect 7 0 3 0;
#X connect 8 0 0 0;
#X connect 8 0 0 1;
#X connect 9 0 8 1;
#X connect 12 0 1 0;
#X connect 13 0 14 0;
#X connect 14 0 10 0;
#X restore 194 104 pd master;
#X obj 194 132 print dropped;
#N canvas 948 87 956 989 UI 1;
#X obj 10 -3 tgl 15 0 $dspStatusOut $dspStatusIn dsp 17 7 0 10 -262144
-1 -1 1 1;
#X obj 94 -7 kollabs/ds_gui utz;
#X obj 834 -7 gui_master;
#X obj -2 220 gui_sampler-control sampler1;
#X obj 228 220 gui_sampler-control sampler2;
#X obj 458 220 gui_sampler-control sampler3;
#X obj 688 220 gui_sampler-control sampler4;
#X obj 688 370 gui_sampler-control sampler8;
#X obj 458 370 gui_sampler-control sampler7;
#X obj 228 370 gui_sampler-control sampler6;
#X obj -2 370 gui_sampler-control sampler5;
#X restore 45 51 pd UI;
#N canvas 986 226 462 262 MIDI 0;
#X obj 48 165 outlet;
#X text 35 184 audio control output;
#X obj 48 55 inlet;
#X text 61 36 control inlet;
#N canvas 441 717 450 300 pgm2preset 0;
#X obj 38 42 pgmin;
#X obj 38 90 - 1;
#X msg 38 201 \; /ds/utz/scene \$1;
#X obj 38 117 %;
#X obj 73 80 loadbang;
#X msg 73 100 8;
#X obj 38 145 abs;
#X text 66 144 preset number is positive;
#X obj 38 173 + 1;
#X text 72 171 presets begin with 1;
#X connect 0 0 1 0;
#X connect 1 0 3 0;
#X connect 3 0 6 0;
#X connect 4 0 5 0;
#X connect 5 0 3 1;
#X connect 6 0 8 0;
#X connect 8 0 2 0;
#X restore 88 108 pd pgm2preset;
#N canvas 1353 149 450 300 note2inst 0;
#X obj 28 208 outlet;
#N canvas 988 573 233 273 midi2plays 0;
#X obj 34 253 outlet;
#X obj 34 16 inlet;
#X obj 34 226 midi2play multimelody 36;
#X obj 34 56 midi2play sampler1 44;
#X obj 34 76 midi2play sampler2 45;
#X obj 34 96 midi2play sampler3 46;
#X obj 34 196 midi2play sampler8 51;
#X obj 34 176 midi2play sampler7 50;
#X obj 34 156 midi2play sampler6 49;
#X obj 34 136 midi2play sampler5 48;
#X obj 34 116 midi2play sampler4 47;
#X connect 1 0 3 0;
#X connect 2 0 0 0;
#X connect 3 0 4 0;
#X connect 4 0 5 0;
#X connect 5 0 10 0;
#X connect 6 0 2 0;
#X connect 7 0 6 0;
#X connect 8 0 7 0;
#X connect 9 0 8 0;
#X connect 10 0 9 0;
#X restore 28 180 pd midi2plays;
#X obj 28 36 notein;
#X obj 28 64 pack f f;
#X msg 28 92 note \$1 \$2;
#X obj 81 136 gui/oneButtonTapMetro;
#X connect 1 0 0 0;
#X connect 2 0 3 0;
#X connect 2 1 3 1;
#X connect 3 0 4 0;
#X connect 4 0 1 0;
#X connect 4 0 5 0;
#X connect 5 0 1 0;
#X restore 98 128 pd note2inst;
#N canvas 1341 426 450 296 mididump 0;
#X obj 123 51 ctlin;
#X obj 123 107 pack f f;
#X obj 213 51 pgmin;
#X obj 213 79 - 1;
#X obj 123 79 swap;
#X obj 123 217 print midi-in;
#X msg 213 107 pgm \$1;
#X obj 33 51 notein;
#X obj 33 79 pack f f;
#X msg 33 107 note \$1 \$2;
#X msg 123 135 ctl \$1 \$2;
#X connect 0 0 4 0;
#X connect 0 1 4 1;
#X connect 1 0 10 0;
#X connect 2 0 3 0;
#X connect 3 0 6 0;
#X connect 4 0 1 0;
#X connect 4 1 1 1;
#X connect 6 0 5 0;
#X connect 7 0 8 0;
#X connect 7 1 8 1;
#X connect 8 0 9 0;
#X connect 9 0 5 0;
#X connect 10 0 5 0;
#X restore 219 169 pd mididump;
#N canvas 1454 228 450 300 ctl2vol 0;
#X obj 71 41 ctlin;
#X obj 71 241 outlet;
#X msg 98 163 set s\$2 volume \$1;
#X msg 71 211 s1 volume 0;
#X obj 98 135 pack f f;
#X obj 98 110 / 127;
#X obj 71 82 t b a;
#X connect 0 0 6 0;
#X connect 0 1 4 1;
#X connect 2 0 3 0;
#X connect 3 0 1 0;
#X connect 4 0 2 0;
#X connect 5 0 4 0;
#X connect 6 0 3 0;
#X connect 6 1 5 0;
#X restore 78 86 pd ctl2vol;
#X connect 2 0 0 0;
#X connect 5 0 0 0;
#X connect 7 0 0 0;
#X restore 194 31 pd MIDI;
#N canvas 409 234 433 300 init 0;
#N canvas 2 87 497 268 dsp 0;
#X obj 41 31 loadbang;
#X msg 41 57 1;
#X msg 41 181 \; pd dsp \$1;
#X obj 41 141 r $dspStatusOut;
#X obj 41 107 s $dspStatusIn;
#X obj 41 81 delay 100;
#X text 106 74 // hack to prevent switching on dsp // before soundcard
is acquired;
#X connect 0 0 1 0;
#X connect 1 0 5 0;
#X connect 3 0 2 0;
#X connect 5 0 4 0;
#X restore 35 27 pd dsp;
#N canvas 1269 358 487 222 multimelody 0;
#X obj 61 18 loadbang;
#X obj 61 79 t b b b;
#X msg 218 96 3000;
#X obj 191 116 delay;
#X text 250 96 playing time;
#X obj 61 47 delay 1000;
#X obj 61 158 s /utz/multimelody;
#X msg 61 136 start;
#X msg 191 136 stop;
#X connect 0 0 5 0;
#X connect 1 0 7 0;
#X connect 1 1 3 0;
#X connect 1 2 2 0;
#X connect 2 0 3 1;
#X connect 3 0 8 0;
#X connect 5 0 1 0;
#X connect 7 0 6 0;
#X connect 8 0 6 0;
#X restore 35 84 pd multimelody;
#N canvas 685 334 450 300 kollabs 0;
#X obj 111 -128 loadbang;
#X obj 111 -72 t b b;
#X msg 111 24 \; /ds/utz/scene 1;
#X obj 111 -4 delay 500;
#X msg 138 -44 \; /ds/utz/loadfile ../preset.txt;
#X obj 200 -98 kollabs/ds_logic utz;
#X obj 111 -100 del 150;
#X connect 0 0 6 0;
#X connect 1 0 3 0;
#X connect 1 1 4 0;
#X connect 3 0 2 0;
#X connect 6 0 1 0;
#X restore 35 54 pd kollabs;
#X restore 44 13 pd init;
#X connect 0 0 1 0;
#X connect 0 1 1 1;
#X connect 1 0 2 0;
#X connect 4 0 0 0;
