#N canvas 786 167 435 232 10;
#N canvas 697 455 1208 468 controls 0;
#X floatatom 97 179 5 0 0 0 global_bpm - -;
#X obj 97 152 r \$0-tapBPM;
#X obj 97 206 s \$0-bpm;
#N canvas 572 549 450 300 guts 0;
#X obj 41 31 loadbang;
#X msg 41 57 1;
#X msg 41 181 \; pd dsp \$1;
#X obj 41 141 r $dspStatusOut;
#X obj 41 84 s $dspStatusIn;
#X obj 14 31 bng 15 250 50 0 empty empty empty 17 7 0 10 -262144 -1
-1;
#X connect 0 0 1 0;
#X connect 1 0 4 0;
#X connect 3 0 2 0;
#X restore 29 252 pd guts;
#X obj 48 16 cnv 15 100 60 empty empty empty 20 12 0 14 -233017 -66577
0;
#X obj 52 20 tgl 15 0 $dspStatusOut $dspStatusIn dsp 17 7 0 10 -262144
-1 -1 1 1;
#X obj 96 20 bng 15 250 50 0 empty empty stop 17 7 0 10 -262144 -1
-1;
#X obj 96 108 s \$0-stop;
#X obj 118 385 outlet;
#N canvas 217 288 561 388 init 0;
#X obj 61 78 loadbang;
#X msg 19 113 multimelody start;
#X msg 138 113 1 volume 0.7 \, 2 volume 0.7 \, 3 volume 0.7 \, 4 volume
0.7 \, 5 volume 0.7 \, 6 volume 0.7 \, 7 volume 0.7 \, 8 volume 0.7
\, master volume 0.7;
#X obj 71 320 outlet;
#X obj 131 32 bng 15 250 50 0 empty empty empty 17 7 0 10 -262144 -1
-1;
#X obj 61 28 inlet;
#X obj 138 166 cyclone/prepend mixer;
#X obj 200 219 cyclone/prepend sampler;
#X connect 0 0 1 0;
#X connect 0 0 2 0;
#X connect 1 0 3 0;
#X connect 2 0 6 0;
#X connect 6 0 3 0;
#X connect 6 0 7 0;
#X connect 7 0 3 0;
#X restore 53 353 pd init;
#X obj 231 32 inlet;
#X text 272 31 midi input;
#X obj 639 42 hradio 15 1 0 16 empty empty empty 0 -8 0 10 -262144
-1 -1 0;
#X obj 389 -1 gui/mpkMini;
#X obj 412 92 gui/oneButtonTapMetro;
#X obj 600 21 gui/mpkMini;
#X obj 937 91 gui/mpkMini;
#N canvas 602 215 450 300 ctrl2volume 0;
#X obj 154 105 / 127;
#X obj 58 9 inlet;
#X obj 58 228 outlet;
#X obj 153 28 unpack f f;
#X obj 78 146 pack f f;
#X msg 58 177 \$1 volume \$2;
#X connect 0 0 4 1;
#X connect 1 0 3 0;
#X connect 3 0 4 0;
#X connect 3 1 0 0;
#X connect 4 0 5 0;
#X connect 5 0 2 0;
#X restore 1015 232 pd ctrl2volume;
#X obj 882 194 spigot;
#X obj 923 170 tgl 15 0 empty empty empty 17 7 0 10 -262144 -1 -1 1
1;
#X obj 857 271 spigot;
#X obj 907 242 tgl 15 0 empty empty empty 17 7 0 10 -262144 -1 -1 0
1;
#N canvas 729 592 233 273 midi2plays 0;
#X obj 34 253 outlet;
#X obj 34 16 inlet;
#X obj 34 226 midi/midi2play 1 36 multimelody;
#X obj 34 56 midi/midi2play 1 44 sampler;
#X obj 34 76 midi/midi2play 2 45 sampler;
#X obj 34 96 midi/midi2play 3 46 sampler;
#X obj 34 116 midi/midi2play 4 47 sampler;
#X obj 34 136 midi/midi2play 5 48 sampler;
#X obj 34 156 midi/midi2play 6 49 sampler;
#X obj 34 176 midi/midi2play 7 50 sampler;
#X obj 34 196 midi/midi2play 8 51 sampler;
#X connect 1 0 3 0;
#X connect 2 0 0 0;
#X connect 3 0 4 0;
#X connect 4 0 5 0;
#X connect 5 0 6 0;
#X connect 6 0 7 0;
#X connect 7 0 8 0;
#X connect 8 0 9 0;
#X connect 9 0 10 0;
#X connect 10 0 2 0;
#X restore 399 259 pd midi2plays;
#X obj 206 82 gui/mixer8-control;
#X obj 346 142 r \$0-stop;
#X obj 601 68 s \$0-program;
#X obj 442 127 r \$0-program;
#X msg 442 149 sampler preset \$1;
#X text 105 404 audio control output;
#X obj 209 110 gui/sampler8-control;
#X obj 210 139 gui/mixer8-control;
#X msg 205 169 \$2 \$1 \$3;
#X msg 754 261 \$2 \$1 \$3;
#X obj 816 198 == 15;
#X obj 789 114 != 15;
#X obj 579 130 loadbang;
#X msg 605 164 0;
#X obj 206 200 cyclone/prepend sampler;
#X obj 688 288 cyclone/prepend sampler;
#X obj 846 303 cyclone/prepend mixer;
#X obj 791 230 cyclone/prepend mixer;
#X connect 0 0 2 0;
#X connect 1 0 0 0;
#X connect 6 0 7 0;
#X connect 9 0 8 0;
#X connect 12 0 25 0;
#X connect 13 1 14 0;
#X connect 13 1 22 0;
#X connect 14 0 22 0;
#X connect 15 4 12 0;
#X connect 15 4 33 0;
#X connect 15 4 34 0;
#X connect 16 3 17 0;
#X connect 17 0 18 0;
#X connect 17 0 20 0;
#X connect 18 0 40 0;
#X connect 19 0 18 1;
#X connect 20 0 39 0;
#X connect 21 0 20 1;
#X connect 22 0 8 0;
#X connect 23 0 8 0;
#X connect 24 0 8 0;
#X connect 26 0 27 0;
#X connect 27 0 8 0;
#X connect 29 0 8 0;
#X connect 30 0 31 0;
#X connect 31 0 37 0;
#X connect 32 0 38 0;
#X connect 33 0 21 0;
#X connect 34 0 19 0;
#X connect 35 0 36 0;
#X connect 36 0 34 0;
#X connect 37 0 8 0;
#X connect 38 0 8 0;
#X connect 39 0 8 0;
#X connect 40 0 32 0;
#X restore 174 10 pd controls;
#X obj 174 -20 gui/mpkMini;
#N canvas 1173 231 558 360 audio 0;
#X obj 29 67 inlet;
#X text 25 46 control;
#X obj 31 277 dac~ 1 2;
#X obj 29 132 gui/samplerX8;
#X obj 73 159 cmpstn/multiMelody;
#X obj 415 211 print dropped;
#X obj 30 194 gui/mixerX8 _ _ _ _ _ _ _ _ _ _ _ _ _ _ _ _ _ _ _ _ _
_ _ _;
#X obj 381 279 outlet;
#X connect 0 0 3 0;
#X connect 3 0 6 0;
#X connect 3 1 6 1;
#X connect 3 2 4 0;
#X connect 4 0 6 2;
#X connect 4 0 6 3;
#X connect 4 1 6 16;
#X connect 6 0 2 0;
#X connect 6 1 2 1;
#X connect 6 2 5 0;
#X connect 6 2 7 0;
#X restore 174 40 pd audio;
#X obj 72 49 print ctrl-in;
#X obj 64 9 print midi-in;
#X connect 0 0 2 0;
#X connect 0 0 3 0;
#X connect 1 0 0 0;
#X connect 1 0 4 0;
#X connect 1 1 4 0;
#X connect 1 2 4 0;
#X connect 1 3 4 0;
#X connect 1 4 4 0;
