#N canvas 547 432 528 411 10;
#X floatatom -61 407 5 0 0 0 - - -;
#X obj 117 167 tgl 15 0 empty empty on 0 -6 0 10 -262144 -1 -1 0 1
;
#X floatatom 54 326 5 0 0 0 - - -;
#X obj 142 167 bng 15 250 50 0 empty empty Reset 0 -7 0 10 -262144
-1 -1;
#X obj -18 368 -;
#X obj -18 332 t b f;
#X obj 58 167 nbx 5 14 1 1e+37 0 0 empty empty Time-limit 0 -8 0 10
-262144 -1 -1 60 256;
#X obj 259 3 inlet;
#X obj 96 -1 inlet;
#X obj 151 -1 inlet;
#X obj 167 169 nbx 5 14 -1e+37 1e+37 0 0 empty empty countdown 0 -8
0 10 -262144 -1 -1 60 256;
#X obj 227 167 bng 15 250 50 0 empty empty stop 0 -7 0 10 -262144 -1
-1;
#X obj 148 394 sel 1;
#X msg 8 57 0;
#X obj -5 -1 loadbang;
#X msg -56 59 60;
#X obj 142 361 <= 0;
#X obj -40 289 spigot;
#X obj 105 301 > 0;
#X floatatom 112 333 5 0 0 0 - - -;
#X obj 88 338 bng 15 250 50 0 empty empty empty 17 7 0 10 -262144 -1
-1;
#X floatatom 90 389 5 0 0 0 - - -;
#X obj 122 416 bng 15 250 50 0 empty empty empty 17 7 0 10 -262144
-1 -1;
#X msg 101 273 1;
#X obj 69 214 t b b;
#X obj 272 329 outlet;
#X msg 76 99 1;
#X msg 125 97 0;
#X obj 65 46 route start bang float stop restart;
#X obj 208 87 t b b;
#X obj -19 243 ../utls/stopWatch;
#X connect 1 0 30 0;
#X connect 3 0 24 0;
#X connect 4 0 0 0;
#X connect 4 0 10 0;
#X connect 4 0 16 0;
#X connect 4 0 18 0;
#X connect 5 0 4 0;
#X connect 5 1 4 1;
#X connect 6 0 4 0;
#X connect 7 0 6 0;
#X connect 8 0 28 0;
#X connect 9 0 3 0;
#X connect 11 0 25 0;
#X connect 12 0 11 0;
#X connect 12 0 13 0;
#X connect 13 0 1 0;
#X connect 14 0 13 0;
#X connect 14 0 15 0;
#X connect 15 0 6 0;
#X connect 16 0 12 0;
#X connect 16 0 21 0;
#X connect 16 0 22 0;
#X connect 17 0 5 0;
#X connect 18 0 17 1;
#X connect 18 0 19 0;
#X connect 18 0 20 0;
#X connect 23 0 17 1;
#X connect 24 0 30 0;
#X connect 24 1 23 0;
#X connect 26 0 1 0;
#X connect 27 0 1 0;
#X connect 28 0 26 0;
#X connect 28 1 1 0;
#X connect 28 2 1 0;
#X connect 28 3 27 0;
#X connect 28 4 29 0;
#X connect 29 0 26 0;
#X connect 29 1 3 0;
#X connect 30 0 2 0;
#X connect 30 0 17 0;
#X coords 0 -1 1 1 200 70 1 50 120;
