#N canvas 1163 284 620 525 10;
#X obj 330 291 outlet~;
#X obj 543 290 outlet~;
#X obj 425 65 env~ 128;
#X obj 105 128 vsl 25 119 0 1 0 0 \$0-volumeOut \$0-volumeIn empty
0 -9 0 10 -262144 -1 -1 11800 1;
#X obj 425 93 - 100;
#X obj 525 65 env~ 128;
#X obj 525 93 - 100;
#X obj 133 128 vu 8 120 \$0-amplitude1 empty -1 -8 0 4 -66577 -262144
1 0;
#X obj 145 128 vu 8 120 \$0-amplitude2 empty -1 -8 0 10 -66577 -1 1
0;
#X obj 27 -99 inlet control;
#X obj 275 -173 loadbang;
#X obj 150 104 hradio 15 1 0 2 \$0-channelOut \$0-channelIn 1__2 3
7 0 10 -262144 -1 -1 0;
#X obj 27 -71 route volume channel;
#X obj 330 244 demultiplex~ . .;
#X obj 450 244 demultiplex~ . .;
#X obj 425 -24 *~;
#X obj 535 -24 *~;
#X obj 226 -99 adc~ 1 2;
#X obj 27 -23 s \$0-volumeIn;
#X obj 85 -43 s \$0-channelIn;
#X obj 440 -68 r \$0-volumeOut;
#X msg 275 -141 volume 1;
#X obj 226 -51 s~ \$0-in1;
#X obj 270 -71 s~ \$0-in2;
#X obj 425 -89 r~ \$0-in1;
#X obj 535 -89 r~ \$0-in2;
#X obj 425 8 s~ \$0-out1;
#X obj 535 8 s~ \$0-out2;
#X obj 425 38 r~ \$0-out1;
#X obj 525 38 r~ \$0-out2;
#X obj 425 120 s \$0-amplitude1;
#X obj 525 120 s \$0-amplitude2;
#X obj 331 175 r~ \$0-out1;
#X obj 364 208 r \$0-channelOut;
#X obj 451 175 r~ \$0-out2;
#X connect 2 0 4 0;
#X connect 4 0 30 0;
#X connect 5 0 6 0;
#X connect 6 0 31 0;
#X connect 9 0 12 0;
#X connect 10 0 21 0;
#X connect 12 0 18 0;
#X connect 12 1 19 0;
#X connect 13 0 0 0;
#X connect 13 0 1 0;
#X connect 14 1 1 0;
#X connect 14 1 0 0;
#X connect 15 0 26 0;
#X connect 16 0 27 0;
#X connect 17 0 22 0;
#X connect 17 1 23 0;
#X connect 20 0 15 1;
#X connect 20 0 16 1;
#X connect 21 0 12 0;
#X connect 24 0 15 0;
#X connect 25 0 16 0;
#X connect 28 0 2 0;
#X connect 29 0 5 0;
#X connect 32 0 13 0;
#X connect 33 0 13 0;
#X connect 33 0 14 0;
#X connect 34 0 14 0;
#X coords 0 -1 1 1 85 155 1 100 100;
