#N canvas 584 362 450 300 10;
#X obj -18 106 inlet~;
#X obj -18 186 *~;
#X obj 131 131 vu 15 120 empty empty -1 -8 0 10 -66577 -1 1 0;
#X obj -47 289 env~ 128;
#X obj 114 131 vsl 15 119 0 1 0 0 empty empty empty 0 -9 0 10 -262144
-1 -1 11800 1;
#X obj -49 314 - 100;
#X obj 95 307 outlet~;
#X obj 160 307 outlet~;
#X obj 31 40 loadbang;
#X msg 78 66 1;
#X obj -21 253 pvu~ 300;
#X connect 0 0 1 0;
#X connect 1 0 3 0;
#X connect 1 0 6 0;
#X connect 1 0 7 0;
#X connect 1 0 10 0;
#X connect 3 0 5 0;
#X connect 4 0 1 1;
#X connect 5 0 2 0;
#X connect 8 0 9 0;
#X connect 9 0 4 0;
#X connect 10 0 2 1;
#X coords 0 -1 1 1 85 160 1 100 100;
