#N canvas 364 97 1193 352 10;
#X obj 953 -987 inlet;
#N canvas 700 376 449 231 init 0;
#X obj -28 -45 loadbang;
#X obj -28 60 outlet;
#X obj -28 -72 inlet;
#X msg -28 -15 1 volume 0.7 \, 2 volume 0.7 \, 3 volume 0.7 \, 4 volume
0.7 \, 5 volume 0.7 \, 6 volume 0.7 \, 7 volume 0.7 \, 8 volume 0.7
\, master volume 0.7;
#X connect 0 0 3 0;
#X connect 2 0 0 0;
#X connect 3 0 1 0;
#X restore 902 -959 pd init;
#X obj 1016 -931 s \$0-out-ctrl;
#X obj -55 -999 inlet~;
#X obj 5 -999 inlet~;
#X obj 902 -984 bng 15 250 50 0 empty empty empty 17 7 0 10 -262144
-1 -1;
#X obj 953 -959 route mixer;
#N canvas 563 199 1096 777 audio 0;
#X obj 150 81 +~;
#X obj 203 81 +~;
#X obj 173 129 +~;
#X obj 231 163 +~;
#X obj 261 81 +~;
#X obj 326 81 +~;
#X obj 283 129 +~;
#X obj 550 81 +~;
#X obj 603 81 +~;
#X obj 573 129 +~;
#X obj 631 163 +~;
#X obj 661 81 +~;
#X obj 726 81 +~;
#X obj 683 129 +~;
#X obj 406 324 outlet~;
#X obj 458 324 outlet~;
#X obj 200 -148 r \$0-in-ctrl;
#X obj 149 -90 r~ \$0-in-1-l;
#X obj 189 -70 r~ \$0-in-1-r;
#X obj 249 -90 r~ \$0-in-2-l;
#X obj 289 -70 r~ \$0-in-2-r;
#X obj 349 -90 r~ \$0-in-3-l;
#X obj 389 -70 r~ \$0-in-3-r;
#X obj 449 -90 r~ \$0-in-4-l;
#X obj 489 -70 r~ \$0-in-4-r;
#X obj 549 -90 r~ \$0-in-5-l;
#X obj 589 -70 r~ \$0-in-5-r;
#X obj 649 -90 r~ \$0-in-6-l;
#X obj 689 -70 r~ \$0-in-6-r;
#X obj 749 -90 r~ \$0-in-7-l;
#X obj 789 -70 r~ \$0-in-7-r;
#X obj 849 -90 r~ \$0-in-8-l;
#X obj 889 -70 r~ \$0-in-8-r;
#X obj 513 324 outlet;
#X obj 149 -2 mixerX1 1;
#X obj 406 296 mixerX1 master;
#X obj 249 -2 mixerX1 2;
#X obj 349 -2 mixerX1 3;
#X obj 450 -2 mixerX1 4;
#X obj 549 -2 mixerX1 5;
#X obj 648 -2 mixerX1 6;
#X obj 749 -2 mixerX1 7;
#X obj 849 -2 mixerX1 8;
#X connect 0 0 2 0;
#X connect 1 0 2 1;
#X connect 2 0 3 0;
#X connect 3 0 35 0;
#X connect 4 0 6 0;
#X connect 5 0 6 1;
#X connect 6 0 3 1;
#X connect 7 0 9 0;
#X connect 8 0 9 1;
#X connect 9 0 10 0;
#X connect 10 0 35 1;
#X connect 11 0 13 0;
#X connect 12 0 13 1;
#X connect 13 0 10 1;
#X connect 16 0 34 2;
#X connect 17 0 34 0;
#X connect 18 0 34 1;
#X connect 19 0 36 0;
#X connect 20 0 36 1;
#X connect 21 0 37 0;
#X connect 22 0 37 1;
#X connect 23 0 38 0;
#X connect 24 0 38 1;
#X connect 25 0 39 0;
#X connect 26 0 39 1;
#X connect 27 0 40 0;
#X connect 28 0 40 1;
#X connect 29 0 41 0;
#X connect 30 0 41 1;
#X connect 31 0 42 0;
#X connect 32 0 42 1;
#X connect 34 0 0 0;
#X connect 34 1 7 0;
#X connect 34 2 36 2;
#X connect 35 0 14 0;
#X connect 35 1 15 0;
#X connect 35 2 33 0;
#X connect 36 0 0 1;
#X connect 36 1 7 1;
#X connect 36 2 37 2;
#X connect 37 0 1 0;
#X connect 37 1 8 0;
#X connect 37 2 38 2;
#X connect 38 0 1 1;
#X connect 38 1 8 1;
#X connect 38 2 39 2;
#X connect 39 0 4 0;
#X connect 39 1 11 0;
#X connect 39 2 40 2;
#X connect 40 0 4 1;
#X connect 40 1 11 1;
#X connect 40 2 41 2;
#X connect 41 0 5 0;
#X connect 41 1 12 0;
#X connect 41 2 42 2;
#X connect 42 0 5 1;
#X connect 42 1 12 1;
#X connect 42 2 35 2;
#X restore 0 -766 pd audio;
#X obj 105 -738 outlet;
#X obj 105 -764 r \$0-out-ctrl;
#X obj 0 -738 outlet~;
#X obj 50 -738 outlet~;
#X obj 953 -892 s \$0-in-ctrl;
#X obj -55 -971 s~ \$0-in-1-l;
#X obj 6 -951 s~ \$0-in-1-r;
#X obj 55 -999 inlet~;
#X obj 115 -999 inlet~;
#X obj 165 -999 inlet~;
#X obj 225 -999 inlet~;
#X obj 275 -999 inlet~;
#X obj 335 -999 inlet~;
#X obj 385 -999 inlet~;
#X obj 445 -999 inlet~;
#X obj 505 -999 inlet~;
#X obj 565 -999 inlet~;
#X obj 625 -999 inlet~;
#X obj 685 -999 inlet~;
#X obj 745 -999 inlet~;
#X obj 805 -999 inlet~;
#X obj 56 -971 s~ \$0-in-2-l;
#X obj 116 -951 s~ \$0-in-2-r;
#X obj 165 -971 s~ \$0-in-3-l;
#X obj 226 -951 s~ \$0-in-3-r;
#X obj 275 -971 s~ \$0-in-4-l;
#X obj 336 -951 s~ \$0-in-4-r;
#X obj 385 -971 s~ \$0-in-5-l;
#X obj 446 -951 s~ \$0-in-5-r;
#X obj 505 -971 s~ \$0-in-6-l;
#X obj 566 -951 s~ \$0-in-6-r;
#X obj 625 -971 s~ \$0-in-7-l;
#X obj 686 -951 s~ \$0-in-7-r;
#X obj 745 -971 s~ \$0-in-8-l;
#X obj 806 -951 s~ \$0-in-8-r;
#X connect 0 0 6 0;
#X connect 1 0 12 0;
#X connect 3 0 13 0;
#X connect 4 0 14 0;
#X connect 5 0 1 0;
#X connect 6 0 12 0;
#X connect 6 1 2 0;
#X connect 7 0 10 0;
#X connect 7 1 11 0;
#X connect 7 2 8 0;
#X connect 9 0 8 0;
#X connect 15 0 29 0;
#X connect 16 0 30 0;
#X connect 17 0 31 0;
#X connect 18 0 32 0;
#X connect 19 0 33 0;
#X connect 20 0 34 0;
#X connect 21 0 35 0;
#X connect 22 0 36 0;
#X connect 23 0 37 0;
#X connect 24 0 38 0;
#X connect 25 0 39 0;
#X connect 26 0 40 0;
#X connect 27 0 41 0;
#X connect 28 0 42 0;
#X coords 0 352 1 351 803 162 0;
