#N canvas 271 268 446 559 10;
#X obj 35 211 cnv 15 220 190 empty empty empty 20 12 0 14 -233017 -66577
0;
#X obj 50 223 vsl 15 128 0 1 0 0 \$0-volume-1 empty 1 4 140 0 10 -262144
-1 -1 8990 1;
#X obj 71 223 vsl 15 128 0 1 0 0 \$0-volume-2 empty 2 4 140 0 10 -262144
-1 -1 8890 1;
#X obj 91 223 vsl 15 128 0 1 0 0 \$0-volume-3 empty 3 4 140 0 10 -262144
-1 -1 7790 1;
#X obj 111 223 vsl 15 128 0 1 0 0 \$0-volume-4 empty 4 4 140 0 10 -262144
-1 -1 6190 1;
#X obj 131 223 vsl 15 128 0 1 0 0 \$0-volume-5 empty 5 4 140 0 10 -262144
-1 -1 12100 1;
#X obj 151 223 vsl 15 128 0 1 0 0 \$0-volume-6 empty 6 4 140 0 10 -262144
-1 -1 5090 1;
#X obj 171 223 vsl 15 128 0 1 0 0 \$0-volume-7 empty 7 4 140 0 10 -262144
-1 -1 8890 1;
#X obj 191 223 vsl 15 128 0 1 0 0 \$0-volume-8 empty 8 4 140 0 10 -262144
-1 -1 7590 1;
#X obj 221 223 vsl 15 128 0 1 0 0 \$0-volume-master empty master -7
140 0 10 -262144 -1 -1 12700 1;
#X obj 51 377 tgl 15 0 \$0-mute-1 empty M 4 7 0 10 -262144 -1 -1 0
1;
#X obj 71 377 tgl 15 0 \$0-mute-2 empty M 4 7 0 10 -262144 -1 -1 0
1;
#X obj 91 377 tgl 15 0 \$0-mute-3 empty M 4 7 0 10 -262144 -1 -1 0
1;
#X obj 111 377 tgl 15 0 \$0-mute-4 empty M 4 7 0 10 -262144 -1 -1 0
1;
#X obj 131 377 tgl 15 0 \$0-mute-5 empty M 4 7 0 10 -262144 -1 -1 0
1;
#X obj 151 377 tgl 15 0 \$0-mute-6 empty M 4 7 0 10 -262144 -1 -1 0
1;
#X obj 171 377 tgl 15 0 \$0-mute-7 empty M 4 7 0 10 -262144 -1 -1 0
1;
#X obj 191 377 tgl 15 0 \$0-mute-8 empty M 4 7 0 10 -262144 -1 -1 0
1;
#X obj 221 377 tgl 15 0 \$0-mute-master empty M 4 7 0 10 -262144 -1
-1 0 1;
#N canvas 50 273 970 373 guts 0;
#X obj 31 60 r \$0-volume-1;
#X obj 211 60 r \$0-volume-3;
#X obj 121 60 r \$0-volume-2;
#X obj 301 60 r \$0-volume-4;
#X obj 391 60 r \$0-volume-5;
#X msg 31 80 1 volume \$1;
#X msg 121 80 2 volume \$1;
#X msg 211 80 3 volume \$1;
#X msg 301 80 4 volume \$1;
#X msg 391 80 5 volume \$1;
#X msg 481 80 6 volume \$1;
#X msg 571 80 7 volume \$1;
#X msg 661 80 8 volume \$1;
#X msg 751 80 master volume \$1;
#X obj 661 60 r \$0-volume-8;
#X obj 571 60 r \$0-volume-7;
#X obj 481 60 r \$0-volume-6;
#X obj 751 60 r \$0-volume-master;
#X obj 31 330 outlet;
#X text 32 36 get volumes from sliders;
#X text 48 168 get mutes from toggles;
#X obj 41 190 r \$0-mute-1;
#X obj 131 190 r \$0-mute-2;
#X obj 221 190 r \$0-mute-3;
#X obj 311 190 r \$0-mute-4;
#X obj 401 190 r \$0-mute-5;
#X obj 491 190 r \$0-mute-6;
#X obj 581 190 r \$0-mute-7;
#X obj 671 190 r \$0-mute-8;
#X obj 761 190 r \$0-mute-master;
#X msg 41 210 1 mute \$1;
#X msg 131 210 2 mute \$1;
#X msg 221 210 3 mute \$1;
#X msg 311 210 4 mute \$1;
#X msg 401 210 5 mute \$1;
#X msg 491 210 6 mute \$1;
#X msg 581 210 7 mute \$1;
#X msg 671 210 8 mute \$1;
#X msg 761 210 master mute \$1;
#X obj 31 118 cyclone/prepend mixer;
#X obj 41 248 cyclone/prepend mixer;
#X connect 0 0 5 0;
#X connect 1 0 7 0;
#X connect 2 0 6 0;
#X connect 3 0 8 0;
#X connect 4 0 9 0;
#X connect 5 0 39 0;
#X connect 6 0 39 0;
#X connect 7 0 39 0;
#X connect 8 0 39 0;
#X connect 9 0 39 0;
#X connect 10 0 39 0;
#X connect 11 0 39 0;
#X connect 12 0 39 0;
#X connect 13 0 39 0;
#X connect 14 0 12 0;
#X connect 15 0 11 0;
#X connect 16 0 10 0;
#X connect 17 0 13 0;
#X connect 21 0 30 0;
#X connect 22 0 31 0;
#X connect 23 0 32 0;
#X connect 24 0 33 0;
#X connect 25 0 34 0;
#X connect 26 0 35 0;
#X connect 27 0 36 0;
#X connect 28 0 37 0;
#X connect 29 0 38 0;
#X connect 30 0 40 0;
#X connect 31 0 40 0;
#X connect 32 0 40 0;
#X connect 33 0 40 0;
#X connect 34 0 40 0;
#X connect 35 0 40 0;
#X connect 36 0 40 0;
#X connect 37 0 40 0;
#X connect 38 0 40 0;
#X connect 39 0 18 0;
#X connect 40 0 18 0;
#X restore 286 263 pd guts;
#X obj 286 291 outlet;
#X floatatom 47 437 5 0 0 0 - - -;
#X floatatom 63 457 5 0 0 0 - - -;
#X floatatom 80 483 5 0 0 0 - - -;
#X floatatom 100 504 5 0 0 0 - - -;
#X floatatom 132 440 5 0 0 0 - - -;
#X floatatom 149 465 5 0 0 0 - - -;
#X floatatom 169 480 5 0 0 0 - - -;
#X floatatom 186 509 5 0 0 0 - - -;
#X floatatom 228 457 5 0 0 0 - - -;
#X obj 87 52 loadbang;
#X msg 50 132 0.707;
#X msg 61 152 0.7;
#X msg 78 174 0.613;
#X msg 104 189 0.487;
#X msg 123 127 0.952;
#X msg 154 150 0.4;
#X msg 169 171 0.7;
#X msg 189 195 0.597;
#X msg 227 196 1;
#X connect 1 0 21 0;
#X connect 2 0 22 0;
#X connect 3 0 23 0;
#X connect 4 0 24 0;
#X connect 5 0 25 0;
#X connect 6 0 26 0;
#X connect 7 0 27 0;
#X connect 8 0 28 0;
#X connect 9 0 29 0;
#X connect 19 0 20 0;
#X connect 30 0 31 0;
#X connect 30 0 32 0;
#X connect 30 0 33 0;
#X connect 30 0 34 0;
#X connect 30 0 35 0;
#X connect 30 0 36 0;
#X connect 30 0 37 0;
#X connect 30 0 38 0;
#X connect 30 0 39 0;
#X connect 31 0 1 0;
#X connect 32 0 2 0;
#X connect 33 0 3 0;
#X connect 34 0 4 0;
#X connect 35 0 5 0;
#X connect 36 0 6 0;
#X connect 37 0 7 0;
#X connect 38 0 8 0;
#X connect 39 0 9 0;
