#N canvas 297 493 630 408 10;
#X obj 28 26 notein;
#X obj 28 145 outlet keys;
#X obj 28 64 pack f f;
#X obj 108 145 outlet pads;
#X obj 191 24 ctlin;
#X obj 191 84 pack f f;
#X msg 28 104 note \$1 \$2;
#X msg 108 104 note \$1 \$2;
#X obj 191 145 outlet ctrlpads;
#X obj 292 145 outlet potis;
#X obj 386 28 pgmin;
#X obj 386 145 outlet programm;
#X obj 386 83 - 1;
#X obj 296 188 route 1 2 3 4 5 6 7 8;
#X floatatom 296 225 5 0 0 0 - - -;
#X obj 296 246 vsl 15 128 0 127 0 0 empty empty empty 0 -9 0 10 -262144
-1 -1 6100 1;
#X floatatom 311 208 5 0 0 0 - - -;
#X obj 311 246 vsl 15 128 0 127 0 0 empty empty empty 0 -9 0 10 -262144
-1 -1 4700 1;
#X floatatom 326 225 5 0 0 0 - - -;
#X obj 326 246 vsl 15 128 0 127 0 0 empty empty empty 0 -9 0 10 -262144
-1 -1 6300 1;
#X floatatom 341 208 5 0 0 0 - - -;
#X obj 341 246 vsl 15 128 0 127 0 0 empty empty empty 0 -9 0 10 -262144
-1 -1 6800 1;
#X floatatom 356 225 5 0 0 0 - - -;
#X obj 356 246 vsl 15 128 0 127 0 0 empty empty empty 0 -9 0 10 -262144
-1 -1 6600 1;
#X floatatom 371 208 5 0 0 0 - - -;
#X obj 371 246 vsl 15 128 0 127 0 0 empty empty empty 0 -9 0 10 -262144
-1 -1 6800 1;
#X floatatom 386 225 5 0 0 0 - - -;
#X obj 386 246 vsl 15 128 0 127 0 0 empty empty empty 0 -9 0 10 -262144
-1 -1 8300 1;
#X floatatom 401 208 5 0 0 0 - - -;
#X obj 401 246 vsl 15 128 0 127 0 0 empty empty empty 0 -9 0 10 -262144
-1 -1 6900 1;
#X obj 191 53 swap;
#X connect 0 0 2 0;
#X connect 0 1 2 1;
#X connect 2 0 6 0;
#X connect 2 0 7 0;
#X connect 4 0 30 0;
#X connect 4 1 30 1;
#X connect 5 0 8 0;
#X connect 5 0 9 0;
#X connect 5 0 13 0;
#X connect 6 0 1 0;
#X connect 7 0 3 0;
#X connect 10 0 12 0;
#X connect 12 0 11 0;
#X connect 13 0 14 0;
#X connect 13 1 16 0;
#X connect 13 2 18 0;
#X connect 13 3 20 0;
#X connect 13 4 22 0;
#X connect 13 5 24 0;
#X connect 13 6 26 0;
#X connect 13 7 28 0;
#X connect 14 0 15 0;
#X connect 16 0 17 0;
#X connect 18 0 19 0;
#X connect 20 0 21 0;
#X connect 22 0 23 0;
#X connect 24 0 25 0;
#X connect 26 0 27 0;
#X connect 28 0 29 0;
#X connect 30 0 5 0;
#X connect 30 1 5 1;
