#N canvas 140 220 761 675 10;
#X obj 254 142 bng 15 250 50 0 empty empty empty 0 0 0 10 -262144 -1
-1;
#X msg 216 141 stop;
#X msg 436 88 0;
#X obj 289 386 bng 15 250 50 0 empty empty empty 7 17 0 10 -262144
-1 -1;
#X obj 216 5 inlet;
#X obj 369 462 outlet;
#X obj 216 96 bng 36 250 50 0 empty empty Stop 7 17 0 10 -262144 -1
-1;
#X obj 369 301 spigot;
#X obj 433 286 tgl 15 0 empty empty empty 17 7 0 10 -262144 -1 -1 1
1;
#X floatatom 216 213 5 0 0 0 - - -;
#X obj 292 79 sel 0;
#X obj 216 269 >=;
#X msg 293 21 1;
#X msg 266 21 0;
#X obj 216 51 route stop bang float note;
#X obj 496 371 f;
#X obj 369 387 f 44;
#X obj 369 414 pack;
#X msg 369 436 note \$1 \$2;
#X obj 266 -12 sel 0;
#X floatatom 217 -30 5 0 0 0 - - -;
#X obj 369 354 t b b;
#X msg 487 420 bpm \$1;
#X obj 513 214 route timedelta;
#X floatatom 513 285 5 0 0 0 - - -;
#X obj 171 296 spigot 1;
#X obj 513 252 / 1000;
#X obj 216 182 ../utls/stopWatch;
#X obj 369 182 ../utls/tapMetronome;
#X obj 266 -47 route \$1;
#X connect 0 0 27 0;
#X connect 0 0 28 0;
#X connect 1 0 27 0;
#X connect 1 0 28 0;
#X connect 2 0 28 0;
#X connect 4 0 14 0;
#X connect 6 0 1 0;
#X connect 7 0 21 0;
#X connect 7 0 3 0;
#X connect 8 0 7 1;
#X connect 9 0 11 0;
#X connect 9 0 25 0;
#X connect 10 0 6 0;
#X connect 10 1 0 0;
#X connect 11 0 8 0;
#X connect 11 0 25 1;
#X connect 12 0 14 0;
#X connect 13 0 14 0;
#X connect 14 0 6 0;
#X connect 14 1 0 0;
#X connect 14 2 10 0;
#X connect 14 3 29 0;
#X connect 14 4 28 0;
#X connect 15 0 17 1;
#X connect 16 0 17 0;
#X connect 17 0 18 0;
#X connect 18 0 5 0;
#X connect 19 0 13 0;
#X connect 19 1 12 0;
#X connect 21 0 16 0;
#X connect 21 1 15 0;
#X connect 22 0 5 0;
#X connect 23 0 26 0;
#X connect 26 0 24 0;
#X connect 26 0 11 1;
#X connect 27 0 9 0;
#X connect 28 0 7 0;
#X connect 28 1 22 0;
#X connect 28 1 23 0;
#X connect 29 0 15 1;
#X connect 29 0 19 0;
#X connect 29 0 20 0;
#X coords 0 675 1 674 140 15 0;
