#N canvas 152 131 1056 549 10;
#X obj 264 338 readsf~ 2;
#X msg 398 240 open \$1;
#X obj 398 187 symbol;
#X obj 10 260 ../utls/param \$0 start;
#X obj 10 286 ../utls/param \$0 stop;
#X obj 10 310 ../utls/param \$0 file;
#X obj 10 79 inlet;
#X obj 79 137 s \$0-ctrl-out;
#X obj 10 191 route bang;
#X msg 10 213 start;
#X text 83 195 convert bang to start;
#X obj 10 363 s \$0-ctrl-out;
#X text 8 384 unhandled messages will get send out;
#X text 94 119 daisy chaining;
#X text 44 238 get parameters;
#X obj 264 103 r \$0-start-set;
#X obj 312 171 r \$0-stop-set;
#X obj 398 158 r \$0-file-set;
#N canvas 1 49 681 718 control 0;
#X obj 56 43 cnv 15 100 60 empty empty empty 20 12 0 14 -233017 -66577
0;
#X obj 67 221 outlet;
#X obj 119 167 openpanel;
#X obj 67 84 bng 15 250 50 0 empty empty load_file 20 8 0 10 -262144
-1 -1;
#X obj 67 48 bng 15 250 50 0 empty empty start 20 8 0 10 -262144 -1
-1;
#X obj 67 66 bng 15 250 50 0 empty empty stop 20 8 0 10 -262144 -1
-1;
#X msg 67 190 stop;
#X msg 25 190 start;
#X msg 119 190 file \$1;
#X connect 2 0 8 0;
#X connect 3 0 2 0;
#X connect 4 0 7 0;
#X connect 5 0 6 0;
#X connect 6 0 1 0;
#X connect 7 0 1 0;
#X connect 8 0 1 0;
#X restore 27 164 pd control;
#X msg 264 241 start;
#X msg 313 241 stop;
#X obj 264 473 outlet~;
#X obj 324 473 outlet~;
#X obj 380 473 outlet;
#X obj 472 268 s \$0-ctrl-out;
#X obj 380 442 r \$0-ctrl-out;
#X obj 472 188 symbol;
#X text 522 200 output file if set;
#X msg 472 215 \$1;
#X obj 10 112 route \$1;
#X obj 472 240 cyclone/prepend dump file \$1;
#X obj 263 449 *~;
#X obj 323 450 *~;
#X text 402 283 attack;
#X text 440 302 release;
#X obj 264 130 t a b b;
#X obj 312 194 t b b;
#X obj 387 108 bng 15 250 50 0 empty empty empty 17 7 0 10 -262144
-1 -1;
#X obj 382 123 bng 15 250 50 0 empty empty empty 17 7 0 10 -262144
-1 -1;
#X msg 369 285 1 0.1;
#X obj 312 217 delay 40;
#X msg 408 303 0 40;
#X obj 369 324 line~;
#X obj 436 341 r \$0-envelope-set;
#X obj 10 331 ../utls/param \$0 envelope;
#X floatatom 504 379 5 0 0 0 - - -;
#X msg 118 56 envelope 1;
#X msg 147 76 envelope 0;
#X obj 343 421 +~;
#X obj 344 372 *~;
#X obj 410 394 + 1;
#X floatatom 474 422 5 0 0 0 - - -;
#X obj 400 418 mod 2;
#X obj 290 268 r \$0-envelope-set;
#X obj 284 303 spigot;
#X obj 603 372 print teeeest;
#X connect 0 0 31 0;
#X connect 0 1 32 0;
#X connect 1 0 0 0;
#X connect 2 0 1 0;
#X connect 3 0 4 0;
#X connect 4 0 5 0;
#X connect 5 0 44 0;
#X connect 6 0 29 0;
#X connect 8 0 9 0;
#X connect 8 1 3 0;
#X connect 9 0 3 0;
#X connect 15 0 35 0;
#X connect 16 0 36 0;
#X connect 17 0 2 0;
#X connect 17 0 26 0;
#X connect 17 0 55 0;
#X connect 18 0 8 0;
#X connect 19 0 0 0;
#X connect 20 0 54 0;
#X connect 25 0 23 0;
#X connect 26 0 28 0;
#X connect 28 0 30 0;
#X connect 29 0 8 0;
#X connect 29 1 7 0;
#X connect 30 0 24 0;
#X connect 31 0 21 0;
#X connect 32 0 22 0;
#X connect 35 0 19 0;
#X connect 35 1 39 0;
#X connect 35 2 2 0;
#X connect 36 0 40 0;
#X connect 36 1 41 0;
#X connect 37 0 35 0;
#X connect 38 0 36 0;
#X connect 39 0 42 0;
#X connect 40 0 20 0;
#X connect 41 0 42 0;
#X connect 42 0 49 0;
#X connect 43 0 45 0;
#X connect 43 0 49 1;
#X connect 43 0 50 0;
#X connect 44 0 11 0;
#X connect 46 0 8 0;
#X connect 47 0 8 0;
#X connect 48 0 31 1;
#X connect 48 0 32 1;
#X connect 49 0 48 0;
#X connect 50 0 52 0;
#X connect 52 0 51 0;
#X connect 52 0 48 1;
#X connect 53 0 54 1;
#X connect 54 0 0 0;
#X coords 0 549 1 548 330 30 0;
