#N canvas 740 359 1016 488 10;
#X obj 31 15 cnv 15 690 160 empty empty empty 20 12 0 14 -233017 -66577
0;
#X obj 45 28 bng 56 250 50 0 \$0-b1-out \$0-b1-in 1 20 30 0 20 -262144
-1 -1;
#X obj 133 28 bng 56 250 50 0 \$0-b2-out \$0-b2-in 2 20 30 0 20 -262144
-1 -1;
#X obj 221 28 bng 56 250 50 0 \$0-b3-out \$0-b3-in 3 20 30 0 20 -262144
-1 -1;
#X obj 306 28 bng 56 250 50 0 \$0-b4-out \$0-b4-in 4 20 30 0 20 -262144
-1 -1;
#X obj 45 103 hradio 36 1 0 15 \$0-preset-nr-out \$0-preset-nr-in preset_bank
0 -8 0 10 -262144 -1 -1 1;
#X obj 671 103 bng 36 250 50 0 \$0-safe-bang empty safe 5 17 0 10 -262144
-1 -1;
#X obj 621 103 bng 36 250 50 0 \$0-load-bang-out \$0-load-bang-in load
5 17 0 10 -262144 -1 -1;
#X obj 391 28 bng 56 250 50 0 \$0-b5-out \$0-b5-in 5 20 30 0 20 -262144
-1 -1;
#X obj 482 28 bng 56 250 50 0 \$0-b6-out \$0-b6-in 6 20 30 0 20 -262144
-1 -1;
#X obj 565 28 bng 56 250 50 0 \$0-b7-out \$0-b7-in 7 20 30 0 20 -262144
-1 -1;
#X obj 651 28 bng 56 250 50 0 \$0-b8-out \$0-b8-in 8 20 30 0 20 -262144
-1 -1;
#X obj 45 150 bng 15 250 50 0 empty empty stop_all 17 7 0 10 -262144
-1 -1;
#X obj 379 257 r \$0-b5-out;
#X obj 59 257 r \$0-b1-out;
#X obj 139 257 r \$0-b2-out;
#X obj 219 257 r \$0-b3-out;
#X obj 299 257 r \$0-b4-out;
#X obj 459 257 r \$0-b6-out;
#X obj 539 257 r \$0-b7-out;
#X obj 619 257 r \$0-b8-out;
#X msg 59 277 s1 start;
#X msg 139 277 s2 start;
#X msg 219 277 s3 start;
#X msg 299 277 s4 start;
#X msg 379 277 s5 start;
#X msg 459 277 s6 start;
#X msg 539 277 s7 start;
#X msg 619 277 s8 start;
#X msg 45 215 s1 stop \, s2 stop \, s3 stop \, s4 stop \, s5 stop \,
s6 stop \, s7 stop \, s8 stop;
#X obj 45 340 outlet;
#X connect 12 0 29 0;
#X connect 13 0 25 0;
#X connect 14 0 21 0;
#X connect 15 0 22 0;
#X connect 16 0 23 0;
#X connect 17 0 24 0;
#X connect 18 0 26 0;
#X connect 19 0 27 0;
#X connect 20 0 28 0;
#X connect 21 0 30 0;
#X connect 22 0 30 0;
#X connect 23 0 30 0;
#X connect 24 0 30 0;
#X connect 25 0 30 0;
#X connect 26 0 30 0;
#X connect 27 0 30 0;
#X connect 28 0 30 0;
#X connect 29 0 30 0;
