#N canvas 680 87 681 454 10;
#X obj 147 196 outlet~;
#X obj 64 -213 inlet;
#N canvas 2 87 853 718 presets 0;
#X obj 57 172 textfile;
#X msg 57 137 rewind;
#X obj 17 137 until;
#X obj 38 111 t b b b;
#X obj 57 200 s \$0-samples;
#X obj 150 -31 t b f;
#X obj 150 9 s \$0-load-bang-in;
#X obj 177 -11 s \$0-preset-nr-in;
#X obj 152 88 r \$0-preset-nr-out;
#X obj 45 48 r \$0-load-bang-out;
#X obj 228 551 textfile;
#X obj 228 496 list prepend add;
#X obj 228 524 list trim;
#X msg 356 534 clear;
#X obj 209 285 t b b b;
#X text -6 624 saving preset based on SSAD by F. Barknecht // modified
by dr/2013 cornicis/2014;
#X obj -41 257 r \$0-preset-nr-out;
#X obj 209 258 r \$0-safe-bang;
#X obj 228 466 list;
#X obj 228 320 t b b;
#X obj 347 449 pack s s s s s s s s;
#X obj 347 277 symbol;
#X obj 363 297 symbol;
#X obj 380 317 symbol;
#X obj 397 337 symbol;
#X obj 413 357 symbol;
#X obj 430 377 symbol;
#X obj 447 397 symbol;
#X obj 464 417 symbol;
#X obj 150 -51 r \$0-preset-set;
#X obj 347 221 route file;
#X obj 347 249 route 1 2 3 4 5 6 7 8;
#X obj 512 208 r \$0-ctrl-in;
#X obj 512 259 route 1 2 3 4 5 6 7 8;
#X obj 512 289 route file;
#X obj 512 232 t a a;
#X msg 617 299 \$1;
#X obj 512 318 symbol;
#X obj 617 327 expr if ($f1 > 8 \, 0 \, $f1) \;;
#X obj 347 196 r \$0-dump-set;
#X obj 514 348 cyclone/gate 8;
#X msg 152 108 set read ../../presets/samplerX8_\$1.txt;
#X msg 152 128 read ../../presets/samplerX8_0.txt;
#X msg -41 285 set write ../../presets/samplerX8_\$1.txt;
#X msg -41 372 write ../../presets/samplerX8_0.txt;
#X obj 148 217 print loaded samples;
#X connect 0 0 4 0;
#X connect 0 0 45 0;
#X connect 0 1 2 1;
#X connect 1 0 0 0;
#X connect 2 0 0 0;
#X connect 3 0 2 0;
#X connect 3 1 1 0;
#X connect 3 2 42 0;
#X connect 5 0 6 0;
#X connect 5 1 7 0;
#X connect 8 0 41 0;
#X connect 9 0 3 0;
#X connect 11 0 12 0;
#X connect 12 0 10 0;
#X connect 13 0 10 0;
#X connect 14 0 44 0;
#X connect 14 1 19 0;
#X connect 14 2 13 0;
#X connect 16 0 43 0;
#X connect 17 0 14 0;
#X connect 18 0 11 0;
#X connect 19 0 18 0;
#X connect 19 1 20 0;
#X connect 20 0 18 1;
#X connect 21 0 20 0;
#X connect 22 0 20 1;
#X connect 23 0 20 2;
#X connect 24 0 20 3;
#X connect 25 0 20 4;
#X connect 26 0 20 5;
#X connect 27 0 20 6;
#X connect 28 0 20 7;
#X connect 29 0 5 0;
#X connect 30 0 31 0;
#X connect 31 0 21 0;
#X connect 31 1 22 0;
#X connect 31 2 23 0;
#X connect 31 3 24 0;
#X connect 31 4 25 0;
#X connect 31 5 26 0;
#X connect 31 6 27 0;
#X connect 31 7 28 0;
#X connect 32 0 35 0;
#X connect 33 0 34 0;
#X connect 33 1 34 0;
#X connect 33 2 34 0;
#X connect 33 3 34 0;
#X connect 33 4 34 0;
#X connect 33 5 34 0;
#X connect 33 6 34 0;
#X connect 33 7 34 0;
#X connect 34 0 37 0;
#X connect 35 0 33 0;
#X connect 35 1 36 0;
#X connect 36 0 38 0;
#X connect 37 0 40 1;
#X connect 38 0 40 0;
#X connect 39 0 30 0;
#X connect 40 0 20 0;
#X connect 40 1 20 1;
#X connect 40 2 20 2;
#X connect 40 3 20 3;
#X connect 40 4 20 4;
#X connect 40 5 20 5;
#X connect 40 6 20 6;
#X connect 40 7 20 7;
#X connect 41 0 42 0;
#X connect 42 0 0 0;
#X connect 43 0 44 0;
#X connect 44 0 10 0;
#X restore 63 75 pd presets;
#X obj 229 196 outlet;
#X obj 64 -182 route sampler;
#X obj 139 -156 s \$0-ctrl-out;
#X obj 229 169 r \$0-ctrl-out;
#X obj 64 -65 ../utls/param \$0 stop;
#X obj 64 -45 ../utls/param \$0 volume;
#X obj 64 -25 ../utls/param \$0 preset;
#X obj 64 17 s \$0-ctrl-out;
#X obj 64 -107 ../utls/param \$0 file;
#X obj 64 -85 ../utls/param \$0 start;
#X text 159 -176 daisy chaining;
#X text 76 -125 get parameters;
#X text 72 0 forward unhandled input;
#X obj 64 198 outlet~;
#X obj 147 168 r~ \$0-out-r;
#X obj 63 169 r~ \$0-out-l;
#N canvas 2 87 722 497 parameters 0;
#X obj -370 -231 unpack s s s s s s s s;
#X obj -370 -259 r \$0-samples;
#X obj -537 95 r \$0-file-set;
#X msg -537 129 \$1 file \$2;
#X obj -537 163 s \$0-ctrl-in;
#X obj -329 160 s \$0-ctrl-in;
#X obj -329 94 r \$0-stop-set;
#X msg -329 137 \$1 stop;
#X obj -439 160 s \$0-ctrl-in;
#X obj -439 94 r \$0-start-set;
#X obj -196 93 r \$0-volume-set;
#X msg -439 137 \$1 start;
#X msg -546 -45 1 file \$1;
#X msg -476 -45 2 file \$1;
#X msg -406 -45 3 file \$1;
#X msg -335 -45 4 file \$1;
#X msg -266 -45 5 file \$1;
#X msg -196 -45 6 file \$1;
#X msg -126 -45 7 file \$1;
#X msg -56 -45 8 file \$1;
#X msg -196 139 mixer \$1 volume \$2;
#X obj -196 160 s \$0-ctrl-in;
#X obj -413 36 s \$0-ctrl-in;
#X msg -360 4 \$1 \$2 \$3;
#X obj -540 -186 makefilename ../../samples/%s;
#X obj -481 -146 makefilename ../../samples/%s;
#X obj -400 -126 makefilename ../../samples/%s;
#X obj -330 -96 makefilename ../../samples/%s;
#X obj -265 -193 makefilename ../../samples/%s;
#X obj -195 -163 makefilename ../../samples/%s;
#X obj -125 -123 makefilename ../../samples/%s;
#X obj -55 -93 makefilename ../../samples/%s;
#X connect 0 0 24 0;
#X connect 0 1 25 0;
#X connect 0 2 26 0;
#X connect 0 3 27 0;
#X connect 0 4 28 0;
#X connect 0 5 29 0;
#X connect 0 6 30 0;
#X connect 0 7 31 0;
#X connect 1 0 0 0;
#X connect 2 0 3 0;
#X connect 3 0 4 0;
#X connect 6 0 7 0;
#X connect 7 0 5 0;
#X connect 9 0 11 0;
#X connect 10 0 20 0;
#X connect 11 0 8 0;
#X connect 12 0 23 0;
#X connect 13 0 23 0;
#X connect 14 0 23 0;
#X connect 15 0 23 0;
#X connect 16 0 23 0;
#X connect 17 0 23 0;
#X connect 18 0 23 0;
#X connect 19 0 23 0;
#X connect 20 0 21 0;
#X connect 23 0 22 0;
#X connect 24 0 12 0;
#X connect 25 0 13 0;
#X connect 26 0 14 0;
#X connect 27 0 15 0;
#X connect 28 0 16 0;
#X connect 29 0 17 0;
#X connect 30 0 18 0;
#X connect 31 0 19 0;
#X restore 63 96 pd parameters;
#N canvas 2 87 863 310 audio 0;
#X obj 81 174 mixerX8 _ _ _ _ _ _ _ _ _ _ _ _ _ _ _ _ _ _ _ _ _ _ _
_ _ _;
#X obj 81 71 r \$0-ctrl-in;
#X obj 432 210 ../utls/param \$0 dump;
#X obj 624 262 print unhandled by sampler;
#X obj 80 214 s~ \$0-out-l;
#X obj 255 213 s~ \$0-out-r;
#X obj 432 253 s \$0-ctrl-out;
#X obj 690 94 playSample 8;
#X obj 81 94 playSample 1;
#X obj 168 94 playSample 2;
#X obj 255 94 playSample 3;
#X obj 342 94 playSample 4;
#X obj 429 94 playSample 5;
#X obj 516 94 playSample 6;
#X obj 603 94 playSample 7;
#X obj 676 180 print ffffffffffffffff;
#X msg 196 27 1 envelope 0 \, 2 envelope 0 \, 3 envelope 0 \, 4 envelope
0;
#X msg 206 50 5 envelope 1 \, 6 envelope 1 \, 7 envelope 1 \, 8 envelope
1;
#X obj 153 7 loadbang;
#X obj 110 15 bng 15 250 50 0 empty empty empty 17 7 0 10 -262144 -1
-1;
#X connect 0 0 4 0;
#X connect 0 1 5 0;
#X connect 0 2 2 0;
#X connect 1 0 8 0;
#X connect 2 0 6 0;
#X connect 2 0 3 0;
#X connect 7 0 0 14;
#X connect 7 1 0 15;
#X connect 7 2 0 16;
#X connect 7 2 15 0;
#X connect 8 0 0 0;
#X connect 8 1 0 1;
#X connect 8 2 9 0;
#X connect 9 0 0 2;
#X connect 9 1 0 3;
#X connect 9 2 10 0;
#X connect 10 0 0 4;
#X connect 10 1 0 5;
#X connect 10 2 11 0;
#X connect 11 0 0 6;
#X connect 11 1 0 7;
#X connect 11 2 12 0;
#X connect 12 0 0 8;
#X connect 12 1 0 9;
#X connect 12 2 13 0;
#X connect 13 0 0 10;
#X connect 13 1 0 11;
#X connect 13 2 14 0;
#X connect 14 0 0 12;
#X connect 14 1 0 13;
#X connect 14 2 7 0;
#X connect 16 0 8 0;
#X connect 17 0 12 0;
#X connect 18 0 16 0;
#X connect 18 0 17 0;
#X connect 19 0 18 0;
#X restore 63 119 pd audio;
#X connect 1 0 4 0;
#X connect 4 0 11 0;
#X connect 4 1 5 0;
#X connect 6 0 3 0;
#X connect 7 0 8 0;
#X connect 8 0 9 0;
#X connect 9 0 10 0;
#X connect 11 0 12 0;
#X connect 12 0 7 0;
#X connect 17 0 0 0;
#X connect 18 0 16 0;
#X coords 0 454 1 453 690 140 0;
