#N canvas 2 87 612 718 10;
#X obj 147 460 outlet~;
#X obj 64 51 inlet;
#N canvas 1 49 612 718 presets 0;
#X obj 57 172 textfile;
#X msg 57 137 rewind;
#X obj 17 137 until;
#X obj 38 111 t b b b;
#X obj 57 200 s \$0-samples;
#X obj 150 -31 t b f;
#X obj 150 9 s \$0-load-bang-in;
#X obj 177 -11 s \$0-preset-nr-in;
#X obj 152 88 r \$0-preset-nr-out;
#X obj 45 48 r \$0-load-bang-out;
#X obj 228 551 textfile;
#X obj 228 496 list prepend add;
#X obj 228 524 list trim;
#X msg 356 534 clear;
#X obj 209 285 t b b b;
#X text -6 624 saving preset based on SSAD by F. Barknecht // modified
by dr/2013 cornicis/2014;
#X obj -41 257 r \$0-preset-nr-out;
#X obj 209 258 r \$0-safe-bang;
#X obj 228 466 list;
#X obj 228 320 t b b;
#X obj 347 449 pack s s s s s s s s;
#X obj 347 277 symbol;
#X obj 363 297 symbol;
#X obj 380 317 symbol;
#X obj 397 337 symbol;
#X obj 413 357 symbol;
#X obj 430 377 symbol;
#X obj 447 397 symbol;
#X obj 464 417 symbol;
#X obj 150 -51 r \$0-preset-set;
#X obj 347 221 route file;
#X obj 347 249 route 1 2 3 4 5 6 7 8;
#X obj 512 208 r \$0-ctrl-in;
#X obj 512 259 route 1 2 3 4 5 6 7 8;
#X obj 512 289 route file;
#X obj 512 232 t a a;
#X msg 617 299 \$1;
#X obj 512 318 symbol;
#X obj 617 327 expr if ($f1 > 8 \, 0 \, $f1) \;;
#X obj 347 196 r \$0-dump-set;
#X obj 514 348 cyclone/gate 8;
#X msg 152 108 set read ../../presets/samplerX8_\$1.txt;
#X msg 152 128 read ../../presets/samplerX8_0.txt;
#X msg -41 285 set write ../../presets/samplerX8_\$1.txt;
#X msg -41 372 write ../../presets/samplerX8_0.txt;
#X obj 148 217 print loaded samples;
#X connect 0 0 4 0;
#X connect 0 0 45 0;
#X connect 0 1 2 1;
#X connect 1 0 0 0;
#X connect 2 0 0 0;
#X connect 3 0 2 0;
#X connect 3 1 1 0;
#X connect 3 2 42 0;
#X connect 5 0 6 0;
#X connect 5 1 7 0;
#X connect 8 0 41 0;
#X connect 9 0 3 0;
#X connect 11 0 12 0;
#X connect 12 0 10 0;
#X connect 13 0 10 0;
#X connect 14 0 44 0;
#X connect 14 1 19 0;
#X connect 14 2 13 0;
#X connect 16 0 43 0;
#X connect 17 0 14 0;
#X connect 18 0 11 0;
#X connect 19 0 18 0;
#X connect 19 1 20 0;
#X connect 20 0 18 1;
#X connect 21 0 20 0;
#X connect 22 0 20 1;
#X connect 23 0 20 2;
#X connect 24 0 20 3;
#X connect 25 0 20 4;
#X connect 26 0 20 5;
#X connect 27 0 20 6;
#X connect 28 0 20 7;
#X connect 29 0 5 0;
#X connect 30 0 31 0;
#X connect 31 0 21 0;
#X connect 31 1 22 0;
#X connect 31 2 23 0;
#X connect 31 3 24 0;
#X connect 31 4 25 0;
#X connect 31 5 26 0;
#X connect 31 6 27 0;
#X connect 31 7 28 0;
#X connect 32 0 35 0;
#X connect 33 0 34 0;
#X connect 33 1 34 0;
#X connect 33 2 34 0;
#X connect 33 3 34 0;
#X connect 33 4 34 0;
#X connect 33 5 34 0;
#X connect 33 6 34 0;
#X connect 33 7 34 0;
#X connect 34 0 37 0;
#X connect 35 0 33 0;
#X connect 35 1 36 0;
#X connect 36 0 38 0;
#X connect 37 0 40 1;
#X connect 38 0 40 0;
#X connect 39 0 30 0;
#X connect 40 0 20 0;
#X connect 40 1 20 1;
#X connect 40 2 20 2;
#X connect 40 3 20 3;
#X connect 40 4 20 4;
#X connect 40 5 20 5;
#X connect 40 6 20 6;
#X connect 40 7 20 7;
#X connect 41 0 42 0;
#X connect 42 0 0 0;
#X connect 43 0 44 0;
#X connect 44 0 10 0;
#X restore 63 339 pd presets;
#X obj 229 460 outlet;
#X obj 64 82 route sampler;
#X obj 139 108 s \$0-ctrl-out;
#X obj 229 433 r \$0-ctrl-out;
#X obj 64 199 ../utls/param \$0 stop;
#X obj 64 219 ../utls/param \$0 volume;
#X obj 64 239 ../utls/param \$0 preset;
#X obj 64 281 s \$0-ctrl-out;
#X obj 64 157 ../utls/param \$0 file;
#X obj 64 179 ../utls/param \$0 start;
#X text 159 88 daisy chaining;
#X text 76 139 get parameters;
#X text 72 264 forward unhandled input;
#X obj 64 462 outlet~;
#X obj 147 432 r~ \$0-out-r;
#X obj 63 433 r~ \$0-out-l;
#N canvas 1 49 612 718 parameters 0;
#X obj -370 -231 unpack s s s s s s s s;
#X obj -370 -259 r \$0-samples;
#X obj -537 95 r \$0-file-set;
#X msg -537 129 \$1 file \$2;
#X obj -537 163 s \$0-ctrl-in;
#X obj -329 160 s \$0-ctrl-in;
#X obj -329 94 r \$0-stop-set;
#X msg -329 137 \$1 stop;
#X obj -439 160 s \$0-ctrl-in;
#X obj -439 94 r \$0-start-set;
#X obj -196 93 r \$0-volume-set;
#X msg -439 137 \$1 start;
#X msg -546 -45 1 file \$1;
#X msg -476 -45 2 file \$1;
#X msg -406 -45 3 file \$1;
#X msg -335 -45 4 file \$1;
#X msg -266 -45 5 file \$1;
#X msg -196 -45 6 file \$1;
#X msg -126 -45 7 file \$1;
#X msg -56 -45 8 file \$1;
#X msg -196 139 mixer \$1 volume \$2;
#X obj -196 160 s \$0-ctrl-in;
#X obj -413 36 s \$0-ctrl-in;
#X msg -360 4 \$1 \$2 \$3;
#X obj -540 -186 makefilename ../../samples/%s;
#X obj -481 -146 makefilename ../../samples/%s;
#X obj -400 -126 makefilename ../../samples/%s;
#X obj -330 -96 makefilename ../../samples/%s;
#X obj -265 -193 makefilename ../../samples/%s;
#X obj -195 -163 makefilename ../../samples/%s;
#X obj -125 -123 makefilename ../../samples/%s;
#X obj -55 -93 makefilename ../../samples/%s;
#X connect 0 0 24 0;
#X connect 0 1 25 0;
#X connect 0 2 26 0;
#X connect 0 3 27 0;
#X connect 0 4 28 0;
#X connect 0 5 29 0;
#X connect 0 6 30 0;
#X connect 0 7 31 0;
#X connect 1 0 0 0;
#X connect 2 0 3 0;
#X connect 3 0 4 0;
#X connect 6 0 7 0;
#X connect 7 0 5 0;
#X connect 9 0 11 0;
#X connect 10 0 20 0;
#X connect 11 0 8 0;
#X connect 12 0 23 0;
#X connect 13 0 23 0;
#X connect 14 0 23 0;
#X connect 15 0 23 0;
#X connect 16 0 23 0;
#X connect 17 0 23 0;
#X connect 18 0 23 0;
#X connect 19 0 23 0;
#X connect 20 0 21 0;
#X connect 23 0 22 0;
#X connect 24 0 12 0;
#X connect 25 0 13 0;
#X connect 26 0 14 0;
#X connect 27 0 15 0;
#X connect 28 0 16 0;
#X connect 29 0 17 0;
#X connect 30 0 18 0;
#X connect 31 0 19 0;
#X restore 63 360 pd parameters;
#N canvas 1 49 1364 718 controls 0;
#X obj 41 25 cnv 15 690 160 empty empty empty 20 12 0 14 -233017 -66577
0;
#X obj 55 38 bng 56 250 50 0 \$0-b1-out \$0-b1-in 1 20 30 0 20 -262144
-1 -1;
#X obj 143 38 bng 56 250 50 0 \$0-b2-out \$0-b2-in 2 20 30 0 20 -262144
-1 -1;
#X obj 231 38 bng 56 250 50 0 \$0-b3-out \$0-b3-in 3 20 30 0 20 -262144
-1 -1;
#X obj 316 38 bng 56 250 50 0 \$0-b4-out \$0-b4-in 4 20 30 0 20 -262144
-1 -1;
#X obj 55 113 hradio 36 1 0 15 \$0-preset-nr-out \$0-preset-nr-in preset_bank
0 -8 0 10 -262144 -1 -1 0;
#X obj 681 113 bng 36 250 50 0 \$0-safe-bang empty safe 5 17 0 10 -262144
-1 -1;
#X obj 631 113 bng 36 250 50 0 \$0-load-bang-out \$0-load-bang-in load
5 17 0 10 -262144 -1 -1;
#X obj 401 38 bng 56 250 50 0 \$0-b5-out \$0-b5-in 5 20 30 0 20 -262144
-1 -1;
#X obj 492 38 bng 56 250 50 0 \$0-b6-out \$0-b6-in 6 20 30 0 20 -262144
-1 -1;
#X obj 575 38 bng 56 250 50 0 \$0-b7-out \$0-b7-in 7 20 30 0 20 -262144
-1 -1;
#X obj 661 38 bng 56 250 50 0 \$0-b8-out \$0-b8-in 8 20 30 0 20 -262144
-1 -1;
#X obj 55 160 bng 15 250 50 0 empty empty stop_all 17 7 0 10 -262144
-1 -1;
#X msg 55 225 stop 1 \, stop 2 \, stop 3 \, stop 4 \, stop 5 \, stop
6 \, stop 7 \, stop8;
#X obj 389 267 r \$0-b5-out;
#X obj 69 267 r \$0-b1-out;
#X obj 149 267 r \$0-b2-out;
#X obj 229 267 r \$0-b3-out;
#X obj 309 267 r \$0-b4-out;
#X obj 469 267 r \$0-b6-out;
#X obj 549 267 r \$0-b7-out;
#X obj 629 267 r \$0-b8-out;
#X msg 69 287 start 1;
#X msg 149 287 start 2;
#X msg 229 287 start 3;
#X msg 309 287 start 4;
#X msg 389 287 start 5;
#X msg 469 287 start 6;
#X msg 549 287 start 7;
#X msg 629 287 start 8;
#X obj 55 350 outlet;
#X connect 12 0 13 0;
#X connect 13 0 30 0;
#X connect 14 0 26 0;
#X connect 15 0 22 0;
#X connect 16 0 23 0;
#X connect 17 0 24 0;
#X connect 18 0 25 0;
#X connect 19 0 27 0;
#X connect 20 0 28 0;
#X connect 21 0 29 0;
#X connect 22 0 30 0;
#X connect 23 0 30 0;
#X connect 24 0 30 0;
#X connect 25 0 30 0;
#X connect 26 0 30 0;
#X connect 27 0 30 0;
#X connect 28 0 30 0;
#X connect 29 0 30 0;
#X restore -7 119 pd controls;
#N canvas 2 87 612 718 init 1;
#X obj 131 157 outlet;
#X obj 133 53 loadbang;
#X msg 136 111 preset 0;
#X connect 1 0 2 0;
#X connect 2 0 0 0;
#X restore -8 97 pd init;
#N canvas 1 49 612 718 audio 0;
#X obj 81 174 mixerX8 _ _ _ _ _ _ _ _ _ _ _ _ _ _ _ _ _ _ _ _ _ _ _
_ _ _;
#X obj 81 71 r \$0-ctrl-in;
#X obj 432 210 ../utls/param \$0 dump;
#X obj 624 262 print unhandled by sampler;
#X obj 80 214 s~ \$0-out-l;
#X obj 255 213 s~ \$0-out-r;
#X obj 432 253 s \$0-ctrl-out;
#X obj 690 94 playSample 8;
#X obj 81 94 playSample 1;
#X obj 168 94 playSample 2;
#X obj 255 94 playSample 3;
#X obj 342 94 playSample 4;
#X obj 429 94 playSample 5;
#X obj 516 94 playSample 6;
#X obj 603 94 playSample 7;
#X obj 676 180 print ffffffffffffffff;
#X connect 0 0 4 0;
#X connect 0 1 5 0;
#X connect 0 2 2 0;
#X connect 1 0 8 0;
#X connect 2 0 6 0;
#X connect 2 0 3 0;
#X connect 7 0 0 14;
#X connect 7 1 0 15;
#X connect 7 2 0 16;
#X connect 7 2 15 0;
#X connect 8 0 0 0;
#X connect 8 1 0 1;
#X connect 8 2 9 0;
#X connect 9 0 0 2;
#X connect 9 1 0 3;
#X connect 9 2 10 0;
#X connect 10 0 0 4;
#X connect 10 1 0 5;
#X connect 10 2 11 0;
#X connect 11 0 0 6;
#X connect 11 1 0 7;
#X connect 11 2 12 0;
#X connect 12 0 0 8;
#X connect 12 1 0 9;
#X connect 12 2 13 0;
#X connect 13 0 0 10;
#X connect 13 1 0 11;
#X connect 13 2 14 0;
#X connect 14 0 0 12;
#X connect 14 1 0 13;
#X connect 14 2 7 0;
#X restore 63 383 pd audio;
#X connect 1 0 4 0;
#X connect 4 0 11 0;
#X connect 4 1 5 0;
#X connect 6 0 3 0;
#X connect 7 0 8 0;
#X connect 8 0 9 0;
#X connect 9 0 10 0;
#X connect 11 0 12 0;
#X connect 12 0 7 0;
#X connect 17 0 0 0;
#X connect 18 0 16 0;
#X connect 20 0 11 0;
#X connect 21 0 11 0;
#X coords 0 718 1 717 690 140 0;
