#N canvas 1197 220 681 454 10;
#X obj 147 196 outlet~;
#X obj 64 -213 inlet;
#X obj 229 196 outlet;
#X obj 64 -182 route sampler;
#X obj 139 -156 s \$0-ctrl-out;
#X obj 229 169 r \$0-ctrl-out;
#X obj 64 -65 ../utls/param \$0 stop;
#X obj 64 -45 ../utls/param \$0 volume;
#X obj 64 17 s \$0-ctrl-out;
#X obj 64 -107 ../utls/param \$0 file;
#X obj 64 -85 ../utls/param \$0 start;
#X text 159 -176 daisy chaining;
#X text 76 -125 get parameters;
#X text 72 0 forward unhandled input;
#X obj 64 198 outlet~;
#X obj 147 168 r~ \$0-out-r;
#X obj 63 169 r~ \$0-out-l;
#N canvas 220 191 863 634 audio 1;
#X obj 31 174 mixerX8 _ _ _ _ _ _ _ _ _ _ _ _ _ _ _ _ _ _ _ _ _ _ _
_ _ _;
#X obj 31 71 r \$0-ctrl-in;
#X obj 382 210 ../utls/param \$0 dump;
#X obj 574 262 print unhandled by sampler;
#X obj 30 214 s~ \$0-out-l;
#X obj 205 213 s~ \$0-out-r;
#X obj 382 253 s \$0-ctrl-out;
#X obj 640 94 playSample 8;
#X obj 31 94 playSample 1;
#X obj 118 94 playSample 2;
#X obj 205 94 playSample 3;
#X obj 292 94 playSample 4;
#X obj 379 94 playSample 5;
#X obj 466 94 playSample 6;
#X obj 553 94 playSample 7;
#X obj 626 180 print ffffffffffffffff;
#X msg 146 27 1 envelope 0 \, 2 envelope 0 \, 3 envelope 0 \, 4 envelope
0;
#X msg 156 50 5 envelope 1 \, 6 envelope 1 \, 7 envelope 1 \, 8 envelope
1;
#X obj 103 7 loadbang;
#X obj 60 15 bng 15 250 50 0 empty empty empty 17 7 0 10 -262144 -1
-1;
#X obj 33 -155 r \$0-file-set;
#X msg 33 -121 \$1 file \$2;
#X obj 33 -87 s \$0-ctrl-in;
#X obj 241 -90 s \$0-ctrl-in;
#X obj 241 -156 r \$0-stop-set;
#X msg 241 -113 \$1 stop;
#X obj 131 -90 s \$0-ctrl-in;
#X obj 131 -156 r \$0-start-set;
#X obj 374 -157 r \$0-volume-set;
#X msg 131 -113 \$1 start;
#X msg 374 -111 mixer \$1 volume \$2;
#X obj 374 -90 s \$0-ctrl-in;
#X connect 0 0 4 0;
#X connect 0 1 5 0;
#X connect 0 2 2 0;
#X connect 1 0 8 0;
#X connect 2 0 6 0;
#X connect 2 0 3 0;
#X connect 7 0 0 14;
#X connect 7 1 0 15;
#X connect 7 2 0 16;
#X connect 7 2 15 0;
#X connect 8 0 0 0;
#X connect 8 1 0 1;
#X connect 8 2 9 0;
#X connect 9 0 0 2;
#X connect 9 1 0 3;
#X connect 9 2 10 0;
#X connect 10 0 0 4;
#X connect 10 1 0 5;
#X connect 10 2 11 0;
#X connect 11 0 0 6;
#X connect 11 1 0 7;
#X connect 11 2 12 0;
#X connect 12 0 0 8;
#X connect 12 1 0 9;
#X connect 12 2 13 0;
#X connect 13 0 0 10;
#X connect 13 1 0 11;
#X connect 13 2 14 0;
#X connect 14 0 0 12;
#X connect 14 1 0 13;
#X connect 14 2 7 0;
#X connect 16 0 8 0;
#X connect 17 0 12 0;
#X connect 18 0 16 0;
#X connect 18 0 17 0;
#X connect 19 0 18 0;
#X connect 20 0 21 0;
#X connect 21 0 22 0;
#X connect 24 0 25 0;
#X connect 25 0 23 0;
#X connect 27 0 29 0;
#X connect 28 0 30 0;
#X connect 29 0 26 0;
#X connect 30 0 31 0;
#X restore 63 119 pd audio;
#X connect 1 0 3 0;
#X connect 3 0 9 0;
#X connect 3 1 4 0;
#X connect 5 0 2 0;
#X connect 6 0 7 0;
#X connect 7 0 8 0;
#X connect 9 0 10 0;
#X connect 10 0 6 0;
#X connect 15 0 0 0;
#X connect 16 0 14 0;
#X coords 0 454 1 453 690 140 0;
