#N canvas 565 87 1355 989 10;
#X obj -4 -182 clock;
#X obj -4 -60 metroBPM;
#X obj -4 -151 workSpaceGuitarControl;
#X obj 80 -232 countDown;
#X obj 248 -415 loadbang;
#X obj -46 384 output~;
#X obj 82 178 record;
#X obj -46 206 mixerX8;
#X msg 246 -347 volumes 0.7 0.7 0.7 0.7 0.7 0.7 0.7 0.7;
#X obj 410 -199 samplerX8;
#N canvas 2 87 1905 989 bass 0;
#X obj 167 296 outlet~;
#X obj 278 294 outlet~;
#X text 98 -100 CutOff;
#X text 152 -100 Reso;
#X text 191 -100 EnvMod;
#X text 241 -100 Decay;
#X obj 112 -195 loadbang;
#X obj 470 44 vradio 15 1 0 5 empty empty empty 0 -6 0 8 -262144 -1
-1 0;
#X msg 470 122 ext \$1;
#X obj 470 142 s bass_ctl;
#X obj 343 -84 vsl 25 128 0 127 0 0 empty empty empty 0 -8 0 8 -262144
-1 -1 0 1;
#X msg 343 72 glide \$1;
#X obj 470 -76 vradio 15 1 0 4 empty empty empty 0 -6 0 8 -262144 -1
-1 0;
#X obj 470 7 s bass_ctl;
#X msg 470 -13 vco \$1;
#X obj 470 180 tgl 15 0 empty empty empty 0 -6 0 8 -262144 -1 -1 0
1;
#X obj 470 218 s bass_ctl;
#X msg 470 198 hpf \$1;
#X obj -196 143 vradio 15 1 0 3 empty empty empty 0 -6 0 8 -262144
-1 -1 0;
#X obj -196 211 s bass_ctl;
#X msg -196 191 limit \$1;
#X msg 469 -137 tune \$1;
#X floatatom 469 -155 5 0 0 0 - - -;
#X obj 469 -115 s bass_ctl;
#X msg 469 -178 440;
#X floatatom -209 -49 5 0 0 0 - - -;
#X obj 206 150 r bass_ctl;
#X text 489 -77 Saw;
#X text 489 -61 Square;
#X text 489 -45 Tri;
#X text 489 -31 Sine;
#X text 490 181 VCO-HPF;
#X text 508 -155 Tune;
#X text 487 42 Int.Only;
#X text 487 59 Ext.Only;
#X text 487 74 Int.+Ext.;
#X text 487 89 Ext.Only+HPF;
#X text 488 105 Int.+Ext.+HPF;
#X text -178 143 No limiting;
#X text -177 159 Hard Limiting;
#X text -177 174 Sine Limiting;
#X text 337 -99 Glide;
#X msg -219 -126 30 0.5 0.3 0.1 0.5;
#X obj 112 -85 vsl 25 128 -1 1 0 0 empty empty empty 0 -8 0 8 -262144
-1 -1 9525 1;
#X obj 158 -85 vsl 25 128 -1 2 0 0 empty empty empty 0 -8 0 8 -262144
-1 -1 7620 1;
#X obj 204 -85 vsl 25 128 -1 2 0 0 empty empty empty 0 -8 0 8 -262144
-1 -1 7197 1;
#X obj 250 -85 vsl 25 128 -1 1 0 0 empty empty empty 0 -8 0 8 -262144
-1 -1 6985 1;
#X obj 296 -85 vsl 25 128 0 1 0 0 empty empty empty 0 -8 0 8 -262144
-1 -1 6350 1;
#X msg 112 -128 0.5;
#X msg 158 -128 0.8;
#X msg 204 -128 0.7;
#X msg 250 -128 0.1;
#X msg 296 -128 0.5;
#X msg -209 15 -1;
#X text -224 -153 <note> <reso> <envmod> <decay> <pulsewidth>;
#X text -223 -166 Send Note-Events as List of Floats:;
#X text -209 -3 -1 to turn Note Off;
#X text -221 -142 All Parameters are optional;
#X obj -219 41 s bass_ctl;
#X text -216 125 Output-Signal Limiting:;
#X text 469 -92 VCO WaveSelect:;
#X text 468 -193 VCO Tuning:;
#X text 469 29 SoundSource:;
#X text 469 164 Extra HiPass:;
#X msg -36 233 envinc \$1;
#X obj -36 253 s bass_ctl;
#X msg -36 94 8;
#X msg -36 111 64;
#X msg -36 128 256;
#X msg -36 145 1024;
#X msg -36 162 8192;
#X msg -36 196 32768;
#X msg -36 213 65536;
#X msg -36 179 16384;
#X text -209 -80 Note-Number to;
#X text -209 -67 play immediatly;
#X text -68 79 EnvGen Stepsize:;
#X text -252 -245 bassemu~: a transistor bass emulation;
#X text -253 -223 You can feed an external audio source to;
#X text -253 -209 the leftmost inlet.;
#X msg 112 55 cutoff \$1;
#X msg 158 75 reso \$1;
#X obj 204 111 s bass_ctl;
#X msg 204 51 envmod \$1;
#X msg 250 71 decay \$1;
#X msg 296 51 pw \$1;
#X msg 213 181 reset;
#X text 257 170 Emergency Reset;
#X text 257 183 in case the filter;
#X text 257 195 goes mad;
#X text 141 -246 Extreme settings here may;
#X text 142 -230 bork up the Filter. Use the;
#X text 141 -216 reset message to the bassemu then;
#X text 294 -110 Rect;
#X text 291 -100 Width;
#X obj 343 51 / 127;
#X msg -43 26 pitch \$1;
#X obj -40 -32 hsl 129 15 0 128 0 0 empty empty empty -2 -6 0 8 -262144
-1 -1 6400 1;
#X obj -43 -15 - 64;
#X obj -43 45 s bass_ctl;
#X obj -43 4 / 16;
#X msg -43 -51 64;
#X obj -10 -14 nbx 5 14 -1e+37 1e+37 0 0 empty empty empty 0 -6 0 10
-262144 -1 -1 0 256;
#X text -2 -51 Pitch Bend;
#N canvas 504 253 494 344 META 0;
#X text 12 135 RELEASE_DATE 2009-06-12;
#X text 12 155 HELP_PATCH_AUTHORS "pd meta" information added by Jonathan
Wilkes for Pd version 0.42.;
#X text 12 45 DESCRIPTION a transistor bass emulation;
#X text 12 65 INLET_0 float list reset pitch cutoff reso envmod decay
pw glide limit envinc hpf ext vco tune;
#X text 12 95 OUTLET_0 signal;
#X text 12 115 AUTHOR Christian Klippel;
#X text 12 25 LICENSE GPL;
#X text 12 5 KEYWORDS signal;
#X restore 540 277 pd META;
#X obj 206 218 bassemu~;
#X obj -442 -181 stripnote;
#X obj -338 -168 == 0;
#X obj -443 -242 inlet;
#X obj -442 -216 unpack f f;
#X connect 6 0 48 0;
#X connect 6 0 49 0;
#X connect 6 0 50 0;
#X connect 6 0 51 0;
#X connect 6 0 52 0;
#X connect 6 0 24 0;
#X connect 6 0 101 0;
#X connect 7 0 8 0;
#X connect 8 0 9 0;
#X connect 10 0 95 0;
#X connect 11 0 82 0;
#X connect 12 0 14 0;
#X connect 14 0 13 0;
#X connect 15 0 17 0;
#X connect 17 0 16 0;
#X connect 18 0 20 0;
#X connect 20 0 19 0;
#X connect 21 0 23 0;
#X connect 22 0 21 0;
#X connect 24 0 22 0;
#X connect 25 0 58 0;
#X connect 26 0 105 0;
#X connect 42 0 58 0;
#X connect 43 0 80 0;
#X connect 44 0 81 0;
#X connect 45 0 83 0;
#X connect 46 0 84 0;
#X connect 47 0 85 0;
#X connect 48 0 43 0;
#X connect 49 0 44 0;
#X connect 50 0 45 0;
#X connect 51 0 46 0;
#X connect 52 0 47 0;
#X connect 53 0 58 0;
#X connect 64 0 65 0;
#X connect 66 0 64 0;
#X connect 67 0 64 0;
#X connect 68 0 64 0;
#X connect 69 0 64 0;
#X connect 70 0 64 0;
#X connect 71 0 64 0;
#X connect 72 0 64 0;
#X connect 73 0 64 0;
#X connect 80 0 82 0;
#X connect 81 0 82 0;
#X connect 83 0 82 0;
#X connect 84 0 82 0;
#X connect 85 0 82 0;
#X connect 86 0 105 0;
#X connect 95 0 11 0;
#X connect 96 0 99 0;
#X connect 97 0 98 0;
#X connect 98 0 100 0;
#X connect 100 0 96 0;
#X connect 100 0 102 0;
#X connect 101 0 97 0;
#X connect 105 0 0 0;
#X connect 105 0 1 0;
#X connect 106 0 25 0;
#X connect 107 0 53 0;
#X connect 108 0 109 0;
#X connect 109 0 106 0;
#X connect 109 1 107 0;
#X connect 109 1 106 1;
#X restore 256 178 pd bass;
#X msg -82 -398 \; pd dsp 1;
#X obj -17 -375 mediasettings/midisettings;
#X msg -17 -398 driver ALSA-MIDI;
#X obj -4 150 metroClick;
#X msg -46 -320 volumes 0.3 0.7 0.9 0.7 0.7 0.7 0.7 0.5;
#X obj 410 -227 mpkMini;
#X obj 83 12 guitar;
#X obj 169 178 record;
#X obj 170 12 guitar;
#X obj 256 158 mpkMini;
#X connect 1 0 14 0;
#X connect 2 0 0 0;
#X connect 2 0 1 0;
#X connect 2 0 6 1;
#X connect 2 0 18 1;
#X connect 2 2 0 1;
#X connect 2 3 1 0;
#X connect 2 3 18 0;
#X connect 2 3 6 1;
#X connect 3 0 2 1;
#X connect 4 0 11 0;
#X connect 4 0 13 0;
#X connect 4 0 8 0;
#X connect 4 0 15 0;
#X connect 6 0 7 3;
#X connect 6 1 7 4;
#X connect 7 0 5 0;
#X connect 7 1 5 1;
#X connect 8 0 9 0;
#X connect 9 0 7 15;
#X connect 9 1 7 16;
#X connect 10 0 7 7;
#X connect 10 1 7 8;
#X connect 13 0 12 0;
#X connect 14 0 7 1;
#X connect 14 0 7 2;
#X connect 15 0 7 0;
#X connect 16 1 9 0;
#X connect 17 0 6 2;
#X connect 17 1 6 3;
#X connect 18 0 7 5;
#X connect 18 1 7 6;
#X connect 19 0 18 2;
#X connect 19 1 18 3;
#X connect 20 0 10 0;
