#N canvas 2 87 956 954 10;
#X obj 85 -10 inlet;
#X obj 109 136 bng 36 250 50 0 \$0-start empty Start -1 -7 0 14 -262144
-1 -1;
#X obj 156 136 bng 36 250 50 0 \$0-stop empty Stop 2 -7 0 14 -262144
-1 -1;
#X obj 203 136 bng 36 250 50 0 \$0-restart empty Restart -7 -7 0 14
-262144 -1 -1;
#X obj 83 250 r \$0-start;
#X obj 181 251 r \$0-stop;
#X obj 166 -8 inlet;
#X obj 243 -2 inlet;
#X msg 235 280 restart;
#X obj 254 252 r \$0-restart;
#X msg 143 279 stop \, 0;
#X msg 83 278 start \, 1;
#X obj 205 310 outlet stop;
#X obj 310 308 outlet restart;
#X obj 83 306 outlet;
#X obj 263 136 bng 36 250 50 0 \$0-record empty Record -7 -7 0 14 -262144
-1 -1;
#X obj 296 -1 inlet;
#X obj 89 56 route start 1 bang 0 stop restart record;
#X obj 387 253 r \$0-record;
#X obj 457 314 outlet record;
#X msg 366 281 record;
#X connect 0 0 17 0;
#X connect 4 0 11 0;
#X connect 5 0 10 0;
#X connect 5 0 12 0;
#X connect 6 0 2 0;
#X connect 7 0 3 0;
#X connect 8 0 14 0;
#X connect 9 0 8 0;
#X connect 9 0 13 0;
#X connect 10 0 14 0;
#X connect 11 0 14 0;
#X connect 16 0 15 0;
#X connect 17 0 1 0;
#X connect 17 1 1 0;
#X connect 17 2 1 0;
#X connect 17 3 2 0;
#X connect 17 4 2 0;
#X connect 17 5 3 0;
#X connect 17 6 15 0;
#X connect 18 0 19 0;
#X connect 18 0 20 0;
#X connect 20 0 14 0;
#X coords 0 -1 1 1 210 80 1 100 100;
