#N canvas 81 135 690 510 10;
#X obj 173 371 osc~;
#X obj 175 337 mtof;
#X obj 174 467 dac~;
#X floatatom 262 380 5 0 0 0 - - -;
#X obj 292 432 tabwrite~ out;
#X obj 220 345 / 256;
#X floatatom 284 351 5 0 0 0 - - -;
#X obj 171 411 *~;
#X obj 138 -96 bng 15 250 50 0 empty empty start 17 7 0 10 -262144
-1 -1;
#X obj 202 -93 bng 15 250 50 0 empty empty stop 17 7 0 10 -262144 -1
-1;
#X msg 139 -73 1;
#X msg 201 -71 0;
#X floatatom 477 24 5 0 0 0 - - -;
#X obj 404 36 f;
#X obj 405 58 + 1;
#X obj 410 84 % 8;
#X obj 197 81 randomScaleNote;
#X obj 147 -25 ../gui/metroBPM;
#X connect 0 0 4 0;
#X connect 0 0 7 0;
#X connect 1 0 0 0;
#X connect 1 0 3 0;
#X connect 5 0 6 0;
#X connect 5 0 7 1;
#X connect 7 0 2 0;
#X connect 7 0 2 1;
#X connect 8 0 10 0;
#X connect 9 0 11 0;
#X connect 10 0 17 0;
#X connect 11 0 16 0;
#X connect 11 0 17 0;
#X connect 13 0 14 0;
#X connect 14 0 13 1;
#X connect 14 0 15 0;
#X connect 15 0 12 0;
#X connect 15 0 16 1;
#X connect 16 0 1 0;
#X connect 16 1 5 0;
#X connect 17 0 16 0;
#X connect 17 1 13 0;
